<svg id="Layer_1" data-name="Layer 1" xmlns="http://www.w3.org/2000/svg" viewBox="0 0 64 64"><defs><style>.cls-1{fill:#001b72;}</style></defs><path class="cls-1" d="M30.28,50.32a2,2,0,1,1,2,2A2,2,0,0,1,30.28,50.32Z"/><path class="cls-1" d="M45.8,9.75a12.81,12.81,0,0,0-1-1.12l0,0c-.2-.21-.42-.42-.64-.63A16.73,16.73,0,0,0,32.34,3.65,16.82,16.82,0,0,0,20.52,8c-.23.21-.45.42-.65.63l0,0c-.33.33-.63.67-.91,1l-.05.06c-2,2.52-1.21,5.47-1.21,8.84V45.46c0,4.18-.27,7.7,2.86,10.57a16.78,16.78,0,0,0,11.82,4.32A16.69,16.69,0,0,0,44.13,56c3.1-2.87,2.9-6.39,2.9-10.57V18.54C47,15.19,47.79,12.26,45.8,9.75ZM20.07,51.34V12.55a3,3,0,0,1,3.06-3.07H26.4a3,3,0,0,0,2.86,2h6.12a3,3,0,0,0,2.86-2h3.27a3,3,0,0,1,3.06,3.07V51.34a3.07,3.07,0,0,1-3.06,3.06H23.13A3.07,3.07,0,0,1,20.07,51.34Z"/></svg>