<svg id="Layer_1" data-name="Layer 1" xmlns="http://www.w3.org/2000/svg" viewBox="0 0 64 64"><defs><style>.cls-1{fill:#001b72;}</style></defs><path class="cls-1" d="M38.7,32.53H37.54A6.19,6.19,0,0,0,36,28.14a5,5,0,0,0-3.84-1.71H21.43l-6.61,5.18-.71-.92L21,25.28H32.11a6.13,6.13,0,0,1,4.69,2.08A7.38,7.38,0,0,1,38.7,32.53Z"/><path class="cls-1" d="M38.07,38.05H27A6.14,6.14,0,0,1,22.3,36a7.36,7.36,0,0,1-1.89-5.16h1.16a6.18,6.18,0,0,0,1.58,4.38A5,5,0,0,0,27,36.89H37.67l6.61-5.17.72.91Z"/><path class="cls-1" d="M29.67,36.21a4.5,4.5,0,1,1,4.51-4.5A4.51,4.51,0,0,1,29.67,36.21Zm0-7.07a2.57,2.57,0,1,0,2.58,2.57A2.58,2.58,0,0,0,29.67,29.14Z"/></svg>