<svg width="387" height="174" viewBox="0 0 387 174" fill="none" xmlns="http://www.w3.org/2000/svg">
<path d="M35.2905 31.1057L41.7858 31.1057C41.7858 41.1118 44.6004 49.1601 50.6627 55.6858C56.5084 62.2115 63.6533 65.2568 72.0971 65.2568L132.07 65.2568L169.31 36.3263L173.207 41.5468L134.452 72L72.3136 72C61.9212 72 53.0443 68.0846 45.8995 60.2538C38.9712 52.6405 35.2905 42.8519 35.2905 31.1057Z" fill="#001B72"/>
<path d="M38.9712 -0.000108175L100.893 -0.000102762C111.285 -0.000101853 120.162 3.9153 127.307 11.7461C134.452 19.3594 137.916 29.1479 137.916 40.8942L131.421 40.8942C131.421 30.8881 128.606 22.8398 122.544 16.3141C116.698 9.78842 109.553 6.7431 101.109 6.7431L41.1363 6.74309L4.11319 35.8911L-0.000496859 30.6706L38.9712 -0.000108175Z" fill="#001B72"/>
<path d="M85.9516 10.4408C99.8082 10.4408 111.283 21.7519 111.283 35.8909C111.283 50.0299 99.8082 61.1235 85.9516 61.1235C72.095 61.1235 60.62 49.8124 60.62 35.6734C60.62 21.5344 72.095 10.4408 85.9516 10.4408ZM85.9516 50.2474C93.9624 50.2474 100.458 43.7217 100.458 35.6734C100.458 27.625 93.9625 21.0994 85.9516 21.0994C77.9408 21.0994 71.4455 27.625 71.4455 35.6734C71.4455 43.7217 77.9407 50.2474 85.9516 50.2474Z" fill="#001B72"/>
<path d="M208.909 26.052C208.909 27.612 208.398 28.8687 207.375 29.822C206.352 30.7753 204.818 31.252 202.773 31.252H199.107V39H197.287V20.826H202.773C204.801 20.826 206.326 21.3027 207.349 22.256C208.389 23.2093 208.909 24.4747 208.909 26.052ZM202.773 29.692C205.616 29.692 207.037 28.4787 207.037 26.052C207.037 24.8387 206.699 23.92 206.023 23.296C205.347 22.672 204.264 22.36 202.773 22.36H199.107V29.692H202.773ZM213.783 27.326C214.181 26.442 214.788 25.7573 215.603 25.272C216.435 24.7867 217.449 24.544 218.645 24.544V26.442H218.151C216.833 26.442 215.776 26.7973 214.979 27.508C214.181 28.2187 213.783 29.406 213.783 31.07V39H211.963V24.804H213.783V27.326ZM227.597 39.208C226.262 39.208 225.057 38.9133 223.983 38.324C222.925 37.7173 222.085 36.868 221.461 35.776C220.854 34.6667 220.551 33.3753 220.551 31.902C220.551 30.4287 220.863 29.146 221.487 28.054C222.111 26.9447 222.96 26.0953 224.035 25.506C225.109 24.8993 226.314 24.596 227.649 24.596C228.983 24.596 230.188 24.8993 231.263 25.506C232.355 26.0953 233.204 26.9447 233.811 28.054C234.435 29.146 234.747 30.4287 234.747 31.902C234.747 33.358 234.435 34.6407 233.811 35.75C233.187 36.8593 232.329 37.7173 231.237 38.324C230.145 38.9133 228.931 39.208 227.597 39.208ZM227.597 37.622C228.533 37.622 229.399 37.414 230.197 36.998C230.994 36.5647 231.635 35.9233 232.121 35.074C232.623 34.2073 232.875 33.15 232.875 31.902C232.875 30.654 232.632 29.6053 232.147 28.756C231.661 27.8893 231.02 27.248 230.223 26.832C229.425 26.3987 228.559 26.182 227.623 26.182C226.687 26.182 225.82 26.3987 225.023 26.832C224.225 27.248 223.584 27.8893 223.099 28.756C222.631 29.6053 222.397 30.654 222.397 31.902C222.397 33.15 222.631 34.2073 223.099 35.074C223.584 35.9233 224.217 36.5647 224.997 36.998C225.794 37.414 226.661 37.622 227.597 37.622ZM239.104 22.126C238.74 22.126 238.428 21.996 238.168 21.736C237.908 21.476 237.778 21.1553 237.778 20.774C237.778 20.3927 237.908 20.0807 238.168 19.838C238.428 19.578 238.74 19.448 239.104 19.448C239.468 19.448 239.772 19.578 240.014 19.838C240.274 20.0807 240.404 20.3927 240.404 20.774C240.404 21.1553 240.274 21.476 240.014 21.736C239.772 21.996 239.468 22.126 239.104 22.126ZM239.988 42.354C239.988 43.498 239.702 44.3387 239.13 44.876C238.558 45.4307 237.7 45.708 236.556 45.708H235.282V44.148H236.27C236.946 44.148 237.432 44.0007 237.726 43.706C238.021 43.4287 238.168 42.952 238.168 42.276V24.804H239.988V42.354ZM257.002 31.174C257.002 31.798 256.985 32.2747 256.95 32.604H245.172C245.224 33.6787 245.484 34.5973 245.952 35.36C246.42 36.1227 247.035 36.7033 247.798 37.102C248.561 37.4833 249.393 37.674 250.294 37.674C251.473 37.674 252.461 37.388 253.258 36.816C254.073 36.244 254.61 35.4727 254.87 34.502H256.794C256.447 35.8887 255.702 37.024 254.558 37.908C253.431 38.7747 252.01 39.208 250.294 39.208C248.959 39.208 247.763 38.9133 246.706 38.324C245.649 37.7173 244.817 36.868 244.21 35.776C243.621 34.6667 243.326 33.3753 243.326 31.902C243.326 30.4287 243.621 29.1373 244.21 28.028C244.799 26.9187 245.623 26.0693 246.68 25.48C247.737 24.8907 248.942 24.596 250.294 24.596C251.646 24.596 252.825 24.8907 253.83 25.48C254.853 26.0693 255.633 26.8667 256.17 27.872C256.725 28.86 257.002 29.9607 257.002 31.174ZM255.156 31.122C255.173 30.0647 254.957 29.1633 254.506 28.418C254.073 27.6727 253.475 27.1093 252.712 26.728C251.949 26.3467 251.117 26.156 250.216 26.156C248.864 26.156 247.711 26.5893 246.758 27.456C245.805 28.3227 245.276 29.5447 245.172 31.122H255.156ZM259.5 31.902C259.5 30.4287 259.795 29.146 260.384 28.054C260.973 26.9447 261.788 26.0953 262.828 25.506C263.868 24.8993 265.055 24.596 266.39 24.596C268.141 24.596 269.579 25.0293 270.706 25.896C271.85 26.7627 272.587 27.9413 272.916 29.432H270.966C270.723 28.4093 270.195 27.612 269.38 27.04C268.583 26.4507 267.586 26.156 266.39 26.156C265.437 26.156 264.579 26.3727 263.816 26.806C263.053 27.2393 262.447 27.8893 261.996 28.756C261.563 29.6053 261.346 30.654 261.346 31.902C261.346 33.15 261.563 34.2073 261.996 35.074C262.447 35.9407 263.053 36.5907 263.816 37.024C264.579 37.4573 265.437 37.674 266.39 37.674C267.586 37.674 268.583 37.388 269.38 36.816C270.195 36.2267 270.723 35.412 270.966 34.372H272.916C272.587 35.828 271.85 36.998 270.706 37.882C269.562 38.766 268.123 39.208 266.39 39.208C265.055 39.208 263.868 38.9133 262.828 38.324C261.788 37.7173 260.973 36.868 260.384 35.776C259.795 34.6667 259.5 33.3753 259.5 31.902ZM278.643 26.338V35.152C278.643 36.0187 278.808 36.6167 279.137 36.946C279.467 37.2753 280.047 37.44 280.879 37.44H282.543V39H280.593C279.311 39 278.357 38.7053 277.733 38.116C277.109 37.5093 276.797 36.5213 276.797 35.152V26.338H274.821V24.804H276.797V21.242H278.643V24.804H282.543V26.338H278.643ZM196.455 68.9C196.455 67.1147 196.845 65.52 197.625 64.116C198.405 62.6947 199.471 61.594 200.823 60.814C202.175 60.0167 203.683 59.618 205.347 59.618C207.375 59.618 209.108 60.1033 210.547 61.074C212.003 62.0273 213.06 63.3793 213.719 65.13H211.587C211.067 63.8993 210.27 62.9373 209.195 62.244C208.138 61.5507 206.855 61.204 205.347 61.204C204.012 61.204 202.808 61.516 201.733 62.14C200.676 62.764 199.844 63.6653 199.237 64.844C198.63 66.0053 198.327 67.3573 198.327 68.9C198.327 70.4427 198.63 71.7947 199.237 72.956C199.844 74.1173 200.676 75.01 201.733 75.634C202.808 76.258 204.012 76.57 205.347 76.57C206.855 76.57 208.138 76.232 209.195 75.556C210.27 74.8627 211.067 73.9093 211.587 72.696H213.719C213.06 74.4293 212.003 75.7727 210.547 76.726C209.091 77.6793 207.358 78.156 205.347 78.156C203.683 78.156 202.175 77.766 200.823 76.986C199.471 76.1887 198.405 75.088 197.625 73.684C196.845 72.28 196.455 70.6853 196.455 68.9ZM223.56 78.208C222.225 78.208 221.02 77.9133 219.946 77.324C218.888 76.7173 218.048 75.868 217.424 74.776C216.817 73.6667 216.514 72.3753 216.514 70.902C216.514 69.4287 216.826 68.146 217.45 67.054C218.074 65.9447 218.923 65.0953 219.998 64.506C221.072 63.8993 222.277 63.596 223.612 63.596C224.946 63.596 226.151 63.8993 227.226 64.506C228.318 65.0953 229.167 65.9447 229.774 67.054C230.398 68.146 230.71 69.4287 230.71 70.902C230.71 72.358 230.398 73.6407 229.774 74.75C229.15 75.8593 228.292 76.7173 227.2 77.324C226.108 77.9133 224.894 78.208 223.56 78.208ZM223.56 76.622C224.496 76.622 225.362 76.414 226.16 75.998C226.957 75.5647 227.598 74.9233 228.084 74.074C228.586 73.2073 228.838 72.15 228.838 70.902C228.838 69.654 228.595 68.6053 228.11 67.756C227.624 66.8893 226.983 66.248 226.186 65.832C225.388 65.3987 224.522 65.182 223.586 65.182C222.65 65.182 221.783 65.3987 220.986 65.832C220.188 66.248 219.547 66.8893 219.062 67.756C218.594 68.6053 218.36 69.654 218.36 70.902C218.36 72.15 218.594 73.2073 219.062 74.074C219.547 74.9233 220.18 75.5647 220.96 75.998C221.757 76.414 222.624 76.622 223.56 76.622ZM240.683 63.544C242.382 63.544 243.769 64.0727 244.843 65.13C245.918 66.17 246.455 67.6867 246.455 69.68V78H244.661V69.888C244.661 68.3453 244.271 67.1667 243.491 66.352C242.729 65.5373 241.68 65.13 240.345 65.13C238.976 65.13 237.884 65.5633 237.069 66.43C236.255 67.2967 235.847 68.5707 235.847 70.252V78H234.027V63.804H235.847V66.222C236.298 65.3553 236.948 64.6967 237.797 64.246C238.647 63.778 239.609 63.544 240.683 63.544ZM249.648 70.902C249.648 69.4287 249.943 68.146 250.532 67.054C251.122 65.9447 251.936 65.0953 252.976 64.506C254.016 63.8993 255.204 63.596 256.538 63.596C258.289 63.596 259.728 64.0293 260.854 64.896C261.998 65.7627 262.735 66.9413 263.064 68.432H261.114C260.872 67.4093 260.343 66.612 259.528 66.04C258.731 65.4507 257.734 65.156 256.538 65.156C255.585 65.156 254.727 65.3727 253.964 65.806C253.202 66.2393 252.595 66.8893 252.144 67.756C251.711 68.6053 251.494 69.654 251.494 70.902C251.494 72.15 251.711 73.2073 252.144 74.074C252.595 74.9407 253.202 75.5907 253.964 76.024C254.727 76.4573 255.585 76.674 256.538 76.674C257.734 76.674 258.731 76.388 259.528 75.816C260.343 75.2267 260.872 74.412 261.114 73.372H263.064C262.735 74.828 261.998 75.998 260.854 76.882C259.71 77.766 258.272 78.208 256.538 78.208C255.204 78.208 254.016 77.9133 252.976 77.324C251.936 76.7173 251.122 75.868 250.532 74.776C249.943 73.6667 249.648 72.3753 249.648 70.902ZM279.27 70.174C279.27 70.798 279.252 71.2747 279.218 71.604H267.44C267.492 72.6787 267.752 73.5973 268.22 74.36C268.688 75.1227 269.303 75.7033 270.066 76.102C270.828 76.4833 271.66 76.674 272.562 76.674C273.74 76.674 274.728 76.388 275.526 75.816C276.34 75.244 276.878 74.4727 277.138 73.502H279.062C278.715 74.8887 277.97 76.024 276.826 76.908C275.699 77.7747 274.278 78.208 272.562 78.208C271.227 78.208 270.031 77.9133 268.974 77.324C267.916 76.7173 267.084 75.868 266.478 74.776C265.888 73.6667 265.594 72.3753 265.594 70.902C265.594 69.4287 265.888 68.1373 266.478 67.028C267.067 65.9187 267.89 65.0693 268.948 64.48C270.005 63.8907 271.21 63.596 272.562 63.596C273.914 63.596 275.092 63.8907 276.098 64.48C277.12 65.0693 277.9 65.8667 278.438 66.872C278.992 67.86 279.27 68.9607 279.27 70.174ZM277.424 70.122C277.441 69.0647 277.224 68.1633 276.774 67.418C276.34 66.6727 275.742 66.1093 274.98 65.728C274.217 65.3467 273.385 65.156 272.484 65.156C271.132 65.156 269.979 65.5893 269.026 66.456C268.072 67.3227 267.544 68.5447 267.44 70.122H277.424ZM284.394 66.924C284.844 65.9707 285.555 65.182 286.526 64.558C287.514 63.9167 288.684 63.596 290.036 63.596C291.318 63.596 292.471 63.8993 293.494 64.506C294.534 65.0953 295.34 65.9447 295.912 67.054C296.501 68.146 296.796 69.42 296.796 70.876C296.796 72.332 296.501 73.6147 295.912 74.724C295.34 75.8333 294.534 76.6913 293.494 77.298C292.471 77.9047 291.318 78.208 290.036 78.208C288.701 78.208 287.54 77.896 286.552 77.272C285.564 76.6307 284.844 75.8333 284.394 74.88V84.708H282.6V63.804H284.394V66.924ZM294.95 70.876C294.95 69.6973 294.716 68.6833 294.248 67.834C293.797 66.9673 293.173 66.3087 292.376 65.858C291.578 65.4073 290.677 65.182 289.672 65.182C288.701 65.182 287.808 65.416 286.994 65.884C286.196 66.352 285.564 67.0193 285.096 67.886C284.628 68.7527 284.394 69.758 284.394 70.902C284.394 72.046 284.628 73.0513 285.096 73.918C285.564 74.7847 286.196 75.452 286.994 75.92C287.808 76.388 288.701 76.622 289.672 76.622C290.677 76.622 291.578 76.3967 292.376 75.946C293.173 75.478 293.797 74.8107 294.248 73.944C294.716 73.06 294.95 72.0373 294.95 70.876ZM302.51 65.338V74.152C302.51 75.0187 302.675 75.6167 303.004 75.946C303.334 76.2753 303.914 76.44 304.746 76.44H306.41V78H304.46C303.178 78 302.224 77.7053 301.6 77.116C300.976 76.5093 300.664 75.5213 300.664 74.152V65.338H298.688V63.804H300.664V60.242H302.51V63.804H306.41V65.338H302.51ZM310.322 61.126C309.958 61.126 309.646 60.996 309.386 60.736C309.126 60.476 308.996 60.1553 308.996 59.774C308.996 59.3927 309.126 59.0807 309.386 58.838C309.646 58.578 309.958 58.448 310.322 58.448C310.686 58.448 310.998 58.578 311.258 58.838C311.518 59.0807 311.648 59.3927 311.648 59.774C311.648 60.1553 311.518 60.476 311.258 60.736C310.998 60.996 310.686 61.126 310.322 61.126ZM311.232 63.804V78H309.412V63.804H311.232ZM321.567 78.208C320.233 78.208 319.028 77.9133 317.953 77.324C316.896 76.7173 316.055 75.868 315.431 74.776C314.825 73.6667 314.521 72.3753 314.521 70.902C314.521 69.4287 314.833 68.146 315.457 67.054C316.081 65.9447 316.931 65.0953 318.005 64.506C319.08 63.8993 320.285 63.596 321.619 63.596C322.954 63.596 324.159 63.8993 325.233 64.506C326.325 65.0953 327.175 65.9447 327.781 67.054C328.405 68.146 328.717 69.4287 328.717 70.902C328.717 72.358 328.405 73.6407 327.781 74.75C327.157 75.8593 326.299 76.7173 325.207 77.324C324.115 77.9133 322.902 78.208 321.567 78.208ZM321.567 76.622C322.503 76.622 323.37 76.414 324.167 75.998C324.965 75.5647 325.606 74.9233 326.091 74.074C326.594 73.2073 326.845 72.15 326.845 70.902C326.845 69.654 326.603 68.6053 326.117 67.756C325.632 66.8893 324.991 66.248 324.193 65.832C323.396 65.3987 322.529 65.182 321.593 65.182C320.657 65.182 319.791 65.3987 318.993 65.832C318.196 66.248 317.555 66.8893 317.069 67.756C316.601 68.6053 316.367 69.654 316.367 70.902C316.367 72.15 316.601 73.2073 317.069 74.074C317.555 74.9233 318.187 75.5647 318.967 75.998C319.765 76.414 320.631 76.622 321.567 76.622ZM338.691 63.544C340.39 63.544 341.776 64.0727 342.851 65.13C343.926 66.17 344.463 67.6867 344.463 69.68V78H342.669V69.888C342.669 68.3453 342.279 67.1667 341.499 66.352C340.736 65.5373 339.688 65.13 338.353 65.13C336.984 65.13 335.892 65.5633 335.077 66.43C334.262 67.2967 333.855 68.5707 333.855 70.252V78H332.035V63.804H333.855V66.222C334.306 65.3553 334.956 64.6967 335.805 64.246C336.654 63.778 337.616 63.544 338.691 63.544Z" fill="#001B72"/>
<path d="M14.704 122.848C15.92 122.848 16.9707 123.077 17.856 123.536C18.752 123.984 19.4347 124.629 19.904 125.472C20.384 126.315 20.624 127.307 20.624 128.448C20.624 129.589 20.384 130.581 19.904 131.424C19.4347 132.256 18.752 132.896 17.856 133.344C16.9707 133.781 15.92 134 14.704 134H11.232V122.848H14.704ZM14.704 132.8C16.144 132.8 17.2427 132.421 18 131.664C18.7573 130.896 19.136 129.824 19.136 128.448C19.136 127.061 18.752 125.979 17.984 125.2C17.2267 124.421 16.1333 124.032 14.704 124.032H12.688V132.8H14.704ZM23.2965 123.808C23.0192 123.808 22.7845 123.712 22.5925 123.52C22.4005 123.328 22.3045 123.093 22.3045 122.816C22.3045 122.539 22.4005 122.304 22.5925 122.112C22.7845 121.92 23.0192 121.824 23.2965 121.824C23.5632 121.824 23.7872 121.92 23.9685 122.112C24.1605 122.304 24.2565 122.539 24.2565 122.816C24.2565 123.093 24.1605 123.328 23.9685 123.52C23.7872 123.712 23.5632 123.808 23.2965 123.808ZM24.0005 125.232V134H22.5445V125.232H24.0005ZM29.586 134.144C28.914 134.144 28.3113 134.032 27.778 133.808C27.2447 133.573 26.8233 133.253 26.514 132.848C26.2047 132.432 26.034 131.957 26.002 131.424H27.506C27.5487 131.861 27.7513 132.219 28.114 132.496C28.4873 132.773 28.9727 132.912 29.57 132.912C30.1247 132.912 30.562 132.789 30.882 132.544C31.202 132.299 31.362 131.989 31.362 131.616C31.362 131.232 31.1913 130.949 30.85 130.768C30.5087 130.576 29.9807 130.389 29.266 130.208C28.6153 130.037 28.082 129.867 27.666 129.696C27.2607 129.515 26.9087 129.253 26.61 128.912C26.322 128.56 26.178 128.101 26.178 127.536C26.178 127.088 26.3113 126.677 26.578 126.304C26.8447 125.931 27.2233 125.637 27.714 125.424C28.2047 125.2 28.7647 125.088 29.394 125.088C30.3647 125.088 31.1487 125.333 31.746 125.824C32.3433 126.315 32.6633 126.987 32.706 127.84H31.25C31.218 127.381 31.0313 127.013 30.69 126.736C30.3593 126.459 29.9113 126.32 29.346 126.32C28.8233 126.32 28.4073 126.432 28.098 126.656C27.7887 126.88 27.634 127.173 27.634 127.536C27.634 127.824 27.7247 128.064 27.906 128.256C28.098 128.437 28.3327 128.587 28.61 128.704C28.898 128.811 29.2927 128.933 29.794 129.072C30.4233 129.243 30.9353 129.413 31.33 129.584C31.7247 129.744 32.0607 129.989 32.338 130.32C32.626 130.651 32.7753 131.083 32.786 131.616C32.786 132.096 32.6527 132.528 32.386 132.912C32.1193 133.296 31.7407 133.6 31.25 133.824C30.77 134.037 30.2153 134.144 29.586 134.144ZM34.2974 129.6C34.2974 128.693 34.4787 127.904 34.8414 127.232C35.204 126.549 35.7054 126.021 36.3454 125.648C36.996 125.275 37.7374 125.088 38.5694 125.088C39.6467 125.088 40.532 125.349 41.2254 125.872C41.9294 126.395 42.3934 127.12 42.6174 128.048H41.0494C40.9 127.515 40.6067 127.093 40.1694 126.784C39.7427 126.475 39.2094 126.32 38.5694 126.32C37.7374 126.32 37.0654 126.608 36.5534 127.184C36.0414 127.749 35.7854 128.555 35.7854 129.6C35.7854 130.656 36.0414 131.472 36.5534 132.048C37.0654 132.624 37.7374 132.912 38.5694 132.912C39.2094 132.912 39.7427 132.763 40.1694 132.464C40.596 132.165 40.8894 131.739 41.0494 131.184H42.6174C42.3827 132.08 41.9134 132.8 41.2094 133.344C40.5054 133.877 39.6254 134.144 38.5694 134.144C37.7374 134.144 36.996 133.957 36.3454 133.584C35.7054 133.211 35.204 132.683 34.8414 132C34.4787 131.317 34.2974 130.517 34.2974 129.6ZM52.3361 125.232V134H50.8801V132.704C50.6028 133.152 50.2135 133.504 49.7121 133.76C49.2215 134.005 48.6775 134.128 48.0801 134.128C47.3975 134.128 46.7841 133.989 46.2401 133.712C45.6961 133.424 45.2641 132.997 44.9441 132.432C44.6348 131.867 44.4801 131.179 44.4801 130.368V125.232H45.9201V130.176C45.9201 131.04 46.1388 131.707 46.5761 132.176C47.0135 132.635 47.6108 132.864 48.3681 132.864C49.1468 132.864 49.7601 132.624 50.2081 132.144C50.6561 131.664 50.8801 130.965 50.8801 130.048V125.232H52.3361ZM57.8985 134.144C57.2265 134.144 56.6238 134.032 56.0905 133.808C55.5572 133.573 55.1358 133.253 54.8265 132.848C54.5172 132.432 54.3465 131.957 54.3145 131.424H55.8185C55.8612 131.861 56.0638 132.219 56.4265 132.496C56.7998 132.773 57.2852 132.912 57.8825 132.912C58.4372 132.912 58.8745 132.789 59.1945 132.544C59.5145 132.299 59.6745 131.989 59.6745 131.616C59.6745 131.232 59.5038 130.949 59.1625 130.768C58.8212 130.576 58.2932 130.389 57.5785 130.208C56.9278 130.037 56.3945 129.867 55.9785 129.696C55.5732 129.515 55.2212 129.253 54.9225 128.912C54.6345 128.56 54.4905 128.101 54.4905 127.536C54.4905 127.088 54.6238 126.677 54.8905 126.304C55.1572 125.931 55.5358 125.637 56.0265 125.424C56.5172 125.2 57.0772 125.088 57.7065 125.088C58.6772 125.088 59.4612 125.333 60.0585 125.824C60.6558 126.315 60.9758 126.987 61.0185 127.84H59.5625C59.5305 127.381 59.3438 127.013 59.0025 126.736C58.6718 126.459 58.2238 126.32 57.6585 126.32C57.1358 126.32 56.7198 126.432 56.4105 126.656C56.1012 126.88 55.9465 127.173 55.9465 127.536C55.9465 127.824 56.0372 128.064 56.2185 128.256C56.4105 128.437 56.6452 128.587 56.9225 128.704C57.2105 128.811 57.6052 128.933 58.1065 129.072C58.7358 129.243 59.2478 129.413 59.6425 129.584C60.0372 129.744 60.3732 129.989 60.6505 130.32C60.9385 130.651 61.0878 131.083 61.0985 131.616C61.0985 132.096 60.9652 132.528 60.6985 132.912C60.4318 133.296 60.0532 133.6 59.5625 133.824C59.0825 134.037 58.5278 134.144 57.8985 134.144ZM66.2579 134.144C65.5859 134.144 64.9832 134.032 64.4499 133.808C63.9165 133.573 63.4952 133.253 63.1859 132.848C62.8765 132.432 62.7059 131.957 62.6739 131.424H64.1779C64.2205 131.861 64.4232 132.219 64.7859 132.496C65.1592 132.773 65.6445 132.912 66.2419 132.912C66.7965 132.912 67.2339 132.789 67.5539 132.544C67.8739 132.299 68.0339 131.989 68.0339 131.616C68.0339 131.232 67.8632 130.949 67.5219 130.768C67.1805 130.576 66.6525 130.389 65.9379 130.208C65.2872 130.037 64.7539 129.867 64.3379 129.696C63.9325 129.515 63.5805 129.253 63.2819 128.912C62.9939 128.56 62.8499 128.101 62.8499 127.536C62.8499 127.088 62.9832 126.677 63.2499 126.304C63.5165 125.931 63.8952 125.637 64.3859 125.424C64.8765 125.2 65.4365 125.088 66.0659 125.088C67.0365 125.088 67.8205 125.333 68.4179 125.824C69.0152 126.315 69.3352 126.987 69.3779 127.84H67.9219C67.8899 127.381 67.7032 127.013 67.3619 126.736C67.0312 126.459 66.5832 126.32 66.0179 126.32C65.4952 126.32 65.0792 126.432 64.7699 126.656C64.4605 126.88 64.3059 127.173 64.3059 127.536C64.3059 127.824 64.3965 128.064 64.5779 128.256C64.7699 128.437 65.0045 128.587 65.2819 128.704C65.5699 128.811 65.9645 128.933 66.4659 129.072C67.0952 129.243 67.6072 129.413 68.0019 129.584C68.3965 129.744 68.7325 129.989 69.0099 130.32C69.2979 130.651 69.4472 131.083 69.4579 131.616C69.4579 132.096 69.3245 132.528 69.0579 132.912C68.7912 133.296 68.4125 133.6 67.9219 133.824C67.4419 134.037 66.8872 134.144 66.2579 134.144ZM83.3309 125.232L78.0509 138.128H76.5469L78.2749 133.904L74.7389 125.232H76.3549L79.1069 132.336L81.8269 125.232H83.3309ZM88.6185 134.144C87.7972 134.144 87.0505 133.957 86.3785 133.584C85.7172 133.211 85.1945 132.683 84.8105 132C84.4372 131.307 84.2505 130.507 84.2505 129.6C84.2505 128.704 84.4425 127.915 84.8265 127.232C85.2212 126.539 85.7545 126.011 86.4265 125.648C87.0985 125.275 87.8505 125.088 88.6825 125.088C89.5145 125.088 90.2665 125.275 90.9385 125.648C91.6105 126.011 92.1385 126.533 92.5225 127.216C92.9172 127.899 93.1145 128.693 93.1145 129.6C93.1145 130.507 92.9118 131.307 92.5065 132C92.1118 132.683 91.5732 133.211 90.8905 133.584C90.2078 133.957 89.4505 134.144 88.6185 134.144ZM88.6185 132.864C89.1412 132.864 89.6318 132.741 90.0905 132.496C90.5492 132.251 90.9172 131.883 91.1945 131.392C91.4825 130.901 91.6265 130.304 91.6265 129.6C91.6265 128.896 91.4878 128.299 91.2105 127.808C90.9332 127.317 90.5705 126.955 90.1225 126.72C89.6745 126.475 89.1892 126.352 88.6665 126.352C88.1332 126.352 87.6425 126.475 87.1945 126.72C86.7572 126.955 86.4052 127.317 86.1385 127.808C85.8718 128.299 85.7385 128.896 85.7385 129.6C85.7385 130.315 85.8665 130.917 86.1225 131.408C86.3892 131.899 86.7412 132.267 87.1785 132.512C87.6158 132.747 88.0958 132.864 88.6185 132.864ZM102.805 125.232V134H101.349V132.704C101.072 133.152 100.682 133.504 100.181 133.76C99.6902 134.005 99.1462 134.128 98.5489 134.128C97.8662 134.128 97.2529 133.989 96.7089 133.712C96.1649 133.424 95.7329 132.997 95.4129 132.432C95.1035 131.867 94.9489 131.179 94.9489 130.368V125.232H96.3889V130.176C96.3889 131.04 96.6075 131.707 97.0449 132.176C97.4822 132.635 98.0795 132.864 98.8369 132.864C99.6155 132.864 100.229 132.624 100.677 132.144C101.125 131.664 101.349 130.965 101.349 130.048V125.232H102.805ZM106.719 126.656C106.975 126.155 107.338 125.765 107.807 125.488C108.287 125.211 108.869 125.072 109.551 125.072V126.576H109.167C107.535 126.576 106.719 127.461 106.719 129.232V134H105.263V125.232H106.719V126.656ZM119.77 125.072C120.836 125.072 121.7 125.397 122.362 126.048C123.023 126.688 123.354 127.616 123.354 128.832V134H121.914V129.04C121.914 128.165 121.695 127.499 121.258 127.04C120.82 126.571 120.223 126.336 119.466 126.336C118.698 126.336 118.084 126.576 117.626 127.056C117.178 127.536 116.954 128.235 116.954 129.152V134H115.498V125.232H116.954V126.48C117.242 126.032 117.631 125.685 118.122 125.44C118.623 125.195 119.172 125.072 119.77 125.072ZM133.732 129.28C133.732 129.557 133.716 129.851 133.684 130.16H126.676C126.729 131.024 127.023 131.701 127.556 132.192C128.1 132.672 128.756 132.912 129.524 132.912C130.153 132.912 130.676 132.768 131.092 132.48C131.519 132.181 131.817 131.787 131.988 131.296H133.556C133.321 132.139 132.852 132.827 132.148 133.36C131.444 133.883 130.569 134.144 129.524 134.144C128.692 134.144 127.945 133.957 127.284 133.584C126.633 133.211 126.121 132.683 125.748 132C125.375 131.307 125.188 130.507 125.188 129.6C125.188 128.693 125.369 127.899 125.732 127.216C126.095 126.533 126.601 126.011 127.252 125.648C127.913 125.275 128.671 125.088 129.524 125.088C130.356 125.088 131.092 125.269 131.732 125.632C132.372 125.995 132.863 126.496 133.204 127.136C133.556 127.765 133.732 128.48 133.732 129.28ZM132.228 128.976C132.228 128.421 132.105 127.947 131.86 127.552C131.615 127.147 131.279 126.843 130.852 126.64C130.436 126.427 129.972 126.32 129.46 126.32C128.724 126.32 128.095 126.555 127.572 127.024C127.06 127.493 126.767 128.144 126.692 128.976H132.228ZM143.654 129.28C143.654 129.557 143.638 129.851 143.606 130.16H136.598C136.651 131.024 136.945 131.701 137.478 132.192C138.022 132.672 138.678 132.912 139.446 132.912C140.075 132.912 140.598 132.768 141.014 132.48C141.441 132.181 141.739 131.787 141.91 131.296H143.478C143.243 132.139 142.774 132.827 142.07 133.36C141.366 133.883 140.491 134.144 139.446 134.144C138.614 134.144 137.867 133.957 137.206 133.584C136.555 133.211 136.043 132.683 135.67 132C135.297 131.307 135.11 130.507 135.11 129.6C135.11 128.693 135.291 127.899 135.654 127.216C136.017 126.533 136.523 126.011 137.174 125.648C137.835 125.275 138.593 125.088 139.446 125.088C140.278 125.088 141.014 125.269 141.654 125.632C142.294 125.995 142.785 126.496 143.126 127.136C143.478 127.765 143.654 128.48 143.654 129.28ZM142.15 128.976C142.15 128.421 142.027 127.947 141.782 127.552C141.537 127.147 141.201 126.843 140.774 126.64C140.358 126.427 139.894 126.32 139.382 126.32C138.646 126.32 138.017 126.555 137.494 127.024C136.982 127.493 136.689 128.144 136.614 128.976H142.15ZM145.032 129.584C145.032 128.688 145.213 127.904 145.576 127.232C145.938 126.549 146.434 126.021 147.064 125.648C147.704 125.275 148.418 125.088 149.208 125.088C149.89 125.088 150.525 125.248 151.112 125.568C151.698 125.877 152.146 126.288 152.456 126.8V122.16H153.928V134H152.456V132.352C152.168 132.875 151.741 133.307 151.176 133.648C150.61 133.979 149.949 134.144 149.192 134.144C148.413 134.144 147.704 133.952 147.064 133.568C146.434 133.184 145.938 132.645 145.576 131.952C145.213 131.259 145.032 130.469 145.032 129.584ZM152.456 129.6C152.456 128.939 152.322 128.363 152.056 127.872C151.789 127.381 151.426 127.008 150.968 126.752C150.52 126.485 150.024 126.352 149.48 126.352C148.936 126.352 148.44 126.48 147.992 126.736C147.544 126.992 147.186 127.365 146.92 127.856C146.653 128.347 146.52 128.923 146.52 129.584C146.52 130.256 146.653 130.843 146.92 131.344C147.186 131.835 147.544 132.213 147.992 132.48C148.44 132.736 148.936 132.864 149.48 132.864C150.024 132.864 150.52 132.736 150.968 132.48C151.426 132.213 151.789 131.835 152.056 131.344C152.322 130.843 152.456 130.261 152.456 129.6ZM159.492 134.144C158.82 134.144 158.218 134.032 157.684 133.808C157.151 133.573 156.73 133.253 156.42 132.848C156.111 132.432 155.94 131.957 155.908 131.424H157.412C157.455 131.861 157.658 132.219 158.02 132.496C158.394 132.773 158.879 132.912 159.476 132.912C160.031 132.912 160.468 132.789 160.788 132.544C161.108 132.299 161.268 131.989 161.268 131.616C161.268 131.232 161.098 130.949 160.756 130.768C160.415 130.576 159.887 130.389 159.172 130.208C158.522 130.037 157.988 129.867 157.572 129.696C157.167 129.515 156.815 129.253 156.516 128.912C156.228 128.56 156.084 128.101 156.084 127.536C156.084 127.088 156.218 126.677 156.484 126.304C156.751 125.931 157.13 125.637 157.62 125.424C158.111 125.2 158.671 125.088 159.3 125.088C160.271 125.088 161.055 125.333 161.652 125.824C162.25 126.315 162.57 126.987 162.612 127.84H161.156C161.124 127.381 160.938 127.013 160.596 126.736C160.266 126.459 159.818 126.32 159.252 126.32C158.73 126.32 158.314 126.432 158.004 126.656C157.695 126.88 157.54 127.173 157.54 127.536C157.54 127.824 157.631 128.064 157.812 128.256C158.004 128.437 158.239 128.587 158.516 128.704C158.804 128.811 159.199 128.933 159.7 129.072C160.33 129.243 160.842 129.413 161.236 129.584C161.631 129.744 161.967 129.989 162.244 130.32C162.532 130.651 162.682 131.083 162.692 131.616C162.692 132.096 162.559 132.528 162.292 132.912C162.026 133.296 161.647 133.6 161.156 133.824C160.676 134.037 160.122 134.144 159.492 134.144ZM168.469 129.584C168.469 128.688 168.651 127.904 169.013 127.232C169.376 126.549 169.872 126.021 170.501 125.648C171.141 125.275 171.851 125.088 172.629 125.088C173.397 125.088 174.064 125.253 174.629 125.584C175.195 125.915 175.616 126.331 175.893 126.832V125.232H177.365V134H175.893V132.368C175.605 132.88 175.173 133.307 174.597 133.648C174.032 133.979 173.371 134.144 172.613 134.144C171.835 134.144 171.131 133.952 170.501 133.568C169.872 133.184 169.376 132.645 169.013 131.952C168.651 131.259 168.469 130.469 168.469 129.584ZM175.893 129.6C175.893 128.939 175.76 128.363 175.493 127.872C175.227 127.381 174.864 127.008 174.405 126.752C173.957 126.485 173.461 126.352 172.917 126.352C172.373 126.352 171.877 126.48 171.429 126.736C170.981 126.992 170.624 127.365 170.357 127.856C170.091 128.347 169.957 128.923 169.957 129.584C169.957 130.256 170.091 130.843 170.357 131.344C170.624 131.835 170.981 132.213 171.429 132.48C171.877 132.736 172.373 132.864 172.917 132.864C173.461 132.864 173.957 132.736 174.405 132.48C174.864 132.213 175.227 131.835 175.493 131.344C175.76 130.843 175.893 130.261 175.893 129.6ZM184.098 125.072C185.164 125.072 186.028 125.397 186.69 126.048C187.351 126.688 187.682 127.616 187.682 128.832V134H186.242V129.04C186.242 128.165 186.023 127.499 185.586 127.04C185.148 126.571 184.551 126.336 183.794 126.336C183.026 126.336 182.412 126.576 181.954 127.056C181.506 127.536 181.282 128.235 181.282 129.152V134H179.826V125.232H181.282V126.48C181.57 126.032 181.959 125.685 182.45 125.44C182.951 125.195 183.5 125.072 184.098 125.072ZM189.516 129.584C189.516 128.688 189.697 127.904 190.06 127.232C190.423 126.549 190.919 126.021 191.548 125.648C192.188 125.275 192.903 125.088 193.692 125.088C194.375 125.088 195.009 125.248 195.596 125.568C196.183 125.877 196.631 126.288 196.94 126.8V122.16H198.412V134H196.94V132.352C196.652 132.875 196.225 133.307 195.66 133.648C195.095 133.979 194.433 134.144 193.676 134.144C192.897 134.144 192.188 133.952 191.548 133.568C190.919 133.184 190.423 132.645 190.06 131.952C189.697 131.259 189.516 130.469 189.516 129.584ZM196.94 129.6C196.94 128.939 196.807 128.363 196.54 127.872C196.273 127.381 195.911 127.008 195.452 126.752C195.004 126.485 194.508 126.352 193.964 126.352C193.42 126.352 192.924 126.48 192.476 126.736C192.028 126.992 191.671 127.365 191.404 127.856C191.137 128.347 191.004 128.923 191.004 129.584C191.004 130.256 191.137 130.843 191.404 131.344C191.671 131.835 192.028 132.213 192.476 132.48C192.924 132.736 193.42 132.864 193.964 132.864C194.508 132.864 195.004 132.736 195.452 132.48C195.911 132.213 196.273 131.835 196.54 131.344C196.807 130.843 196.94 130.261 196.94 129.6ZM204.594 129.584C204.594 128.688 204.776 127.904 205.138 127.232C205.501 126.549 205.997 126.021 206.626 125.648C207.266 125.275 207.976 125.088 208.754 125.088C209.522 125.088 210.189 125.253 210.754 125.584C211.32 125.915 211.741 126.331 212.018 126.832V125.232H213.49V134H212.018V132.368C211.73 132.88 211.298 133.307 210.722 133.648C210.157 133.979 209.496 134.144 208.738 134.144C207.96 134.144 207.256 133.952 206.626 133.568C205.997 133.184 205.501 132.645 205.138 131.952C204.776 131.259 204.594 130.469 204.594 129.584ZM212.018 129.6C212.018 128.939 211.885 128.363 211.618 127.872C211.352 127.381 210.989 127.008 210.53 126.752C210.082 126.485 209.586 126.352 209.042 126.352C208.498 126.352 208.002 126.48 207.554 126.736C207.106 126.992 206.749 127.365 206.482 127.856C206.216 128.347 206.082 128.923 206.082 129.584C206.082 130.256 206.216 130.843 206.482 131.344C206.749 131.835 207.106 132.213 207.554 132.48C208.002 132.736 208.498 132.864 209.042 132.864C209.586 132.864 210.082 132.736 210.53 132.48C210.989 132.213 211.352 131.835 211.618 131.344C211.885 130.843 212.018 130.261 212.018 129.6ZM219.055 134.144C218.383 134.144 217.78 134.032 217.247 133.808C216.713 133.573 216.292 133.253 215.983 132.848C215.673 132.432 215.503 131.957 215.471 131.424H216.975C217.017 131.861 217.22 132.219 217.583 132.496C217.956 132.773 218.441 132.912 219.039 132.912C219.593 132.912 220.031 132.789 220.351 132.544C220.671 132.299 220.831 131.989 220.831 131.616C220.831 131.232 220.66 130.949 220.319 130.768C219.977 130.576 219.449 130.389 218.735 130.208C218.084 130.037 217.551 129.867 217.135 129.696C216.729 129.515 216.377 129.253 216.079 128.912C215.791 128.56 215.647 128.101 215.647 127.536C215.647 127.088 215.78 126.677 216.047 126.304C216.313 125.931 216.692 125.637 217.183 125.424C217.673 125.2 218.233 125.088 218.863 125.088C219.833 125.088 220.617 125.333 221.215 125.824C221.812 126.315 222.132 126.987 222.175 127.84H220.719C220.687 127.381 220.5 127.013 220.159 126.736C219.828 126.459 219.38 126.32 218.815 126.32C218.292 126.32 217.876 126.432 217.567 126.656C217.257 126.88 217.103 127.173 217.103 127.536C217.103 127.824 217.193 128.064 217.375 128.256C217.567 128.437 217.801 128.587 218.079 128.704C218.367 128.811 218.761 128.933 219.263 129.072C219.892 129.243 220.404 129.413 220.799 129.584C221.193 129.744 221.529 129.989 221.807 130.32C222.095 130.651 222.244 131.083 222.255 131.616C222.255 132.096 222.121 132.528 221.855 132.912C221.588 133.296 221.209 133.6 220.719 133.824C220.239 134.037 219.684 134.144 219.055 134.144ZM225.766 126.848C226.054 126.347 226.481 125.931 227.046 125.6C227.622 125.259 228.289 125.088 229.046 125.088C229.825 125.088 230.529 125.275 231.158 125.648C231.798 126.021 232.299 126.549 232.662 127.232C233.025 127.904 233.206 128.688 233.206 129.584C233.206 130.469 233.025 131.259 232.662 131.952C232.299 132.645 231.798 133.184 231.158 133.568C230.529 133.952 229.825 134.144 229.046 134.144C228.299 134.144 227.638 133.979 227.062 133.648C226.497 133.307 226.065 132.885 225.766 132.384V138.16H224.31V125.232H225.766V126.848ZM231.718 129.584C231.718 128.923 231.585 128.347 231.318 127.856C231.051 127.365 230.689 126.992 230.23 126.736C229.782 126.48 229.286 126.352 228.742 126.352C228.209 126.352 227.713 126.485 227.254 126.752C226.806 127.008 226.443 127.387 226.166 127.888C225.899 128.379 225.766 128.949 225.766 129.6C225.766 130.261 225.899 130.843 226.166 131.344C226.443 131.835 226.806 132.213 227.254 132.48C227.713 132.736 228.209 132.864 228.742 132.864C229.286 132.864 229.782 132.736 230.23 132.48C230.689 132.213 231.051 131.835 231.318 131.344C231.585 130.843 231.718 130.256 231.718 129.584ZM235.875 123.808C235.597 123.808 235.363 123.712 235.171 123.52C234.979 123.328 234.883 123.093 234.883 122.816C234.883 122.539 234.979 122.304 235.171 122.112C235.363 121.92 235.597 121.824 235.875 121.824C236.141 121.824 236.365 121.92 236.547 122.112C236.739 122.304 236.835 122.539 236.835 122.816C236.835 123.093 236.739 123.328 236.547 123.52C236.365 123.712 236.141 123.808 235.875 123.808ZM236.579 125.232V134H235.123V125.232H236.579ZM240.516 126.656C240.772 126.155 241.135 125.765 241.604 125.488C242.084 125.211 242.665 125.072 243.348 125.072V126.576H242.964C241.332 126.576 240.516 127.461 240.516 129.232V134H239.06V125.232H240.516V126.656ZM244.485 129.584C244.485 128.688 244.666 127.904 245.029 127.232C245.392 126.549 245.888 126.021 246.517 125.648C247.157 125.275 247.866 125.088 248.645 125.088C249.413 125.088 250.08 125.253 250.645 125.584C251.21 125.915 251.632 126.331 251.909 126.832V125.232H253.381V134H251.909V132.368C251.621 132.88 251.189 133.307 250.613 133.648C250.048 133.979 249.386 134.144 248.629 134.144C247.85 134.144 247.146 133.952 246.517 133.568C245.888 133.184 245.392 132.645 245.029 131.952C244.666 131.259 244.485 130.469 244.485 129.584ZM251.909 129.6C251.909 128.939 251.776 128.363 251.509 127.872C251.242 127.381 250.88 127.008 250.421 126.752C249.973 126.485 249.477 126.352 248.933 126.352C248.389 126.352 247.893 126.48 247.445 126.736C246.997 126.992 246.64 127.365 246.373 127.856C246.106 128.347 245.973 128.923 245.973 129.584C245.973 130.256 246.106 130.843 246.373 131.344C246.64 131.835 246.997 132.213 247.445 132.48C247.893 132.736 248.389 132.864 248.933 132.864C249.477 132.864 249.973 132.736 250.421 132.48C250.88 132.213 251.242 131.835 251.509 131.344C251.776 130.843 251.909 130.261 251.909 129.6ZM257.617 126.432V131.6C257.617 132.027 257.708 132.331 257.889 132.512C258.071 132.683 258.385 132.768 258.833 132.768H259.905V134H258.593C257.783 134 257.175 133.813 256.769 133.44C256.364 133.067 256.161 132.453 256.161 131.6V126.432H255.025V125.232H256.161V123.024H257.617V125.232H259.905V126.432H257.617ZM262.422 123.808C262.144 123.808 261.91 123.712 261.718 123.52C261.526 123.328 261.43 123.093 261.43 122.816C261.43 122.539 261.526 122.304 261.718 122.112C261.91 121.92 262.144 121.824 262.422 121.824C262.688 121.824 262.912 121.92 263.094 122.112C263.286 122.304 263.382 122.539 263.382 122.816C263.382 123.093 263.286 123.328 263.094 123.52C262.912 123.712 262.688 123.808 262.422 123.808ZM263.126 125.232V134H261.67V125.232H263.126ZM269.431 134.144C268.61 134.144 267.863 133.957 267.191 133.584C266.53 133.211 266.007 132.683 265.623 132C265.25 131.307 265.063 130.507 265.063 129.6C265.063 128.704 265.255 127.915 265.639 127.232C266.034 126.539 266.567 126.011 267.239 125.648C267.911 125.275 268.663 125.088 269.495 125.088C270.327 125.088 271.079 125.275 271.751 125.648C272.423 126.011 272.951 126.533 273.335 127.216C273.73 127.899 273.927 128.693 273.927 129.6C273.927 130.507 273.724 131.307 273.319 132C272.924 132.683 272.386 133.211 271.703 133.584C271.02 133.957 270.263 134.144 269.431 134.144ZM269.431 132.864C269.954 132.864 270.444 132.741 270.903 132.496C271.362 132.251 271.73 131.883 272.007 131.392C272.295 130.901 272.439 130.304 272.439 129.6C272.439 128.896 272.3 128.299 272.023 127.808C271.746 127.317 271.383 126.955 270.935 126.72C270.487 126.475 270.002 126.352 269.479 126.352C268.946 126.352 268.455 126.475 268.007 126.72C267.57 126.955 267.218 127.317 266.951 127.808C266.684 128.299 266.551 128.896 266.551 129.6C266.551 130.315 266.679 130.917 266.935 131.408C267.202 131.899 267.554 132.267 267.991 132.512C268.428 132.747 268.908 132.864 269.431 132.864ZM280.113 125.072C281.18 125.072 282.044 125.397 282.705 126.048C283.367 126.688 283.697 127.616 283.697 128.832V134H282.257V129.04C282.257 128.165 282.039 127.499 281.601 127.04C281.164 126.571 280.567 126.336 279.809 126.336C279.041 126.336 278.428 126.576 277.969 127.056C277.521 127.536 277.297 128.235 277.297 129.152V134H275.841V125.232H277.297V126.48C277.585 126.032 277.975 125.685 278.465 125.44C278.967 125.195 279.516 125.072 280.113 125.072ZM289.18 134.144C288.508 134.144 287.905 134.032 287.372 133.808C286.838 133.573 286.417 133.253 286.108 132.848C285.798 132.432 285.628 131.957 285.596 131.424H287.1C287.142 131.861 287.345 132.219 287.708 132.496C288.081 132.773 288.566 132.912 289.164 132.912C289.718 132.912 290.156 132.789 290.476 132.544C290.796 132.299 290.956 131.989 290.956 131.616C290.956 131.232 290.785 130.949 290.444 130.768C290.102 130.576 289.574 130.389 288.86 130.208C288.209 130.037 287.676 129.867 287.26 129.696C286.854 129.515 286.502 129.253 286.204 128.912C285.916 128.56 285.772 128.101 285.772 127.536C285.772 127.088 285.905 126.677 286.172 126.304C286.438 125.931 286.817 125.637 287.308 125.424C287.798 125.2 288.358 125.088 288.988 125.088C289.958 125.088 290.742 125.333 291.34 125.824C291.937 126.315 292.257 126.987 292.3 127.84H290.844C290.812 127.381 290.625 127.013 290.284 126.736C289.953 126.459 289.505 126.32 288.94 126.32C288.417 126.32 288.001 126.432 287.692 126.656C287.382 126.88 287.228 127.173 287.228 127.536C287.228 127.824 287.318 128.064 287.5 128.256C287.692 128.437 287.926 128.587 288.204 128.704C288.492 128.811 288.886 128.933 289.388 129.072C290.017 129.243 290.529 129.413 290.924 129.584C291.318 129.744 291.654 129.989 291.932 130.32C292.22 130.651 292.369 131.083 292.38 131.616C292.38 132.096 292.246 132.528 291.98 132.912C291.713 133.296 291.334 133.6 290.844 133.824C290.364 134.037 289.809 134.144 289.18 134.144ZM300.477 126.432V131.6C300.477 132.027 300.567 132.331 300.749 132.512C300.93 132.683 301.245 132.768 301.693 132.768H302.765V134H301.453C300.642 134 300.034 133.813 299.629 133.44C299.223 133.067 299.021 132.453 299.021 131.6V126.432H297.885V125.232H299.021V123.024H300.477V125.232H302.765V126.432H300.477ZM308.353 134.144C307.532 134.144 306.785 133.957 306.113 133.584C305.452 133.211 304.929 132.683 304.545 132C304.172 131.307 303.985 130.507 303.985 129.6C303.985 128.704 304.177 127.915 304.561 127.232C304.956 126.539 305.489 126.011 306.161 125.648C306.833 125.275 307.585 125.088 308.417 125.088C309.249 125.088 310.001 125.275 310.673 125.648C311.345 126.011 311.873 126.533 312.257 127.216C312.652 127.899 312.849 128.693 312.849 129.6C312.849 130.507 312.646 131.307 312.241 132C311.846 132.683 311.308 133.211 310.625 133.584C309.942 133.957 309.185 134.144 308.353 134.144ZM308.353 132.864C308.876 132.864 309.366 132.741 309.825 132.496C310.284 132.251 310.652 131.883 310.929 131.392C311.217 130.901 311.361 130.304 311.361 129.6C311.361 128.896 311.222 128.299 310.945 127.808C310.668 127.317 310.305 126.955 309.857 126.72C309.409 126.475 308.924 126.352 308.401 126.352C307.868 126.352 307.377 126.475 306.929 126.72C306.492 126.955 306.14 127.317 305.873 127.808C305.606 128.299 305.473 128.896 305.473 129.6C305.473 130.315 305.601 130.917 305.857 131.408C306.124 131.899 306.476 132.267 306.913 132.512C307.35 132.747 307.83 132.864 308.353 132.864ZM320.485 126.864C320.784 126.341 321.221 125.915 321.797 125.584C322.373 125.253 323.029 125.088 323.765 125.088C324.554 125.088 325.264 125.275 325.893 125.648C326.522 126.021 327.018 126.549 327.381 127.232C327.744 127.904 327.925 128.688 327.925 129.584C327.925 130.469 327.744 131.259 327.381 131.952C327.018 132.645 326.517 133.184 325.877 133.568C325.248 133.952 324.544 134.144 323.765 134.144C323.008 134.144 322.341 133.979 321.765 133.648C321.2 133.317 320.773 132.896 320.485 132.384V134H319.029V122.16H320.485V126.864ZM326.437 129.584C326.437 128.923 326.304 128.347 326.037 127.856C325.77 127.365 325.408 126.992 324.949 126.736C324.501 126.48 324.005 126.352 323.461 126.352C322.928 126.352 322.432 126.485 321.973 126.752C321.525 127.008 321.162 127.387 320.885 127.888C320.618 128.379 320.485 128.949 320.485 129.6C320.485 130.261 320.618 130.843 320.885 131.344C321.162 131.835 321.525 132.213 321.973 132.48C322.432 132.736 322.928 132.864 323.461 132.864C324.005 132.864 324.501 132.736 324.949 132.48C325.408 132.213 325.77 131.835 326.037 131.344C326.304 130.843 326.437 130.256 326.437 129.584ZM337.617 125.232V134H336.161V132.704C335.884 133.152 335.495 133.504 334.993 133.76C334.503 134.005 333.959 134.128 333.361 134.128C332.679 134.128 332.065 133.989 331.521 133.712C330.977 133.424 330.545 132.997 330.225 132.432C329.916 131.867 329.761 131.179 329.761 130.368V125.232H331.201V130.176C331.201 131.04 331.42 131.707 331.857 132.176C332.295 132.635 332.892 132.864 333.649 132.864C334.428 132.864 335.041 132.624 335.489 132.144C335.937 131.664 336.161 130.965 336.161 130.048V125.232H337.617ZM340.828 123.808C340.55 123.808 340.316 123.712 340.124 123.52C339.932 123.328 339.836 123.093 339.836 122.816C339.836 122.539 339.932 122.304 340.124 122.112C340.316 121.92 340.55 121.824 340.828 121.824C341.094 121.824 341.318 121.92 341.5 122.112C341.692 122.304 341.788 122.539 341.788 122.816C341.788 123.093 341.692 123.328 341.5 123.52C341.318 123.712 341.094 123.808 340.828 123.808ZM341.532 125.232V134H340.076V125.232H341.532ZM345.469 122.16V134H344.013V122.16H345.469ZM347.407 129.584C347.407 128.688 347.588 127.904 347.951 127.232C348.313 126.549 348.809 126.021 349.439 125.648C350.079 125.275 350.793 125.088 351.583 125.088C352.265 125.088 352.9 125.248 353.487 125.568C354.073 125.877 354.521 126.288 354.831 126.8V122.16H356.303V134H354.831V132.352C354.543 132.875 354.116 133.307 353.551 133.648C352.985 133.979 352.324 134.144 351.567 134.144C350.788 134.144 350.079 133.952 349.439 133.568C348.809 133.184 348.313 132.645 347.951 131.952C347.588 131.259 347.407 130.469 347.407 129.584ZM354.831 129.6C354.831 128.939 354.697 128.363 354.431 127.872C354.164 127.381 353.801 127.008 353.343 126.752C352.895 126.485 352.399 126.352 351.855 126.352C351.311 126.352 350.815 126.48 350.367 126.736C349.919 126.992 349.561 127.365 349.295 127.856C349.028 128.347 348.895 128.923 348.895 129.584C348.895 130.256 349.028 130.843 349.295 131.344C349.561 131.835 349.919 132.213 350.367 132.48C350.815 132.736 351.311 132.864 351.855 132.864C352.399 132.864 352.895 132.736 353.343 132.48C353.801 132.213 354.164 131.835 354.431 131.344C354.697 130.843 354.831 130.261 354.831 129.6ZM10.688 153.584C10.688 152.688 10.8693 151.904 11.232 151.232C11.5947 150.549 12.0907 150.021 12.72 149.648C13.36 149.275 14.0693 149.088 14.848 149.088C15.616 149.088 16.2827 149.253 16.848 149.584C17.4133 149.915 17.8347 150.331 18.112 150.832V149.232H19.584V158H18.112V156.368C17.824 156.88 17.392 157.307 16.816 157.648C16.2507 157.979 15.5893 158.144 14.832 158.144C14.0533 158.144 13.3493 157.952 12.72 157.568C12.0907 157.184 11.5947 156.645 11.232 155.952C10.8693 155.259 10.688 154.469 10.688 153.584ZM18.112 153.6C18.112 152.939 17.9787 152.363 17.712 151.872C17.4453 151.381 17.0827 151.008 16.624 150.752C16.176 150.485 15.68 150.352 15.136 150.352C14.592 150.352 14.096 150.48 13.648 150.736C13.2 150.992 12.8427 151.365 12.576 151.856C12.3093 152.347 12.176 152.923 12.176 153.584C12.176 154.256 12.3093 154.843 12.576 155.344C12.8427 155.835 13.2 156.213 13.648 156.48C14.096 156.736 14.592 156.864 15.136 156.864C15.68 156.864 16.176 156.736 16.624 156.48C17.0827 156.213 17.4453 155.835 17.712 155.344C17.9787 154.843 18.112 154.261 18.112 153.6ZM25.7661 153.6C25.7661 152.693 25.9475 151.904 26.3101 151.232C26.6728 150.549 27.1741 150.021 27.8141 149.648C28.4648 149.275 29.2061 149.088 30.0381 149.088C31.1155 149.088 32.0008 149.349 32.6941 149.872C33.3981 150.395 33.8621 151.12 34.0861 152.048H32.5181C32.3688 151.515 32.0755 151.093 31.6381 150.784C31.2115 150.475 30.6781 150.32 30.0381 150.32C29.2061 150.32 28.5341 150.608 28.0221 151.184C27.5101 151.749 27.2541 152.555 27.2541 153.6C27.2541 154.656 27.5101 155.472 28.0221 156.048C28.5341 156.624 29.2061 156.912 30.0381 156.912C30.6781 156.912 31.2115 156.763 31.6381 156.464C32.0648 156.165 32.3581 155.739 32.5181 155.184H34.0861C33.8515 156.08 33.3821 156.8 32.6781 157.344C31.9741 157.877 31.0941 158.144 30.0381 158.144C29.2061 158.144 28.4648 157.957 27.8141 157.584C27.1741 157.211 26.6728 156.683 26.3101 156C25.9475 155.317 25.7661 154.517 25.7661 153.6ZM37.4849 146.16V158H36.0289V146.16H37.4849ZM47.9664 153.28C47.9664 153.557 47.9504 153.851 47.9184 154.16H40.9104C40.9637 155.024 41.257 155.701 41.7904 156.192C42.3344 156.672 42.9904 156.912 43.7584 156.912C44.3877 156.912 44.9104 156.768 45.3264 156.48C45.753 156.181 46.0517 155.787 46.2224 155.296H47.7904C47.5557 156.139 47.0864 156.827 46.3824 157.36C45.6784 157.883 44.8037 158.144 43.7584 158.144C42.9264 158.144 42.1797 157.957 41.5184 157.584C40.8677 157.211 40.3557 156.683 39.9824 156C39.609 155.307 39.4224 154.507 39.4224 153.6C39.4224 152.693 39.6037 151.899 39.9664 151.216C40.329 150.533 40.8357 150.011 41.4864 149.648C42.1477 149.275 42.905 149.088 43.7584 149.088C44.5904 149.088 45.3264 149.269 45.9664 149.632C46.6064 149.995 47.097 150.496 47.4384 151.136C47.7904 151.765 47.9664 152.48 47.9664 153.28ZM46.4624 152.976C46.4624 152.421 46.3397 151.947 46.0944 151.552C45.849 151.147 45.513 150.843 45.0864 150.64C44.6704 150.427 44.2064 150.32 43.6944 150.32C42.9584 150.32 42.329 150.555 41.8064 151.024C41.2944 151.493 41.001 152.144 40.9264 152.976H46.4624ZM49.3443 153.584C49.3443 152.688 49.5256 151.904 49.8883 151.232C50.2509 150.549 50.7469 150.021 51.3763 149.648C52.0163 149.275 52.7256 149.088 53.5043 149.088C54.2723 149.088 54.9389 149.253 55.5043 149.584C56.0696 149.915 56.4909 150.331 56.7683 150.832V149.232H58.2403V158H56.7683V156.368C56.4803 156.88 56.0483 157.307 55.4723 157.648C54.9069 157.979 54.2456 158.144 53.4883 158.144C52.7096 158.144 52.0056 157.952 51.3763 157.568C50.7469 157.184 50.2509 156.645 49.8883 155.952C49.5256 155.259 49.3443 154.469 49.3443 153.584ZM56.7683 153.6C56.7683 152.939 56.6349 152.363 56.3683 151.872C56.1016 151.381 55.7389 151.008 55.2803 150.752C54.8323 150.485 54.3363 150.352 53.7923 150.352C53.2483 150.352 52.7523 150.48 52.3043 150.736C51.8563 150.992 51.4989 151.365 51.2323 151.856C50.9656 152.347 50.8323 152.923 50.8323 153.584C50.8323 154.256 50.9656 154.843 51.2323 155.344C51.4989 155.835 51.8563 156.213 52.3043 156.48C52.7523 156.736 53.2483 156.864 53.7923 156.864C54.3363 156.864 54.8323 156.736 55.2803 156.48C55.7389 156.213 56.1016 155.835 56.3683 155.344C56.6349 154.843 56.7683 154.261 56.7683 153.6ZM62.1568 150.656C62.4128 150.155 62.7754 149.765 63.2448 149.488C63.7248 149.211 64.3061 149.072 64.9888 149.072V150.576H64.6048C62.9728 150.576 62.1568 151.461 62.1568 153.232V158H60.7008V149.232H62.1568V150.656ZM78.7111 149.232V158H77.2551V156.704C76.9778 157.152 76.5885 157.504 76.0871 157.76C75.5965 158.005 75.0525 158.128 74.4551 158.128C73.7725 158.128 73.1591 157.989 72.6151 157.712C72.0711 157.424 71.6391 156.997 71.3191 156.432C71.0098 155.867 70.8551 155.179 70.8551 154.368V149.232H72.2951V154.176C72.2951 155.04 72.5138 155.707 72.9511 156.176C73.3885 156.635 73.9858 156.864 74.7431 156.864C75.5218 156.864 76.1351 156.624 76.5831 156.144C77.0311 155.664 77.2551 154.965 77.2551 154.048V149.232H78.7111ZM85.4415 149.072C86.5082 149.072 87.3722 149.397 88.0335 150.048C88.6948 150.688 89.0255 151.616 89.0255 152.832V158H87.5855V153.04C87.5855 152.165 87.3668 151.499 86.9295 151.04C86.4922 150.571 85.8948 150.336 85.1375 150.336C84.3695 150.336 83.7562 150.576 83.2975 151.056C82.8495 151.536 82.6255 152.235 82.6255 153.152V158H81.1695V149.232H82.6255V150.48C82.9135 150.032 83.3028 149.685 83.7935 149.44C84.2948 149.195 84.8442 149.072 85.4415 149.072ZM90.8599 153.584C90.8599 152.688 91.0412 151.904 91.4039 151.232C91.7665 150.549 92.2625 150.021 92.8919 149.648C93.5319 149.275 94.2465 149.088 95.0359 149.088C95.7185 149.088 96.3532 149.248 96.9399 149.568C97.5265 149.877 97.9745 150.288 98.2839 150.8V146.16H99.7559V158H98.2839V156.352C97.9959 156.875 97.5692 157.307 97.0039 157.648C96.4385 157.979 95.7772 158.144 95.0199 158.144C94.2412 158.144 93.5319 157.952 92.8919 157.568C92.2625 157.184 91.7665 156.645 91.4039 155.952C91.0412 155.259 90.8599 154.469 90.8599 153.584ZM98.2839 153.6C98.2839 152.939 98.1505 152.363 97.8839 151.872C97.6172 151.381 97.2545 151.008 96.7959 150.752C96.3479 150.485 95.8519 150.352 95.3079 150.352C94.7639 150.352 94.2679 150.48 93.8199 150.736C93.3719 150.992 93.0145 151.365 92.7479 151.856C92.4812 152.347 92.3479 152.923 92.3479 153.584C92.3479 154.256 92.4812 154.843 92.7479 155.344C93.0145 155.835 93.3719 156.213 93.8199 156.48C94.2679 156.736 94.7639 156.864 95.3079 156.864C95.8519 156.864 96.3479 156.736 96.7959 156.48C97.2545 156.213 97.6172 155.835 97.8839 155.344C98.1505 154.843 98.2839 154.261 98.2839 153.6ZM110.216 153.28C110.216 153.557 110.2 153.851 110.168 154.16H103.16C103.214 155.024 103.507 155.701 104.04 156.192C104.584 156.672 105.24 156.912 106.008 156.912C106.638 156.912 107.16 156.768 107.576 156.48C108.003 156.181 108.302 155.787 108.472 155.296H110.04C109.806 156.139 109.336 156.827 108.632 157.36C107.928 157.883 107.054 158.144 106.008 158.144C105.176 158.144 104.43 157.957 103.768 157.584C103.118 157.211 102.606 156.683 102.232 156C101.859 155.307 101.672 154.507 101.672 153.6C101.672 152.693 101.854 151.899 102.216 151.216C102.579 150.533 103.086 150.011 103.736 149.648C104.398 149.275 105.155 149.088 106.008 149.088C106.84 149.088 107.576 149.269 108.216 149.632C108.856 149.995 109.347 150.496 109.688 151.136C110.04 151.765 110.216 152.48 110.216 153.28ZM108.712 152.976C108.712 152.421 108.59 151.947 108.344 151.552C108.099 151.147 107.763 150.843 107.336 150.64C106.92 150.427 106.456 150.32 105.944 150.32C105.208 150.32 104.579 150.555 104.056 151.024C103.544 151.493 103.251 152.144 103.176 152.976H108.712ZM113.594 150.656C113.85 150.155 114.213 149.765 114.682 149.488C115.162 149.211 115.744 149.072 116.426 149.072V150.576H116.042C114.41 150.576 113.594 151.461 113.594 153.232V158H112.138V149.232H113.594V150.656ZM121.211 158.144C120.539 158.144 119.936 158.032 119.403 157.808C118.87 157.573 118.448 157.253 118.139 156.848C117.83 156.432 117.659 155.957 117.627 155.424H119.131C119.174 155.861 119.376 156.219 119.739 156.496C120.112 156.773 120.598 156.912 121.195 156.912C121.75 156.912 122.187 156.789 122.507 156.544C122.827 156.299 122.987 155.989 122.987 155.616C122.987 155.232 122.816 154.949 122.475 154.768C122.134 154.576 121.606 154.389 120.891 154.208C120.24 154.037 119.707 153.867 119.291 153.696C118.886 153.515 118.534 153.253 118.235 152.912C117.947 152.56 117.803 152.101 117.803 151.536C117.803 151.088 117.936 150.677 118.203 150.304C118.47 149.931 118.848 149.637 119.339 149.424C119.83 149.2 120.39 149.088 121.019 149.088C121.99 149.088 122.774 149.333 123.371 149.824C123.968 150.315 124.288 150.987 124.331 151.84H122.875C122.843 151.381 122.656 151.013 122.315 150.736C121.984 150.459 121.536 150.32 120.971 150.32C120.448 150.32 120.032 150.432 119.723 150.656C119.414 150.88 119.259 151.173 119.259 151.536C119.259 151.824 119.35 152.064 119.531 152.256C119.723 152.437 119.958 152.587 120.235 152.704C120.523 152.811 120.918 152.933 121.419 153.072C122.048 153.243 122.56 153.413 122.955 153.584C123.35 153.744 123.686 153.989 123.963 154.32C124.251 154.651 124.4 155.083 124.411 155.616C124.411 156.096 124.278 156.528 124.011 156.912C123.744 157.296 123.366 157.6 122.875 157.824C122.395 158.037 121.84 158.144 121.211 158.144ZM128.242 150.432V155.6C128.242 156.027 128.333 156.331 128.514 156.512C128.696 156.683 129.01 156.768 129.458 156.768H130.53V158H129.218C128.408 158 127.8 157.813 127.394 157.44C126.989 157.067 126.786 156.453 126.786 155.6V150.432H125.65V149.232H126.786V147.024H128.242V149.232H130.53V150.432H128.242ZM131.751 153.584C131.751 152.688 131.932 151.904 132.295 151.232C132.657 150.549 133.153 150.021 133.783 149.648C134.423 149.275 135.132 149.088 135.911 149.088C136.679 149.088 137.345 149.253 137.911 149.584C138.476 149.915 138.897 150.331 139.175 150.832V149.232H140.647V158H139.175V156.368C138.887 156.88 138.455 157.307 137.879 157.648C137.313 157.979 136.652 158.144 135.895 158.144C135.116 158.144 134.412 157.952 133.783 157.568C133.153 157.184 132.657 156.645 132.295 155.952C131.932 155.259 131.751 154.469 131.751 153.584ZM139.175 153.6C139.175 152.939 139.041 152.363 138.775 151.872C138.508 151.381 138.145 151.008 137.687 150.752C137.239 150.485 136.743 150.352 136.199 150.352C135.655 150.352 135.159 150.48 134.711 150.736C134.263 150.992 133.905 151.365 133.639 151.856C133.372 152.347 133.239 152.923 133.239 153.584C133.239 154.256 133.372 154.843 133.639 155.344C133.905 155.835 134.263 156.213 134.711 156.48C135.159 156.736 135.655 156.864 136.199 156.864C136.743 156.864 137.239 156.736 137.687 156.48C138.145 156.213 138.508 155.835 138.775 155.344C139.041 154.843 139.175 154.261 139.175 153.6ZM147.379 149.072C148.446 149.072 149.31 149.397 149.971 150.048C150.632 150.688 150.963 151.616 150.963 152.832V158H149.523V153.04C149.523 152.165 149.304 151.499 148.867 151.04C148.43 150.571 147.832 150.336 147.075 150.336C146.307 150.336 145.694 150.576 145.235 151.056C144.787 151.536 144.563 152.235 144.563 153.152V158H143.107V149.232H144.563V150.48C144.851 150.032 145.24 149.685 145.731 149.44C146.232 149.195 146.782 149.072 147.379 149.072ZM152.797 153.584C152.797 152.688 152.979 151.904 153.341 151.232C153.704 150.549 154.2 150.021 154.829 149.648C155.469 149.275 156.184 149.088 156.973 149.088C157.656 149.088 158.291 149.248 158.877 149.568C159.464 149.877 159.912 150.288 160.221 150.8V146.16H161.693V158H160.221V156.352C159.933 156.875 159.507 157.307 158.941 157.648C158.376 157.979 157.715 158.144 156.957 158.144C156.179 158.144 155.469 157.952 154.829 157.568C154.2 157.184 153.704 156.645 153.341 155.952C152.979 155.259 152.797 154.469 152.797 153.584ZM160.221 153.6C160.221 152.939 160.088 152.363 159.821 151.872C159.555 151.381 159.192 151.008 158.733 150.752C158.285 150.485 157.789 150.352 157.245 150.352C156.701 150.352 156.205 150.48 155.757 150.736C155.309 150.992 154.952 151.365 154.685 151.856C154.419 152.347 154.285 152.923 154.285 153.584C154.285 154.256 154.419 154.843 154.685 155.344C154.952 155.835 155.309 156.213 155.757 156.48C156.205 156.736 156.701 156.864 157.245 156.864C157.789 156.864 158.285 156.736 158.733 156.48C159.192 156.213 159.555 155.835 159.821 155.344C160.088 154.843 160.221 154.261 160.221 153.6ZM164.906 147.808C164.629 147.808 164.394 147.712 164.202 147.52C164.01 147.328 163.914 147.093 163.914 146.816C163.914 146.539 164.01 146.304 164.202 146.112C164.394 145.92 164.629 145.824 164.906 145.824C165.173 145.824 165.397 145.92 165.578 146.112C165.77 146.304 165.866 146.539 165.866 146.816C165.866 147.093 165.77 147.328 165.578 147.52C165.397 147.712 165.173 147.808 164.906 147.808ZM165.61 149.232V158H164.154V149.232H165.61ZM172.363 149.072C173.43 149.072 174.294 149.397 174.955 150.048C175.617 150.688 175.947 151.616 175.947 152.832V158H174.507V153.04C174.507 152.165 174.289 151.499 173.851 151.04C173.414 150.571 172.817 150.336 172.059 150.336C171.291 150.336 170.678 150.576 170.219 151.056C169.771 151.536 169.547 152.235 169.547 153.152V158H168.091V149.232H169.547V150.48C169.835 150.032 170.225 149.685 170.715 149.44C171.217 149.195 171.766 149.072 172.363 149.072ZM181.942 149.088C182.699 149.088 183.36 149.253 183.926 149.584C184.502 149.915 184.928 150.331 185.206 150.832V149.232H186.678V158.192C186.678 158.992 186.507 159.701 186.166 160.32C185.824 160.949 185.334 161.44 184.694 161.792C184.064 162.144 183.328 162.32 182.486 162.32C181.334 162.32 180.374 162.048 179.606 161.504C178.838 160.96 178.384 160.219 178.246 159.28H179.686C179.846 159.813 180.176 160.24 180.678 160.56C181.179 160.891 181.782 161.056 182.486 161.056C183.286 161.056 183.936 160.805 184.438 160.304C184.95 159.803 185.206 159.099 185.206 158.192V156.352C184.918 156.864 184.491 157.291 183.926 157.632C183.36 157.973 182.699 158.144 181.942 158.144C181.163 158.144 180.454 157.952 179.814 157.568C179.184 157.184 178.688 156.645 178.326 155.952C177.963 155.259 177.782 154.469 177.782 153.584C177.782 152.688 177.963 151.904 178.326 151.232C178.688 150.549 179.184 150.021 179.814 149.648C180.454 149.275 181.163 149.088 181.942 149.088ZM185.206 153.6C185.206 152.939 185.072 152.363 184.806 151.872C184.539 151.381 184.176 151.008 183.718 150.752C183.27 150.485 182.774 150.352 182.23 150.352C181.686 150.352 181.19 150.48 180.742 150.736C180.294 150.992 179.936 151.365 179.67 151.856C179.403 152.347 179.27 152.923 179.27 153.584C179.27 154.256 179.403 154.843 179.67 155.344C179.936 155.835 180.294 156.213 180.742 156.48C181.19 156.736 181.686 156.864 182.23 156.864C182.774 156.864 183.27 156.736 183.718 156.48C184.176 156.213 184.539 155.835 184.806 155.344C185.072 154.843 185.206 154.261 185.206 153.6ZM197.228 158.144C196.407 158.144 195.66 157.957 194.988 157.584C194.327 157.211 193.804 156.683 193.42 156C193.047 155.307 192.86 154.507 192.86 153.6C192.86 152.704 193.052 151.915 193.436 151.232C193.831 150.539 194.364 150.011 195.036 149.648C195.708 149.275 196.46 149.088 197.292 149.088C198.124 149.088 198.876 149.275 199.548 149.648C200.22 150.011 200.748 150.533 201.132 151.216C201.527 151.899 201.724 152.693 201.724 153.6C201.724 154.507 201.521 155.307 201.116 156C200.721 156.683 200.183 157.211 199.5 157.584C198.817 157.957 198.06 158.144 197.228 158.144ZM197.228 156.864C197.751 156.864 198.241 156.741 198.7 156.496C199.159 156.251 199.527 155.883 199.804 155.392C200.092 154.901 200.236 154.304 200.236 153.6C200.236 152.896 200.097 152.299 199.82 151.808C199.543 151.317 199.18 150.955 198.732 150.72C198.284 150.475 197.799 150.352 197.276 150.352C196.743 150.352 196.252 150.475 195.804 150.72C195.367 150.955 195.015 151.317 194.748 151.808C194.481 152.299 194.348 152.896 194.348 153.6C194.348 154.315 194.476 154.917 194.732 155.408C194.999 155.899 195.351 156.267 195.788 156.512C196.225 156.747 196.705 156.864 197.228 156.864ZM207.206 150.432H205.366V158H203.91V150.432H202.774V149.232H203.91V148.608C203.91 147.627 204.161 146.912 204.662 146.464C205.174 146.005 205.99 145.776 207.11 145.776V146.992C206.47 146.992 206.017 147.12 205.75 147.376C205.494 147.621 205.366 148.032 205.366 148.608V149.232H207.206V150.432ZM220.722 149.232L215.442 162.128H213.938L215.666 157.904L212.13 149.232H213.746L216.498 156.336L219.218 149.232H220.722ZM226.009 158.144C225.188 158.144 224.441 157.957 223.769 157.584C223.108 157.211 222.585 156.683 222.201 156C221.828 155.307 221.641 154.507 221.641 153.6C221.641 152.704 221.833 151.915 222.217 151.232C222.612 150.539 223.145 150.011 223.817 149.648C224.489 149.275 225.241 149.088 226.073 149.088C226.905 149.088 227.657 149.275 228.329 149.648C229.001 150.011 229.529 150.533 229.913 151.216C230.308 151.899 230.505 152.693 230.505 153.6C230.505 154.507 230.302 155.307 229.897 156C229.502 156.683 228.964 157.211 228.281 157.584C227.598 157.957 226.841 158.144 226.009 158.144ZM226.009 156.864C226.532 156.864 227.022 156.741 227.481 156.496C227.94 156.251 228.308 155.883 228.585 155.392C228.873 154.901 229.017 154.304 229.017 153.6C229.017 152.896 228.878 152.299 228.601 151.808C228.324 151.317 227.961 150.955 227.513 150.72C227.065 150.475 226.58 150.352 226.057 150.352C225.524 150.352 225.033 150.475 224.585 150.72C224.148 150.955 223.796 151.317 223.529 151.808C223.262 152.299 223.129 152.896 223.129 153.6C223.129 154.315 223.257 154.917 223.513 155.408C223.78 155.899 224.132 156.267 224.569 156.512C225.006 156.747 225.486 156.864 226.009 156.864ZM240.196 149.232V158H238.74V156.704C238.462 157.152 238.073 157.504 237.572 157.76C237.081 158.005 236.537 158.128 235.94 158.128C235.257 158.128 234.644 157.989 234.1 157.712C233.556 157.424 233.124 156.997 232.804 156.432C232.494 155.867 232.34 155.179 232.34 154.368V149.232H233.78V154.176C233.78 155.04 233.998 155.707 234.436 156.176C234.873 156.635 235.47 156.864 236.228 156.864C237.006 156.864 237.62 156.624 238.068 156.144C238.516 155.664 238.74 154.965 238.74 154.048V149.232H240.196ZM244.11 150.656C244.366 150.155 244.729 149.765 245.198 149.488C245.678 149.211 246.259 149.072 246.942 149.072V150.576H246.558C244.926 150.576 244.11 151.461 244.11 153.232V158H242.654V149.232H244.11V150.656ZM256.152 156.656L258.872 149.232H260.424L256.984 158H255.288L251.848 149.232H253.416L256.152 156.656ZM262.609 147.808C262.332 147.808 262.097 147.712 261.905 147.52C261.713 147.328 261.617 147.093 261.617 146.816C261.617 146.539 261.713 146.304 261.905 146.112C262.097 145.92 262.332 145.824 262.609 145.824C262.876 145.824 263.1 145.92 263.281 146.112C263.473 146.304 263.569 146.539 263.569 146.816C263.569 147.093 263.473 147.328 263.281 147.52C263.1 147.712 262.876 147.808 262.609 147.808ZM263.313 149.232V158H261.857V149.232H263.313ZM268.899 158.144C268.227 158.144 267.624 158.032 267.091 157.808C266.557 157.573 266.136 157.253 265.827 156.848C265.517 156.432 265.347 155.957 265.315 155.424H266.819C266.861 155.861 267.064 156.219 267.427 156.496C267.8 156.773 268.285 156.912 268.883 156.912C269.437 156.912 269.875 156.789 270.195 156.544C270.515 156.299 270.675 155.989 270.675 155.616C270.675 155.232 270.504 154.949 270.163 154.768C269.821 154.576 269.293 154.389 268.579 154.208C267.928 154.037 267.395 153.867 266.979 153.696C266.573 153.515 266.221 153.253 265.923 152.912C265.635 152.56 265.491 152.101 265.491 151.536C265.491 151.088 265.624 150.677 265.891 150.304C266.157 149.931 266.536 149.637 267.027 149.424C267.517 149.2 268.077 149.088 268.707 149.088C269.677 149.088 270.461 149.333 271.059 149.824C271.656 150.315 271.976 150.987 272.019 151.84H270.563C270.531 151.381 270.344 151.013 270.003 150.736C269.672 150.459 269.224 150.32 268.659 150.32C268.136 150.32 267.72 150.432 267.411 150.656C267.101 150.88 266.947 151.173 266.947 151.536C266.947 151.824 267.037 152.064 267.219 152.256C267.411 152.437 267.645 152.587 267.923 152.704C268.211 152.811 268.605 152.933 269.107 153.072C269.736 153.243 270.248 153.413 270.643 153.584C271.037 153.744 271.373 153.989 271.651 154.32C271.939 154.651 272.088 155.083 272.099 155.616C272.099 156.096 271.965 156.528 271.699 156.912C271.432 157.296 271.053 157.6 270.563 157.824C270.083 158.037 269.528 158.144 268.899 158.144ZM274.906 147.808C274.629 147.808 274.394 147.712 274.202 147.52C274.01 147.328 273.914 147.093 273.914 146.816C273.914 146.539 274.01 146.304 274.202 146.112C274.394 145.92 274.629 145.824 274.906 145.824C275.173 145.824 275.397 145.92 275.578 146.112C275.77 146.304 275.866 146.539 275.866 146.816C275.866 147.093 275.77 147.328 275.578 147.52C275.397 147.712 275.173 147.808 274.906 147.808ZM275.61 149.232V158H274.154V149.232H275.61ZM281.915 158.144C281.094 158.144 280.347 157.957 279.675 157.584C279.014 157.211 278.491 156.683 278.107 156C277.734 155.307 277.547 154.507 277.547 153.6C277.547 152.704 277.739 151.915 278.123 151.232C278.518 150.539 279.051 150.011 279.723 149.648C280.395 149.275 281.147 149.088 281.979 149.088C282.811 149.088 283.563 149.275 284.235 149.648C284.907 150.011 285.435 150.533 285.819 151.216C286.214 151.899 286.411 152.693 286.411 153.6C286.411 154.507 286.209 155.307 285.803 156C285.409 156.683 284.87 157.211 284.187 157.584C283.505 157.957 282.747 158.144 281.915 158.144ZM281.915 156.864C282.438 156.864 282.929 156.741 283.387 156.496C283.846 156.251 284.214 155.883 284.491 155.392C284.779 154.901 284.923 154.304 284.923 153.6C284.923 152.896 284.785 152.299 284.507 151.808C284.23 151.317 283.867 150.955 283.419 150.72C282.971 150.475 282.486 150.352 281.963 150.352C281.43 150.352 280.939 150.475 280.491 150.72C280.054 150.955 279.702 151.317 279.435 151.808C279.169 152.299 279.035 152.896 279.035 153.6C279.035 154.315 279.163 154.917 279.419 155.408C279.686 155.899 280.038 156.267 280.475 156.512C280.913 156.747 281.393 156.864 281.915 156.864ZM292.598 149.072C293.664 149.072 294.528 149.397 295.19 150.048C295.851 150.688 296.182 151.616 296.182 152.832V158H294.742V153.04C294.742 152.165 294.523 151.499 294.086 151.04C293.648 150.571 293.051 150.336 292.294 150.336C291.526 150.336 290.912 150.576 290.454 151.056C290.006 151.536 289.782 152.235 289.782 153.152V158H288.326V149.232H289.782V150.48C290.07 150.032 290.459 149.685 290.95 149.44C291.451 149.195 292 149.072 292.598 149.072ZM299.024 158.096C298.747 158.096 298.512 158 298.32 157.808C298.128 157.616 298.032 157.381 298.032 157.104C298.032 156.827 298.128 156.592 298.32 156.4C298.512 156.208 298.747 156.112 299.024 156.112C299.291 156.112 299.515 156.208 299.696 156.4C299.888 156.592 299.984 156.827 299.984 157.104C299.984 157.381 299.888 157.616 299.696 157.808C299.515 158 299.291 158.096 299.024 158.096Z" fill="#3A3A3A"/>
</svg>
