<svg id="Layer_1" data-name="Layer 1" xmlns="http://www.w3.org/2000/svg" viewBox="0 0 64 64"><defs><style>.cls-1{fill:#001b72;}.cls-2{fill:#f2f2f2;}</style></defs><circle class="cls-1" cx="30.99" cy="34.28" r="20.32"/><path class="cls-2" d="M33.12,30.43a2.74,2.74,0,0,0-1.93-.71,2.78,2.78,0,0,0-1.94.71,2.27,2.27,0,0,0-.77,1.73v4.41a2.28,2.28,0,0,0,.77,1.74h0v.24a.56.56,0,0,0,.56.55h2.7a.57.57,0,0,0,.57-.56v-.22l0,0a2.28,2.28,0,0,0,.77-1.74V32.16A2.27,2.27,0,0,0,33.12,30.43Zm.37,6.09H31.43V32.88H31v3.64H28.88V32.29a1.86,1.86,0,0,1,.64-1.44,2.59,2.59,0,0,1,3.34,0,1.85,1.85,0,0,1,.63,1.44Z"/><rect class="cls-2" x="29.75" y="39.27" width="2.88" height="0.78"/><path class="cls-2" d="M30.92,41h.54a.34.34,0,0,0,.34-.34v-.44H30.57v.43A.35.35,0,0,0,30.92,41Z"/><rect class="cls-2" x="31.03" y="25.87" width="0.31" height="2.88"/><rect class="cls-2" x="33.47" y="28.59" width="2.88" height="0.31" transform="translate(-10.1 33.1) rotate(-45)"/><rect class="cls-2" x="27.31" y="27.3" width="0.31" height="2.88" transform="translate(-12.28 27.84) rotate(-45)"/><path class="cls-2" d="M31.13,47.49a8.33,8.33,0,0,1-5.85-2.15l.89-1a7,7,0,0,0,5,1.8,7,7,0,0,0,5-1.81A5.64,5.64,0,0,0,38,40V27.69a5.64,5.64,0,0,0-1.94-4.36,7,7,0,0,0-5-1.8,7,7,0,0,0-5,1.8,5.66,5.66,0,0,0-1.92,4.36V40.21l-3.25,5-1.1-.72,3-4.71V27.69a7,7,0,0,1,2.34-5.33,8.36,8.36,0,0,1,5.85-2.15A8.42,8.42,0,0,1,37,22.36a7,7,0,0,1,2.36,5.33V40A7,7,0,0,1,37,45.34,8.37,8.37,0,0,1,31.13,47.49Z"/></svg>