<svg width="351" height="261" viewBox="0 0 351 261" fill="none" xmlns="http://www.w3.org/2000/svg">
<path d="M279.484 82.9245H266.321C266.321 62.6344 260.617 46.3142 248.332 33.0816C236.486 19.8489 222.007 13.6737 204.896 13.6737H83.3625L7.8975 72.3384L0 61.7523L78.5362 0H204.457C225.517 0 243.506 7.93958 257.985 23.8187C272.025 39.2568 279.484 59.1057 279.484 82.9245Z" fill="#001B72"/>
<path d="M272.024 146H146.542C125.482 146 107.493 138.06 93.0144 122.181C78.5356 106.743 71.5156 86.8943 71.5156 63.0756H84.6781C84.6781 83.3656 90.3819 99.6858 102.667 112.918C114.513 126.151 128.992 132.326 146.103 132.326H267.637L342.663 73.2206L350.999 83.8067L272.024 146Z" fill="#001B72"/>
<path d="M176.816 124.828C148.736 124.828 125.482 101.891 125.482 73.2205C125.482 44.5498 148.736 22.0543 176.816 22.0543C204.896 22.0543 228.15 44.9909 228.15 73.6616C228.15 102.332 204.896 124.828 176.816 124.828ZM176.816 44.1087C160.582 44.1087 147.42 57.3413 147.42 73.6616C147.42 89.9818 160.582 103.214 176.816 103.214C193.05 103.214 206.212 89.9818 206.212 73.6616C206.212 57.3413 193.05 44.1087 176.816 44.1087Z" fill="#001B72"/>
<path d="M134.952 194.356V202H133.106V183.67H138.592C140.655 183.67 142.189 184.147 143.194 185.1C144.217 186.053 144.728 187.362 144.728 189.026C144.728 190.725 144.199 192.042 143.142 192.978C142.102 193.897 140.585 194.356 138.592 194.356H134.952ZM138.436 192.796C140.013 192.796 141.149 192.475 141.842 191.834C142.535 191.175 142.882 190.239 142.882 189.026C142.882 187.778 142.535 186.833 141.842 186.192C141.149 185.533 140.013 185.204 138.436 185.204H134.952V192.796H138.436ZM149.45 190.742C149.866 189.719 150.533 188.931 151.452 188.376C152.371 187.821 153.489 187.544 154.806 187.544V189.52H154.208C152.839 189.52 151.703 189.893 150.802 190.638C149.901 191.366 149.45 192.562 149.45 194.226V202H147.604V187.804H149.45V190.742ZM163.649 187.622C165.001 187.622 166.206 187.917 167.263 188.506C168.338 189.078 169.178 189.919 169.785 191.028C170.392 192.12 170.695 193.411 170.695 194.902C170.695 196.393 170.392 197.684 169.785 198.776C169.178 199.868 168.338 200.709 167.263 201.298C166.206 201.887 165.001 202.182 163.649 202.182C162.297 202.182 161.084 201.887 160.009 201.298C158.934 200.709 158.085 199.868 157.461 198.776C156.854 197.667 156.551 196.375 156.551 194.902C156.551 193.411 156.854 192.12 157.461 191.028C158.085 189.919 158.934 189.078 160.009 188.506C161.084 187.917 162.297 187.622 163.649 187.622ZM163.649 189.208C162.713 189.208 161.846 189.416 161.049 189.832C160.252 190.248 159.61 190.889 159.125 191.756C158.64 192.605 158.397 193.654 158.397 194.902C158.397 196.15 158.64 197.199 159.125 198.048C159.61 198.897 160.252 199.53 161.049 199.946C161.846 200.362 162.713 200.57 163.649 200.57C164.568 200.57 165.417 200.362 166.197 199.946C166.994 199.53 167.636 198.897 168.121 198.048C168.606 197.199 168.849 196.15 168.849 194.902C168.849 193.654 168.606 192.605 168.121 191.756C167.636 190.889 166.994 190.248 166.197 189.832C165.417 189.416 164.568 189.208 163.649 189.208ZM175.077 184.814C174.679 184.814 174.349 184.701 174.089 184.476C173.847 184.251 173.725 183.956 173.725 183.592C173.725 183.211 173.847 182.907 174.089 182.682C174.349 182.457 174.679 182.344 175.077 182.344C175.476 182.344 175.797 182.457 176.039 182.682C176.282 182.907 176.403 183.211 176.403 183.592C176.403 183.956 176.282 184.251 176.039 184.476C175.797 184.701 175.476 184.814 175.077 184.814ZM171.281 207.096H172.269C172.928 207.096 173.405 206.949 173.699 206.654C174.011 206.359 174.167 205.848 174.167 205.12V187.804H175.987V205.224C175.987 207.547 174.809 208.708 172.451 208.708H171.281V207.096ZM186.14 200.674C187.422 200.674 188.497 200.353 189.364 199.712C190.23 199.071 190.75 198.204 190.924 197.112H192.848C192.588 198.62 191.868 199.842 190.69 200.778C189.511 201.714 188.02 202.182 186.218 202.182C184.866 202.182 183.661 201.896 182.604 201.324C181.564 200.735 180.749 199.894 180.16 198.802C179.57 197.693 179.276 196.393 179.276 194.902C179.276 193.411 179.57 192.12 180.16 191.028C180.749 189.919 181.564 189.078 182.604 188.506C183.661 187.917 184.866 187.622 186.218 187.622C187.604 187.622 188.8 187.917 189.806 188.506C190.828 189.078 191.6 189.849 192.12 190.82C192.657 191.791 192.926 192.848 192.926 193.992C192.926 194.477 192.891 194.919 192.822 195.318H181.07C181.087 196.514 181.33 197.519 181.798 198.334C182.283 199.131 182.907 199.721 183.67 200.102C184.432 200.483 185.256 200.674 186.14 200.674ZM186.218 189.104C185.299 189.104 184.458 189.295 183.696 189.676C182.933 190.057 182.309 190.647 181.824 191.444C181.356 192.224 181.104 193.203 181.07 194.382H191.106C191.175 193.221 190.984 192.241 190.534 191.444C190.083 190.647 189.476 190.057 188.714 189.676C187.951 189.295 187.119 189.104 186.218 189.104ZM202.468 187.622C204.27 187.622 205.761 188.099 206.94 189.052C208.136 190.005 208.864 191.271 209.124 192.848H207.226C207.035 191.721 206.506 190.837 205.64 190.196C204.773 189.537 203.707 189.208 202.442 189.208C201.523 189.208 200.674 189.416 199.894 189.832C199.131 190.248 198.516 190.889 198.048 191.756C197.597 192.605 197.372 193.654 197.372 194.902C197.372 196.15 197.597 197.207 198.048 198.074C198.516 198.923 199.131 199.556 199.894 199.972C200.674 200.388 201.523 200.596 202.442 200.596C203.707 200.596 204.773 200.275 205.64 199.634C206.506 198.975 207.035 198.083 207.226 196.956H209.124C208.864 198.533 208.136 199.799 206.94 200.752C205.761 201.705 204.27 202.182 202.468 202.182C201.116 202.182 199.911 201.896 198.854 201.324C197.814 200.735 196.999 199.894 196.41 198.802C195.82 197.693 195.526 196.393 195.526 194.902C195.526 193.411 195.82 192.12 196.41 191.028C196.999 189.919 197.814 189.078 198.854 188.506C199.911 187.917 201.116 187.622 202.468 187.622ZM218.849 200.388V202H217.159C215.789 202 214.767 201.679 214.091 201.038C213.415 200.379 213.077 199.279 213.077 197.736V189.39H210.919V187.804H213.077V184.216H214.923V187.804H218.823V189.39H214.923V197.762C214.923 198.767 215.105 199.461 215.469 199.842C215.833 200.206 216.474 200.388 217.393 200.388H218.849ZM109.77 222.488C111.972 222.488 113.792 223.025 115.23 224.1C116.669 225.157 117.683 226.622 118.272 228.494H116.348C115.863 227.177 115.057 226.128 113.93 225.348C112.804 224.568 111.408 224.178 109.744 224.178C108.479 224.178 107.326 224.49 106.286 225.114C105.264 225.738 104.458 226.631 103.868 227.792C103.279 228.953 102.984 230.305 102.984 231.848C102.984 233.391 103.279 234.743 103.868 235.904C104.458 237.048 105.264 237.932 106.286 238.556C107.326 239.18 108.479 239.492 109.744 239.492C111.408 239.492 112.804 239.102 113.93 238.322C115.057 237.542 115.863 236.493 116.348 235.176H118.272C117.683 237.048 116.669 238.521 115.23 239.596C113.792 240.653 111.972 241.182 109.77 241.182C108.089 241.182 106.59 240.783 105.272 239.986C103.955 239.189 102.932 238.088 102.204 236.684C101.476 235.263 101.112 233.651 101.112 231.848C101.112 230.028 101.476 228.407 102.204 226.986C102.932 225.565 103.955 224.464 105.272 223.684C106.59 222.887 108.089 222.488 109.77 222.488ZM128.013 226.622C129.365 226.622 130.57 226.917 131.627 227.506C132.702 228.078 133.543 228.919 134.149 230.028C134.756 231.12 135.059 232.411 135.059 233.902C135.059 235.393 134.756 236.684 134.149 237.776C133.543 238.868 132.702 239.709 131.627 240.298C130.57 240.887 129.365 241.182 128.013 241.182C126.661 241.182 125.448 240.887 124.373 240.298C123.299 239.709 122.449 238.868 121.825 237.776C121.219 236.667 120.915 235.375 120.915 233.902C120.915 232.411 121.219 231.12 121.825 230.028C122.449 228.919 123.299 228.078 124.373 227.506C125.448 226.917 126.661 226.622 128.013 226.622ZM128.013 228.208C127.077 228.208 126.211 228.416 125.413 228.832C124.616 229.248 123.975 229.889 123.489 230.756C123.004 231.605 122.761 232.654 122.761 233.902C122.761 235.15 123.004 236.199 123.489 237.048C123.975 237.897 124.616 238.53 125.413 238.946C126.211 239.362 127.077 239.57 128.013 239.57C128.932 239.57 129.781 239.362 130.561 238.946C131.359 238.53 132 237.897 132.485 237.048C132.971 236.199 133.213 235.15 133.213 233.902C133.213 232.654 132.971 231.605 132.485 230.756C132 229.889 131.359 229.248 130.561 228.832C129.781 228.416 128.932 228.208 128.013 228.208ZM145.422 226.544C147.068 226.544 148.403 227.073 149.426 228.13C150.466 229.17 150.986 230.704 150.986 232.732V241H149.192V232.862C149.192 231.319 148.802 230.141 148.022 229.326C147.242 228.494 146.176 228.078 144.824 228.078C143.402 228.078 142.267 228.537 141.418 229.456C140.586 230.357 140.17 231.692 140.17 233.46V241H138.324V226.804H140.17V230.288C140.534 229.075 141.192 228.147 142.146 227.506C143.099 226.865 144.191 226.544 145.422 226.544ZM161.094 226.622C162.896 226.622 164.387 227.099 165.566 228.052C166.762 229.005 167.49 230.271 167.75 231.848H165.852C165.661 230.721 165.132 229.837 164.266 229.196C163.399 228.537 162.333 228.208 161.068 228.208C160.149 228.208 159.3 228.416 158.52 228.832C157.757 229.248 157.142 229.889 156.674 230.756C156.223 231.605 155.998 232.654 155.998 233.902C155.998 235.15 156.223 236.207 156.674 237.074C157.142 237.923 157.757 238.556 158.52 238.972C159.3 239.388 160.149 239.596 161.068 239.596C162.333 239.596 163.399 239.275 164.266 238.634C165.132 237.975 165.661 237.083 165.852 235.956H167.75C167.49 237.533 166.762 238.799 165.566 239.752C164.387 240.705 162.896 241.182 161.094 241.182C159.742 241.182 158.537 240.896 157.48 240.324C156.44 239.735 155.625 238.894 155.036 237.802C154.446 236.693 154.152 235.393 154.152 233.902C154.152 232.411 154.446 231.12 155.036 230.028C155.625 228.919 156.44 228.078 157.48 227.506C158.537 226.917 159.742 226.622 161.094 226.622ZM177.215 239.674C178.497 239.674 179.572 239.353 180.439 238.712C181.305 238.071 181.825 237.204 181.999 236.112H183.923C183.663 237.62 182.943 238.842 181.765 239.778C180.586 240.714 179.095 241.182 177.293 241.182C175.941 241.182 174.736 240.896 173.679 240.324C172.639 239.735 171.824 238.894 171.235 237.802C170.645 236.693 170.351 235.393 170.351 233.902C170.351 232.411 170.645 231.12 171.235 230.028C171.824 228.919 172.639 228.078 173.679 227.506C174.736 226.917 175.941 226.622 177.293 226.622C178.679 226.622 179.875 226.917 180.881 227.506C181.903 228.078 182.675 228.849 183.195 229.82C183.732 230.791 184.001 231.848 184.001 232.992C184.001 233.477 183.966 233.919 183.897 234.318H172.145C172.162 235.514 172.405 236.519 172.873 237.334C173.358 238.131 173.982 238.721 174.745 239.102C175.507 239.483 176.331 239.674 177.215 239.674ZM177.293 228.104C176.374 228.104 175.533 228.295 174.771 228.676C174.008 229.057 173.384 229.647 172.899 230.444C172.431 231.224 172.179 232.203 172.145 233.382H182.181C182.25 232.221 182.059 231.241 181.609 230.444C181.158 229.647 180.551 229.057 179.789 228.676C179.026 228.295 178.194 228.104 177.293 228.104ZM194.869 226.622C196.169 226.622 197.313 226.917 198.301 227.506C199.306 228.078 200.086 228.919 200.641 230.028C201.213 231.12 201.499 232.411 201.499 233.902C201.499 235.375 201.213 236.667 200.641 237.776C200.086 238.868 199.306 239.709 198.301 240.298C197.295 240.887 196.151 241.182 194.869 241.182C193.413 241.182 192.182 240.809 191.177 240.064C190.171 239.319 189.478 238.331 189.097 237.1V247.708H187.277V226.804H189.097V230.704C189.478 229.473 190.171 228.485 191.177 227.74C192.182 226.995 193.413 226.622 194.869 226.622ZM194.375 228.234C193.369 228.234 192.459 228.468 191.645 228.936C190.847 229.404 190.223 230.071 189.773 230.938C189.322 231.787 189.097 232.775 189.097 233.902C189.097 235.029 189.322 236.025 189.773 236.892C190.223 237.741 190.847 238.4 191.645 238.868C192.459 239.336 193.369 239.57 194.375 239.57C195.987 239.57 197.269 239.067 198.223 238.062C199.176 237.039 199.653 235.653 199.653 233.902C199.653 232.151 199.176 230.773 198.223 229.768C197.269 228.745 195.987 228.234 194.375 228.234ZM211.219 239.388V241H209.529C208.16 241 207.137 240.679 206.461 240.038C205.785 239.379 205.447 238.279 205.447 236.736V228.39H203.289V226.804H205.447V223.216H207.293V226.804H211.193V228.39H207.293V236.762C207.293 237.767 207.475 238.461 207.839 238.842C208.203 239.206 208.844 239.388 209.763 239.388H211.219ZM213.8 222.592C213.8 222.211 213.922 221.907 214.164 221.682C214.424 221.457 214.754 221.344 215.152 221.344C215.551 221.344 215.872 221.457 216.114 221.682C216.357 221.907 216.478 222.211 216.478 222.592C216.478 222.956 216.357 223.251 216.114 223.476C215.872 223.701 215.551 223.814 215.152 223.814C214.754 223.814 214.424 223.701 214.164 223.476C213.922 223.251 213.8 222.956 213.8 222.592ZM216.062 226.804V241H214.216V226.804H216.062ZM226.427 226.622C227.779 226.622 228.984 226.917 230.041 227.506C231.116 228.078 231.957 228.919 232.563 230.028C233.17 231.12 233.473 232.411 233.473 233.902C233.473 235.393 233.17 236.684 232.563 237.776C231.957 238.868 231.116 239.709 230.041 240.298C228.984 240.887 227.779 241.182 226.427 241.182C225.075 241.182 223.862 240.887 222.787 240.298C221.713 239.709 220.863 238.868 220.239 237.776C219.633 236.667 219.329 235.375 219.329 233.902C219.329 232.411 219.633 231.12 220.239 230.028C220.863 228.919 221.713 228.078 222.787 227.506C223.862 226.917 225.075 226.622 226.427 226.622ZM226.427 228.208C225.491 228.208 224.625 228.416 223.827 228.832C223.03 229.248 222.389 229.889 221.903 230.756C221.418 231.605 221.175 232.654 221.175 233.902C221.175 235.15 221.418 236.199 221.903 237.048C222.389 237.897 223.03 238.53 223.827 238.946C224.625 239.362 225.491 239.57 226.427 239.57C227.346 239.57 228.195 239.362 228.975 238.946C229.773 238.53 230.414 237.897 230.899 237.048C231.385 236.199 231.627 235.15 231.627 233.902C231.627 232.654 231.385 231.605 230.899 230.756C230.414 229.889 229.773 229.248 228.975 228.832C228.195 228.416 227.346 228.208 226.427 228.208ZM243.836 226.544C245.482 226.544 246.817 227.073 247.84 228.13C248.88 229.17 249.4 230.704 249.4 232.732V241H247.606V232.862C247.606 231.319 247.216 230.141 246.436 229.326C245.656 228.494 244.59 228.078 243.238 228.078C241.816 228.078 240.681 228.537 239.832 229.456C239 230.357 238.584 231.692 238.584 233.46V241H236.738V226.804H238.584V230.288C238.948 229.075 239.606 228.147 240.56 227.506C241.513 226.865 242.605 226.544 243.836 226.544Z" fill="#001B72"/>
</svg>
