<svg width="20" height="23" viewBox="0 0 20 23" fill="none" xmlns="http://www.w3.org/2000/svg">
<path d="M8.23723 19.3782L9.75981 22.9019L10.2383 22.9019L11.7609 19.3782L19.9828 0.367749C20.0698 0.150238 19.8088 -0.0672736 19.5913 0.106735C18.4603 1.06378 17.1552 1.84682 15.7196 2.36885C15.6761 2.41235 15.5891 2.45585 15.5891 2.49936L10.1948 14.8105C10.1078 14.9845 9.84681 14.9845 9.75981 14.8105L4.40904 2.45585C4.36553 2.41235 4.32203 2.36885 4.27853 2.32535C2.84296 1.80332 1.53789 1.06378 0.406832 0.0632322C0.232822 -0.110777 -0.0716934 0.106734 0.0153103 0.324245L8.23723 19.3782Z" fill="#D9D9D9"/>
</svg>
