<svg id="Layer_1" data-name="Layer 1" xmlns="http://www.w3.org/2000/svg" viewBox="0 0 64 64"><defs><style>.cls-1{fill:#001b72;}</style></defs><path class="cls-1" d="M20,33.12,8,45.46l-.3-.32a16.46,16.46,0,0,1-4.24-9.75,22.06,22.06,0,0,1,0-4.4A16.35,16.35,0,0,1,7.7,21.27L8,20.92Z"/><path class="cls-1" d="M26.16,37.05,9.44,19.64a13.88,13.88,0,0,1,9-3.08H45.61a13.86,13.86,0,0,1,9,3.08L37.84,37.05a8.09,8.09,0,0,1-11.68,0Z"/><path class="cls-1" d="M42.72,34.45,54.56,46.78a13.77,13.77,0,0,1-9,3.11H18.39a13.79,13.79,0,0,1-9-3.11L21.28,34.45l3.64,3.79a9.83,9.83,0,0,0,14.16,0Z"/><path class="cls-1" d="M60.65,33.19a17,17,0,0,1-4.36,12l-.24.26L44.21,33.19,56,21l.25.27A16.89,16.89,0,0,1,60.65,33.19Z"/></svg>