<svg id="Layer_1" data-name="Layer 1" xmlns="http://www.w3.org/2000/svg" viewBox="0 0 32 32"><defs><style>.cls-1{fill:#001b72;}.cls-2{fill:#ffb648;}</style></defs><circle class="cls-1" cx="16" cy="16" r="15.65"/><path class="cls-2" d="M24.44,25.26a1.62,1.62,0,0,1-1.23.79h-.39a10,10,0,0,1-6.56-2.67c-1.14-.9-2.05-1.61-3.22-1.61a2.55,2.55,0,0,0-2.44,1.53A6.46,6.46,0,0,0,10,25.94H8a8.24,8.24,0,0,1,.83-3.54,5.07,5.07,0,0,1,.95-1.33A4.46,4.46,0,0,1,13,19.79a5.12,5.12,0,0,1,2.31.57,13.48,13.48,0,0,1,2.14,1.46,10.64,10.64,0,0,0,3.84,2.1c1,.25,1-.05.7-.86l-5.6-12.93s0,0,0,0l-3.49,8a4.58,4.58,0,0,0-2.51.78l6-13.76h0l8.09,18.68A1.61,1.61,0,0,1,24.44,25.26Z"/></svg>