<svg id="Layer_1" data-name="Layer 1" xmlns="http://www.w3.org/2000/svg" viewBox="0 0 64 64"><defs><style>.cls-1{fill:#001b72;}</style></defs><path class="cls-1" d="M42.73,3.88H21.47A17.72,17.72,0,0,0,3.75,21.6V42.86A17.72,17.72,0,0,0,21.47,60.57H42.73A17.72,17.72,0,0,0,60.45,42.86V21.6A17.72,17.72,0,0,0,42.73,3.88Zm12.4,39a12.41,12.41,0,0,1-12.4,12.4H21.47a12.41,12.41,0,0,1-12.4-12.4V21.6A12.41,12.41,0,0,1,21.47,9.2H42.73a12.41,12.41,0,0,1,12.4,12.4Z"/><path class="cls-1" d="M32.1,18.05A14.18,14.18,0,1,0,46.27,32.23,14.17,14.17,0,0,0,32.1,18.05Zm0,23A8.86,8.86,0,1,1,41,32.23,8.88,8.88,0,0,1,32.1,41.09Z"/><circle class="cls-1" cx="47.34" cy="16.99" r="1.89"/></svg>