<svg width="27" height="27" viewBox="0 0 27 27" fill="none" xmlns="http://www.w3.org/2000/svg">
<path d="M20.6829 26.4807C19.2504 26.3931 17.2361 25.9113 15.2666 25.2105C8.30595 22.7795 1.52439 16.2969 0.0919831 7.22999C-0.176594 5.60934 0.114364 4.14199 1.34534 2.93745C1.77059 2.54323 2.12869 2.08332 2.55394 1.6672C4.09825 0.134151 6.35877 0.090349 7.94785 1.5796C8.46262 2.06142 8.97739 2.52133 9.46978 3.00315C10.8798 4.36099 10.9246 6.55107 9.60407 7.97462C9.22359 8.39073 8.82072 8.78494 8.41786 9.17916C7.97023 9.61717 7.4107 9.85808 6.82878 10.0333C6.09019 10.2523 5.95591 10.5589 6.29163 11.2378C8.3731 15.5523 11.6632 18.6622 16.1394 20.5456C16.7437 20.8084 17.0123 20.677 17.2585 20.1076C17.7957 18.8374 18.7581 17.8957 19.8771 17.151C21.1305 16.2969 22.9434 16.494 24.1296 17.5014C24.7786 18.049 25.4053 18.6403 26.0096 19.2535C27.3301 20.6332 27.3301 22.8014 26.0096 24.1812C25.8306 24.3783 25.6291 24.5754 25.4501 24.7725C24.3534 25.9989 22.9881 26.5683 20.6829 26.4807Z" fill="#001B72"/>
</svg>
