<svg id="Layer_1" data-name="Layer 1" xmlns="http://www.w3.org/2000/svg" viewBox="0 0 64 64"><defs><style>.cls-1{fill:#001b72;}</style></defs><path class="cls-1" d="M43.38,33.35A6.13,6.13,0,0,1,41.79,37a5.16,5.16,0,0,1-4,1.76H33.05V33.35H43.38m.47-.44H32.62v6.3h5.2a5.63,5.63,0,0,0,4.29-1.89,6.66,6.66,0,0,0,1.74-4.41Z"/><path class="cls-1" d="M44.73,30.82,33.82,28.18l1.48-6.13,5.05,1.23a5.6,5.6,0,0,1,3.73,2.86A6.73,6.73,0,0,1,44.73,30.82Z"/><path class="cls-1" d="M30.6,25.46v5.43H20.52a6.14,6.14,0,0,1,1.6-3.66,5.14,5.14,0,0,1,4-1.77H30.6M31,25H26.09a5.58,5.58,0,0,0-4.29,1.9,6.68,6.68,0,0,0-1.74,4.4H31V25Z"/><path class="cls-1" d="M31.06,32.93v6.3H26.12a5.6,5.6,0,0,1-4.29-1.89,6.71,6.71,0,0,1-1.75-4.41Z"/><polygon class="cls-1" points="48.71 31.72 48.71 32.5 32.24 32.5 31.46 32.49 15.24 32.49 15.24 31.72 31.46 31.72 32.24 31.72 48.71 31.72"/><rect class="cls-1" x="31.46" y="20.87" width="0.78" height="22.54"/></svg>