<svg width="387" height="175" viewBox="0 0 387 175" fill="none" xmlns="http://www.w3.org/2000/svg">
<path d="M107.334 47.6307C106.838 53.0883 104.688 57.8845 101.215 61.6883C97.0799 66.1537 92.1184 68.3037 85.9991 68.3037H67.8068V47.6307H107.334ZM109.153 45.9768H66.3184V69.9576H86.1645C92.6145 69.9576 98.0722 67.4768 102.538 62.6807C106.672 58.2153 108.822 52.5922 109.153 45.9768Z" fill="#001B72"/>
<path d="M112.46 37.8731L70.7832 27.7847L76.4063 4.46545L95.5909 9.09622C101.876 10.5847 106.672 14.2231 109.814 20.0116C112.956 25.4693 113.783 31.4231 112.46 37.8731Z" fill="#001B72"/>
<path d="M58.5459 17.5309V38.204H20.1767C20.6728 32.7463 22.6574 28.1155 26.2959 24.1463C30.4305 19.6809 35.392 17.3655 41.5113 17.3655L58.5459 17.3655M60.1997 15.8771H41.3459C34.8959 15.8771 29.4382 18.3578 24.9728 23.154C20.8382 27.6194 18.6882 33.2425 18.3574 39.8578H60.1997V15.8771Z" fill="#001B72"/>
<path d="M60.3638 45.9769V69.9577H41.5099C35.0599 69.9577 29.6023 67.4769 25.1369 62.6808C21.0023 58.2154 18.6869 52.5923 18.5215 45.8115H60.3638V45.9769Z" fill="#001B72"/>
<path d="M127.677 41.3463V44.3232H64.8308H61.8538L0 44.3232L0 41.3463L61.8538 41.3463H64.8308H127.677Z" fill="#001B72"/>
<path d="M64.8324 0L61.8555 0L61.8555 86H64.8324V0Z" fill="#001B72"/>
<path d="M166.38 26.052C166.38 27.612 165.868 28.8687 164.846 29.822C163.823 30.7753 162.289 31.252 160.244 31.252H156.578V39H154.758V20.826H160.244C162.272 20.826 163.797 21.3027 164.82 22.256C165.86 23.2093 166.38 24.4747 166.38 26.052ZM160.244 29.692C163.086 29.692 164.508 28.4787 164.508 26.052C164.508 24.8387 164.17 23.92 163.494 23.296C162.818 22.672 161.734 22.36 160.244 22.36H156.578V29.692H160.244ZM171.254 27.326C171.652 26.442 172.259 25.7573 173.074 25.272C173.906 24.7867 174.92 24.544 176.116 24.544V26.442H175.622C174.304 26.442 173.247 26.7973 172.45 27.508C171.652 28.2187 171.254 29.406 171.254 31.07V39H169.434V24.804H171.254V27.326ZM191.697 31.174C191.697 31.798 191.68 32.2747 191.645 32.604H179.867C179.919 33.6787 180.179 34.5973 180.647 35.36C181.115 36.1227 181.731 36.7033 182.493 37.102C183.256 37.4833 184.088 37.674 184.989 37.674C186.168 37.674 187.156 37.388 187.953 36.816C188.768 36.244 189.305 35.4727 189.565 34.502H191.489C191.143 35.8887 190.397 37.024 189.253 37.908C188.127 38.7747 186.705 39.208 184.989 39.208C183.655 39.208 182.459 38.9133 181.401 38.324C180.344 37.7173 179.512 36.868 178.905 35.776C178.316 34.6667 178.021 33.3753 178.021 31.902C178.021 30.4287 178.316 29.1373 178.905 28.028C179.495 26.9187 180.318 26.0693 181.375 25.48C182.433 24.8907 183.637 24.596 184.989 24.596C186.341 24.596 187.52 24.8907 188.525 25.48C189.548 26.0693 190.328 26.8667 190.865 27.872C191.42 28.86 191.697 29.9607 191.697 31.174ZM189.851 31.122C189.869 30.0647 189.652 29.1633 189.201 28.418C188.768 27.6727 188.17 27.1093 187.407 26.728C186.645 26.3467 185.813 26.156 184.911 26.156C183.559 26.156 182.407 26.5893 181.453 27.456C180.5 28.3227 179.971 29.5447 179.867 31.122H189.851ZM194.195 31.902C194.195 30.4287 194.49 29.146 195.079 28.054C195.669 26.9447 196.483 26.0953 197.523 25.506C198.563 24.8993 199.751 24.596 201.085 24.596C202.836 24.596 204.275 25.0293 205.401 25.896C206.545 26.7627 207.282 27.9413 207.611 29.432H205.661C205.419 28.4093 204.89 27.612 204.075 27.04C203.278 26.4507 202.281 26.156 201.085 26.156C200.132 26.156 199.274 26.3727 198.511 26.806C197.749 27.2393 197.142 27.8893 196.691 28.756C196.258 29.6053 196.041 30.654 196.041 31.902C196.041 33.15 196.258 34.2073 196.691 35.074C197.142 35.9407 197.749 36.5907 198.511 37.024C199.274 37.4573 200.132 37.674 201.085 37.674C202.281 37.674 203.278 37.388 204.075 36.816C204.89 36.2267 205.419 35.412 205.661 34.372H207.611C207.282 35.828 206.545 36.998 205.401 37.882C204.257 38.766 202.819 39.208 201.085 39.208C199.751 39.208 198.563 38.9133 197.523 38.324C196.483 37.7173 195.669 36.868 195.079 35.776C194.49 34.6667 194.195 33.3753 194.195 31.902ZM211.883 22.126C211.519 22.126 211.207 21.996 210.947 21.736C210.687 21.476 210.557 21.1553 210.557 20.774C210.557 20.3927 210.687 20.0807 210.947 19.838C211.207 19.578 211.519 19.448 211.883 19.448C212.247 19.448 212.559 19.578 212.819 19.838C213.079 20.0807 213.209 20.3927 213.209 20.774C213.209 21.1553 213.079 21.476 212.819 21.736C212.559 21.996 212.247 22.126 211.883 22.126ZM212.793 24.804V39H210.973V24.804H212.793ZM221.802 39.208C220.173 39.208 218.838 38.8353 217.798 38.09C216.775 37.3273 216.203 36.296 216.082 34.996H217.954C218.041 35.7933 218.413 36.4433 219.072 36.946C219.748 37.4313 220.649 37.674 221.776 37.674C222.764 37.674 223.535 37.44 224.09 36.972C224.662 36.504 224.948 35.9233 224.948 35.23C224.948 34.7447 224.792 34.346 224.48 34.034C224.168 33.722 223.769 33.4793 223.284 33.306C222.816 33.1153 222.175 32.916 221.36 32.708C220.303 32.4307 219.445 32.1533 218.786 31.876C218.127 31.5987 217.564 31.1913 217.096 30.654C216.645 30.0993 216.42 29.3627 216.42 28.444C216.42 27.7507 216.628 27.1093 217.044 26.52C217.46 25.9307 218.049 25.4627 218.812 25.116C219.575 24.7693 220.441 24.596 221.412 24.596C222.937 24.596 224.168 24.986 225.104 25.766C226.04 26.5287 226.543 27.586 226.612 28.938H224.792C224.74 28.106 224.411 27.4387 223.804 26.936C223.215 26.416 222.4 26.156 221.36 26.156C220.441 26.156 219.696 26.3727 219.124 26.806C218.552 27.2393 218.266 27.7767 218.266 28.418C218.266 28.9727 218.431 29.432 218.76 29.796C219.107 30.1427 219.531 30.42 220.034 30.628C220.537 30.8187 221.213 31.0353 222.062 31.278C223.085 31.5553 223.899 31.824 224.506 32.084C225.113 32.344 225.633 32.7253 226.066 33.228C226.499 33.7307 226.725 34.398 226.742 35.23C226.742 35.9927 226.534 36.6773 226.118 37.284C225.702 37.8733 225.121 38.3413 224.376 38.688C223.631 39.0347 222.773 39.208 221.802 39.208ZM243.012 31.174C243.012 31.798 242.995 32.2747 242.96 32.604H231.182C231.234 33.6787 231.494 34.5973 231.962 35.36C232.43 36.1227 233.045 36.7033 233.808 37.102C234.571 37.4833 235.403 37.674 236.304 37.674C237.483 37.674 238.471 37.388 239.268 36.816C240.083 36.244 240.62 35.4727 240.88 34.502H242.804C242.457 35.8887 241.712 37.024 240.568 37.908C239.441 38.7747 238.02 39.208 236.304 39.208C234.969 39.208 233.773 38.9133 232.716 38.324C231.659 37.7173 230.827 36.868 230.22 35.776C229.631 34.6667 229.336 33.3753 229.336 31.902C229.336 30.4287 229.631 29.1373 230.22 28.028C230.809 26.9187 231.633 26.0693 232.69 25.48C233.747 24.8907 234.952 24.596 236.304 24.596C237.656 24.596 238.835 24.8907 239.84 25.48C240.863 26.0693 241.643 26.8667 242.18 27.872C242.735 28.86 243.012 29.9607 243.012 31.174ZM241.166 31.122C241.183 30.0647 240.967 29.1633 240.516 28.418C240.083 27.6727 239.485 27.1093 238.722 26.728C237.959 26.3467 237.127 26.156 236.226 26.156C234.874 26.156 233.721 26.5893 232.768 27.456C231.815 28.3227 231.286 29.5447 231.182 31.122H241.166ZM166.38 65.052C166.38 66.612 165.868 67.8687 164.846 68.822C163.823 69.7753 162.289 70.252 160.244 70.252H156.578V78H154.758V59.826H160.244C162.272 59.826 163.797 60.3027 164.82 61.256C165.86 62.2093 166.38 63.4747 166.38 65.052ZM160.244 68.692C163.086 68.692 164.508 67.4787 164.508 65.052C164.508 63.8387 164.17 62.92 163.494 62.296C162.818 61.672 161.734 61.36 160.244 61.36H156.578V68.692H160.244ZM171.254 66.326C171.652 65.442 172.259 64.7573 173.074 64.272C173.906 63.7867 174.92 63.544 176.116 63.544V65.442H175.622C174.304 65.442 173.247 65.7973 172.45 66.508C171.652 67.2187 171.254 68.406 171.254 70.07V78H169.434V63.804H171.254V66.326ZM185.067 78.208C183.733 78.208 182.528 77.9133 181.453 77.324C180.396 76.7173 179.555 75.868 178.931 74.776C178.325 73.6667 178.021 72.3753 178.021 70.902C178.021 69.4287 178.333 68.146 178.957 67.054C179.581 65.9447 180.431 65.0953 181.505 64.506C182.58 63.8993 183.785 63.596 185.119 63.596C186.454 63.596 187.659 63.8993 188.733 64.506C189.825 65.0953 190.675 65.9447 191.281 67.054C191.905 68.146 192.217 69.4287 192.217 70.902C192.217 72.358 191.905 73.6407 191.281 74.75C190.657 75.8593 189.799 76.7173 188.707 77.324C187.615 77.9133 186.402 78.208 185.067 78.208ZM185.067 76.622C186.003 76.622 186.87 76.414 187.667 75.998C188.465 75.5647 189.106 74.9233 189.591 74.074C190.094 73.2073 190.345 72.15 190.345 70.902C190.345 69.654 190.103 68.6053 189.617 67.756C189.132 66.8893 188.491 66.248 187.693 65.832C186.896 65.3987 186.029 65.182 185.093 65.182C184.157 65.182 183.291 65.3987 182.493 65.832C181.696 66.248 181.055 66.8893 180.569 67.756C180.101 68.6053 179.867 69.654 179.867 70.902C179.867 72.15 180.101 73.2073 180.569 74.074C181.055 74.9233 181.687 75.5647 182.467 75.998C183.265 76.414 184.131 76.622 185.067 76.622ZM194.703 70.876C194.703 69.42 194.998 68.146 195.587 67.054C196.176 65.9447 196.982 65.0953 198.005 64.506C199.045 63.8993 200.215 63.596 201.515 63.596C202.763 63.596 203.89 63.8993 204.895 64.506C205.9 65.1127 206.637 65.9013 207.105 66.872V58.76H208.925V78H207.105V74.828C206.672 75.816 205.961 76.6307 204.973 77.272C203.985 77.896 202.824 78.208 201.489 78.208C200.189 78.208 199.019 77.9047 197.979 77.298C196.956 76.6913 196.15 75.8333 195.561 74.724C194.989 73.6147 194.703 72.332 194.703 70.876ZM207.105 70.902C207.105 69.758 206.871 68.7527 206.403 67.886C205.935 67.0193 205.294 66.352 204.479 65.884C203.682 65.416 202.798 65.182 201.827 65.182C200.822 65.182 199.92 65.4073 199.123 65.858C198.326 66.3087 197.693 66.9673 197.225 67.834C196.774 68.6833 196.549 69.6973 196.549 70.876C196.549 72.0373 196.774 73.06 197.225 73.944C197.693 74.8107 198.326 75.478 199.123 75.946C199.92 76.3967 200.822 76.622 201.827 76.622C202.798 76.622 203.682 76.388 204.479 75.92C205.294 75.452 205.935 74.7847 206.403 73.918C206.871 73.0513 207.105 72.046 207.105 70.902ZM225.378 63.804V78H223.558V75.504C223.142 76.388 222.501 77.064 221.634 77.532C220.767 78 219.797 78.234 218.722 78.234C217.023 78.234 215.637 77.714 214.562 76.674C213.487 75.6167 212.95 74.0913 212.95 72.098V63.804H214.744V71.89C214.744 73.4327 215.125 74.6113 215.888 75.426C216.668 76.2407 217.725 76.648 219.06 76.648C220.429 76.648 221.521 76.2147 222.336 75.348C223.151 74.4813 223.558 73.2073 223.558 71.526V63.804H225.378ZM228.701 70.902C228.701 69.4287 228.996 68.146 229.585 67.054C230.174 65.9447 230.989 65.0953 232.029 64.506C233.069 63.8993 234.256 63.596 235.591 63.596C237.342 63.596 238.78 64.0293 239.907 64.896C241.051 65.7627 241.788 66.9413 242.117 68.432H240.167C239.924 67.4093 239.396 66.612 238.581 66.04C237.784 65.4507 236.787 65.156 235.591 65.156C234.638 65.156 233.78 65.3727 233.017 65.806C232.254 66.2393 231.648 66.8893 231.197 67.756C230.764 68.6053 230.547 69.654 230.547 70.902C230.547 72.15 230.764 73.2073 231.197 74.074C231.648 74.9407 232.254 75.5907 233.017 76.024C233.78 76.4573 234.638 76.674 235.591 76.674C236.787 76.674 237.784 76.388 238.581 75.816C239.396 75.2267 239.924 74.412 240.167 73.372H242.117C241.788 74.828 241.051 75.998 239.907 76.882C238.763 77.766 237.324 78.208 235.591 78.208C234.256 78.208 233.069 77.9133 232.029 77.324C230.989 76.7173 230.174 75.868 229.585 74.776C228.996 73.6667 228.701 72.3753 228.701 70.902ZM247.844 65.338V74.152C247.844 75.0187 248.009 75.6167 248.338 75.946C248.668 76.2753 249.248 76.44 250.08 76.44H251.744V78H249.794C248.512 78 247.558 77.7053 246.934 77.116C246.31 76.5093 245.998 75.5213 245.998 74.152V65.338H244.022V63.804H245.998V60.242H247.844V63.804H251.744V65.338H247.844ZM255.656 61.126C255.292 61.126 254.98 60.996 254.72 60.736C254.46 60.476 254.33 60.1553 254.33 59.774C254.33 59.3927 254.46 59.0807 254.72 58.838C254.98 58.578 255.292 58.448 255.656 58.448C256.02 58.448 256.332 58.578 256.592 58.838C256.852 59.0807 256.982 59.3927 256.982 59.774C256.982 60.1553 256.852 60.476 256.592 60.736C256.332 60.996 256.02 61.126 255.656 61.126ZM256.566 63.804V78H254.746V63.804H256.566ZM266.901 78.208C265.567 78.208 264.362 77.9133 263.287 77.324C262.23 76.7173 261.389 75.868 260.765 74.776C260.159 73.6667 259.855 72.3753 259.855 70.902C259.855 69.4287 260.167 68.146 260.791 67.054C261.415 65.9447 262.265 65.0953 263.339 64.506C264.414 63.8993 265.619 63.596 266.953 63.596C268.288 63.596 269.493 63.8993 270.567 64.506C271.659 65.0953 272.509 65.9447 273.115 67.054C273.739 68.146 274.051 69.4287 274.051 70.902C274.051 72.358 273.739 73.6407 273.115 74.75C272.491 75.8593 271.633 76.7173 270.541 77.324C269.449 77.9133 268.236 78.208 266.901 78.208ZM266.901 76.622C267.837 76.622 268.704 76.414 269.501 75.998C270.299 75.5647 270.94 74.9233 271.425 74.074C271.928 73.2073 272.179 72.15 272.179 70.902C272.179 69.654 271.937 68.6053 271.451 67.756C270.966 66.8893 270.325 66.248 269.527 65.832C268.73 65.3987 267.863 65.182 266.927 65.182C265.991 65.182 265.125 65.3987 264.327 65.832C263.53 66.248 262.889 66.8893 262.403 67.756C261.935 68.6053 261.701 69.654 261.701 70.902C261.701 72.15 261.935 73.2073 262.403 74.074C262.889 74.9233 263.521 75.5647 264.301 75.998C265.099 76.414 265.965 76.622 266.901 76.622ZM284.025 63.544C285.724 63.544 287.11 64.0727 288.185 65.13C289.26 66.17 289.797 67.6867 289.797 69.68V78H288.003V69.888C288.003 68.3453 287.613 67.1667 286.833 66.352C286.07 65.5373 285.022 65.13 283.687 65.13C282.318 65.13 281.226 65.5633 280.411 66.43C279.596 67.2967 279.189 68.5707 279.189 70.252V78H277.369V63.804H279.189V66.222C279.64 65.3553 280.29 64.6967 281.139 64.246C281.988 63.778 282.95 63.544 284.025 63.544Z" fill="#001B72"/>
<path d="M12.688 123.848V135H11.232V123.848H12.688ZM25.7135 126.072C26.3962 126.072 27.0042 126.216 27.5375 126.504C28.0708 126.781 28.4922 127.203 28.8015 127.768C29.1108 128.333 29.2655 129.021 29.2655 129.832V135H27.8255V130.04C27.8255 129.165 27.6068 128.499 27.1695 128.04C26.7428 127.571 26.1615 127.336 25.4255 127.336C24.6682 127.336 24.0655 127.581 23.6175 128.072C23.1695 128.552 22.9455 129.251 22.9455 130.168V135H21.5055V130.04C21.5055 129.165 21.2868 128.499 20.8495 128.04C20.4228 127.571 19.8415 127.336 19.1055 127.336C18.3482 127.336 17.7455 127.581 17.2975 128.072C16.8495 128.552 16.6255 129.251 16.6255 130.168V135H15.1695V126.232H16.6255V127.496C16.9135 127.037 17.2975 126.685 17.7775 126.44C18.2682 126.195 18.8068 126.072 19.3935 126.072C20.1295 126.072 20.7802 126.237 21.3455 126.568C21.9108 126.899 22.3322 127.384 22.6095 128.024C22.8548 127.405 23.2602 126.925 23.8255 126.584C24.3908 126.243 25.0202 126.072 25.7135 126.072ZM33.1099 127.848C33.3979 127.347 33.8245 126.931 34.3899 126.6C34.9659 126.259 35.6325 126.088 36.3899 126.088C37.1685 126.088 37.8725 126.275 38.5019 126.648C39.1419 127.021 39.6432 127.549 40.0059 128.232C40.3685 128.904 40.5499 129.688 40.5499 130.584C40.5499 131.469 40.3685 132.259 40.0059 132.952C39.6432 133.645 39.1419 134.184 38.5019 134.568C37.8725 134.952 37.1685 135.144 36.3899 135.144C35.6432 135.144 34.9819 134.979 34.4059 134.648C33.8405 134.307 33.4085 133.885 33.1099 133.384V139.16H31.6539V126.232H33.1099V127.848ZM39.0619 130.584C39.0619 129.923 38.9285 129.347 38.6619 128.856C38.3952 128.365 38.0325 127.992 37.5739 127.736C37.1259 127.48 36.6299 127.352 36.0859 127.352C35.5525 127.352 35.0565 127.485 34.5979 127.752C34.1499 128.008 33.7872 128.387 33.5099 128.888C33.2432 129.379 33.1099 129.949 33.1099 130.6C33.1099 131.261 33.2432 131.843 33.5099 132.344C33.7872 132.835 34.1499 133.213 34.5979 133.48C35.0565 133.736 35.5525 133.864 36.0859 133.864C36.6299 133.864 37.1259 133.736 37.5739 133.48C38.0325 133.213 38.3952 132.835 38.6619 132.344C38.9285 131.843 39.0619 131.256 39.0619 130.584ZM43.9224 123.16V135H42.4664V123.16H43.9224ZM54.4039 130.28C54.4039 130.557 54.3879 130.851 54.3559 131.16H47.3479C47.4012 132.024 47.6945 132.701 48.2279 133.192C48.7719 133.672 49.4279 133.912 50.1959 133.912C50.8252 133.912 51.3479 133.768 51.7639 133.48C52.1905 133.181 52.4892 132.787 52.6599 132.296H54.2279C53.9932 133.139 53.5239 133.827 52.8199 134.36C52.1159 134.883 51.2412 135.144 50.1959 135.144C49.3639 135.144 48.6172 134.957 47.9559 134.584C47.3052 134.211 46.7932 133.683 46.4199 133C46.0465 132.307 45.8599 131.507 45.8599 130.6C45.8599 129.693 46.0412 128.899 46.4039 128.216C46.7665 127.533 47.2732 127.011 47.9239 126.648C48.5852 126.275 49.3425 126.088 50.1959 126.088C51.0279 126.088 51.7639 126.269 52.4039 126.632C53.0439 126.995 53.5345 127.496 53.8759 128.136C54.2279 128.765 54.4039 129.48 54.4039 130.28ZM52.8999 129.976C52.8999 129.421 52.7772 128.947 52.5319 128.552C52.2865 128.147 51.9505 127.843 51.5239 127.64C51.1079 127.427 50.6439 127.32 50.1319 127.32C49.3959 127.32 48.7665 127.555 48.2439 128.024C47.7319 128.493 47.4385 129.144 47.3639 129.976H52.8999ZM66.8698 126.072C67.5524 126.072 68.1604 126.216 68.6938 126.504C69.2271 126.781 69.6484 127.203 69.9578 127.768C70.2671 128.333 70.4218 129.021 70.4218 129.832V135H68.9818V130.04C68.9818 129.165 68.7631 128.499 68.3258 128.04C67.8991 127.571 67.3178 127.336 66.5818 127.336C65.8244 127.336 65.2218 127.581 64.7738 128.072C64.3258 128.552 64.1018 129.251 64.1018 130.168V135H62.6618V130.04C62.6618 129.165 62.4431 128.499 62.0058 128.04C61.5791 127.571 60.9978 127.336 60.2618 127.336C59.5044 127.336 58.9018 127.581 58.4538 128.072C58.0058 128.552 57.7818 129.251 57.7818 130.168V135H56.3258V126.232H57.7818V127.496C58.0698 127.037 58.4538 126.685 58.9338 126.44C59.4244 126.195 59.9631 126.072 60.5498 126.072C61.2858 126.072 61.9364 126.237 62.5018 126.568C63.0671 126.899 63.4884 127.384 63.7658 128.024C64.0111 127.405 64.4164 126.925 64.9818 126.584C65.5471 126.243 66.1764 126.072 66.8698 126.072ZM80.8101 130.28C80.8101 130.557 80.7941 130.851 80.7621 131.16H73.7541C73.8075 132.024 74.1008 132.701 74.6341 133.192C75.1781 133.672 75.8341 133.912 76.6021 133.912C77.2315 133.912 77.7541 133.768 78.1701 133.48C78.5968 133.181 78.8955 132.787 79.0661 132.296H80.6341C80.3995 133.139 79.9301 133.827 79.2261 134.36C78.5221 134.883 77.6475 135.144 76.6021 135.144C75.7701 135.144 75.0235 134.957 74.3621 134.584C73.7115 134.211 73.1995 133.683 72.8261 133C72.4528 132.307 72.2661 131.507 72.2661 130.6C72.2661 129.693 72.4475 128.899 72.8101 128.216C73.1728 127.533 73.6795 127.011 74.3301 126.648C74.9915 126.275 75.7488 126.088 76.6021 126.088C77.4341 126.088 78.1701 126.269 78.8101 126.632C79.4501 126.995 79.9408 127.496 80.2821 128.136C80.6341 128.765 80.8101 129.48 80.8101 130.28ZM79.3061 129.976C79.3061 129.421 79.1835 128.947 78.9381 128.552C78.6928 128.147 78.3568 127.843 77.9301 127.64C77.5141 127.427 77.0501 127.32 76.5381 127.32C75.8021 127.32 75.1728 127.555 74.6501 128.024C74.1381 128.493 73.8448 129.144 73.7701 129.976H79.3061ZM87.004 126.072C88.0707 126.072 88.9347 126.397 89.596 127.048C90.2573 127.688 90.588 128.616 90.588 129.832V135H89.148V130.04C89.148 129.165 88.9293 128.499 88.492 128.04C88.0547 127.571 87.4573 127.336 86.7 127.336C85.932 127.336 85.3187 127.576 84.86 128.056C84.412 128.536 84.188 129.235 84.188 130.152V135H82.732V126.232H84.188V127.48C84.476 127.032 84.8653 126.685 85.356 126.44C85.8573 126.195 86.4067 126.072 87.004 126.072ZM94.7424 127.432V132.6C94.7424 133.027 94.833 133.331 95.0144 133.512C95.1957 133.683 95.5104 133.768 95.9584 133.768H97.0304V135H95.7184C94.9077 135 94.2997 134.813 93.8944 134.44C93.489 134.067 93.2864 133.453 93.2864 132.6V127.432H92.1504V126.232H93.2864V124.024H94.7424V126.232H97.0304V127.432H94.7424ZM104.836 127.432V132.6C104.836 133.027 104.927 133.331 105.108 133.512C105.289 133.683 105.604 133.768 106.052 133.768H107.124V135H105.812C105.001 135 104.393 134.813 103.988 134.44C103.583 134.067 103.38 133.453 103.38 132.6V127.432H102.244V126.232H103.38V124.024H104.836V126.232H107.124V127.432H104.836ZM113.24 126.072C113.902 126.072 114.499 126.216 115.032 126.504C115.566 126.781 115.982 127.203 116.28 127.768C116.59 128.333 116.744 129.021 116.744 129.832V135H115.304V130.04C115.304 129.165 115.086 128.499 114.648 128.04C114.211 127.571 113.614 127.336 112.856 127.336C112.088 127.336 111.475 127.576 111.016 128.056C110.568 128.536 110.344 129.235 110.344 130.152V135H108.888V123.16H110.344V127.48C110.632 127.032 111.027 126.685 111.528 126.44C112.04 126.195 112.611 126.072 113.24 126.072ZM127.123 130.28C127.123 130.557 127.107 130.851 127.075 131.16H120.067C120.12 132.024 120.413 132.701 120.947 133.192C121.491 133.672 122.147 133.912 122.915 133.912C123.544 133.912 124.067 133.768 124.483 133.48C124.909 133.181 125.208 132.787 125.379 132.296H126.947C126.712 133.139 126.243 133.827 125.539 134.36C124.835 134.883 123.96 135.144 122.915 135.144C122.083 135.144 121.336 134.957 120.675 134.584C120.024 134.211 119.512 133.683 119.139 133C118.765 132.307 118.579 131.507 118.579 130.6C118.579 129.693 118.76 128.899 119.123 128.216C119.485 127.533 119.992 127.011 120.643 126.648C121.304 126.275 122.061 126.088 122.915 126.088C123.747 126.088 124.483 126.269 125.123 126.632C125.763 126.995 126.253 127.496 126.595 128.136C126.947 128.765 127.123 129.48 127.123 130.28ZM125.619 129.976C125.619 129.421 125.496 128.947 125.251 128.552C125.005 128.147 124.669 127.843 124.243 127.64C123.827 127.427 123.363 127.32 122.851 127.32C122.115 127.32 121.485 127.555 120.963 128.024C120.451 128.493 120.157 129.144 120.083 129.976H125.619ZM134.766 127.656C135.022 127.155 135.385 126.765 135.854 126.488C136.334 126.211 136.915 126.072 137.598 126.072V127.576H137.214C135.582 127.576 134.766 128.461 134.766 130.232V135H133.31V126.232H134.766V127.656ZM147.279 130.28C147.279 130.557 147.263 130.851 147.231 131.16H140.223C140.276 132.024 140.57 132.701 141.103 133.192C141.647 133.672 142.303 133.912 143.071 133.912C143.7 133.912 144.223 133.768 144.639 133.48C145.066 133.181 145.364 132.787 145.535 132.296H147.103C146.868 133.139 146.399 133.827 145.695 134.36C144.991 134.883 144.116 135.144 143.071 135.144C142.239 135.144 141.492 134.957 140.831 134.584C140.18 134.211 139.668 133.683 139.295 133C138.922 132.307 138.735 131.507 138.735 130.6C138.735 129.693 138.916 128.899 139.279 128.216C139.642 127.533 140.148 127.011 140.799 126.648C141.46 126.275 142.218 126.088 143.071 126.088C143.903 126.088 144.639 126.269 145.279 126.632C145.919 126.995 146.41 127.496 146.751 128.136C147.103 128.765 147.279 129.48 147.279 130.28ZM145.775 129.976C145.775 129.421 145.652 128.947 145.407 128.552C145.162 128.147 144.826 127.843 144.399 127.64C143.983 127.427 143.519 127.32 143.007 127.32C142.271 127.32 141.642 127.555 141.119 128.024C140.607 128.493 140.314 129.144 140.239 129.976H145.775ZM152.769 127.432H150.929V135H149.473V127.432H148.337V126.232H149.473V125.608C149.473 124.627 149.723 123.912 150.225 123.464C150.737 123.005 151.553 122.776 152.673 122.776V123.992C152.033 123.992 151.579 124.12 151.313 124.376C151.057 124.621 150.929 125.032 150.929 125.608V126.232H152.769V127.432ZM155.218 124.808C154.941 124.808 154.706 124.712 154.514 124.52C154.322 124.328 154.226 124.093 154.226 123.816C154.226 123.539 154.322 123.304 154.514 123.112C154.706 122.92 154.941 122.824 155.218 122.824C155.485 122.824 155.709 122.92 155.89 123.112C156.082 123.304 156.178 123.539 156.178 123.816C156.178 124.093 156.082 124.328 155.89 124.52C155.709 124.712 155.485 124.808 155.218 124.808ZM155.922 126.232V135H154.466V126.232H155.922ZM162.676 126.072C163.743 126.072 164.607 126.397 165.268 127.048C165.929 127.688 166.26 128.616 166.26 129.832V135H164.82V130.04C164.82 129.165 164.601 128.499 164.164 128.04C163.727 127.571 163.129 127.336 162.372 127.336C161.604 127.336 160.991 127.576 160.532 128.056C160.084 128.536 159.86 129.235 159.86 130.152V135H158.404V126.232H159.86V127.48C160.148 127.032 160.537 126.685 161.028 126.44C161.529 126.195 162.079 126.072 162.676 126.072ZM176.638 130.28C176.638 130.557 176.622 130.851 176.59 131.16H169.582C169.636 132.024 169.929 132.701 170.462 133.192C171.006 133.672 171.662 133.912 172.43 133.912C173.06 133.912 173.582 133.768 173.998 133.48C174.425 133.181 174.724 132.787 174.894 132.296H176.462C176.228 133.139 175.758 133.827 175.054 134.36C174.35 134.883 173.476 135.144 172.43 135.144C171.598 135.144 170.852 134.957 170.19 134.584C169.54 134.211 169.028 133.683 168.654 133C168.281 132.307 168.094 131.507 168.094 130.6C168.094 129.693 168.276 128.899 168.638 128.216C169.001 127.533 169.508 127.011 170.158 126.648C170.82 126.275 171.577 126.088 172.43 126.088C173.262 126.088 173.998 126.269 174.638 126.632C175.278 126.995 175.769 127.496 176.11 128.136C176.462 128.765 176.638 129.48 176.638 130.28ZM175.134 129.976C175.134 129.421 175.012 128.947 174.766 128.552C174.521 128.147 174.185 127.843 173.758 127.64C173.342 127.427 172.878 127.32 172.366 127.32C171.63 127.32 171.001 127.555 170.478 128.024C169.966 128.493 169.673 129.144 169.598 129.976H175.134ZM178.016 130.584C178.016 129.688 178.197 128.904 178.56 128.232C178.923 127.549 179.419 127.021 180.048 126.648C180.688 126.275 181.403 126.088 182.192 126.088C182.875 126.088 183.509 126.248 184.096 126.568C184.683 126.877 185.131 127.288 185.44 127.8V123.16H186.912V135H185.44V133.352C185.152 133.875 184.725 134.307 184.16 134.648C183.595 134.979 182.933 135.144 182.176 135.144C181.397 135.144 180.688 134.952 180.048 134.568C179.419 134.184 178.923 133.645 178.56 132.952C178.197 132.259 178.016 131.469 178.016 130.584ZM185.44 130.6C185.44 129.939 185.307 129.363 185.04 128.872C184.773 128.381 184.411 128.008 183.952 127.752C183.504 127.485 183.008 127.352 182.464 127.352C181.92 127.352 181.424 127.48 180.976 127.736C180.528 127.992 180.171 128.365 179.904 128.856C179.637 129.347 179.504 129.923 179.504 130.584C179.504 131.256 179.637 131.843 179.904 132.344C180.171 132.835 180.528 133.213 180.976 133.48C181.424 133.736 181.92 133.864 182.464 133.864C183.008 133.864 183.504 133.736 183.952 133.48C184.411 133.213 184.773 132.835 185.04 132.344C185.307 131.843 185.44 131.261 185.44 130.6ZM194.39 124.808C194.113 124.808 193.878 124.712 193.686 124.52C193.494 124.328 193.398 124.093 193.398 123.816C193.398 123.539 193.494 123.304 193.686 123.112C193.878 122.92 194.113 122.824 194.39 122.824C194.657 122.824 194.881 122.92 195.062 123.112C195.254 123.304 195.35 123.539 195.35 123.816C195.35 124.093 195.254 124.328 195.062 124.52C194.881 124.712 194.657 124.808 194.39 124.808ZM195.094 126.232V135H193.638V126.232H195.094ZM197.032 130.584C197.032 129.688 197.213 128.904 197.576 128.232C197.938 127.549 198.434 127.021 199.064 126.648C199.704 126.275 200.418 126.088 201.208 126.088C201.89 126.088 202.525 126.248 203.112 126.568C203.698 126.877 204.146 127.288 204.456 127.8V123.16H205.928V135H204.456V133.352C204.168 133.875 203.741 134.307 203.176 134.648C202.61 134.979 201.949 135.144 201.192 135.144C200.413 135.144 199.704 134.952 199.064 134.568C198.434 134.184 197.938 133.645 197.576 132.952C197.213 132.259 197.032 131.469 197.032 130.584ZM204.456 130.6C204.456 129.939 204.322 129.363 204.056 128.872C203.789 128.381 203.426 128.008 202.968 127.752C202.52 127.485 202.024 127.352 201.48 127.352C200.936 127.352 200.44 127.48 199.992 127.736C199.544 127.992 199.186 128.365 198.92 128.856C198.653 129.347 198.52 129.923 198.52 130.584C198.52 131.256 198.653 131.843 198.92 132.344C199.186 132.835 199.544 133.213 199.992 133.48C200.44 133.736 200.936 133.864 201.48 133.864C202.024 133.864 202.52 133.736 202.968 133.48C203.426 133.213 203.789 132.835 204.056 132.344C204.322 131.843 204.456 131.261 204.456 130.6ZM216.388 130.28C216.388 130.557 216.372 130.851 216.34 131.16H209.332C209.386 132.024 209.679 132.701 210.212 133.192C210.756 133.672 211.412 133.912 212.18 133.912C212.81 133.912 213.332 133.768 213.748 133.48C214.175 133.181 214.474 132.787 214.644 132.296H216.212C215.978 133.139 215.508 133.827 214.804 134.36C214.1 134.883 213.226 135.144 212.18 135.144C211.348 135.144 210.602 134.957 209.94 134.584C209.29 134.211 208.778 133.683 208.404 133C208.031 132.307 207.844 131.507 207.844 130.6C207.844 129.693 208.026 128.899 208.388 128.216C208.751 127.533 209.258 127.011 209.908 126.648C210.57 126.275 211.327 126.088 212.18 126.088C213.012 126.088 213.748 126.269 214.388 126.632C215.028 126.995 215.519 127.496 215.86 128.136C216.212 128.765 216.388 129.48 216.388 130.28ZM214.884 129.976C214.884 129.421 214.762 128.947 214.516 128.552C214.271 128.147 213.935 127.843 213.508 127.64C213.092 127.427 212.628 127.32 212.116 127.32C211.38 127.32 210.751 127.555 210.228 128.024C209.716 128.493 209.423 129.144 209.348 129.976H214.884ZM217.766 130.584C217.766 129.688 217.947 128.904 218.31 128.232C218.673 127.549 219.169 127.021 219.798 126.648C220.438 126.275 221.147 126.088 221.926 126.088C222.694 126.088 223.361 126.253 223.926 126.584C224.491 126.915 224.913 127.331 225.19 127.832V126.232H226.662V135H225.19V133.368C224.902 133.88 224.47 134.307 223.894 134.648C223.329 134.979 222.667 135.144 221.91 135.144C221.131 135.144 220.427 134.952 219.798 134.568C219.169 134.184 218.673 133.645 218.31 132.952C217.947 132.259 217.766 131.469 217.766 130.584ZM225.19 130.6C225.19 129.939 225.057 129.363 224.79 128.872C224.523 128.381 224.161 128.008 223.702 127.752C223.254 127.485 222.758 127.352 222.214 127.352C221.67 127.352 221.174 127.48 220.726 127.736C220.278 127.992 219.921 128.365 219.654 128.856C219.387 129.347 219.254 129.923 219.254 130.584C219.254 131.256 219.387 131.843 219.654 132.344C219.921 132.835 220.278 133.213 220.726 133.48C221.174 133.736 221.67 133.864 222.214 133.864C222.758 133.864 223.254 133.736 223.702 133.48C224.161 133.213 224.523 132.835 224.79 132.344C225.057 131.843 225.19 131.261 225.19 130.6ZM232.227 135.144C231.555 135.144 230.952 135.032 230.419 134.808C229.885 134.573 229.464 134.253 229.155 133.848C228.845 133.432 228.675 132.957 228.643 132.424H230.147C230.189 132.861 230.392 133.219 230.755 133.496C231.128 133.773 231.613 133.912 232.211 133.912C232.765 133.912 233.203 133.789 233.523 133.544C233.843 133.299 234.003 132.989 234.003 132.616C234.003 132.232 233.832 131.949 233.491 131.768C233.149 131.576 232.621 131.389 231.907 131.208C231.256 131.037 230.723 130.867 230.307 130.696C229.901 130.515 229.549 130.253 229.251 129.912C228.963 129.56 228.819 129.101 228.819 128.536C228.819 128.088 228.952 127.677 229.219 127.304C229.485 126.931 229.864 126.637 230.355 126.424C230.845 126.2 231.405 126.088 232.035 126.088C233.005 126.088 233.789 126.333 234.387 126.824C234.984 127.315 235.304 127.987 235.347 128.84H233.891C233.859 128.381 233.672 128.013 233.331 127.736C233 127.459 232.552 127.32 231.987 127.32C231.464 127.32 231.048 127.432 230.739 127.656C230.429 127.88 230.275 128.173 230.275 128.536C230.275 128.824 230.365 129.064 230.547 129.256C230.739 129.437 230.973 129.587 231.251 129.704C231.539 129.811 231.933 129.933 232.435 130.072C233.064 130.243 233.576 130.413 233.971 130.584C234.365 130.744 234.701 130.989 234.979 131.32C235.267 131.651 235.416 132.083 235.427 132.616C235.427 133.096 235.293 133.528 235.027 133.912C234.76 134.296 234.381 134.6 233.891 134.824C233.411 135.037 232.856 135.144 232.227 135.144ZM242.5 124.808C242.222 124.808 241.988 124.712 241.796 124.52C241.604 124.328 241.508 124.093 241.508 123.816C241.508 123.539 241.604 123.304 241.796 123.112C241.988 122.92 242.222 122.824 242.5 122.824C242.766 122.824 242.99 122.92 243.172 123.112C243.364 123.304 243.46 123.539 243.46 123.816C243.46 124.093 243.364 124.328 243.172 124.52C242.99 124.712 242.766 124.808 242.5 124.808ZM243.204 126.232V135H241.748V126.232H243.204ZM249.957 126.072C251.024 126.072 251.888 126.397 252.549 127.048C253.21 127.688 253.541 128.616 253.541 129.832V135H252.101V130.04C252.101 129.165 251.882 128.499 251.445 128.04C251.008 127.571 250.41 127.336 249.653 127.336C248.885 127.336 248.272 127.576 247.813 128.056C247.365 128.536 247.141 129.235 247.141 130.152V135H245.685V126.232H247.141V127.48C247.429 127.032 247.818 126.685 248.309 126.44C248.81 126.195 249.36 126.072 249.957 126.072ZM261.961 127.432V132.6C261.961 133.027 262.052 133.331 262.233 133.512C262.414 133.683 262.729 133.768 263.177 133.768H264.249V135H262.937C262.126 135 261.518 134.813 261.113 134.44C260.708 134.067 260.505 133.453 260.505 132.6V127.432H259.369V126.232H260.505V124.024H261.961V126.232H264.249V127.432H261.961ZM270.365 126.072C271.027 126.072 271.624 126.216 272.157 126.504C272.691 126.781 273.107 127.203 273.405 127.768C273.715 128.333 273.869 129.021 273.869 129.832V135H272.429V130.04C272.429 129.165 272.211 128.499 271.773 128.04C271.336 127.571 270.739 127.336 269.981 127.336C269.213 127.336 268.6 127.576 268.141 128.056C267.693 128.536 267.469 129.235 267.469 130.152V135H266.013V123.16H267.469V127.48C267.757 127.032 268.152 126.685 268.653 126.44C269.165 126.195 269.736 126.072 270.365 126.072ZM284.248 130.28C284.248 130.557 284.232 130.851 284.2 131.16H277.192C277.245 132.024 277.538 132.701 278.072 133.192C278.616 133.672 279.272 133.912 280.04 133.912C280.669 133.912 281.192 133.768 281.608 133.48C282.034 133.181 282.333 132.787 282.504 132.296H284.072C283.837 133.139 283.368 133.827 282.664 134.36C281.96 134.883 281.085 135.144 280.04 135.144C279.208 135.144 278.461 134.957 277.8 134.584C277.149 134.211 276.637 133.683 276.264 133C275.89 132.307 275.704 131.507 275.704 130.6C275.704 129.693 275.885 128.899 276.248 128.216C276.61 127.533 277.117 127.011 277.768 126.648C278.429 126.275 279.186 126.088 280.04 126.088C280.872 126.088 281.608 126.269 282.248 126.632C282.888 126.995 283.378 127.496 283.72 128.136C284.072 128.765 284.248 129.48 284.248 130.28ZM282.744 129.976C282.744 129.421 282.621 128.947 282.376 128.552C282.13 128.147 281.794 127.843 281.368 127.64C280.952 127.427 280.488 127.32 279.976 127.32C279.24 127.32 278.61 127.555 278.088 128.024C277.576 128.493 277.282 129.144 277.208 129.976H282.744ZM294.707 126.072C295.774 126.072 296.638 126.397 297.299 127.048C297.96 127.688 298.291 128.616 298.291 129.832V135H296.851V130.04C296.851 129.165 296.632 128.499 296.195 128.04C295.758 127.571 295.16 127.336 294.403 127.336C293.635 127.336 293.022 127.576 292.563 128.056C292.115 128.536 291.891 129.235 291.891 130.152V135H290.435V126.232H291.891V127.48C292.179 127.032 292.568 126.685 293.059 126.44C293.56 126.195 294.11 126.072 294.707 126.072ZM308.67 130.28C308.67 130.557 308.654 130.851 308.622 131.16H301.614C301.667 132.024 301.96 132.701 302.494 133.192C303.038 133.672 303.694 133.912 304.462 133.912C305.091 133.912 305.614 133.768 306.03 133.48C306.456 133.181 306.755 132.787 306.926 132.296H308.494C308.259 133.139 307.79 133.827 307.086 134.36C306.382 134.883 305.507 135.144 304.462 135.144C303.63 135.144 302.883 134.957 302.222 134.584C301.571 134.211 301.059 133.683 300.686 133C300.312 132.307 300.126 131.507 300.126 130.6C300.126 129.693 300.307 128.899 300.67 128.216C301.032 127.533 301.539 127.011 302.19 126.648C302.851 126.275 303.608 126.088 304.462 126.088C305.294 126.088 306.03 126.269 306.67 126.632C307.31 126.995 307.8 127.496 308.142 128.136C308.494 128.765 308.67 129.48 308.67 130.28ZM307.166 129.976C307.166 129.421 307.043 128.947 306.798 128.552C306.552 128.147 306.216 127.843 305.79 127.64C305.374 127.427 304.91 127.32 304.398 127.32C303.662 127.32 303.032 127.555 302.51 128.024C301.998 128.493 301.704 129.144 301.63 129.976H307.166ZM310.047 130.6C310.047 129.693 310.229 128.904 310.591 128.232C310.954 127.549 311.455 127.021 312.095 126.648C312.746 126.275 313.487 126.088 314.319 126.088C315.397 126.088 316.282 126.349 316.975 126.872C317.679 127.395 318.143 128.12 318.367 129.048H316.799C316.65 128.515 316.357 128.093 315.919 127.784C315.493 127.475 314.959 127.32 314.319 127.32C313.487 127.32 312.815 127.608 312.303 128.184C311.791 128.749 311.535 129.555 311.535 130.6C311.535 131.656 311.791 132.472 312.303 133.048C312.815 133.624 313.487 133.912 314.319 133.912C314.959 133.912 315.493 133.763 315.919 133.464C316.346 133.165 316.639 132.739 316.799 132.184H318.367C318.133 133.08 317.663 133.8 316.959 134.344C316.255 134.877 315.375 135.144 314.319 135.144C313.487 135.144 312.746 134.957 312.095 134.584C311.455 134.211 310.954 133.683 310.591 133C310.229 132.317 310.047 131.517 310.047 130.6ZM328.31 130.28C328.31 130.557 328.294 130.851 328.262 131.16H321.254C321.307 132.024 321.601 132.701 322.134 133.192C322.678 133.672 323.334 133.912 324.102 133.912C324.731 133.912 325.254 133.768 325.67 133.48C326.097 133.181 326.395 132.787 326.566 132.296H328.134C327.899 133.139 327.43 133.827 326.726 134.36C326.022 134.883 325.147 135.144 324.102 135.144C323.27 135.144 322.523 134.957 321.862 134.584C321.211 134.211 320.699 133.683 320.326 133C319.953 132.307 319.766 131.507 319.766 130.6C319.766 129.693 319.947 128.899 320.31 128.216C320.673 127.533 321.179 127.011 321.83 126.648C322.491 126.275 323.249 126.088 324.102 126.088C324.934 126.088 325.67 126.269 326.31 126.632C326.95 126.995 327.441 127.496 327.782 128.136C328.134 128.765 328.31 129.48 328.31 130.28ZM326.806 129.976C326.806 129.421 326.683 128.947 326.438 128.552C326.193 128.147 325.857 127.843 325.43 127.64C325.014 127.427 324.55 127.32 324.038 127.32C323.302 127.32 322.673 127.555 322.15 128.024C321.638 128.493 321.345 129.144 321.27 129.976H326.806ZM333.336 135.144C332.664 135.144 332.061 135.032 331.528 134.808C330.995 134.573 330.573 134.253 330.264 133.848C329.955 133.432 329.784 132.957 329.752 132.424H331.256C331.299 132.861 331.501 133.219 331.864 133.496C332.237 133.773 332.723 133.912 333.32 133.912C333.875 133.912 334.312 133.789 334.632 133.544C334.952 133.299 335.112 132.989 335.112 132.616C335.112 132.232 334.941 131.949 334.6 131.768C334.259 131.576 333.731 131.389 333.016 131.208C332.365 131.037 331.832 130.867 331.416 130.696C331.011 130.515 330.659 130.253 330.36 129.912C330.072 129.56 329.928 129.101 329.928 128.536C329.928 128.088 330.061 127.677 330.328 127.304C330.595 126.931 330.973 126.637 331.464 126.424C331.955 126.2 332.515 126.088 333.144 126.088C334.115 126.088 334.899 126.333 335.496 126.824C336.093 127.315 336.413 127.987 336.456 128.84H335C334.968 128.381 334.781 128.013 334.44 127.736C334.109 127.459 333.661 127.32 333.096 127.32C332.573 127.32 332.157 127.432 331.848 127.656C331.539 127.88 331.384 128.173 331.384 128.536C331.384 128.824 331.475 129.064 331.656 129.256C331.848 129.437 332.083 129.587 332.36 129.704C332.648 129.811 333.043 129.933 333.544 130.072C334.173 130.243 334.685 130.413 335.08 130.584C335.475 130.744 335.811 130.989 336.088 131.32C336.376 131.651 336.525 132.083 336.536 132.616C336.536 133.096 336.403 133.528 336.136 133.912C335.869 134.296 335.491 134.6 335 134.824C334.52 135.037 333.965 135.144 333.336 135.144ZM341.695 135.144C341.023 135.144 340.421 135.032 339.887 134.808C339.354 134.573 338.933 134.253 338.623 133.848C338.314 133.432 338.143 132.957 338.111 132.424H339.615C339.658 132.861 339.861 133.219 340.223 133.496C340.597 133.773 341.082 133.912 341.679 133.912C342.234 133.912 342.671 133.789 342.991 133.544C343.311 133.299 343.471 132.989 343.471 132.616C343.471 132.232 343.301 131.949 342.959 131.768C342.618 131.576 342.09 131.389 341.375 131.208C340.725 131.037 340.191 130.867 339.775 130.696C339.37 130.515 339.018 130.253 338.719 129.912C338.431 129.56 338.287 129.101 338.287 128.536C338.287 128.088 338.421 127.677 338.687 127.304C338.954 126.931 339.333 126.637 339.823 126.424C340.314 126.2 340.874 126.088 341.503 126.088C342.474 126.088 343.258 126.333 343.855 126.824C344.453 127.315 344.773 127.987 344.815 128.84H343.359C343.327 128.381 343.141 128.013 342.799 127.736C342.469 127.459 342.021 127.32 341.455 127.32C340.933 127.32 340.517 127.432 340.207 127.656C339.898 127.88 339.743 128.173 339.743 128.536C339.743 128.824 339.834 129.064 340.015 129.256C340.207 129.437 340.442 129.587 340.719 129.704C341.007 129.811 341.402 129.933 341.903 130.072C342.533 130.243 343.045 130.413 343.439 130.584C343.834 130.744 344.17 130.989 344.447 131.32C344.735 131.651 344.885 132.083 344.895 132.616C344.895 133.096 344.762 133.528 344.495 133.912C344.229 134.296 343.85 134.6 343.359 134.824C342.879 135.037 342.325 135.144 341.695 135.144ZM346.407 130.584C346.407 129.688 346.588 128.904 346.951 128.232C347.313 127.549 347.809 127.021 348.439 126.648C349.079 126.275 349.788 126.088 350.567 126.088C351.335 126.088 352.001 126.253 352.567 126.584C353.132 126.915 353.553 127.331 353.831 127.832V126.232H355.303V135H353.831V133.368C353.543 133.88 353.111 134.307 352.535 134.648C351.969 134.979 351.308 135.144 350.551 135.144C349.772 135.144 349.068 134.952 348.439 134.568C347.809 134.184 347.313 133.645 346.951 132.952C346.588 132.259 346.407 131.469 346.407 130.584ZM353.831 130.6C353.831 129.939 353.697 129.363 353.431 128.872C353.164 128.381 352.801 128.008 352.343 127.752C351.895 127.485 351.399 127.352 350.855 127.352C350.311 127.352 349.815 127.48 349.367 127.736C348.919 127.992 348.561 128.365 348.295 128.856C348.028 129.347 347.895 129.923 347.895 130.584C347.895 131.256 348.028 131.843 348.295 132.344C348.561 132.835 348.919 133.213 349.367 133.48C349.815 133.736 350.311 133.864 350.855 133.864C351.399 133.864 351.895 133.736 352.343 133.48C352.801 133.213 353.164 132.835 353.431 132.344C353.697 131.843 353.831 131.261 353.831 130.6ZM359.219 127.656C359.475 127.155 359.838 126.765 360.307 126.488C360.787 126.211 361.369 126.072 362.051 126.072V127.576H361.667C360.035 127.576 359.219 128.461 359.219 130.232V135H357.763V126.232H359.219V127.656ZM371.284 126.232L366.004 139.128H364.5L366.228 134.904L362.692 126.232H364.308L367.06 133.336L369.78 126.232H371.284ZM10.688 154.584C10.688 153.688 10.8693 152.904 11.232 152.232C11.5947 151.549 12.0907 151.021 12.72 150.648C13.36 150.275 14.0747 150.088 14.864 150.088C15.5467 150.088 16.1813 150.248 16.768 150.568C17.3547 150.877 17.8027 151.288 18.112 151.8V147.16H19.584V159H18.112V157.352C17.824 157.875 17.3973 158.307 16.832 158.648C16.2667 158.979 15.6053 159.144 14.848 159.144C14.0693 159.144 13.36 158.952 12.72 158.568C12.0907 158.184 11.5947 157.645 11.232 156.952C10.8693 156.259 10.688 155.469 10.688 154.584ZM18.112 154.6C18.112 153.939 17.9787 153.363 17.712 152.872C17.4453 152.381 17.0827 152.008 16.624 151.752C16.176 151.485 15.68 151.352 15.136 151.352C14.592 151.352 14.096 151.48 13.648 151.736C13.2 151.992 12.8427 152.365 12.576 152.856C12.3093 153.347 12.176 153.923 12.176 154.584C12.176 155.256 12.3093 155.843 12.576 156.344C12.8427 156.835 13.2 157.213 13.648 157.48C14.096 157.736 14.592 157.864 15.136 157.864C15.68 157.864 16.176 157.736 16.624 157.48C17.0827 157.213 17.4453 156.835 17.712 156.344C17.9787 155.843 18.112 155.261 18.112 154.6ZM30.0445 154.28C30.0445 154.557 30.0285 154.851 29.9965 155.16H22.9885C23.0418 156.024 23.3352 156.701 23.8685 157.192C24.4125 157.672 25.0685 157.912 25.8365 157.912C26.4658 157.912 26.9885 157.768 27.4045 157.48C27.8312 157.181 28.1298 156.787 28.3005 156.296H29.8685C29.6338 157.139 29.1645 157.827 28.4605 158.36C27.7565 158.883 26.8818 159.144 25.8365 159.144C25.0045 159.144 24.2578 158.957 23.5965 158.584C22.9458 158.211 22.4338 157.683 22.0605 157C21.6872 156.307 21.5005 155.507 21.5005 154.6C21.5005 153.693 21.6818 152.899 22.0445 152.216C22.4072 151.533 22.9138 151.011 23.5645 150.648C24.2258 150.275 24.9832 150.088 25.8365 150.088C26.6685 150.088 27.4045 150.269 28.0445 150.632C28.6845 150.995 29.1752 151.496 29.5165 152.136C29.8685 152.765 30.0445 153.48 30.0445 154.28ZM28.5405 153.976C28.5405 153.421 28.4178 152.947 28.1725 152.552C27.9272 152.147 27.5912 151.843 27.1645 151.64C26.7485 151.427 26.2845 151.32 25.7725 151.32C25.0365 151.32 24.4072 151.555 23.8845 152.024C23.3725 152.493 23.0792 153.144 23.0045 153.976H28.5405ZM33.7424 151.432V156.6C33.7424 157.027 33.833 157.331 34.0144 157.512C34.1957 157.683 34.5104 157.768 34.9584 157.768H36.0304V159H34.7184C33.9077 159 33.2997 158.813 32.8944 158.44C32.489 158.067 32.2864 157.453 32.2864 156.6V151.432H31.1504V150.232H32.2864V148.024H33.7424V150.232H36.0304V151.432H33.7424ZM37.2505 154.584C37.2505 153.688 37.4318 152.904 37.7945 152.232C38.1572 151.549 38.6532 151.021 39.2825 150.648C39.9225 150.275 40.6318 150.088 41.4105 150.088C42.1785 150.088 42.8452 150.253 43.4105 150.584C43.9758 150.915 44.3972 151.331 44.6745 151.832V150.232H46.1465V159H44.6745V157.368C44.3865 157.88 43.9545 158.307 43.3785 158.648C42.8132 158.979 42.1518 159.144 41.3945 159.144C40.6158 159.144 39.9118 158.952 39.2825 158.568C38.6532 158.184 38.1572 157.645 37.7945 156.952C37.4318 156.259 37.2505 155.469 37.2505 154.584ZM44.6745 154.6C44.6745 153.939 44.5412 153.363 44.2745 152.872C44.0078 152.381 43.6452 152.008 43.1865 151.752C42.7385 151.485 42.2425 151.352 41.6985 151.352C41.1545 151.352 40.6585 151.48 40.2105 151.736C39.7625 151.992 39.4052 152.365 39.1385 152.856C38.8718 153.347 38.7385 153.923 38.7385 154.584C38.7385 155.256 38.8718 155.843 39.1385 156.344C39.4052 156.835 39.7625 157.213 40.2105 157.48C40.6585 157.736 41.1545 157.864 41.6985 157.864C42.2425 157.864 42.7385 157.736 43.1865 157.48C43.6452 157.213 44.0078 156.835 44.2745 156.344C44.5412 155.843 44.6745 155.261 44.6745 154.6ZM49.359 148.808C49.0817 148.808 48.847 148.712 48.655 148.52C48.463 148.328 48.367 148.093 48.367 147.816C48.367 147.539 48.463 147.304 48.655 147.112C48.847 146.92 49.0817 146.824 49.359 146.824C49.6257 146.824 49.8497 146.92 50.031 147.112C50.223 147.304 50.319 147.539 50.319 147.816C50.319 148.093 50.223 148.328 50.031 148.52C49.8497 148.712 49.6257 148.808 49.359 148.808ZM50.063 150.232V159H48.607V150.232H50.063ZM54.0005 147.16V159H52.5445V147.16H54.0005ZM60.2036 154.584C60.2036 153.688 60.385 152.904 60.7476 152.232C61.1103 151.549 61.6063 151.021 62.2356 150.648C62.8756 150.275 63.585 150.088 64.3636 150.088C65.1316 150.088 65.7983 150.253 66.3636 150.584C66.929 150.915 67.3503 151.331 67.6276 151.832V150.232H69.0996V159H67.6276V157.368C67.3396 157.88 66.9076 158.307 66.3316 158.648C65.7663 158.979 65.105 159.144 64.3476 159.144C63.569 159.144 62.865 158.952 62.2356 158.568C61.6063 158.184 61.1103 157.645 60.7476 156.952C60.385 156.259 60.2036 155.469 60.2036 154.584ZM67.6276 154.6C67.6276 153.939 67.4943 153.363 67.2276 152.872C66.961 152.381 66.5983 152.008 66.1396 151.752C65.6916 151.485 65.1956 151.352 64.6516 151.352C64.1076 151.352 63.6116 151.48 63.1636 151.736C62.7156 151.992 62.3583 152.365 62.0916 152.856C61.825 153.347 61.6916 153.923 61.6916 154.584C61.6916 155.256 61.825 155.843 62.0916 156.344C62.3583 156.835 62.7156 157.213 63.1636 157.48C63.6116 157.736 64.1076 157.864 64.6516 157.864C65.1956 157.864 65.6916 157.736 66.1396 157.48C66.5983 157.213 66.961 156.835 67.2276 156.344C67.4943 155.843 67.6276 155.261 67.6276 154.6ZM75.8321 150.072C76.8988 150.072 77.7628 150.397 78.4241 151.048C79.0855 151.688 79.4161 152.616 79.4161 153.832V159H77.9761V154.04C77.9761 153.165 77.7575 152.499 77.3201 152.04C76.8828 151.571 76.2855 151.336 75.5281 151.336C74.7601 151.336 74.1468 151.576 73.6881 152.056C73.2401 152.536 73.0161 153.235 73.0161 154.152V159H71.5601V150.232H73.0161V151.48C73.3041 151.032 73.6935 150.685 74.1841 150.44C74.6855 150.195 75.2348 150.072 75.8321 150.072ZM81.2505 154.584C81.2505 153.688 81.4318 152.904 81.7945 152.232C82.1572 151.549 82.6532 151.021 83.2825 150.648C83.9225 150.275 84.6372 150.088 85.4265 150.088C86.1092 150.088 86.7438 150.248 87.3305 150.568C87.9172 150.877 88.3652 151.288 88.6745 151.8V147.16H90.1465V159H88.6745V157.352C88.3865 157.875 87.9598 158.307 87.3945 158.648C86.8292 158.979 86.1678 159.144 85.4105 159.144C84.6318 159.144 83.9225 158.952 83.2825 158.568C82.6532 158.184 82.1572 157.645 81.7945 156.952C81.4318 156.259 81.2505 155.469 81.2505 154.584ZM88.6745 154.6C88.6745 153.939 88.5412 153.363 88.2745 152.872C88.0078 152.381 87.6452 152.008 87.1865 151.752C86.7385 151.485 86.2425 151.352 85.6985 151.352C85.1545 151.352 84.6585 151.48 84.2105 151.736C83.7625 151.992 83.4052 152.365 83.1385 152.856C82.8718 153.347 82.7385 153.923 82.7385 154.584C82.7385 155.256 82.8718 155.843 83.1385 156.344C83.4052 156.835 83.7625 157.213 84.2105 157.48C84.6585 157.736 85.1545 157.864 85.6985 157.864C86.2425 157.864 86.7385 157.736 87.1865 157.48C87.6452 157.213 88.0078 156.835 88.2745 156.344C88.5412 155.843 88.6745 155.261 88.6745 154.6ZM96.3286 154.6C96.3286 153.693 96.51 152.904 96.8726 152.232C97.2353 151.549 97.7366 151.021 98.3766 150.648C99.0273 150.275 99.7686 150.088 100.601 150.088C101.678 150.088 102.563 150.349 103.257 150.872C103.961 151.395 104.425 152.12 104.649 153.048H103.081C102.931 152.515 102.638 152.093 102.201 151.784C101.774 151.475 101.241 151.32 100.601 151.32C99.7686 151.32 99.0966 151.608 98.5846 152.184C98.0726 152.749 97.8166 153.555 97.8166 154.6C97.8166 155.656 98.0726 156.472 98.5846 157.048C99.0966 157.624 99.7686 157.912 100.601 157.912C101.241 157.912 101.774 157.763 102.201 157.464C102.627 157.165 102.921 156.739 103.081 156.184H104.649C104.414 157.08 103.945 157.8 103.241 158.344C102.537 158.877 101.657 159.144 100.601 159.144C99.7686 159.144 99.0273 158.957 98.3766 158.584C97.7366 158.211 97.2353 157.683 96.8726 157C96.51 156.317 96.3286 155.517 96.3286 154.6ZM110.415 159.144C109.594 159.144 108.847 158.957 108.175 158.584C107.514 158.211 106.991 157.683 106.607 157C106.234 156.307 106.047 155.507 106.047 154.6C106.047 153.704 106.239 152.915 106.623 152.232C107.018 151.539 107.551 151.011 108.223 150.648C108.895 150.275 109.647 150.088 110.479 150.088C111.311 150.088 112.063 150.275 112.735 150.648C113.407 151.011 113.935 151.533 114.319 152.216C114.714 152.899 114.911 153.693 114.911 154.6C114.911 155.507 114.709 156.307 114.303 157C113.909 157.683 113.37 158.211 112.687 158.584C112.005 158.957 111.247 159.144 110.415 159.144ZM110.415 157.864C110.938 157.864 111.429 157.741 111.887 157.496C112.346 157.251 112.714 156.883 112.991 156.392C113.279 155.901 113.423 155.304 113.423 154.6C113.423 153.896 113.285 153.299 113.007 152.808C112.73 152.317 112.367 151.955 111.919 151.72C111.471 151.475 110.986 151.352 110.463 151.352C109.93 151.352 109.439 151.475 108.991 151.72C108.554 151.955 108.202 152.317 107.935 152.808C107.669 153.299 107.535 153.896 107.535 154.6C107.535 155.315 107.663 155.917 107.919 156.408C108.186 156.899 108.538 157.267 108.975 157.512C109.413 157.747 109.893 157.864 110.415 157.864ZM120.65 159.144C119.828 159.144 119.082 158.957 118.41 158.584C117.748 158.211 117.226 157.683 116.842 157C116.468 156.307 116.282 155.507 116.282 154.6C116.282 153.704 116.474 152.915 116.858 152.232C117.252 151.539 117.786 151.011 118.458 150.648C119.13 150.275 119.882 150.088 120.714 150.088C121.546 150.088 122.298 150.275 122.97 150.648C123.642 151.011 124.17 151.533 124.554 152.216C124.948 152.899 125.146 153.693 125.146 154.6C125.146 155.507 124.943 156.307 124.538 157C124.143 157.683 123.604 158.211 122.922 158.584C122.239 158.957 121.482 159.144 120.65 159.144ZM120.65 157.864C121.172 157.864 121.663 157.741 122.122 157.496C122.58 157.251 122.948 156.883 123.226 156.392C123.514 155.901 123.658 155.304 123.658 154.6C123.658 153.896 123.519 153.299 123.242 152.808C122.964 152.317 122.602 151.955 122.154 151.72C121.706 151.475 121.22 151.352 120.698 151.352C120.164 151.352 119.674 151.475 119.226 151.72C118.788 151.955 118.436 152.317 118.17 152.808C117.903 153.299 117.77 153.896 117.77 154.6C117.77 155.315 117.898 155.917 118.154 156.408C118.42 156.899 118.772 157.267 119.21 157.512C119.647 157.747 120.127 157.864 120.65 157.864ZM128.516 151.656C128.772 151.155 129.135 150.765 129.604 150.488C130.084 150.211 130.665 150.072 131.348 150.072V151.576H130.964C129.332 151.576 128.516 152.461 128.516 154.232V159H127.06V150.232H128.516V151.656ZM132.485 154.584C132.485 153.688 132.666 152.904 133.029 152.232C133.392 151.549 133.888 151.021 134.517 150.648C135.157 150.275 135.872 150.088 136.661 150.088C137.344 150.088 137.978 150.248 138.565 150.568C139.152 150.877 139.6 151.288 139.909 151.8V147.16H141.381V159H139.909V157.352C139.621 157.875 139.194 158.307 138.629 158.648C138.064 158.979 137.402 159.144 136.645 159.144C135.866 159.144 135.157 158.952 134.517 158.568C133.888 158.184 133.392 157.645 133.029 156.952C132.666 156.259 132.485 155.469 132.485 154.584ZM139.909 154.6C139.909 153.939 139.776 153.363 139.509 152.872C139.242 152.381 138.88 152.008 138.421 151.752C137.973 151.485 137.477 151.352 136.933 151.352C136.389 151.352 135.893 151.48 135.445 151.736C134.997 151.992 134.64 152.365 134.373 152.856C134.106 153.347 133.973 153.923 133.973 154.584C133.973 155.256 134.106 155.843 134.373 156.344C134.64 156.835 134.997 157.213 135.445 157.48C135.893 157.736 136.389 157.864 136.933 157.864C137.477 157.864 137.973 157.736 138.421 157.48C138.88 157.213 139.242 156.835 139.509 156.344C139.776 155.843 139.909 155.261 139.909 154.6ZM144.593 148.808C144.316 148.808 144.081 148.712 143.889 148.52C143.697 148.328 143.601 148.093 143.601 147.816C143.601 147.539 143.697 147.304 143.889 147.112C144.081 146.92 144.316 146.824 144.593 146.824C144.86 146.824 145.084 146.92 145.265 147.112C145.457 147.304 145.553 147.539 145.553 147.816C145.553 148.093 145.457 148.328 145.265 148.52C145.084 148.712 144.86 148.808 144.593 148.808ZM145.297 150.232V159H143.841V150.232H145.297ZM152.051 150.072C153.118 150.072 153.982 150.397 154.643 151.048C155.304 151.688 155.635 152.616 155.635 153.832V159H154.195V154.04C154.195 153.165 153.976 152.499 153.539 152.04C153.102 151.571 152.504 151.336 151.747 151.336C150.979 151.336 150.366 151.576 149.907 152.056C149.459 152.536 149.235 153.235 149.235 154.152V159H147.779V150.232H149.235V151.48C149.523 151.032 149.912 150.685 150.403 150.44C150.904 150.195 151.454 150.072 152.051 150.072ZM157.469 154.584C157.469 153.688 157.651 152.904 158.013 152.232C158.376 151.549 158.872 151.021 159.501 150.648C160.141 150.275 160.851 150.088 161.629 150.088C162.397 150.088 163.064 150.253 163.629 150.584C164.195 150.915 164.616 151.331 164.893 151.832V150.232H166.365V159H164.893V157.368C164.605 157.88 164.173 158.307 163.597 158.648C163.032 158.979 162.371 159.144 161.613 159.144C160.835 159.144 160.131 158.952 159.501 158.568C158.872 158.184 158.376 157.645 158.013 156.952C157.651 156.259 157.469 155.469 157.469 154.584ZM164.893 154.6C164.893 153.939 164.76 153.363 164.493 152.872C164.227 152.381 163.864 152.008 163.405 151.752C162.957 151.485 162.461 151.352 161.917 151.352C161.373 151.352 160.877 151.48 160.429 151.736C159.981 151.992 159.624 152.365 159.357 152.856C159.091 153.347 158.957 153.923 158.957 154.584C158.957 155.256 159.091 155.843 159.357 156.344C159.624 156.835 159.981 157.213 160.429 157.48C160.877 157.736 161.373 157.864 161.917 157.864C162.461 157.864 162.957 157.736 163.405 157.48C163.864 157.213 164.227 156.835 164.493 156.344C164.76 155.843 164.893 155.261 164.893 154.6ZM170.602 151.432V156.6C170.602 157.027 170.692 157.331 170.874 157.512C171.055 157.683 171.37 157.768 171.818 157.768H172.89V159H171.578C170.767 159 170.159 158.813 169.754 158.44C169.348 158.067 169.146 157.453 169.146 156.6V151.432H168.01V150.232H169.146V148.024H170.602V150.232H172.89V151.432H170.602ZM182.654 154.28C182.654 154.557 182.638 154.851 182.606 155.16H175.598C175.651 156.024 175.945 156.701 176.478 157.192C177.022 157.672 177.678 157.912 178.446 157.912C179.075 157.912 179.598 157.768 180.014 157.48C180.441 157.181 180.739 156.787 180.91 156.296H182.478C182.243 157.139 181.774 157.827 181.07 158.36C180.366 158.883 179.491 159.144 178.446 159.144C177.614 159.144 176.867 158.957 176.206 158.584C175.555 158.211 175.043 157.683 174.67 157C174.297 156.307 174.11 155.507 174.11 154.6C174.11 153.693 174.291 152.899 174.654 152.216C175.017 151.533 175.523 151.011 176.174 150.648C176.835 150.275 177.593 150.088 178.446 150.088C179.278 150.088 180.014 150.269 180.654 150.632C181.294 150.995 181.785 151.496 182.126 152.136C182.478 152.765 182.654 153.48 182.654 154.28ZM181.15 153.976C181.15 153.421 181.027 152.947 180.782 152.552C180.537 152.147 180.201 151.843 179.774 151.64C179.358 151.427 178.894 151.32 178.382 151.32C177.646 151.32 177.017 151.555 176.494 152.024C175.982 152.493 175.689 153.144 175.614 153.976H181.15ZM190.617 151.432V156.6C190.617 157.027 190.708 157.331 190.889 157.512C191.071 157.683 191.385 157.768 191.833 157.768H192.905V159H191.593C190.783 159 190.175 158.813 189.769 158.44C189.364 158.067 189.161 157.453 189.161 156.6V151.432H188.025V150.232H189.161V148.024H190.617V150.232H192.905V151.432H190.617ZM199.022 150.072C199.683 150.072 200.28 150.216 200.814 150.504C201.347 150.781 201.763 151.203 202.062 151.768C202.371 152.333 202.526 153.021 202.526 153.832V159H201.086V154.04C201.086 153.165 200.867 152.499 200.43 152.04C199.992 151.571 199.395 151.336 198.638 151.336C197.87 151.336 197.256 151.576 196.798 152.056C196.35 152.536 196.126 153.235 196.126 154.152V159H194.67V147.16H196.126V151.48C196.414 151.032 196.808 150.685 197.31 150.44C197.822 150.195 198.392 150.072 199.022 150.072ZM212.904 154.28C212.904 154.557 212.888 154.851 212.856 155.16H205.848C205.901 156.024 206.195 156.701 206.728 157.192C207.272 157.672 207.928 157.912 208.696 157.912C209.325 157.912 209.848 157.768 210.264 157.48C210.691 157.181 210.989 156.787 211.16 156.296H212.728C212.493 157.139 212.024 157.827 211.32 158.36C210.616 158.883 209.741 159.144 208.696 159.144C207.864 159.144 207.117 158.957 206.456 158.584C205.805 158.211 205.293 157.683 204.92 157C204.547 156.307 204.36 155.507 204.36 154.6C204.36 153.693 204.541 152.899 204.904 152.216C205.267 151.533 205.773 151.011 206.424 150.648C207.085 150.275 207.843 150.088 208.696 150.088C209.528 150.088 210.264 150.269 210.904 150.632C211.544 150.995 212.035 151.496 212.376 152.136C212.728 152.765 212.904 153.48 212.904 154.28ZM211.4 153.976C211.4 153.421 211.277 152.947 211.032 152.552C210.787 152.147 210.451 151.843 210.024 151.64C209.608 151.427 209.144 151.32 208.632 151.32C207.896 151.32 207.267 151.555 206.744 152.024C206.232 152.493 205.939 153.144 205.864 153.976H211.4ZM215.578 148.808C215.3 148.808 215.066 148.712 214.874 148.52C214.682 148.328 214.586 148.093 214.586 147.816C214.586 147.539 214.682 147.304 214.874 147.112C215.066 146.92 215.3 146.824 215.578 146.824C215.844 146.824 216.068 146.92 216.25 147.112C216.442 147.304 216.538 147.539 216.538 147.816C216.538 148.093 216.442 148.328 216.25 148.52C216.068 148.712 215.844 148.808 215.578 148.808ZM216.282 150.232V159H214.826V150.232H216.282ZM220.219 151.656C220.475 151.155 220.838 150.765 221.307 150.488C221.787 150.211 222.369 150.072 223.051 150.072V151.576H222.667C221.035 151.576 220.219 152.461 220.219 154.232V159H218.763V150.232H220.219V151.656ZM236.998 154.28C236.998 154.557 236.982 154.851 236.95 155.16H229.942C229.995 156.024 230.288 156.701 230.822 157.192C231.366 157.672 232.022 157.912 232.79 157.912C233.419 157.912 233.942 157.768 234.358 157.48C234.784 157.181 235.083 156.787 235.254 156.296H236.822C236.587 157.139 236.118 157.827 235.414 158.36C234.71 158.883 233.835 159.144 232.79 159.144C231.958 159.144 231.211 158.957 230.55 158.584C229.899 158.211 229.387 157.683 229.014 157C228.64 156.307 228.454 155.507 228.454 154.6C228.454 153.693 228.635 152.899 228.998 152.216C229.36 151.533 229.867 151.011 230.518 150.648C231.179 150.275 231.936 150.088 232.79 150.088C233.622 150.088 234.358 150.269 234.998 150.632C235.638 150.995 236.128 151.496 236.47 152.136C236.822 152.765 236.998 153.48 236.998 154.28ZM235.494 153.976C235.494 153.421 235.371 152.947 235.126 152.552C234.88 152.147 234.544 151.843 234.118 151.64C233.702 151.427 233.238 151.32 232.726 151.32C231.99 151.32 231.36 151.555 230.838 152.024C230.326 152.493 230.032 153.144 229.958 153.976H235.494ZM243.496 159L241.416 155.736L239.416 159H237.896L240.728 154.648L237.896 150.232H239.544L241.624 153.48L243.608 150.232H245.128L242.312 154.568L245.144 159H243.496ZM254.576 154.28C254.576 154.557 254.56 154.851 254.528 155.16H247.52C247.573 156.024 247.866 156.701 248.4 157.192C248.944 157.672 249.6 157.912 250.368 157.912C250.997 157.912 251.52 157.768 251.936 157.48C252.362 157.181 252.661 156.787 252.832 156.296H254.4C254.165 157.139 253.696 157.827 252.992 158.36C252.288 158.883 251.413 159.144 250.368 159.144C249.536 159.144 248.789 158.957 248.128 158.584C247.477 158.211 246.965 157.683 246.592 157C246.218 156.307 246.032 155.507 246.032 154.6C246.032 153.693 246.213 152.899 246.576 152.216C246.938 151.533 247.445 151.011 248.096 150.648C248.757 150.275 249.514 150.088 250.368 150.088C251.2 150.088 251.936 150.269 252.576 150.632C253.216 150.995 253.706 151.496 254.048 152.136C254.4 152.765 254.576 153.48 254.576 154.28ZM253.072 153.976C253.072 153.421 252.949 152.947 252.704 152.552C252.458 152.147 252.122 151.843 251.696 151.64C251.28 151.427 250.816 151.32 250.304 151.32C249.568 151.32 248.938 151.555 248.416 152.024C247.904 152.493 247.61 153.144 247.536 153.976H253.072ZM255.954 154.6C255.954 153.693 256.135 152.904 256.498 152.232C256.86 151.549 257.362 151.021 258.002 150.648C258.652 150.275 259.394 150.088 260.226 150.088C261.303 150.088 262.188 150.349 262.882 150.872C263.586 151.395 264.05 152.12 264.274 153.048H262.706C262.556 152.515 262.263 152.093 261.826 151.784C261.399 151.475 260.866 151.32 260.226 151.32C259.394 151.32 258.722 151.608 258.21 152.184C257.698 152.749 257.442 153.555 257.442 154.6C257.442 155.656 257.698 156.472 258.21 157.048C258.722 157.624 259.394 157.912 260.226 157.912C260.866 157.912 261.399 157.763 261.826 157.464C262.252 157.165 262.546 156.739 262.706 156.184H264.274C264.039 157.08 263.57 157.8 262.866 158.344C262.162 158.877 261.282 159.144 260.226 159.144C259.394 159.144 258.652 158.957 258.002 158.584C257.362 158.211 256.86 157.683 256.498 157C256.135 156.317 255.954 155.517 255.954 154.6ZM273.992 150.232V159H272.536V157.704C272.259 158.152 271.87 158.504 271.368 158.76C270.878 159.005 270.334 159.128 269.736 159.128C269.054 159.128 268.44 158.989 267.896 158.712C267.352 158.424 266.92 157.997 266.6 157.432C266.291 156.867 266.136 156.179 266.136 155.368V150.232H267.576V155.176C267.576 156.04 267.795 156.707 268.232 157.176C268.67 157.635 269.267 157.864 270.024 157.864C270.803 157.864 271.416 157.624 271.864 157.144C272.312 156.664 272.536 155.965 272.536 155.048V150.232H273.992ZM278.227 151.432V156.6C278.227 157.027 278.317 157.331 278.499 157.512C278.68 157.683 278.995 157.768 279.443 157.768H280.515V159H279.203C278.392 159 277.784 158.813 277.379 158.44C276.973 158.067 276.771 157.453 276.771 156.6V151.432H275.635V150.232H276.771V148.024H278.227V150.232H280.515V151.432H278.227ZM283.031 148.808C282.754 148.808 282.519 148.712 282.327 148.52C282.135 148.328 282.039 148.093 282.039 147.816C282.039 147.539 282.135 147.304 282.327 147.112C282.519 146.92 282.754 146.824 283.031 146.824C283.298 146.824 283.522 146.92 283.703 147.112C283.895 147.304 283.991 147.539 283.991 147.816C283.991 148.093 283.895 148.328 283.703 148.52C283.522 148.712 283.298 148.808 283.031 148.808ZM283.735 150.232V159H282.279V150.232H283.735ZM290.04 159.144C289.219 159.144 288.472 158.957 287.8 158.584C287.139 158.211 286.616 157.683 286.232 157C285.859 156.307 285.672 155.507 285.672 154.6C285.672 153.704 285.864 152.915 286.248 152.232C286.643 151.539 287.176 151.011 287.848 150.648C288.52 150.275 289.272 150.088 290.104 150.088C290.936 150.088 291.688 150.275 292.36 150.648C293.032 151.011 293.56 151.533 293.944 152.216C294.339 152.899 294.536 153.693 294.536 154.6C294.536 155.507 294.334 156.307 293.928 157C293.534 157.683 292.995 158.211 292.312 158.584C291.63 158.957 290.872 159.144 290.04 159.144ZM290.04 157.864C290.563 157.864 291.054 157.741 291.512 157.496C291.971 157.251 292.339 156.883 292.616 156.392C292.904 155.901 293.048 155.304 293.048 154.6C293.048 153.896 292.91 153.299 292.632 152.808C292.355 152.317 291.992 151.955 291.544 151.72C291.096 151.475 290.611 151.352 290.088 151.352C289.555 151.352 289.064 151.475 288.616 151.72C288.179 151.955 287.827 152.317 287.56 152.808C287.294 153.299 287.16 153.896 287.16 154.6C287.16 155.315 287.288 155.917 287.544 156.408C287.811 156.899 288.163 157.267 288.6 157.512C289.038 157.747 289.518 157.864 290.04 157.864ZM300.723 150.072C301.789 150.072 302.653 150.397 303.315 151.048C303.976 151.688 304.307 152.616 304.307 153.832V159H302.867V154.04C302.867 153.165 302.648 152.499 302.211 152.04C301.773 151.571 301.176 151.336 300.419 151.336C299.651 151.336 299.037 151.576 298.579 152.056C298.131 152.536 297.907 153.235 297.907 154.152V159H296.451V150.232H297.907V151.48C298.195 151.032 298.584 150.685 299.075 150.44C299.576 150.195 300.125 150.072 300.723 150.072ZM314.775 159.144C313.953 159.144 313.207 158.957 312.535 158.584C311.873 158.211 311.351 157.683 310.967 157C310.593 156.307 310.407 155.507 310.407 154.6C310.407 153.704 310.599 152.915 310.983 152.232C311.377 151.539 311.911 151.011 312.583 150.648C313.255 150.275 314.007 150.088 314.839 150.088C315.671 150.088 316.423 150.275 317.095 150.648C317.767 151.011 318.295 151.533 318.679 152.216C319.073 152.899 319.271 153.693 319.271 154.6C319.271 155.507 319.068 156.307 318.663 157C318.268 157.683 317.729 158.211 317.047 158.584C316.364 158.957 315.607 159.144 314.775 159.144ZM314.775 157.864C315.297 157.864 315.788 157.741 316.247 157.496C316.705 157.251 317.073 156.883 317.351 156.392C317.639 155.901 317.783 155.304 317.783 154.6C317.783 153.896 317.644 153.299 317.367 152.808C317.089 152.317 316.727 151.955 316.279 151.72C315.831 151.475 315.345 151.352 314.823 151.352C314.289 151.352 313.799 151.475 313.351 151.72C312.913 151.955 312.561 152.317 312.295 152.808C312.028 153.299 311.895 153.896 311.895 154.6C311.895 155.315 312.023 155.917 312.279 156.408C312.545 156.899 312.897 157.267 313.335 157.512C313.772 157.747 314.252 157.864 314.775 157.864ZM325.457 150.072C326.524 150.072 327.388 150.397 328.049 151.048C328.71 151.688 329.041 152.616 329.041 153.832V159H327.601V154.04C327.601 153.165 327.382 152.499 326.945 152.04C326.508 151.571 325.91 151.336 325.153 151.336C324.385 151.336 323.772 151.576 323.313 152.056C322.865 152.536 322.641 153.235 322.641 154.152V159H321.185V150.232H322.641V151.48C322.929 151.032 323.318 150.685 323.809 150.44C324.31 150.195 324.86 150.072 325.457 150.072ZM338.789 159.144C338.117 159.144 337.514 159.032 336.981 158.808C336.448 158.573 336.026 158.253 335.717 157.848C335.408 157.432 335.237 156.957 335.205 156.424H336.709C336.752 156.861 336.954 157.219 337.317 157.496C337.69 157.773 338.176 157.912 338.773 157.912C339.328 157.912 339.765 157.789 340.085 157.544C340.405 157.299 340.565 156.989 340.565 156.616C340.565 156.232 340.394 155.949 340.053 155.768C339.712 155.576 339.184 155.389 338.469 155.208C337.818 155.037 337.285 154.867 336.869 154.696C336.464 154.515 336.112 154.253 335.813 153.912C335.525 153.56 335.381 153.101 335.381 152.536C335.381 152.088 335.514 151.677 335.781 151.304C336.048 150.931 336.426 150.637 336.917 150.424C337.408 150.2 337.968 150.088 338.597 150.088C339.568 150.088 340.352 150.333 340.949 150.824C341.546 151.315 341.866 151.987 341.909 152.84H340.453C340.421 152.381 340.234 152.013 339.893 151.736C339.562 151.459 339.114 151.32 338.549 151.32C338.026 151.32 337.61 151.432 337.301 151.656C336.992 151.88 336.837 152.173 336.837 152.536C336.837 152.824 336.928 153.064 337.109 153.256C337.301 153.437 337.536 153.587 337.813 153.704C338.101 153.811 338.496 153.933 338.997 154.072C339.626 154.243 340.138 154.413 340.533 154.584C340.928 154.744 341.264 154.989 341.541 155.32C341.829 155.651 341.978 156.083 341.989 156.616C341.989 157.096 341.856 157.528 341.589 157.912C341.322 158.296 340.944 158.6 340.453 158.824C339.973 159.037 339.418 159.144 338.789 159.144ZM344.797 148.808C344.519 148.808 344.285 148.712 344.093 148.52C343.901 148.328 343.805 148.093 343.805 147.816C343.805 147.539 343.901 147.304 344.093 147.112C344.285 146.92 344.519 146.824 344.797 146.824C345.063 146.824 345.287 146.92 345.469 147.112C345.661 147.304 345.757 147.539 345.757 147.816C345.757 148.093 345.661 148.328 345.469 148.52C345.287 148.712 345.063 148.808 344.797 148.808ZM345.501 150.232V159H344.045V150.232H345.501ZM349.758 151.432V156.6C349.758 157.027 349.849 157.331 350.03 157.512C350.211 157.683 350.526 157.768 350.974 157.768H352.046V159H350.734C349.923 159 349.315 158.813 348.91 158.44C348.505 158.067 348.302 157.453 348.302 156.6V151.432H347.166V150.232H348.302V148.024H349.758V150.232H352.046V151.432H349.758ZM361.81 154.28C361.81 154.557 361.794 154.851 361.762 155.16H354.754C354.807 156.024 355.101 156.701 355.634 157.192C356.178 157.672 356.834 157.912 357.602 157.912C358.231 157.912 358.754 157.768 359.17 157.48C359.597 157.181 359.895 156.787 360.066 156.296H361.634C361.399 157.139 360.93 157.827 360.226 158.36C359.522 158.883 358.647 159.144 357.602 159.144C356.77 159.144 356.023 158.957 355.362 158.584C354.711 158.211 354.199 157.683 353.826 157C353.453 156.307 353.266 155.507 353.266 154.6C353.266 153.693 353.447 152.899 353.81 152.216C354.173 151.533 354.679 151.011 355.33 150.648C355.991 150.275 356.749 150.088 357.602 150.088C358.434 150.088 359.17 150.269 359.81 150.632C360.45 150.995 360.941 151.496 361.282 152.136C361.634 152.765 361.81 153.48 361.81 154.28ZM360.306 153.976C360.306 153.421 360.183 152.947 359.938 152.552C359.693 152.147 359.357 151.843 358.93 151.64C358.514 151.427 358.05 151.32 357.538 151.32C356.802 151.32 356.173 151.555 355.65 152.024C355.138 152.493 354.845 153.144 354.77 153.976H360.306ZM364.196 159.096C363.919 159.096 363.684 159 363.492 158.808C363.3 158.616 363.204 158.381 363.204 158.104C363.204 157.827 363.3 157.592 363.492 157.4C363.684 157.208 363.919 157.112 364.196 157.112C364.463 157.112 364.687 157.208 364.868 157.4C365.06 157.592 365.156 157.827 365.156 158.104C365.156 158.381 365.06 158.616 364.868 158.808C364.687 159 364.463 159.096 364.196 159.096Z" fill="#3A3A3A"/>
</svg>
