<svg width="265" height="283" viewBox="0 0 265 283" fill="none" xmlns="http://www.w3.org/2000/svg">
<path d="M222.778 98.5846C221.748 109.881 217.286 119.808 210.077 127.681C201.496 136.923 191.198 141.373 178.497 141.373H140.738V98.5846H222.778ZM226.554 95.1615H137.648V144.796H178.84C192.227 144.796 203.555 139.662 212.823 129.735C221.405 120.492 225.867 108.854 226.554 95.1615Z" fill="#001B72"/>
<path d="M233.421 78.3885L146.918 57.5077L158.589 9.24231L198.408 18.8269C211.452 21.9077 221.406 29.4385 227.928 41.4192C234.45 52.7154 236.167 65.0385 233.421 78.3885Z" fill="#001B72"/>
<path d="M121.515 36.2846V79.0731H41.8775C42.9073 67.777 47.0264 58.1923 54.5782 49.977C63.1599 40.7346 73.4578 35.9423 86.1586 35.9423H121.515M124.947 32.8616H85.8153C72.428 32.8616 61.1003 37.9962 51.8321 47.9231C43.2505 57.1654 38.7881 68.8039 38.1016 82.4962H124.947V32.8616Z" fill="#001B72"/>
<path d="M125.291 95.1615V144.796H86.159C72.7717 144.796 61.444 139.662 52.1759 129.735C43.5943 120.492 38.7886 108.854 38.4453 94.8192H125.291V95.1615Z" fill="#001B72"/>
<path d="M265 85.5769V91.7384H134.56H128.381H0V85.5769H128.381H134.56H265Z" fill="#001B72"/>
<path d="M134.56 0H128.381V178H134.56V0Z" fill="#001B72"/>
<path d="M90.4284 216.356V224H88.5824V205.67H94.0684C96.1311 205.67 97.6651 206.147 98.6704 207.1C99.6931 208.053 100.204 209.362 100.204 211.026C100.204 212.725 99.6758 214.042 98.6184 214.978C97.5784 215.897 96.0618 216.356 94.0684 216.356H90.4284ZM93.9124 214.796C95.4898 214.796 96.6251 214.475 97.3184 213.834C98.0118 213.175 98.3584 212.239 98.3584 211.026C98.3584 209.778 98.0118 208.833 97.3184 208.192C96.6251 207.533 95.4898 207.204 93.9124 207.204H90.4284V214.796H93.9124ZM104.926 212.742C105.342 211.719 106.01 210.931 106.928 210.376C107.847 209.821 108.965 209.544 110.282 209.544V211.52H109.684C108.315 211.52 107.18 211.893 106.278 212.638C105.377 213.366 104.926 214.562 104.926 216.226V224H103.08V209.804H104.926V212.742ZM118.892 222.674C120.174 222.674 121.249 222.353 122.116 221.712C122.982 221.071 123.502 220.204 123.676 219.112H125.6C125.34 220.62 124.62 221.842 123.442 222.778C122.263 223.714 120.772 224.182 118.97 224.182C117.618 224.182 116.413 223.896 115.356 223.324C114.316 222.735 113.501 221.894 112.912 220.802C112.322 219.693 112.028 218.393 112.028 216.902C112.028 215.411 112.322 214.12 112.912 213.028C113.501 211.919 114.316 211.078 115.356 210.506C116.413 209.917 117.618 209.622 118.97 209.622C120.356 209.622 121.552 209.917 122.558 210.506C123.58 211.078 124.352 211.849 124.872 212.82C125.409 213.791 125.678 214.848 125.678 215.992C125.678 216.477 125.643 216.919 125.574 217.318H113.822C113.839 218.514 114.082 219.519 114.55 220.334C115.035 221.131 115.659 221.721 116.422 222.102C117.184 222.483 118.008 222.674 118.892 222.674ZM118.97 211.104C118.051 211.104 117.21 211.295 116.448 211.676C115.685 212.057 115.061 212.647 114.576 213.444C114.108 214.224 113.856 215.203 113.822 216.382H123.858C123.927 215.221 123.736 214.241 123.286 213.444C122.835 212.647 122.228 212.057 121.466 211.676C120.703 211.295 119.871 211.104 118.97 211.104ZM135.22 209.622C137.022 209.622 138.513 210.099 139.692 211.052C140.888 212.005 141.616 213.271 141.876 214.848H139.978C139.787 213.721 139.258 212.837 138.392 212.196C137.525 211.537 136.459 211.208 135.194 211.208C134.275 211.208 133.426 211.416 132.646 211.832C131.883 212.248 131.268 212.889 130.8 213.756C130.349 214.605 130.124 215.654 130.124 216.902C130.124 218.15 130.349 219.207 130.8 220.074C131.268 220.923 131.883 221.556 132.646 221.972C133.426 222.388 134.275 222.596 135.194 222.596C136.459 222.596 137.525 222.275 138.392 221.634C139.258 220.975 139.787 220.083 139.978 218.956H141.876C141.616 220.533 140.888 221.799 139.692 222.752C138.513 223.705 137.022 224.182 135.22 224.182C133.868 224.182 132.663 223.896 131.606 223.324C130.566 222.735 129.751 221.894 129.162 220.802C128.572 219.693 128.278 218.393 128.278 216.902C128.278 215.411 128.572 214.12 129.162 213.028C129.751 211.919 130.566 211.078 131.606 210.506C132.663 209.917 133.868 209.622 135.22 209.622ZM144.737 205.592C144.737 205.211 144.858 204.907 145.101 204.682C145.361 204.457 145.69 204.344 146.089 204.344C146.487 204.344 146.808 204.457 147.051 204.682C147.293 204.907 147.415 205.211 147.415 205.592C147.415 205.956 147.293 206.251 147.051 206.476C146.808 206.701 146.487 206.814 146.089 206.814C145.69 206.814 145.361 206.701 145.101 206.476C144.858 206.251 144.737 205.956 144.737 205.592ZM146.999 209.804V224H145.153V209.804H146.999ZM155.232 209.622C156.774 209.622 158.014 210.029 158.95 210.844C159.886 211.659 160.458 212.759 160.666 214.146H158.924C158.82 213.227 158.438 212.473 157.78 211.884C157.138 211.277 156.272 210.974 155.18 210.974C154.244 210.974 153.507 211.208 152.97 211.676C152.45 212.127 152.19 212.733 152.19 213.496C152.19 214.068 152.354 214.527 152.684 214.874C153.03 215.221 153.455 215.489 153.958 215.68C154.46 215.853 155.136 216.035 155.986 216.226C157.026 216.469 157.858 216.72 158.482 216.98C159.123 217.223 159.669 217.613 160.12 218.15C160.57 218.687 160.796 219.415 160.796 220.334C160.796 221.461 160.371 222.388 159.522 223.116C158.69 223.827 157.58 224.182 156.194 224.182C154.564 224.182 153.23 223.783 152.19 222.986C151.15 222.171 150.534 221.062 150.344 219.658H152.112C152.216 220.594 152.623 221.357 153.334 221.946C154.044 222.535 155.006 222.83 156.22 222.83C157.121 222.83 157.823 222.596 158.326 222.128C158.828 221.66 159.08 221.053 159.08 220.308C159.08 219.701 158.906 219.216 158.56 218.852C158.213 218.488 157.78 218.219 157.26 218.046C156.757 217.855 156.064 217.656 155.18 217.448C154.157 217.205 153.334 216.963 152.71 216.72C152.103 216.477 151.583 216.105 151.15 215.602C150.716 215.082 150.5 214.38 150.5 213.496C150.5 212.335 150.924 211.399 151.774 210.688C152.623 209.977 153.776 209.622 155.232 209.622ZM170.308 222.674C171.59 222.674 172.665 222.353 173.532 221.712C174.398 221.071 174.918 220.204 175.092 219.112H177.016C176.756 220.62 176.036 221.842 174.858 222.778C173.679 223.714 172.188 224.182 170.386 224.182C169.034 224.182 167.829 223.896 166.772 223.324C165.732 222.735 164.917 221.894 164.328 220.802C163.738 219.693 163.444 218.393 163.444 216.902C163.444 215.411 163.738 214.12 164.328 213.028C164.917 211.919 165.732 211.078 166.772 210.506C167.829 209.917 169.034 209.622 170.386 209.622C171.772 209.622 172.968 209.917 173.974 210.506C174.996 211.078 175.768 211.849 176.288 212.82C176.825 213.791 177.094 214.848 177.094 215.992C177.094 216.477 177.059 216.919 176.99 217.318H165.238C165.255 218.514 165.498 219.519 165.966 220.334C166.451 221.131 167.075 221.721 167.838 222.102C168.6 222.483 169.424 222.674 170.308 222.674ZM170.386 211.104C169.467 211.104 168.626 211.295 167.864 211.676C167.101 212.057 166.477 212.647 165.992 213.444C165.524 214.224 165.272 215.203 165.238 216.382H175.274C175.343 215.221 175.152 214.241 174.702 213.444C174.251 212.647 173.644 212.057 172.882 211.676C172.119 211.295 171.287 211.104 170.386 211.104ZM66.7009 255.356V263H64.8549V244.67H70.3409C72.4036 244.67 73.9376 245.147 74.9429 246.1C75.9656 247.053 76.4769 248.362 76.4769 250.026C76.4769 251.725 75.9482 253.042 74.8909 253.978C73.8509 254.897 72.3342 255.356 70.3409 255.356H66.7009ZM70.1849 253.796C71.7622 253.796 72.8976 253.475 73.5909 252.834C74.2842 252.175 74.6309 251.239 74.6309 250.026C74.6309 248.778 74.2842 247.833 73.5909 247.192C72.8976 246.533 71.7622 246.204 70.1849 246.204H66.7009V253.796H70.1849ZM81.199 251.742C81.615 250.719 82.2823 249.931 83.201 249.376C84.1196 248.821 85.2376 248.544 86.555 248.544V250.52H85.957C84.5876 250.52 83.4523 250.893 82.551 251.638C81.6496 252.366 81.199 253.562 81.199 255.226V263H79.353V248.804H81.199V251.742ZM95.398 248.622C96.75 248.622 97.9547 248.917 99.012 249.506C100.087 250.078 100.927 250.919 101.534 252.028C102.141 253.12 102.444 254.411 102.444 255.902C102.444 257.393 102.141 258.684 101.534 259.776C100.927 260.868 100.087 261.709 99.012 262.298C97.9547 262.887 96.75 263.182 95.398 263.182C94.046 263.182 92.8327 262.887 91.758 262.298C90.6833 261.709 89.834 260.868 89.21 259.776C88.6033 258.667 88.3 257.375 88.3 255.902C88.3 254.411 88.6033 253.12 89.21 252.028C89.834 250.919 90.6833 250.078 91.758 249.506C92.8327 248.917 94.046 248.622 95.398 248.622ZM95.398 250.208C94.462 250.208 93.5953 250.416 92.798 250.832C92.0007 251.248 91.3593 251.889 90.874 252.756C90.3887 253.605 90.146 254.654 90.146 255.902C90.146 257.15 90.3887 258.199 90.874 259.048C91.3593 259.897 92.0007 260.53 92.798 260.946C93.5953 261.362 94.462 261.57 95.398 261.57C96.3167 261.57 97.166 261.362 97.946 260.946C98.7433 260.53 99.3847 259.897 99.87 259.048C100.355 258.199 100.598 257.15 100.598 255.902C100.598 254.654 100.355 253.605 99.87 252.756C99.3847 251.889 98.7433 251.248 97.946 250.832C97.166 250.416 96.3167 250.208 95.398 250.208ZM111.688 248.622C113.127 248.622 114.349 248.995 115.354 249.74C116.377 250.485 117.07 251.473 117.434 252.704V243.76H119.254V263H117.434V259.1C117.07 260.331 116.377 261.319 115.354 262.064C114.349 262.809 113.127 263.182 111.688 263.182C110.406 263.182 109.253 262.887 108.23 262.298C107.225 261.709 106.436 260.868 105.864 259.776C105.31 258.667 105.032 257.375 105.032 255.902C105.032 254.411 105.31 253.12 105.864 252.028C106.436 250.919 107.225 250.078 108.23 249.506C109.236 248.917 110.388 248.622 111.688 248.622ZM112.156 250.234C110.562 250.234 109.279 250.745 108.308 251.768C107.355 252.773 106.878 254.151 106.878 255.902C106.878 257.653 107.355 259.039 108.308 260.062C109.279 261.067 110.562 261.57 112.156 261.57C113.162 261.57 114.063 261.336 114.86 260.868C115.675 260.4 116.308 259.741 116.758 258.892C117.226 258.025 117.46 257.029 117.46 255.902C117.46 254.775 117.226 253.787 116.758 252.938C116.308 252.071 115.675 251.404 114.86 250.936C114.063 250.468 113.162 250.234 112.156 250.234ZM135.449 248.804V263H133.629V259.49C133.265 260.721 132.606 261.657 131.653 262.298C130.699 262.939 129.607 263.26 128.377 263.26C126.713 263.26 125.361 262.74 124.321 261.7C123.298 260.643 122.787 259.1 122.787 257.072V248.804H124.607V256.916C124.607 258.476 124.997 259.672 125.777 260.504C126.557 261.319 127.623 261.726 128.975 261.726C130.396 261.726 131.523 261.275 132.355 260.374C133.204 259.455 133.629 258.112 133.629 256.344V248.804H135.449ZM145.693 248.622C147.496 248.622 148.987 249.099 150.165 250.052C151.361 251.005 152.089 252.271 152.349 253.848H150.451C150.261 252.721 149.732 251.837 148.865 251.196C147.999 250.537 146.933 250.208 145.667 250.208C144.749 250.208 143.899 250.416 143.119 250.832C142.357 251.248 141.741 251.889 141.273 252.756C140.823 253.605 140.597 254.654 140.597 255.902C140.597 257.15 140.823 258.207 141.273 259.074C141.741 259.923 142.357 260.556 143.119 260.972C143.899 261.388 144.749 261.596 145.667 261.596C146.933 261.596 147.999 261.275 148.865 260.634C149.732 259.975 150.261 259.083 150.451 257.956H152.349C152.089 259.533 151.361 260.799 150.165 261.752C148.987 262.705 147.496 263.182 145.693 263.182C144.341 263.182 143.137 262.896 142.079 262.324C141.039 261.735 140.225 260.894 139.635 259.802C139.046 258.693 138.751 257.393 138.751 255.902C138.751 254.411 139.046 253.12 139.635 252.028C140.225 250.919 141.039 250.078 142.079 249.506C143.137 248.917 144.341 248.622 145.693 248.622ZM162.074 261.388V263H160.384C159.015 263 157.992 262.679 157.316 262.038C156.64 261.379 156.302 260.279 156.302 258.736V250.39H154.144V248.804H156.302V245.216H158.148V248.804H162.048V250.39H158.148V258.762C158.148 259.767 158.33 260.461 158.694 260.842C159.058 261.206 159.7 261.388 160.618 261.388H162.074ZM164.656 244.592C164.656 244.211 164.777 243.907 165.02 243.682C165.28 243.457 165.609 243.344 166.008 243.344C166.406 243.344 166.727 243.457 166.97 243.682C167.212 243.907 167.334 244.211 167.334 244.592C167.334 244.956 167.212 245.251 166.97 245.476C166.727 245.701 166.406 245.814 166.008 245.814C165.609 245.814 165.28 245.701 165.02 245.476C164.777 245.251 164.656 244.956 164.656 244.592ZM166.918 248.804V263H165.072V248.804H166.918ZM177.283 248.622C178.635 248.622 179.839 248.917 180.897 249.506C181.971 250.078 182.812 250.919 183.419 252.028C184.025 253.12 184.329 254.411 184.329 255.902C184.329 257.393 184.025 258.684 183.419 259.776C182.812 260.868 181.971 261.709 180.897 262.298C179.839 262.887 178.635 263.182 177.283 263.182C175.931 263.182 174.717 262.887 173.643 262.298C172.568 261.709 171.719 260.868 171.095 259.776C170.488 258.667 170.185 257.375 170.185 255.902C170.185 254.411 170.488 253.12 171.095 252.028C171.719 250.919 172.568 250.078 173.643 249.506C174.717 248.917 175.931 248.622 177.283 248.622ZM177.283 250.208C176.347 250.208 175.48 250.416 174.683 250.832C173.885 251.248 173.244 251.889 172.759 252.756C172.273 253.605 172.031 254.654 172.031 255.902C172.031 257.15 172.273 258.199 172.759 259.048C173.244 259.897 173.885 260.53 174.683 260.946C175.48 261.362 176.347 261.57 177.283 261.57C178.201 261.57 179.051 261.362 179.831 260.946C180.628 260.53 181.269 259.897 181.755 259.048C182.24 258.199 182.483 257.15 182.483 255.902C182.483 254.654 182.24 253.605 181.755 252.756C181.269 251.889 180.628 251.248 179.831 250.832C179.051 250.416 178.201 250.208 177.283 250.208ZM194.691 248.544C196.338 248.544 197.673 249.073 198.695 250.13C199.735 251.17 200.255 252.704 200.255 254.732V263H198.461V254.862C198.461 253.319 198.071 252.141 197.291 251.326C196.511 250.494 195.445 250.078 194.093 250.078C192.672 250.078 191.537 250.537 190.687 251.456C189.855 252.357 189.439 253.692 189.439 255.46V263H187.593V248.804H189.439V252.288C189.803 251.075 190.462 250.147 191.415 249.506C192.369 248.865 193.461 248.544 194.691 248.544Z" fill="#001B72"/>
</svg>
