<svg width="52" height="63" viewBox="0 0 52 63" fill="none" xmlns="http://www.w3.org/2000/svg">
<rect x="50.5" y="1.5" width="59.9019" height="49" rx="24.5" transform="rotate(90 50.5 1.5)" stroke="#001B72" stroke-width="3"/>
<path d="M24.2372 39.3782L25.7598 42.9019L26.2383 42.9019L27.7609 39.3782L35.9828 20.3677C36.0698 20.1502 35.8088 19.9327 35.5913 20.1067C34.4603 21.0638 33.1552 21.8468 31.7196 22.3689C31.6761 22.4124 31.5891 22.4559 31.5891 22.4994L26.1948 34.8105C26.1078 34.9845 25.8468 34.9845 25.7598 34.8105L20.409 22.4559C20.3655 22.4124 20.322 22.3688 20.2785 22.3253C18.843 21.8033 17.5379 21.0638 16.4068 20.0632C16.2328 19.8892 15.9283 20.1067 16.0153 20.3242L24.2372 39.3782Z" fill="#001B72"/>
</svg>
