<svg width="387" height="203" viewBox="0 0 387 203" fill="none" xmlns="http://www.w3.org/2000/svg">
<path d="M121.248 57.9C121.248 56.1147 121.638 54.52 122.418 53.116C123.198 51.6947 124.264 50.594 125.616 49.814C126.968 49.0167 128.476 48.618 130.14 48.618C132.168 48.618 133.901 49.1033 135.34 50.074C136.796 51.0273 137.853 52.3793 138.512 54.13H136.38C135.86 52.8993 135.063 51.9373 133.988 51.244C132.931 50.5507 131.648 50.204 130.14 50.204C128.805 50.204 127.601 50.516 126.526 51.14C125.469 51.764 124.637 52.6653 124.03 53.844C123.423 55.0053 123.12 56.3573 123.12 57.9C123.12 59.4427 123.423 60.7947 124.03 61.956C124.637 63.1173 125.469 64.01 126.526 64.634C127.601 65.258 128.805 65.57 130.14 65.57C131.648 65.57 132.931 65.232 133.988 64.556C135.063 63.8627 135.86 62.9093 136.38 61.696H138.512C137.853 63.4293 136.796 64.7727 135.34 65.726C133.884 66.6793 132.151 67.156 130.14 67.156C128.476 67.156 126.968 66.766 125.616 65.986C124.264 65.1887 123.198 64.088 122.418 62.684C121.638 61.28 121.248 59.6853 121.248 57.9ZM148.353 67.208C147.018 67.208 145.813 66.9133 144.739 66.324C143.681 65.7173 142.841 64.868 142.217 63.776C141.61 62.6667 141.307 61.3753 141.307 59.902C141.307 58.4287 141.619 57.146 142.243 56.054C142.867 54.9447 143.716 54.0953 144.791 53.506C145.865 52.8993 147.07 52.596 148.405 52.596C149.739 52.596 150.944 52.8993 152.019 53.506C153.111 54.0953 153.96 54.9447 154.567 56.054C155.191 57.146 155.503 58.4287 155.503 59.902C155.503 61.358 155.191 62.6407 154.567 63.75C153.943 64.8593 153.085 65.7173 151.993 66.324C150.901 66.9133 149.687 67.208 148.353 67.208ZM148.353 65.622C149.289 65.622 150.155 65.414 150.953 64.998C151.75 64.5647 152.391 63.9233 152.877 63.074C153.379 62.2073 153.631 61.15 153.631 59.902C153.631 58.654 153.388 57.6053 152.903 56.756C152.417 55.8893 151.776 55.248 150.979 54.832C150.181 54.3987 149.315 54.182 148.379 54.182C147.443 54.182 146.576 54.3987 145.779 54.832C144.981 55.248 144.34 55.8893 143.855 56.756C143.387 57.6053 143.153 58.654 143.153 59.902C143.153 61.15 143.387 62.2073 143.855 63.074C144.34 63.9233 144.973 64.5647 145.753 64.998C146.55 65.414 147.417 65.622 148.353 65.622ZM165.476 52.544C167.175 52.544 168.562 53.0727 169.636 54.13C170.711 55.17 171.248 56.6867 171.248 58.68V67H169.454V58.888C169.454 57.3453 169.064 56.1667 168.284 55.352C167.522 54.5373 166.473 54.13 165.138 54.13C163.769 54.13 162.677 54.5633 161.862 55.43C161.048 56.2967 160.64 57.5707 160.64 59.252V67H158.82V52.804H160.64V55.222C161.091 54.3553 161.741 53.6967 162.59 53.246C163.44 52.778 164.402 52.544 165.476 52.544ZM174.441 59.902C174.441 58.4287 174.736 57.146 175.325 56.054C175.915 54.9447 176.729 54.0953 177.769 53.506C178.809 52.8993 179.997 52.596 181.331 52.596C183.082 52.596 184.521 53.0293 185.647 53.896C186.791 54.7627 187.528 55.9413 187.857 57.432H185.907C185.665 56.4093 185.136 55.612 184.321 55.04C183.524 54.4507 182.527 54.156 181.331 54.156C180.378 54.156 179.52 54.3727 178.757 54.806C177.995 55.2393 177.388 55.8893 176.937 56.756C176.504 57.6053 176.287 58.654 176.287 59.902C176.287 61.15 176.504 62.2073 176.937 63.074C177.388 63.9407 177.995 64.5907 178.757 65.024C179.52 65.4573 180.378 65.674 181.331 65.674C182.527 65.674 183.524 65.388 184.321 64.816C185.136 64.2267 185.665 63.412 185.907 62.372H187.857C187.528 63.828 186.791 64.998 185.647 65.882C184.503 66.766 183.065 67.208 181.331 67.208C179.997 67.208 178.809 66.9133 177.769 66.324C176.729 65.7173 175.915 64.868 175.325 63.776C174.736 62.6667 174.441 61.3753 174.441 59.902ZM204.063 59.174C204.063 59.798 204.045 60.2747 204.011 60.604H192.233C192.285 61.6787 192.545 62.5973 193.013 63.36C193.481 64.1227 194.096 64.7033 194.859 65.102C195.621 65.4833 196.453 65.674 197.355 65.674C198.533 65.674 199.521 65.388 200.319 64.816C201.133 64.244 201.671 63.4727 201.931 62.502H203.855C203.508 63.8887 202.763 65.024 201.619 65.908C200.492 66.7747 199.071 67.208 197.355 67.208C196.02 67.208 194.824 66.9133 193.767 66.324C192.709 65.7173 191.877 64.868 191.271 63.776C190.681 62.6667 190.387 61.3753 190.387 59.902C190.387 58.4287 190.681 57.1373 191.271 56.028C191.86 54.9187 192.683 54.0693 193.741 53.48C194.798 52.8907 196.003 52.596 197.355 52.596C198.707 52.596 199.885 52.8907 200.891 53.48C201.913 54.0693 202.693 54.8667 203.231 55.872C203.785 56.86 204.063 57.9607 204.063 59.174ZM202.217 59.122C202.234 58.0647 202.017 57.1633 201.567 56.418C201.133 55.6727 200.535 55.1093 199.773 54.728C199.01 54.3467 198.178 54.156 197.277 54.156C195.925 54.156 194.772 54.5893 193.819 55.456C192.865 56.3227 192.337 57.5447 192.233 59.122H202.217ZM209.187 55.924C209.637 54.9707 210.348 54.182 211.319 53.558C212.307 52.9167 213.477 52.596 214.829 52.596C216.111 52.596 217.264 52.8993 218.287 53.506C219.327 54.0953 220.133 54.9447 220.705 56.054C221.294 57.146 221.589 58.42 221.589 59.876C221.589 61.332 221.294 62.6147 220.705 63.724C220.133 64.8333 219.327 65.6913 218.287 66.298C217.264 66.9047 216.111 67.208 214.829 67.208C213.494 67.208 212.333 66.896 211.345 66.272C210.357 65.6307 209.637 64.8333 209.187 63.88V73.708H207.393V52.804H209.187V55.924ZM219.743 59.876C219.743 58.6973 219.509 57.6833 219.04 56.834C218.59 55.9673 217.966 55.3087 217.169 54.858C216.371 54.4073 215.47 54.182 214.465 54.182C213.494 54.182 212.601 54.416 211.787 54.884C210.989 55.352 210.357 56.0193 209.889 56.886C209.421 57.7527 209.187 58.758 209.187 59.902C209.187 61.046 209.421 62.0513 209.889 62.918C210.357 63.7847 210.989 64.452 211.787 64.92C212.601 65.388 213.494 65.622 214.465 65.622C215.47 65.622 216.371 65.3967 217.169 64.946C217.966 64.478 218.59 63.8107 219.04 62.944C219.509 62.06 219.743 61.0373 219.743 59.876ZM227.303 54.338V63.152C227.303 64.0187 227.468 64.6167 227.797 64.946C228.127 65.2753 228.707 65.44 229.539 65.44H231.203V67H229.253C227.971 67 227.017 66.7053 226.393 66.116C225.769 65.5093 225.457 64.5213 225.457 63.152V54.338H223.481V52.804H225.457V49.242H227.303V52.804H231.203V54.338H227.303ZM127.462 87.826C129.473 87.826 131.197 88.19 132.636 88.918C134.075 89.646 135.175 90.6947 135.938 92.064C136.701 93.4333 137.082 95.0627 137.082 96.952C137.082 98.824 136.701 100.445 135.938 101.814C135.175 103.166 134.075 104.206 132.636 104.934C131.197 105.645 129.473 106 127.462 106H122.08V87.826H127.462ZM127.462 104.492C129.993 104.492 131.917 103.833 133.234 102.516C134.569 101.181 135.236 99.3267 135.236 96.952C135.236 94.56 134.569 92.6967 133.234 91.362C131.917 90.01 129.993 89.334 127.462 89.334H123.9V104.492H127.462ZM153.281 98.174C153.281 98.798 153.264 99.2747 153.229 99.604H141.451C141.503 100.679 141.763 101.597 142.231 102.36C142.699 103.123 143.315 103.703 144.077 104.102C144.84 104.483 145.672 104.674 146.573 104.674C147.752 104.674 148.74 104.388 149.537 103.816C150.352 103.244 150.889 102.473 151.149 101.502H153.073C152.727 102.889 151.981 104.024 150.837 104.908C149.711 105.775 148.289 106.208 146.573 106.208C145.239 106.208 144.043 105.913 142.985 105.324C141.928 104.717 141.096 103.868 140.489 102.776C139.9 101.667 139.605 100.375 139.605 98.902C139.605 97.4287 139.9 96.1373 140.489 95.028C141.079 93.9187 141.902 93.0693 142.959 92.48C144.017 91.8907 145.221 91.596 146.573 91.596C147.925 91.596 149.104 91.8907 150.109 92.48C151.132 93.0693 151.912 93.8667 152.449 94.872C153.004 95.86 153.281 96.9607 153.281 98.174ZM151.435 98.122C151.453 97.0647 151.236 96.1633 150.785 95.418C150.352 94.6727 149.754 94.1093 148.991 93.728C148.229 93.3467 147.397 93.156 146.495 93.156C145.143 93.156 143.991 93.5893 143.037 94.456C142.084 95.3227 141.555 96.5447 141.451 98.122H151.435ZM161.655 104.232L166.439 91.804H168.363L162.669 106H160.615L154.921 91.804H156.871L161.655 104.232ZM183.674 98.174C183.674 98.798 183.657 99.2747 183.622 99.604H171.844C171.896 100.679 172.156 101.597 172.624 102.36C173.092 103.123 173.707 103.703 174.47 104.102C175.233 104.483 176.065 104.674 176.966 104.674C178.145 104.674 179.133 104.388 179.93 103.816C180.745 103.244 181.282 102.473 181.542 101.502H183.466C183.119 102.889 182.374 104.024 181.23 104.908C180.103 105.775 178.682 106.208 176.966 106.208C175.631 106.208 174.435 105.913 173.378 105.324C172.321 104.717 171.489 103.868 170.882 102.776C170.293 101.667 169.998 100.375 169.998 98.902C169.998 97.4287 170.293 96.1373 170.882 95.028C171.471 93.9187 172.295 93.0693 173.352 92.48C174.409 91.8907 175.614 91.596 176.966 91.596C178.318 91.596 179.497 91.8907 180.502 92.48C181.525 93.0693 182.305 93.8667 182.842 94.872C183.397 95.86 183.674 96.9607 183.674 98.174ZM181.828 98.122C181.845 97.0647 181.629 96.1633 181.178 95.418C180.745 94.6727 180.147 94.1093 179.384 93.728C178.621 93.3467 177.789 93.156 176.888 93.156C175.536 93.156 174.383 93.5893 173.43 94.456C172.477 95.3227 171.948 96.5447 171.844 98.122H181.828ZM188.824 86.76V106H187.004V86.76H188.824ZM199.159 106.208C197.825 106.208 196.62 105.913 195.545 105.324C194.488 104.717 193.647 103.868 193.023 102.776C192.417 101.667 192.113 100.375 192.113 98.902C192.113 97.4287 192.425 96.146 193.049 95.054C193.673 93.9447 194.523 93.0953 195.597 92.506C196.672 91.8993 197.877 91.596 199.211 91.596C200.546 91.596 201.751 91.8993 202.825 92.506C203.917 93.0953 204.767 93.9447 205.373 95.054C205.997 96.146 206.309 97.4287 206.309 98.902C206.309 100.358 205.997 101.641 205.373 102.75C204.749 103.859 203.891 104.717 202.799 105.324C201.707 105.913 200.494 106.208 199.159 106.208ZM199.159 104.622C200.095 104.622 200.962 104.414 201.759 103.998C202.557 103.565 203.198 102.923 203.683 102.074C204.186 101.207 204.437 100.15 204.437 98.902C204.437 97.654 204.195 96.6053 203.709 95.756C203.224 94.8893 202.583 94.248 201.785 93.832C200.988 93.3987 200.121 93.182 199.185 93.182C198.249 93.182 197.383 93.3987 196.585 93.832C195.788 94.248 195.147 94.8893 194.661 95.756C194.193 96.6053 193.959 97.654 193.959 98.902C193.959 100.15 194.193 101.207 194.661 102.074C195.147 102.923 195.779 103.565 196.559 103.998C197.357 104.414 198.223 104.622 199.159 104.622ZM211.421 94.924C211.872 93.9707 212.582 93.182 213.553 92.558C214.541 91.9167 215.711 91.596 217.063 91.596C218.346 91.596 219.498 91.8993 220.521 92.506C221.561 93.0953 222.367 93.9447 222.939 95.054C223.528 96.146 223.823 97.42 223.823 98.876C223.823 100.332 223.528 101.615 222.939 102.724C222.367 103.833 221.561 104.691 220.521 105.298C219.498 105.905 218.346 106.208 217.063 106.208C215.728 106.208 214.567 105.896 213.579 105.272C212.591 104.631 211.872 103.833 211.421 102.88V112.708H209.627V91.804H211.421V94.924ZM221.977 98.876C221.977 97.6973 221.743 96.6833 221.275 95.834C220.824 94.9673 220.2 94.3087 219.403 93.858C218.606 93.4073 217.704 93.182 216.699 93.182C215.728 93.182 214.836 93.416 214.021 93.884C213.224 94.352 212.591 95.0193 212.123 95.886C211.655 96.7527 211.421 97.758 211.421 98.902C211.421 100.046 211.655 101.051 212.123 101.918C212.591 102.785 213.224 103.452 214.021 103.92C214.836 104.388 215.728 104.622 216.699 104.622C217.704 104.622 218.606 104.397 219.403 103.946C220.2 103.478 220.824 102.811 221.275 101.944C221.743 101.06 221.977 100.037 221.977 98.876ZM244.072 91.544C245.736 91.544 247.088 92.0727 248.128 93.13C249.185 94.17 249.714 95.6867 249.714 97.68V106H247.92V97.888C247.92 96.3453 247.547 95.1667 246.802 94.352C246.056 93.5373 245.042 93.13 243.76 93.13C242.425 93.13 241.359 93.572 240.562 94.456C239.764 95.34 239.366 96.6227 239.366 98.304V106H237.572V97.888C237.572 96.3453 237.199 95.1667 236.454 94.352C235.708 93.5373 234.686 93.13 233.386 93.13C232.051 93.13 230.985 93.572 230.188 94.456C229.39 95.34 228.992 96.6227 228.992 98.304V106H227.172V91.804H228.992V94.248C229.442 93.364 230.084 92.6967 230.916 92.246C231.748 91.778 232.675 91.544 233.698 91.544C234.928 91.544 236.003 91.8387 236.922 92.428C237.858 93.0173 238.534 93.884 238.95 95.028C239.331 93.9013 239.981 93.0433 240.9 92.454C241.836 91.8473 242.893 91.544 244.072 91.544ZM266.6 98.174C266.6 98.798 266.582 99.2747 266.548 99.604H254.77C254.822 100.679 255.082 101.597 255.55 102.36C256.018 103.123 256.633 103.703 257.396 104.102C258.158 104.483 258.99 104.674 259.892 104.674C261.07 104.674 262.058 104.388 262.856 103.816C263.67 103.244 264.208 102.473 264.468 101.502H266.392C266.045 102.889 265.3 104.024 264.156 104.908C263.029 105.775 261.608 106.208 259.892 106.208C258.557 106.208 257.361 105.913 256.304 105.324C255.246 104.717 254.414 103.868 253.808 102.776C253.218 101.667 252.924 100.375 252.924 98.902C252.924 97.4287 253.218 96.1373 253.808 95.028C254.397 93.9187 255.22 93.0693 256.278 92.48C257.335 91.8907 258.54 91.596 259.892 91.596C261.244 91.596 262.422 91.8907 263.428 92.48C264.45 93.0693 265.23 93.8667 265.768 94.872C266.322 95.86 266.6 96.9607 266.6 98.174ZM264.754 98.122C264.771 97.0647 264.554 96.1633 264.104 95.418C263.67 94.6727 263.072 94.1093 262.31 93.728C261.547 93.3467 260.715 93.156 259.814 93.156C258.462 93.156 257.309 93.5893 256.356 94.456C255.402 95.3227 254.874 96.5447 254.77 98.122H264.754ZM276.586 91.544C278.284 91.544 279.671 92.0727 280.746 93.13C281.82 94.17 282.358 95.6867 282.358 97.68V106H280.564V97.888C280.564 96.3453 280.174 95.1667 279.394 94.352C278.631 93.5373 277.582 93.13 276.248 93.13C274.878 93.13 273.786 93.5633 272.972 94.43C272.157 95.2967 271.75 96.5707 271.75 98.252V106H269.93V91.804H271.75V94.222C272.2 93.3553 272.85 92.6967 273.7 92.246C274.549 91.778 275.511 91.544 276.586 91.544ZM288.749 93.338V102.152C288.749 103.019 288.913 103.617 289.243 103.946C289.572 104.275 290.153 104.44 290.985 104.44H292.649V106H290.699C289.416 106 288.463 105.705 287.839 105.116C287.215 104.509 286.903 103.521 286.903 102.152V93.338H284.927V91.804H286.903V88.242H288.749V91.804H292.649V93.338H288.749Z" fill="#001B72"/>
<path d="M69.1566 42.4045C66.6679 40.1123 63.4134 38.7753 59.3931 38.7753C55.3729 38.7753 52.1183 40.1123 49.6296 42.4045C46.9494 44.6966 45.8008 47.7528 45.8008 51.191V73.5393C45.8008 76.9775 47.1409 79.8427 49.6296 82.3258C49.6296 82.3258 49.6296 82.3258 49.821 82.3258V83.4719C49.821 85 51.1611 86.3371 52.6927 86.3371H66.4765C68.008 86.3371 69.3481 85 69.3481 83.4719V82.3258C69.3481 82.3258 69.3481 82.3258 69.5395 82.1348C72.0283 79.8427 73.3683 76.7865 73.3683 73.3483V51.191C72.9855 47.7528 71.6454 44.8876 69.1566 42.4045ZM71.071 73.1573H60.7332V54.8202H58.4359V73.1573H47.9066V51.955C47.9066 49.0899 49.0553 46.6067 51.1611 44.6966C53.4584 42.5955 56.1386 41.6404 59.5846 41.6404C63.0305 41.6404 65.7107 42.5955 68.008 44.6966C70.1138 46.6067 71.2625 49.0899 71.2625 51.955V73.1573H71.071Z" fill="#001B72"/>
<path d="M66.6667 87.1011H52.1172V91.1123H66.6667V87.1011Z" fill="#001B72"/>
<path d="M58.0531 95.8877H60.7333C61.6905 95.8877 62.4562 95.1237 62.4562 94.1686V91.8765H56.1387V93.9776C56.1387 94.9327 57.0959 95.8877 58.0531 95.8877Z" fill="#001B72"/>
<path d="M60.1585 19.4832H58.627V34H60.1585V19.4832Z" fill="#001B72"/>
<path d="M82.7685 28.3029L72.4805 38.5677L73.5634 39.6483L83.8514 29.3834L82.7685 28.3029Z" fill="#001B72"/>
<path d="M35.8818 28.3784L34.7988 29.4589L45.0868 39.7237L46.1698 38.6432L35.8818 28.3784Z" fill="#001B72"/>
<path d="M59.009 119C48.8626 119 40.2477 115.753 33.5473 109.64L37.3761 105.438C43.1194 110.787 50.2027 113.27 59.009 113.27C67.8153 113.27 74.8987 110.787 80.6419 105.438C86.3851 100.281 89.0653 93.9775 89.0653 86.5281V32.6629C89.0653 25.0225 86.3851 18.9101 80.6419 13.7528C75.0901 8.21348 67.8153 5.73034 59.009 5.73034C50.2027 5.73034 43.1194 8.21348 37.3761 13.5618C31.6329 18.7191 28.9527 25.0225 28.9527 32.4719V87.1011L14.786 109.258L10 106.011L23.2095 85.382V32.6629C23.2095 23.4944 26.6554 15.6629 33.5473 9.35955C40.2477 3.05618 48.8626 0 59.009 0C69.3468 0 77.9617 3.05618 84.6622 9.35955C91.5541 15.6629 95 23.4944 95 32.6629V86.3371C95 95.5056 91.5541 103.337 84.6622 109.64C77.9617 115.753 69.3468 119 59.009 119Z" fill="#001B72"/>
<path d="M17.104 163L14.448 158.44H12.688V163H11.232V151.848H14.832C15.6747 151.848 16.384 151.992 16.96 152.28C17.5467 152.568 17.984 152.957 18.272 153.448C18.56 153.939 18.704 154.499 18.704 155.128C18.704 155.896 18.48 156.573 18.032 157.16C17.5947 157.747 16.9333 158.136 16.048 158.328L18.848 163H17.104ZM12.688 157.272H14.832C15.6213 157.272 16.2133 157.08 16.608 156.696C17.0027 156.301 17.2 155.779 17.2 155.128C17.2 154.467 17.0027 153.955 16.608 153.592C16.224 153.229 15.632 153.048 14.832 153.048H12.688V157.272ZM28.9664 158.28C28.9664 158.557 28.9504 158.851 28.9184 159.16H21.9104C21.9637 160.024 22.257 160.701 22.7904 161.192C23.3344 161.672 23.9904 161.912 24.7584 161.912C25.3877 161.912 25.9104 161.768 26.3264 161.48C26.753 161.181 27.0517 160.787 27.2224 160.296H28.7904C28.5557 161.139 28.0864 161.827 27.3824 162.36C26.6784 162.883 25.8037 163.144 24.7584 163.144C23.9264 163.144 23.1797 162.957 22.5184 162.584C21.8677 162.211 21.3557 161.683 20.9824 161C20.609 160.307 20.4224 159.507 20.4224 158.6C20.4224 157.693 20.6037 156.899 20.9664 156.216C21.329 155.533 21.8357 155.011 22.4864 154.648C23.1477 154.275 23.905 154.088 24.7584 154.088C25.5904 154.088 26.3264 154.269 26.9664 154.632C27.6064 154.995 28.097 155.496 28.4384 156.136C28.7904 156.765 28.9664 157.48 28.9664 158.28ZM27.4624 157.976C27.4624 157.421 27.3397 156.947 27.0944 156.552C26.849 156.147 26.513 155.843 26.0864 155.64C25.6704 155.427 25.2064 155.32 24.6944 155.32C23.9584 155.32 23.329 155.555 22.8064 156.024C22.2944 156.493 22.001 157.144 21.9264 157.976H27.4624ZM34.4563 155.432H32.6163V163H31.1603V155.432H30.0243V154.232H31.1603V153.608C31.1603 152.627 31.4109 151.912 31.9123 151.464C32.4243 151.005 33.2403 150.776 34.3602 150.776V151.992C33.7203 151.992 33.2669 152.12 33.0003 152.376C32.7443 152.621 32.6163 153.032 32.6163 153.608V154.232H34.4563V155.432ZM36.9059 152.808C36.6285 152.808 36.3939 152.712 36.2019 152.52C36.0099 152.328 35.9139 152.093 35.9139 151.816C35.9139 151.539 36.0099 151.304 36.2019 151.112C36.3939 150.92 36.6285 150.824 36.9059 150.824C37.1725 150.824 37.3965 150.92 37.5779 151.112C37.7699 151.304 37.8659 151.539 37.8659 151.816C37.8659 152.093 37.7699 152.328 37.5779 152.52C37.3965 152.712 37.1725 152.808 36.9059 152.808ZM37.6099 154.232V163H36.1539V154.232H37.6099ZM44.3634 154.072C45.43 154.072 46.294 154.397 46.9554 155.048C47.6167 155.688 47.9474 156.616 47.9474 157.832V163H46.5074V158.04C46.5074 157.165 46.2887 156.499 45.8514 156.04C45.414 155.571 44.8167 155.336 44.0594 155.336C43.2914 155.336 42.678 155.576 42.2194 156.056C41.7714 156.536 41.5474 157.235 41.5474 158.152V163H40.0914V154.232H41.5474V155.48C41.8354 155.032 42.2247 154.685 42.7154 154.44C43.2167 154.195 43.766 154.072 44.3634 154.072ZM58.3258 158.28C58.3258 158.557 58.3098 158.851 58.2778 159.16H51.2698C51.3231 160.024 51.6164 160.701 52.1498 161.192C52.6938 161.672 53.3498 161.912 54.1178 161.912C54.7471 161.912 55.2698 161.768 55.6858 161.48C56.1124 161.181 56.4111 160.787 56.5818 160.296H58.1498C57.9151 161.139 57.4458 161.827 56.7418 162.36C56.0378 162.883 55.1631 163.144 54.1178 163.144C53.2858 163.144 52.5391 162.957 51.8778 162.584C51.2271 162.211 50.7151 161.683 50.3418 161C49.9684 160.307 49.7818 159.507 49.7818 158.6C49.7818 157.693 49.9631 156.899 50.3258 156.216C50.6884 155.533 51.1951 155.011 51.8458 154.648C52.5071 154.275 53.2644 154.088 54.1178 154.088C54.9498 154.088 55.6858 154.269 56.3258 154.632C56.9658 154.995 57.4564 155.496 57.7978 156.136C58.1498 156.765 58.3258 157.48 58.3258 158.28ZM56.8218 157.976C56.8218 157.421 56.6991 156.947 56.4538 156.552C56.2084 156.147 55.8724 155.843 55.4458 155.64C55.0298 155.427 54.5658 155.32 54.0538 155.32C53.3178 155.32 52.6884 155.555 52.1658 156.024C51.6538 156.493 51.3604 157.144 51.2858 157.976H56.8218ZM63.9693 158.584C63.9693 157.688 64.1506 156.904 64.5133 156.232C64.8759 155.549 65.3719 155.021 66.0013 154.648C66.6413 154.275 67.3559 154.088 68.1453 154.088C68.8279 154.088 69.4626 154.248 70.0493 154.568C70.6359 154.877 71.0839 155.288 71.3933 155.8V151.16H72.8653V163H71.3933V161.352C71.1053 161.875 70.6786 162.307 70.1133 162.648C69.5479 162.979 68.8866 163.144 68.1293 163.144C67.3506 163.144 66.6413 162.952 66.0013 162.568C65.3719 162.184 64.8759 161.645 64.5133 160.952C64.1506 160.259 63.9693 159.469 63.9693 158.584ZM71.3933 158.6C71.3933 157.939 71.2599 157.363 70.9933 156.872C70.7266 156.381 70.3639 156.008 69.9053 155.752C69.4573 155.485 68.9613 155.352 68.4173 155.352C67.8733 155.352 67.3773 155.48 66.9293 155.736C66.4813 155.992 66.1239 156.365 65.8573 156.856C65.5906 157.347 65.4573 157.923 65.4573 158.584C65.4573 159.256 65.5906 159.843 65.8573 160.344C66.1239 160.835 66.4813 161.213 66.9293 161.48C67.3773 161.736 67.8733 161.864 68.4173 161.864C68.9613 161.864 69.4573 161.736 69.9053 161.48C70.3639 161.213 70.7266 160.835 70.9933 160.344C71.2599 159.843 71.3933 159.261 71.3933 158.6ZM83.3258 158.28C83.3258 158.557 83.3098 158.851 83.2778 159.16H76.2698C76.3231 160.024 76.6164 160.701 77.1498 161.192C77.6938 161.672 78.3498 161.912 79.1178 161.912C79.7471 161.912 80.2698 161.768 80.6858 161.48C81.1124 161.181 81.4111 160.787 81.5818 160.296H83.1498C82.9151 161.139 82.4458 161.827 81.7418 162.36C81.0378 162.883 80.1631 163.144 79.1178 163.144C78.2858 163.144 77.5391 162.957 76.8778 162.584C76.2271 162.211 75.7151 161.683 75.3418 161C74.9684 160.307 74.7818 159.507 74.7818 158.6C74.7818 157.693 74.9631 156.899 75.3258 156.216C75.6884 155.533 76.1951 155.011 76.8458 154.648C77.5071 154.275 78.2644 154.088 79.1178 154.088C79.9498 154.088 80.6858 154.269 81.3258 154.632C81.9658 154.995 82.4564 155.496 82.7978 156.136C83.1498 156.765 83.3258 157.48 83.3258 158.28ZM81.8218 157.976C81.8218 157.421 81.6991 156.947 81.4538 156.552C81.2084 156.147 80.8724 155.843 80.4458 155.64C80.0298 155.427 79.5658 155.32 79.0538 155.32C78.3178 155.32 77.6884 155.555 77.1658 156.024C76.6538 156.493 76.3604 157.144 76.2858 157.976H81.8218ZM88.3516 163.144C87.6796 163.144 87.077 163.032 86.5436 162.808C86.0103 162.573 85.589 162.253 85.2796 161.848C84.9703 161.432 84.7996 160.957 84.7676 160.424H86.2716C86.3143 160.861 86.517 161.219 86.8796 161.496C87.253 161.773 87.7383 161.912 88.3356 161.912C88.8903 161.912 89.3276 161.789 89.6476 161.544C89.9676 161.299 90.1276 160.989 90.1276 160.616C90.1276 160.232 89.957 159.949 89.6156 159.768C89.2743 159.576 88.7463 159.389 88.0316 159.208C87.381 159.037 86.8476 158.867 86.4316 158.696C86.0263 158.515 85.6743 158.253 85.3756 157.912C85.0876 157.56 84.9436 157.101 84.9436 156.536C84.9436 156.088 85.077 155.677 85.3436 155.304C85.6103 154.931 85.989 154.637 86.4796 154.424C86.9703 154.2 87.5303 154.088 88.1596 154.088C89.1303 154.088 89.9143 154.333 90.5116 154.824C91.109 155.315 91.429 155.987 91.4716 156.84H90.0156C89.9836 156.381 89.797 156.013 89.4556 155.736C89.125 155.459 88.677 155.32 88.1116 155.32C87.589 155.32 87.173 155.432 86.8636 155.656C86.5543 155.88 86.3996 156.173 86.3996 156.536C86.3996 156.824 86.4903 157.064 86.6716 157.256C86.8636 157.437 87.0983 157.587 87.3756 157.704C87.6636 157.811 88.0583 157.933 88.5596 158.072C89.189 158.243 89.701 158.413 90.0956 158.584C90.4903 158.744 90.8263 158.989 91.1036 159.32C91.3916 159.651 91.541 160.083 91.5516 160.616C91.5516 161.096 91.4183 161.528 91.1516 161.912C90.885 162.296 90.5063 162.6 90.0156 162.824C89.5356 163.037 88.981 163.144 88.3516 163.144ZM94.359 152.808C94.0817 152.808 93.847 152.712 93.655 152.52C93.463 152.328 93.367 152.093 93.367 151.816C93.367 151.539 93.463 151.304 93.655 151.112C93.847 150.92 94.0817 150.824 94.359 150.824C94.6257 150.824 94.8497 150.92 95.031 151.112C95.223 151.304 95.319 151.539 95.319 151.816C95.319 152.093 95.223 152.328 95.031 152.52C94.8497 152.712 94.6257 152.808 94.359 152.808ZM95.063 154.232V163H93.607V154.232H95.063ZM101.161 154.088C101.918 154.088 102.579 154.253 103.145 154.584C103.721 154.915 104.147 155.331 104.425 155.832V154.232H105.897V163.192C105.897 163.992 105.726 164.701 105.385 165.32C105.043 165.949 104.553 166.44 103.913 166.792C103.283 167.144 102.547 167.32 101.705 167.32C100.553 167.32 99.5925 167.048 98.8245 166.504C98.0565 165.96 97.6032 165.219 97.4645 164.28H98.9045C99.0645 164.813 99.3952 165.24 99.8965 165.56C100.398 165.891 101.001 166.056 101.705 166.056C102.505 166.056 103.155 165.805 103.657 165.304C104.169 164.803 104.425 164.099 104.425 163.192V161.352C104.137 161.864 103.71 162.291 103.145 162.632C102.579 162.973 101.918 163.144 101.161 163.144C100.382 163.144 99.6725 162.952 99.0325 162.568C98.4032 162.184 97.9072 161.645 97.5445 160.952C97.1818 160.259 97.0005 159.469 97.0005 158.584C97.0005 157.688 97.1818 156.904 97.5445 156.232C97.9072 155.549 98.4032 155.021 99.0325 154.648C99.6725 154.275 100.382 154.088 101.161 154.088ZM104.425 158.6C104.425 157.939 104.291 157.363 104.025 156.872C103.758 156.381 103.395 156.008 102.937 155.752C102.489 155.485 101.993 155.352 101.449 155.352C100.905 155.352 100.409 155.48 99.9605 155.736C99.5125 155.992 99.1552 156.365 98.8885 156.856C98.6218 157.347 98.4885 157.923 98.4885 158.584C98.4885 159.256 98.6218 159.843 98.8885 160.344C99.1552 160.835 99.5125 161.213 99.9605 161.48C100.409 161.736 100.905 161.864 101.449 161.864C101.993 161.864 102.489 161.736 102.937 161.48C103.395 161.213 103.758 160.835 104.025 160.344C104.291 159.843 104.425 159.261 104.425 158.6ZM112.629 154.072C113.696 154.072 114.56 154.397 115.221 155.048C115.882 155.688 116.213 156.616 116.213 157.832V163H114.773V158.04C114.773 157.165 114.554 156.499 114.117 156.04C113.68 155.571 113.082 155.336 112.325 155.336C111.557 155.336 110.944 155.576 110.485 156.056C110.037 156.536 109.813 157.235 109.813 158.152V163H108.357V154.232H109.813V155.48C110.101 155.032 110.49 154.685 110.981 154.44C111.482 154.195 112.032 154.072 112.629 154.072ZM122.313 158.6C122.313 157.693 122.494 156.904 122.857 156.232C123.22 155.549 123.721 155.021 124.361 154.648C125.012 154.275 125.753 154.088 126.585 154.088C127.662 154.088 128.548 154.349 129.241 154.872C129.945 155.395 130.409 156.12 130.633 157.048H129.065C128.916 156.515 128.622 156.093 128.185 155.784C127.758 155.475 127.225 155.32 126.585 155.32C125.753 155.32 125.081 155.608 124.569 156.184C124.057 156.749 123.801 157.555 123.801 158.6C123.801 159.656 124.057 160.472 124.569 161.048C125.081 161.624 125.753 161.912 126.585 161.912C127.225 161.912 127.758 161.763 128.185 161.464C128.612 161.165 128.905 160.739 129.065 160.184H130.633C130.398 161.08 129.929 161.8 129.225 162.344C128.521 162.877 127.641 163.144 126.585 163.144C125.753 163.144 125.012 162.957 124.361 162.584C123.721 162.211 123.22 161.683 122.857 161C122.494 160.317 122.313 159.517 122.313 158.6ZM136.4 163.144C135.578 163.144 134.832 162.957 134.16 162.584C133.498 162.211 132.976 161.683 132.592 161C132.218 160.307 132.032 159.507 132.032 158.6C132.032 157.704 132.224 156.915 132.608 156.232C133.002 155.539 133.536 155.011 134.208 154.648C134.88 154.275 135.632 154.088 136.464 154.088C137.296 154.088 138.048 154.275 138.72 154.648C139.392 155.011 139.92 155.533 140.304 156.216C140.698 156.899 140.896 157.693 140.896 158.6C140.896 159.507 140.693 160.307 140.288 161C139.893 161.683 139.354 162.211 138.672 162.584C137.989 162.957 137.232 163.144 136.4 163.144ZM136.4 161.864C136.922 161.864 137.413 161.741 137.872 161.496C138.33 161.251 138.698 160.883 138.976 160.392C139.264 159.901 139.408 159.304 139.408 158.6C139.408 157.896 139.269 157.299 138.992 156.808C138.714 156.317 138.352 155.955 137.904 155.72C137.456 155.475 136.97 155.352 136.448 155.352C135.914 155.352 135.424 155.475 134.976 155.72C134.538 155.955 134.186 156.317 133.92 156.808C133.653 157.299 133.52 157.896 133.52 158.6C133.52 159.315 133.648 159.917 133.904 160.408C134.17 160.899 134.522 161.267 134.96 161.512C135.397 161.747 135.877 161.864 136.4 161.864ZM147.082 154.072C148.149 154.072 149.013 154.397 149.674 155.048C150.335 155.688 150.666 156.616 150.666 157.832V163H149.226V158.04C149.226 157.165 149.007 156.499 148.57 156.04C148.133 155.571 147.535 155.336 146.778 155.336C146.01 155.336 145.397 155.576 144.938 156.056C144.49 156.536 144.266 157.235 144.266 158.152V163H142.81V154.232H144.266V155.48C144.554 155.032 144.943 154.685 145.434 154.44C145.935 154.195 146.485 154.072 147.082 154.072ZM152.501 158.6C152.501 157.693 152.682 156.904 153.045 156.232C153.407 155.549 153.909 155.021 154.549 154.648C155.199 154.275 155.941 154.088 156.773 154.088C157.85 154.088 158.735 154.349 159.429 154.872C160.133 155.395 160.597 156.12 160.821 157.048H159.253C159.103 156.515 158.81 156.093 158.373 155.784C157.946 155.475 157.413 155.32 156.773 155.32C155.941 155.32 155.269 155.608 154.757 156.184C154.245 156.749 153.989 157.555 153.989 158.6C153.989 159.656 154.245 160.472 154.757 161.048C155.269 161.624 155.941 161.912 156.773 161.912C157.413 161.912 157.946 161.763 158.373 161.464C158.799 161.165 159.093 160.739 159.253 160.184H160.821C160.586 161.08 160.117 161.8 159.413 162.344C158.709 162.877 157.829 163.144 156.773 163.144C155.941 163.144 155.199 162.957 154.549 162.584C153.909 162.211 153.407 161.683 153.045 161C152.682 160.317 152.501 159.517 152.501 158.6ZM170.763 158.28C170.763 158.557 170.747 158.851 170.715 159.16H163.707C163.761 160.024 164.054 160.701 164.587 161.192C165.131 161.672 165.787 161.912 166.555 161.912C167.185 161.912 167.707 161.768 168.123 161.48C168.55 161.181 168.849 160.787 169.019 160.296H170.587C170.353 161.139 169.883 161.827 169.179 162.36C168.475 162.883 167.601 163.144 166.555 163.144C165.723 163.144 164.977 162.957 164.315 162.584C163.665 162.211 163.153 161.683 162.779 161C162.406 160.307 162.219 159.507 162.219 158.6C162.219 157.693 162.401 156.899 162.763 156.216C163.126 155.533 163.633 155.011 164.283 154.648C164.945 154.275 165.702 154.088 166.555 154.088C167.387 154.088 168.123 154.269 168.763 154.632C169.403 154.995 169.894 155.496 170.235 156.136C170.587 156.765 170.763 157.48 170.763 158.28ZM169.259 157.976C169.259 157.421 169.137 156.947 168.891 156.552C168.646 156.147 168.31 155.843 167.883 155.64C167.467 155.427 167.003 155.32 166.491 155.32C165.755 155.32 165.126 155.555 164.603 156.024C164.091 156.493 163.798 157.144 163.723 157.976H169.259ZM174.141 155.848C174.429 155.347 174.856 154.931 175.421 154.6C175.997 154.259 176.664 154.088 177.421 154.088C178.2 154.088 178.904 154.275 179.533 154.648C180.173 155.021 180.674 155.549 181.037 156.232C181.4 156.904 181.581 157.688 181.581 158.584C181.581 159.469 181.4 160.259 181.037 160.952C180.674 161.645 180.173 162.184 179.533 162.568C178.904 162.952 178.2 163.144 177.421 163.144C176.674 163.144 176.013 162.979 175.437 162.648C174.872 162.307 174.44 161.885 174.141 161.384V167.16H172.685V154.232H174.141V155.848ZM180.093 158.584C180.093 157.923 179.96 157.347 179.693 156.856C179.426 156.365 179.064 155.992 178.605 155.736C178.157 155.48 177.661 155.352 177.117 155.352C176.584 155.352 176.088 155.485 175.629 155.752C175.181 156.008 174.818 156.387 174.541 156.888C174.274 157.379 174.141 157.949 174.141 158.6C174.141 159.261 174.274 159.843 174.541 160.344C174.818 160.835 175.181 161.213 175.629 161.48C176.088 161.736 176.584 161.864 177.117 161.864C177.661 161.864 178.157 161.736 178.605 161.48C179.064 161.213 179.426 160.835 179.693 160.344C179.96 159.843 180.093 159.256 180.093 158.584ZM185.274 155.432V160.6C185.274 161.027 185.364 161.331 185.546 161.512C185.727 161.683 186.042 161.768 186.49 161.768H187.562V163H186.25C185.439 163 184.831 162.813 184.426 162.44C184.02 162.067 183.818 161.453 183.818 160.6V155.432H182.682V154.232H183.818V152.024H185.274V154.232H187.562V155.432H185.274ZM202.151 163L200.695 161.528C200.151 162.093 199.57 162.515 198.951 162.792C198.333 163.059 197.634 163.192 196.855 163.192C196.087 163.192 195.405 163.053 194.807 162.776C194.221 162.499 193.762 162.104 193.431 161.592C193.111 161.08 192.951 160.483 192.951 159.8C192.951 159.021 193.17 158.339 193.607 157.752C194.055 157.155 194.711 156.685 195.575 156.344C195.234 155.939 194.989 155.565 194.839 155.224C194.69 154.883 194.615 154.509 194.615 154.104C194.615 153.635 194.733 153.213 194.967 152.84C195.213 152.456 195.559 152.157 196.007 151.944C196.455 151.731 196.973 151.624 197.559 151.624C198.135 151.624 198.637 151.736 199.063 151.96C199.49 152.184 199.81 152.499 200.023 152.904C200.237 153.299 200.333 153.741 200.311 154.232H198.855C198.866 153.795 198.743 153.453 198.487 153.208C198.231 152.952 197.901 152.824 197.495 152.824C197.069 152.824 196.722 152.947 196.455 153.192C196.199 153.427 196.071 153.731 196.071 154.104C196.071 154.424 196.157 154.733 196.327 155.032C196.509 155.331 196.807 155.699 197.223 156.136L200.551 159.48L200.839 159.032L201.927 157.208H203.495L202.183 159.48C202.002 159.8 201.789 160.136 201.543 160.488L204.055 163H202.151ZM196.855 161.944C197.431 161.944 197.949 161.832 198.407 161.608C198.877 161.384 199.319 161.037 199.735 160.568L196.455 157.272C195.09 157.795 194.407 158.621 194.407 159.752C194.407 160.381 194.631 160.904 195.079 161.32C195.538 161.736 196.13 161.944 196.855 161.944ZM209.141 158.6C209.141 157.693 209.322 156.904 209.685 156.232C210.048 155.549 210.549 155.021 211.189 154.648C211.84 154.275 212.581 154.088 213.413 154.088C214.49 154.088 215.376 154.349 216.069 154.872C216.773 155.395 217.237 156.12 217.461 157.048H215.893C215.744 156.515 215.45 156.093 215.013 155.784C214.586 155.475 214.053 155.32 213.413 155.32C212.581 155.32 211.909 155.608 211.397 156.184C210.885 156.749 210.629 157.555 210.629 158.6C210.629 159.656 210.885 160.472 211.397 161.048C211.909 161.624 212.581 161.912 213.413 161.912C214.053 161.912 214.586 161.763 215.013 161.464C215.44 161.165 215.733 160.739 215.893 160.184H217.461C217.226 161.08 216.757 161.8 216.053 162.344C215.349 162.877 214.469 163.144 213.413 163.144C212.581 163.144 211.84 162.957 211.189 162.584C210.549 162.211 210.048 161.683 209.685 161C209.322 160.317 209.141 159.517 209.141 158.6ZM223.228 163.144C222.407 163.144 221.66 162.957 220.988 162.584C220.327 162.211 219.804 161.683 219.42 161C219.047 160.307 218.86 159.507 218.86 158.6C218.86 157.704 219.052 156.915 219.436 156.232C219.831 155.539 220.364 155.011 221.036 154.648C221.708 154.275 222.46 154.088 223.292 154.088C224.124 154.088 224.876 154.275 225.548 154.648C226.22 155.011 226.748 155.533 227.132 156.216C227.527 156.899 227.724 157.693 227.724 158.6C227.724 159.507 227.521 160.307 227.116 161C226.721 161.683 226.183 162.211 225.5 162.584C224.817 162.957 224.06 163.144 223.228 163.144ZM223.228 161.864C223.751 161.864 224.241 161.741 224.7 161.496C225.159 161.251 225.527 160.883 225.804 160.392C226.092 159.901 226.236 159.304 226.236 158.6C226.236 157.896 226.097 157.299 225.82 156.808C225.543 156.317 225.18 155.955 224.732 155.72C224.284 155.475 223.799 155.352 223.276 155.352C222.743 155.352 222.252 155.475 221.804 155.72C221.367 155.955 221.015 156.317 220.748 156.808C220.481 157.299 220.348 157.896 220.348 158.6C220.348 159.315 220.476 159.917 220.732 160.408C220.999 160.899 221.351 161.267 221.788 161.512C222.225 161.747 222.705 161.864 223.228 161.864ZM233.462 163.144C232.641 163.144 231.894 162.957 231.222 162.584C230.561 162.211 230.038 161.683 229.654 161C229.281 160.307 229.094 159.507 229.094 158.6C229.094 157.704 229.286 156.915 229.67 156.232C230.065 155.539 230.598 155.011 231.27 154.648C231.942 154.275 232.694 154.088 233.526 154.088C234.358 154.088 235.11 154.275 235.782 154.648C236.454 155.011 236.982 155.533 237.366 156.216C237.761 156.899 237.958 157.693 237.958 158.6C237.958 159.507 237.756 160.307 237.35 161C236.956 161.683 236.417 162.211 235.734 162.584C235.052 162.957 234.294 163.144 233.462 163.144ZM233.462 161.864C233.985 161.864 234.476 161.741 234.934 161.496C235.393 161.251 235.761 160.883 236.038 160.392C236.326 159.901 236.47 159.304 236.47 158.6C236.47 157.896 236.332 157.299 236.054 156.808C235.777 156.317 235.414 155.955 234.966 155.72C234.518 155.475 234.033 155.352 233.51 155.352C232.977 155.352 232.486 155.475 232.038 155.72C231.601 155.955 231.249 156.317 230.982 156.808C230.716 157.299 230.582 157.896 230.582 158.6C230.582 159.315 230.71 159.917 230.966 160.408C231.233 160.899 231.585 161.267 232.022 161.512C232.46 161.747 232.94 161.864 233.462 161.864ZM241.329 155.656C241.585 155.155 241.947 154.765 242.417 154.488C242.897 154.211 243.478 154.072 244.161 154.072V155.576H243.777C242.145 155.576 241.329 156.461 241.329 158.232V163H239.873V154.232H241.329V155.656ZM245.297 158.584C245.297 157.688 245.479 156.904 245.841 156.232C246.204 155.549 246.7 155.021 247.329 154.648C247.969 154.275 248.684 154.088 249.473 154.088C250.156 154.088 250.791 154.248 251.377 154.568C251.964 154.877 252.412 155.288 252.721 155.8V151.16H254.193V163H252.721V161.352C252.433 161.875 252.007 162.307 251.441 162.648C250.876 162.979 250.215 163.144 249.457 163.144C248.679 163.144 247.969 162.952 247.329 162.568C246.7 162.184 246.204 161.645 245.841 160.952C245.479 160.259 245.297 159.469 245.297 158.584ZM252.721 158.6C252.721 157.939 252.588 157.363 252.321 156.872C252.055 156.381 251.692 156.008 251.233 155.752C250.785 155.485 250.289 155.352 249.745 155.352C249.201 155.352 248.705 155.48 248.257 155.736C247.809 155.992 247.452 156.365 247.185 156.856C246.919 157.347 246.785 157.923 246.785 158.584C246.785 159.256 246.919 159.843 247.185 160.344C247.452 160.835 247.809 161.213 248.257 161.48C248.705 161.736 249.201 161.864 249.745 161.864C250.289 161.864 250.785 161.736 251.233 161.48C251.692 161.213 252.055 160.835 252.321 160.344C252.588 159.843 252.721 159.261 252.721 158.6ZM257.406 152.808C257.129 152.808 256.894 152.712 256.702 152.52C256.51 152.328 256.414 152.093 256.414 151.816C256.414 151.539 256.51 151.304 256.702 151.112C256.894 150.92 257.129 150.824 257.406 150.824C257.673 150.824 257.897 150.92 258.078 151.112C258.27 151.304 258.366 151.539 258.366 151.816C258.366 152.093 258.27 152.328 258.078 152.52C257.897 152.712 257.673 152.808 257.406 152.808ZM258.11 154.232V163H256.654V154.232H258.11ZM264.863 154.072C265.93 154.072 266.794 154.397 267.455 155.048C268.117 155.688 268.447 156.616 268.447 157.832V163H267.007V158.04C267.007 157.165 266.789 156.499 266.351 156.04C265.914 155.571 265.317 155.336 264.559 155.336C263.791 155.336 263.178 155.576 262.719 156.056C262.271 156.536 262.047 157.235 262.047 158.152V163H260.591V154.232H262.047V155.48C262.335 155.032 262.725 154.685 263.215 154.44C263.717 154.195 264.266 154.072 264.863 154.072ZM270.282 158.584C270.282 157.688 270.463 156.904 270.826 156.232C271.188 155.549 271.684 155.021 272.314 154.648C272.954 154.275 273.663 154.088 274.442 154.088C275.21 154.088 275.876 154.253 276.442 154.584C277.007 154.915 277.428 155.331 277.706 155.832V154.232H279.178V163H277.706V161.368C277.418 161.88 276.986 162.307 276.41 162.648C275.844 162.979 275.183 163.144 274.426 163.144C273.647 163.144 272.943 162.952 272.314 162.568C271.684 162.184 271.188 161.645 270.826 160.952C270.463 160.259 270.282 159.469 270.282 158.584ZM277.706 158.6C277.706 157.939 277.572 157.363 277.306 156.872C277.039 156.381 276.676 156.008 276.218 155.752C275.77 155.485 275.274 155.352 274.73 155.352C274.186 155.352 273.69 155.48 273.242 155.736C272.794 155.992 272.436 156.365 272.17 156.856C271.903 157.347 271.77 157.923 271.77 158.584C271.77 159.256 271.903 159.843 272.17 160.344C272.436 160.835 272.794 161.213 273.242 161.48C273.69 161.736 274.186 161.864 274.73 161.864C275.274 161.864 275.77 161.736 276.218 161.48C276.676 161.213 277.039 160.835 277.306 160.344C277.572 159.843 277.706 159.261 277.706 158.6ZM283.414 155.432V160.6C283.414 161.027 283.505 161.331 283.686 161.512C283.868 161.683 284.182 161.768 284.63 161.768H285.702V163H284.39C283.58 163 282.972 162.813 282.566 162.44C282.161 162.067 281.958 161.453 281.958 160.6V155.432H280.822V154.232H281.958V152.024H283.414V154.232H285.702V155.432H283.414ZM295.466 158.28C295.466 158.557 295.45 158.851 295.418 159.16H288.41C288.464 160.024 288.757 160.701 289.29 161.192C289.834 161.672 290.49 161.912 291.258 161.912C291.888 161.912 292.41 161.768 292.826 161.48C293.253 161.181 293.552 160.787 293.722 160.296H295.29C295.056 161.139 294.586 161.827 293.882 162.36C293.178 162.883 292.304 163.144 291.258 163.144C290.426 163.144 289.68 162.957 289.018 162.584C288.368 162.211 287.856 161.683 287.482 161C287.109 160.307 286.922 159.507 286.922 158.6C286.922 157.693 287.104 156.899 287.466 156.216C287.829 155.533 288.336 155.011 288.986 154.648C289.648 154.275 290.405 154.088 291.258 154.088C292.09 154.088 292.826 154.269 293.466 154.632C294.106 154.995 294.597 155.496 294.938 156.136C295.29 156.765 295.466 157.48 295.466 158.28ZM293.962 157.976C293.962 157.421 293.84 156.947 293.594 156.552C293.349 156.147 293.013 155.843 292.586 155.64C292.17 155.427 291.706 155.32 291.194 155.32C290.458 155.32 289.829 155.555 289.306 156.024C288.794 156.493 288.501 157.144 288.426 157.976H293.962ZM313.334 154.232L310.598 163H309.094L306.982 156.04L304.87 163H303.366L300.614 154.232H302.102L304.118 161.592L306.294 154.232H307.782L309.91 161.608L311.894 154.232H313.334ZM315.531 152.808C315.254 152.808 315.019 152.712 314.827 152.52C314.635 152.328 314.539 152.093 314.539 151.816C314.539 151.539 314.635 151.304 314.827 151.112C315.019 150.92 315.254 150.824 315.531 150.824C315.798 150.824 316.022 150.92 316.203 151.112C316.395 151.304 316.491 151.539 316.491 151.816C316.491 152.093 316.395 152.328 316.203 152.52C316.022 152.712 315.798 152.808 315.531 152.808ZM316.235 154.232V163H314.779V154.232H316.235ZM320.492 155.432V160.6C320.492 161.027 320.583 161.331 320.764 161.512C320.946 161.683 321.26 161.768 321.708 161.768H322.78V163H321.468C320.658 163 320.05 162.813 319.644 162.44C319.239 162.067 319.036 161.453 319.036 160.6V155.432H317.9V154.232H319.036V152.024H320.492V154.232H322.78V155.432H320.492ZM328.897 154.072C329.558 154.072 330.155 154.216 330.689 154.504C331.222 154.781 331.638 155.203 331.937 155.768C332.246 156.333 332.401 157.021 332.401 157.832V163H330.961V158.04C330.961 157.165 330.742 156.499 330.305 156.04C329.867 155.571 329.27 155.336 328.513 155.336C327.745 155.336 327.131 155.576 326.673 156.056C326.225 156.536 326.001 157.235 326.001 158.152V163H324.545V151.16H326.001V155.48C326.289 155.032 326.683 154.685 327.185 154.44C327.697 154.195 328.267 154.072 328.897 154.072ZM10.688 182.6C10.688 181.693 10.8693 180.904 11.232 180.232C11.5947 179.549 12.096 179.021 12.736 178.648C13.3867 178.275 14.128 178.088 14.96 178.088C16.0373 178.088 16.9227 178.349 17.616 178.872C18.32 179.395 18.784 180.12 19.008 181.048H17.44C17.2907 180.515 16.9973 180.093 16.56 179.784C16.1333 179.475 15.6 179.32 14.96 179.32C14.128 179.32 13.456 179.608 12.944 180.184C12.432 180.749 12.176 181.555 12.176 182.6C12.176 183.656 12.432 184.472 12.944 185.048C13.456 185.624 14.128 185.912 14.96 185.912C15.6 185.912 16.1333 185.763 16.56 185.464C16.9867 185.165 17.28 184.739 17.44 184.184H19.008C18.7733 185.08 18.304 185.8 17.6 186.344C16.896 186.877 16.016 187.144 14.96 187.144C14.128 187.144 13.3867 186.957 12.736 186.584C12.096 186.211 11.5947 185.683 11.232 185C10.8693 184.317 10.688 183.517 10.688 182.6ZM24.7748 187.144C23.9534 187.144 23.2068 186.957 22.5348 186.584C21.8734 186.211 21.3508 185.683 20.9668 185C20.5934 184.307 20.4068 183.507 20.4068 182.6C20.4068 181.704 20.5988 180.915 20.9828 180.232C21.3774 179.539 21.9108 179.011 22.5828 178.648C23.2548 178.275 24.0068 178.088 24.8388 178.088C25.6708 178.088 26.4228 178.275 27.0948 178.648C27.7668 179.011 28.2948 179.533 28.6788 180.216C29.0734 180.899 29.2708 181.693 29.2708 182.6C29.2708 183.507 29.0681 184.307 28.6628 185C28.2681 185.683 27.7294 186.211 27.0468 186.584C26.3641 186.957 25.6068 187.144 24.7748 187.144ZM24.7748 185.864C25.2974 185.864 25.7881 185.741 26.2468 185.496C26.7054 185.251 27.0734 184.883 27.3508 184.392C27.6388 183.901 27.7828 183.304 27.7828 182.6C27.7828 181.896 27.6441 181.299 27.3668 180.808C27.0894 180.317 26.7268 179.955 26.2788 179.72C25.8308 179.475 25.3454 179.352 24.8228 179.352C24.2894 179.352 23.7988 179.475 23.3508 179.72C22.9134 179.955 22.5614 180.317 22.2948 180.808C22.0281 181.299 21.8948 181.896 21.8948 182.6C21.8948 183.315 22.0228 183.917 22.2788 184.408C22.5454 184.899 22.8974 185.267 23.3348 185.512C23.7721 185.747 24.2521 185.864 24.7748 185.864ZM35.4571 178.072C36.5238 178.072 37.3878 178.397 38.0491 179.048C38.7105 179.688 39.0411 180.616 39.0411 181.832V187H37.6011V182.04C37.6011 181.165 37.3825 180.499 36.9451 180.04C36.5078 179.571 35.9105 179.336 35.1531 179.336C34.3851 179.336 33.7718 179.576 33.3131 180.056C32.8651 180.536 32.6411 181.235 32.6411 182.152V187H31.1851V178.232H32.6411V179.48C32.9291 179.032 33.3185 178.685 33.8091 178.44C34.3105 178.195 34.8598 178.072 35.4571 178.072ZM44.5235 187.144C43.8515 187.144 43.2488 187.032 42.7155 186.808C42.1822 186.573 41.7608 186.253 41.4515 185.848C41.1422 185.432 40.9715 184.957 40.9395 184.424H42.4435C42.4862 184.861 42.6888 185.219 43.0515 185.496C43.4248 185.773 43.9102 185.912 44.5075 185.912C45.0622 185.912 45.4995 185.789 45.8195 185.544C46.1395 185.299 46.2995 184.989 46.2995 184.616C46.2995 184.232 46.1288 183.949 45.7875 183.768C45.4462 183.576 44.9182 183.389 44.2035 183.208C43.5528 183.037 43.0195 182.867 42.6035 182.696C42.1982 182.515 41.8462 182.253 41.5475 181.912C41.2595 181.56 41.1155 181.101 41.1155 180.536C41.1155 180.088 41.2488 179.677 41.5155 179.304C41.7822 178.931 42.1608 178.637 42.6515 178.424C43.1422 178.2 43.7022 178.088 44.3315 178.088C45.3022 178.088 46.0862 178.333 46.6835 178.824C47.2808 179.315 47.6008 179.987 47.6435 180.84H46.1875C46.1555 180.381 45.9688 180.013 45.6275 179.736C45.2968 179.459 44.8488 179.32 44.2835 179.32C43.7608 179.32 43.3448 179.432 43.0355 179.656C42.7262 179.88 42.5715 180.173 42.5715 180.536C42.5715 180.824 42.6622 181.064 42.8435 181.256C43.0355 181.437 43.2702 181.587 43.5475 181.704C43.8355 181.811 44.2302 181.933 44.7315 182.072C45.3608 182.243 45.8728 182.413 46.2675 182.584C46.6622 182.744 46.9982 182.989 47.2755 183.32C47.5635 183.651 47.7128 184.083 47.7235 184.616C47.7235 185.096 47.5902 185.528 47.3235 185.912C47.0568 186.296 46.6782 186.6 46.1875 186.824C45.7075 187.037 45.1528 187.144 44.5235 187.144ZM57.5549 178.232V187H56.0989V185.704C55.8215 186.152 55.4322 186.504 54.9309 186.76C54.4402 187.005 53.8962 187.128 53.2989 187.128C52.6162 187.128 52.0029 186.989 51.4589 186.712C50.9149 186.424 50.4829 185.997 50.1629 185.432C49.8535 184.867 49.6989 184.179 49.6989 183.368V178.232H51.1389V183.176C51.1389 184.04 51.3575 184.707 51.7949 185.176C52.2322 185.635 52.8295 185.864 53.5869 185.864C54.3655 185.864 54.9789 185.624 55.4269 185.144C55.8749 184.664 56.0989 183.965 56.0989 183.048V178.232H57.5549ZM61.4693 175.16V187H60.0133V175.16H61.4693ZM65.7268 179.432V184.6C65.7268 185.027 65.8174 185.331 65.9988 185.512C66.1801 185.683 66.4948 185.768 66.9427 185.768H68.0148V187H66.7028C65.8921 187 65.2841 186.813 64.8788 186.44C64.4734 186.067 64.2708 185.453 64.2708 184.6V179.432H63.1348V178.232H64.2708V176.024H65.7268V178.232H68.0148V179.432H65.7268ZM69.2349 182.584C69.2349 181.688 69.4162 180.904 69.7789 180.232C70.1415 179.549 70.6375 179.021 71.2669 178.648C71.9069 178.275 72.6162 178.088 73.3949 178.088C74.1629 178.088 74.8295 178.253 75.3949 178.584C75.9602 178.915 76.3815 179.331 76.6589 179.832V178.232H78.1309V187H76.6589V185.368C76.3709 185.88 75.9389 186.307 75.3629 186.648C74.7975 186.979 74.1362 187.144 73.3789 187.144C72.6002 187.144 71.8962 186.952 71.2669 186.568C70.6375 186.184 70.1415 185.645 69.7789 184.952C69.4162 184.259 69.2349 183.469 69.2349 182.584ZM76.6589 182.6C76.6589 181.939 76.5255 181.363 76.2589 180.872C75.9922 180.381 75.6295 180.008 75.1709 179.752C74.7229 179.485 74.2269 179.352 73.6829 179.352C73.1389 179.352 72.6429 179.48 72.1949 179.736C71.7469 179.992 71.3895 180.365 71.1229 180.856C70.8562 181.347 70.7229 181.923 70.7229 182.584C70.7229 183.256 70.8562 183.843 71.1229 184.344C71.3895 184.835 71.7469 185.213 72.1949 185.48C72.6429 185.736 73.1389 185.864 73.6829 185.864C74.2269 185.864 74.7229 185.736 75.1709 185.48C75.6295 185.213 75.9922 184.835 76.2589 184.344C76.5255 183.843 76.6589 183.261 76.6589 182.6ZM84.8634 178.072C85.93 178.072 86.794 178.397 87.4554 179.048C88.1167 179.688 88.4474 180.616 88.4474 181.832V187H87.0074V182.04C87.0074 181.165 86.7887 180.499 86.3514 180.04C85.914 179.571 85.3167 179.336 84.5594 179.336C83.7914 179.336 83.178 179.576 82.7194 180.056C82.2714 180.536 82.0474 181.235 82.0474 182.152V187H80.5914V178.232H82.0474V179.48C82.3354 179.032 82.7247 178.685 83.2154 178.44C83.7167 178.195 84.266 178.072 84.8634 178.072ZM92.6018 179.432V184.6C92.6018 185.027 92.6924 185.331 92.8738 185.512C93.0551 185.683 93.3698 185.768 93.8177 185.768H94.8898V187H93.5778C92.7671 187 92.1591 186.813 91.7538 186.44C91.3484 186.067 91.1458 185.453 91.1458 184.6V179.432H90.0098V178.232H91.1458V176.024H92.6018V178.232H94.8898V179.432H92.6018ZM99.7579 187.144C99.0859 187.144 98.4832 187.032 97.9499 186.808C97.4165 186.573 96.9952 186.253 96.6859 185.848C96.3765 185.432 96.2059 184.957 96.1739 184.424H97.6779C97.7205 184.861 97.9232 185.219 98.2859 185.496C98.6592 185.773 99.1445 185.912 99.7419 185.912C100.297 185.912 100.734 185.789 101.054 185.544C101.374 185.299 101.534 184.989 101.534 184.616C101.534 184.232 101.363 183.949 101.022 183.768C100.681 183.576 100.153 183.389 99.4379 183.208C98.7872 183.037 98.2539 182.867 97.8379 182.696C97.4325 182.515 97.0805 182.253 96.7819 181.912C96.4939 181.56 96.3499 181.101 96.3499 180.536C96.3499 180.088 96.4832 179.677 96.7499 179.304C97.0165 178.931 97.3952 178.637 97.8859 178.424C98.3765 178.2 98.9365 178.088 99.5659 178.088C100.537 178.088 101.321 178.333 101.918 178.824C102.515 179.315 102.835 179.987 102.878 180.84H101.422C101.39 180.381 101.203 180.013 100.862 179.736C100.531 179.459 100.083 179.32 99.5179 179.32C98.9952 179.32 98.5792 179.432 98.2699 179.656C97.9605 179.88 97.8059 180.173 97.8059 180.536C97.8059 180.824 97.8965 181.064 98.0779 181.256C98.2699 181.437 98.5045 181.587 98.7819 181.704C99.0699 181.811 99.4645 181.933 99.9659 182.072C100.595 182.243 101.107 182.413 101.502 182.584C101.897 182.744 102.233 182.989 102.51 183.32C102.798 183.651 102.947 184.083 102.958 184.616C102.958 185.096 102.825 185.528 102.558 185.912C102.291 186.296 101.913 186.6 101.422 186.824C100.942 187.037 100.387 187.144 99.7579 187.144ZM113.103 187.144C112.282 187.144 111.535 186.957 110.863 186.584C110.202 186.211 109.679 185.683 109.295 185C108.922 184.307 108.735 183.507 108.735 182.6C108.735 181.704 108.927 180.915 109.311 180.232C109.706 179.539 110.239 179.011 110.911 178.648C111.583 178.275 112.335 178.088 113.167 178.088C113.999 178.088 114.751 178.275 115.423 178.648C116.095 179.011 116.623 179.533 117.007 180.216C117.402 180.899 117.599 181.693 117.599 182.6C117.599 183.507 117.396 184.307 116.991 185C116.596 185.683 116.058 186.211 115.375 186.584C114.692 186.957 113.935 187.144 113.103 187.144ZM113.103 185.864C113.626 185.864 114.116 185.741 114.575 185.496C115.034 185.251 115.402 184.883 115.679 184.392C115.967 183.901 116.111 183.304 116.111 182.6C116.111 181.896 115.972 181.299 115.695 180.808C115.418 180.317 115.055 179.955 114.607 179.72C114.159 179.475 113.674 179.352 113.151 179.352C112.618 179.352 112.127 179.475 111.679 179.72C111.242 179.955 110.89 180.317 110.623 180.808C110.356 181.299 110.223 181.896 110.223 182.6C110.223 183.315 110.351 183.917 110.607 184.408C110.874 184.899 111.226 185.267 111.663 185.512C112.1 185.747 112.58 185.864 113.103 185.864ZM123.785 178.072C124.852 178.072 125.716 178.397 126.377 179.048C127.039 179.688 127.369 180.616 127.369 181.832V187H125.929V182.04C125.929 181.165 125.711 180.499 125.273 180.04C124.836 179.571 124.239 179.336 123.481 179.336C122.713 179.336 122.1 179.576 121.641 180.056C121.193 180.536 120.969 181.235 120.969 182.152V187H119.513V178.232H120.969V179.48C121.257 179.032 121.647 178.685 122.137 178.44C122.639 178.195 123.188 178.072 123.785 178.072ZM133.469 182.584C133.469 181.688 133.651 180.904 134.013 180.232C134.376 179.549 134.872 179.021 135.501 178.648C136.141 178.275 136.856 178.088 137.645 178.088C138.328 178.088 138.963 178.248 139.549 178.568C140.136 178.877 140.584 179.288 140.893 179.8V175.16H142.365V187H140.893V185.352C140.605 185.875 140.179 186.307 139.613 186.648C139.048 186.979 138.387 187.144 137.629 187.144C136.851 187.144 136.141 186.952 135.501 186.568C134.872 186.184 134.376 185.645 134.013 184.952C133.651 184.259 133.469 183.469 133.469 182.584ZM140.893 182.6C140.893 181.939 140.76 181.363 140.493 180.872C140.227 180.381 139.864 180.008 139.405 179.752C138.957 179.485 138.461 179.352 137.917 179.352C137.373 179.352 136.877 179.48 136.429 179.736C135.981 179.992 135.624 180.365 135.357 180.856C135.091 181.347 134.957 181.923 134.957 182.584C134.957 183.256 135.091 183.843 135.357 184.344C135.624 184.835 135.981 185.213 136.429 185.48C136.877 185.736 137.373 185.864 137.917 185.864C138.461 185.864 138.957 185.736 139.405 185.48C139.864 185.213 140.227 184.835 140.493 184.344C140.76 183.843 140.893 183.261 140.893 182.6ZM148.65 187.144C147.828 187.144 147.082 186.957 146.41 186.584C145.748 186.211 145.226 185.683 144.842 185C144.468 184.307 144.282 183.507 144.282 182.6C144.282 181.704 144.474 180.915 144.858 180.232C145.252 179.539 145.786 179.011 146.458 178.648C147.13 178.275 147.882 178.088 148.714 178.088C149.546 178.088 150.298 178.275 150.97 178.648C151.642 179.011 152.17 179.533 152.554 180.216C152.948 180.899 153.146 181.693 153.146 182.6C153.146 183.507 152.943 184.307 152.538 185C152.143 185.683 151.604 186.211 150.922 186.584C150.239 186.957 149.482 187.144 148.65 187.144ZM148.65 185.864C149.172 185.864 149.663 185.741 150.122 185.496C150.58 185.251 150.948 184.883 151.226 184.392C151.514 183.901 151.658 183.304 151.658 182.6C151.658 181.896 151.519 181.299 151.242 180.808C150.964 180.317 150.602 179.955 150.154 179.72C149.706 179.475 149.22 179.352 148.698 179.352C148.164 179.352 147.674 179.475 147.226 179.72C146.788 179.955 146.436 180.317 146.17 180.808C145.903 181.299 145.77 181.896 145.77 182.6C145.77 183.315 145.898 183.917 146.154 184.408C146.42 184.899 146.772 185.267 147.21 185.512C147.647 185.747 148.127 185.864 148.65 185.864ZM154.516 182.6C154.516 181.693 154.697 180.904 155.06 180.232C155.423 179.549 155.924 179.021 156.564 178.648C157.215 178.275 157.956 178.088 158.788 178.088C159.865 178.088 160.751 178.349 161.444 178.872C162.148 179.395 162.612 180.12 162.836 181.048H161.268C161.119 180.515 160.825 180.093 160.388 179.784C159.961 179.475 159.428 179.32 158.788 179.32C157.956 179.32 157.284 179.608 156.772 180.184C156.26 180.749 156.004 181.555 156.004 182.6C156.004 183.656 156.26 184.472 156.772 185.048C157.284 185.624 157.956 185.912 158.788 185.912C159.428 185.912 159.961 185.763 160.388 185.464C160.815 185.165 161.108 184.739 161.268 184.184H162.836C162.601 185.08 162.132 185.8 161.428 186.344C160.724 186.877 159.844 187.144 158.788 187.144C157.956 187.144 157.215 186.957 156.564 186.584C155.924 186.211 155.423 185.683 155.06 185C154.697 184.317 154.516 183.517 154.516 182.6ZM172.555 178.232V187H171.099V185.704C170.822 186.152 170.432 186.504 169.931 186.76C169.44 187.005 168.896 187.128 168.299 187.128C167.616 187.128 167.003 186.989 166.459 186.712C165.915 186.424 165.483 185.997 165.163 185.432C164.854 184.867 164.699 184.179 164.699 183.368V178.232H166.139V183.176C166.139 184.04 166.358 184.707 166.795 185.176C167.232 185.635 167.83 185.864 168.587 185.864C169.366 185.864 169.979 185.624 170.427 185.144C170.875 184.664 171.099 183.965 171.099 183.048V178.232H172.555ZM185.557 178.072C186.24 178.072 186.848 178.216 187.381 178.504C187.915 178.781 188.336 179.203 188.645 179.768C188.955 180.333 189.109 181.021 189.109 181.832V187H187.669V182.04C187.669 181.165 187.451 180.499 187.013 180.04C186.587 179.571 186.005 179.336 185.269 179.336C184.512 179.336 183.909 179.581 183.461 180.072C183.013 180.552 182.789 181.251 182.789 182.168V187H181.349V182.04C181.349 181.165 181.131 180.499 180.693 180.04C180.267 179.571 179.685 179.336 178.949 179.336C178.192 179.336 177.589 179.581 177.141 180.072C176.693 180.552 176.469 181.251 176.469 182.168V187H175.013V178.232H176.469V179.496C176.757 179.037 177.141 178.685 177.621 178.44C178.112 178.195 178.651 178.072 179.237 178.072C179.973 178.072 180.624 178.237 181.189 178.568C181.755 178.899 182.176 179.384 182.453 180.024C182.699 179.405 183.104 178.925 183.669 178.584C184.235 178.243 184.864 178.072 185.557 178.072ZM199.498 182.28C199.498 182.557 199.482 182.851 199.45 183.16H192.442C192.495 184.024 192.788 184.701 193.322 185.192C193.866 185.672 194.522 185.912 195.29 185.912C195.919 185.912 196.442 185.768 196.858 185.48C197.284 185.181 197.583 184.787 197.754 184.296H199.322C199.087 185.139 198.618 185.827 197.914 186.36C197.21 186.883 196.335 187.144 195.29 187.144C194.458 187.144 193.711 186.957 193.05 186.584C192.399 186.211 191.887 185.683 191.514 185C191.14 184.307 190.954 183.507 190.954 182.6C190.954 181.693 191.135 180.899 191.498 180.216C191.86 179.533 192.367 179.011 193.018 178.648C193.679 178.275 194.436 178.088 195.29 178.088C196.122 178.088 196.858 178.269 197.498 178.632C198.138 178.995 198.628 179.496 198.97 180.136C199.322 180.765 199.498 181.48 199.498 182.28ZM197.994 181.976C197.994 181.421 197.871 180.947 197.626 180.552C197.38 180.147 197.044 179.843 196.618 179.64C196.202 179.427 195.738 179.32 195.226 179.32C194.49 179.32 193.86 179.555 193.338 180.024C192.826 180.493 192.532 181.144 192.458 181.976H197.994ZM205.692 178.072C206.758 178.072 207.622 178.397 208.284 179.048C208.945 179.688 209.276 180.616 209.276 181.832V187H207.836V182.04C207.836 181.165 207.617 180.499 207.18 180.04C206.742 179.571 206.145 179.336 205.388 179.336C204.62 179.336 204.006 179.576 203.548 180.056C203.1 180.536 202.876 181.235 202.876 182.152V187H201.42V178.232H202.876V179.48C203.164 179.032 203.553 178.685 204.044 178.44C204.545 178.195 205.094 178.072 205.692 178.072ZM213.43 179.432V184.6C213.43 185.027 213.521 185.331 213.702 185.512C213.883 185.683 214.198 185.768 214.646 185.768H215.718V187H214.406C213.595 187 212.987 186.813 212.582 186.44C212.177 186.067 211.974 185.453 211.974 184.6V179.432H210.838V178.232H211.974V176.024H213.43V178.232H215.718V179.432H213.43ZM216.938 182.584C216.938 181.688 217.119 180.904 217.482 180.232C217.845 179.549 218.341 179.021 218.97 178.648C219.61 178.275 220.319 178.088 221.098 178.088C221.866 178.088 222.533 178.253 223.098 178.584C223.663 178.915 224.085 179.331 224.362 179.832V178.232H225.834V187H224.362V185.368C224.074 185.88 223.642 186.307 223.066 186.648C222.501 186.979 221.839 187.144 221.082 187.144C220.303 187.144 219.599 186.952 218.97 186.568C218.341 186.184 217.845 185.645 217.482 184.952C217.119 184.259 216.938 183.469 216.938 182.584ZM224.362 182.6C224.362 181.939 224.229 181.363 223.962 180.872C223.695 180.381 223.333 180.008 222.874 179.752C222.426 179.485 221.93 179.352 221.386 179.352C220.842 179.352 220.346 179.48 219.898 179.736C219.45 179.992 219.093 180.365 218.826 180.856C218.559 181.347 218.426 181.923 218.426 182.584C218.426 183.256 218.559 183.843 218.826 184.344C219.093 184.835 219.45 185.213 219.898 185.48C220.346 185.736 220.842 185.864 221.386 185.864C221.93 185.864 222.426 185.736 222.874 185.48C223.333 185.213 223.695 184.835 223.962 184.344C224.229 183.843 224.362 183.261 224.362 182.6ZM230.071 179.432V184.6C230.071 185.027 230.161 185.331 230.343 185.512C230.524 185.683 230.839 185.768 231.286 185.768H232.359V187H231.047C230.236 187 229.628 186.813 229.223 186.44C228.817 186.067 228.615 185.453 228.615 184.6V179.432H227.479V178.232H228.615V176.024H230.071V178.232H232.359V179.432H230.071ZM234.875 176.808C234.597 176.808 234.363 176.712 234.171 176.52C233.979 176.328 233.883 176.093 233.883 175.816C233.883 175.539 233.979 175.304 234.171 175.112C234.363 174.92 234.597 174.824 234.875 174.824C235.141 174.824 235.365 174.92 235.547 175.112C235.739 175.304 235.835 175.539 235.835 175.816C235.835 176.093 235.739 176.328 235.547 176.52C235.365 176.712 235.141 176.808 234.875 176.808ZM235.579 178.232V187H234.123V178.232H235.579ZM241.884 187.144C241.063 187.144 240.316 186.957 239.644 186.584C238.983 186.211 238.46 185.683 238.076 185C237.703 184.307 237.516 183.507 237.516 182.6C237.516 181.704 237.708 180.915 238.092 180.232C238.487 179.539 239.02 179.011 239.692 178.648C240.364 178.275 241.116 178.088 241.948 178.088C242.78 178.088 243.532 178.275 244.204 178.648C244.876 179.011 245.404 179.533 245.788 180.216C246.183 180.899 246.38 181.693 246.38 182.6C246.38 183.507 246.177 184.307 245.772 185C245.377 185.683 244.839 186.211 244.156 186.584C243.473 186.957 242.716 187.144 241.884 187.144ZM241.884 185.864C242.407 185.864 242.897 185.741 243.356 185.496C243.815 185.251 244.183 184.883 244.46 184.392C244.748 183.901 244.892 183.304 244.892 182.6C244.892 181.896 244.753 181.299 244.476 180.808C244.199 180.317 243.836 179.955 243.388 179.72C242.94 179.475 242.455 179.352 241.932 179.352C241.399 179.352 240.908 179.475 240.46 179.72C240.023 179.955 239.671 180.317 239.404 180.808C239.137 181.299 239.004 181.896 239.004 182.6C239.004 183.315 239.132 183.917 239.388 184.408C239.655 184.899 240.007 185.267 240.444 185.512C240.881 185.747 241.361 185.864 241.884 185.864ZM252.567 178.072C253.633 178.072 254.497 178.397 255.159 179.048C255.82 179.688 256.151 180.616 256.151 181.832V187H254.711V182.04C254.711 181.165 254.492 180.499 254.055 180.04C253.617 179.571 253.02 179.336 252.263 179.336C251.495 179.336 250.881 179.576 250.423 180.056C249.975 180.536 249.751 181.235 249.751 182.152V187H248.295V178.232H249.751V179.48C250.039 179.032 250.428 178.685 250.919 178.44C251.42 178.195 251.969 178.072 252.567 178.072ZM266.363 179.432H264.523V187H263.067V179.432H261.931V178.232H263.067V177.608C263.067 176.627 263.317 175.912 263.819 175.464C264.331 175.005 265.147 174.776 266.266 174.776V175.992C265.627 175.992 265.173 176.12 264.907 176.376C264.651 176.621 264.523 177.032 264.523 177.608V178.232H266.363V179.432ZM271.884 187.144C271.063 187.144 270.316 186.957 269.644 186.584C268.983 186.211 268.46 185.683 268.076 185C267.703 184.307 267.516 183.507 267.516 182.6C267.516 181.704 267.708 180.915 268.092 180.232C268.487 179.539 269.02 179.011 269.692 178.648C270.364 178.275 271.116 178.088 271.948 178.088C272.78 178.088 273.532 178.275 274.204 178.648C274.876 179.011 275.404 179.533 275.788 180.216C276.183 180.899 276.38 181.693 276.38 182.6C276.38 183.507 276.177 184.307 275.772 185C275.377 185.683 274.839 186.211 274.156 186.584C273.473 186.957 272.716 187.144 271.884 187.144ZM271.884 185.864C272.407 185.864 272.897 185.741 273.356 185.496C273.815 185.251 274.183 184.883 274.46 184.392C274.748 183.901 274.892 183.304 274.892 182.6C274.892 181.896 274.753 181.299 274.476 180.808C274.199 180.317 273.836 179.955 273.388 179.72C272.94 179.475 272.455 179.352 271.932 179.352C271.399 179.352 270.908 179.475 270.46 179.72C270.023 179.955 269.671 180.317 269.404 180.808C269.137 181.299 269.004 181.896 269.004 182.6C269.004 183.315 269.132 183.917 269.388 184.408C269.655 184.899 270.007 185.267 270.444 185.512C270.881 185.747 271.361 185.864 271.884 185.864ZM279.751 179.656C280.007 179.155 280.369 178.765 280.839 178.488C281.319 178.211 281.9 178.072 282.583 178.072V179.576H282.199C280.567 179.576 279.751 180.461 279.751 182.232V187H278.295V178.232H279.751V179.656ZM287.985 182.584C287.985 181.688 288.166 180.904 288.529 180.232C288.892 179.549 289.388 179.021 290.017 178.648C290.657 178.275 291.366 178.088 292.145 178.088C292.913 178.088 293.58 178.253 294.145 178.584C294.71 178.915 295.132 179.331 295.409 179.832V178.232H296.881V187H295.409V185.368C295.121 185.88 294.689 186.307 294.113 186.648C293.548 186.979 292.886 187.144 292.129 187.144C291.35 187.144 290.646 186.952 290.017 186.568C289.388 186.184 288.892 185.645 288.529 184.952C288.166 184.259 287.985 183.469 287.985 182.584ZM295.409 182.6C295.409 181.939 295.276 181.363 295.009 180.872C294.742 180.381 294.38 180.008 293.921 179.752C293.473 179.485 292.977 179.352 292.433 179.352C291.889 179.352 291.393 179.48 290.945 179.736C290.497 179.992 290.14 180.365 289.873 180.856C289.606 181.347 289.473 181.923 289.473 182.584C289.473 183.256 289.606 183.843 289.873 184.344C290.14 184.835 290.497 185.213 290.945 185.48C291.393 185.736 291.889 185.864 292.433 185.864C292.977 185.864 293.473 185.736 293.921 185.48C294.38 185.213 294.742 184.835 295.009 184.344C295.276 183.843 295.409 183.261 295.409 182.6ZM300.797 179.848C301.085 179.347 301.512 178.931 302.077 178.6C302.653 178.259 303.32 178.088 304.077 178.088C304.856 178.088 305.56 178.275 306.189 178.648C306.829 179.021 307.331 179.549 307.693 180.232C308.056 180.904 308.237 181.688 308.237 182.584C308.237 183.469 308.056 184.259 307.693 184.952C307.331 185.645 306.829 186.184 306.189 186.568C305.56 186.952 304.856 187.144 304.077 187.144C303.331 187.144 302.669 186.979 302.093 186.648C301.528 186.307 301.096 185.885 300.797 185.384V191.16H299.341V178.232H300.797V179.848ZM306.749 182.584C306.749 181.923 306.616 181.347 306.349 180.856C306.083 180.365 305.72 179.992 305.261 179.736C304.813 179.48 304.317 179.352 303.773 179.352C303.24 179.352 302.744 179.485 302.285 179.752C301.837 180.008 301.475 180.387 301.197 180.888C300.931 181.379 300.797 181.949 300.797 182.6C300.797 183.261 300.931 183.843 301.197 184.344C301.475 184.835 301.837 185.213 302.285 185.48C302.744 185.736 303.24 185.864 303.773 185.864C304.317 185.864 304.813 185.736 305.261 185.48C305.72 185.213 306.083 184.835 306.349 184.344C306.616 183.843 306.749 183.256 306.749 182.584ZM311.61 179.848C311.898 179.347 312.325 178.931 312.89 178.6C313.466 178.259 314.133 178.088 314.89 178.088C315.669 178.088 316.373 178.275 317.002 178.648C317.642 179.021 318.143 179.549 318.506 180.232C318.869 180.904 319.05 181.688 319.05 182.584C319.05 183.469 318.869 184.259 318.506 184.952C318.143 185.645 317.642 186.184 317.002 186.568C316.373 186.952 315.669 187.144 314.89 187.144C314.143 187.144 313.482 186.979 312.906 186.648C312.341 186.307 311.909 185.885 311.61 185.384V191.16H310.154V178.232H311.61V179.848ZM317.562 182.584C317.562 181.923 317.429 181.347 317.162 180.856C316.895 180.365 316.533 179.992 316.074 179.736C315.626 179.48 315.13 179.352 314.586 179.352C314.053 179.352 313.557 179.485 313.098 179.752C312.65 180.008 312.287 180.387 312.01 180.888C311.743 181.379 311.61 181.949 311.61 182.6C311.61 183.261 311.743 183.843 312.01 184.344C312.287 184.835 312.65 185.213 313.098 185.48C313.557 185.736 314.053 185.864 314.586 185.864C315.13 185.864 315.626 185.736 316.074 185.48C316.533 185.213 316.895 184.835 317.162 184.344C317.429 183.843 317.562 183.256 317.562 182.584ZM322.422 179.656C322.678 179.155 323.041 178.765 323.51 178.488C323.99 178.211 324.572 178.072 325.254 178.072V179.576H324.87C323.238 179.576 322.422 180.461 322.422 182.232V187H320.966V178.232H322.422V179.656ZM330.759 187.144C329.938 187.144 329.191 186.957 328.519 186.584C327.858 186.211 327.335 185.683 326.951 185C326.578 184.307 326.391 183.507 326.391 182.6C326.391 181.704 326.583 180.915 326.967 180.232C327.362 179.539 327.895 179.011 328.567 178.648C329.239 178.275 329.991 178.088 330.823 178.088C331.655 178.088 332.407 178.275 333.079 178.648C333.751 179.011 334.279 179.533 334.663 180.216C335.058 180.899 335.255 181.693 335.255 182.6C335.255 183.507 335.052 184.307 334.647 185C334.252 185.683 333.714 186.211 333.031 186.584C332.348 186.957 331.591 187.144 330.759 187.144ZM330.759 185.864C331.282 185.864 331.772 185.741 332.231 185.496C332.69 185.251 333.058 184.883 333.335 184.392C333.623 183.901 333.767 183.304 333.767 182.6C333.767 181.896 333.628 181.299 333.351 180.808C333.074 180.317 332.711 179.955 332.263 179.72C331.815 179.475 331.33 179.352 330.807 179.352C330.274 179.352 329.783 179.475 329.335 179.72C328.898 179.955 328.546 180.317 328.279 180.808C328.012 181.299 327.879 181.896 327.879 182.6C327.879 183.315 328.007 183.917 328.263 184.408C328.53 184.899 328.882 185.267 329.319 185.512C329.756 185.747 330.236 185.864 330.759 185.864ZM340.434 185.656L343.154 178.232H344.706L341.266 187H339.57L336.13 178.232H337.698L340.434 185.656ZM345.594 182.584C345.594 181.688 345.776 180.904 346.138 180.232C346.501 179.549 346.997 179.021 347.626 178.648C348.266 178.275 348.976 178.088 349.754 178.088C350.522 178.088 351.189 178.253 351.754 178.584C352.32 178.915 352.741 179.331 353.018 179.832V178.232H354.49V187H353.018V185.368C352.73 185.88 352.298 186.307 351.722 186.648C351.157 186.979 350.496 187.144 349.738 187.144C348.96 187.144 348.256 186.952 347.626 186.568C346.997 186.184 346.501 185.645 346.138 184.952C345.776 184.259 345.594 183.469 345.594 182.584ZM353.018 182.6C353.018 181.939 352.885 181.363 352.618 180.872C352.352 180.381 351.989 180.008 351.53 179.752C351.082 179.485 350.586 179.352 350.042 179.352C349.498 179.352 349.002 179.48 348.554 179.736C348.106 179.992 347.749 180.365 347.482 180.856C347.216 181.347 347.082 181.923 347.082 182.584C347.082 183.256 347.216 183.843 347.482 184.344C347.749 184.835 348.106 185.213 348.554 185.48C349.002 185.736 349.498 185.864 350.042 185.864C350.586 185.864 351.082 185.736 351.53 185.48C351.989 185.213 352.352 184.835 352.618 184.344C352.885 183.843 353.018 183.261 353.018 182.6ZM358.407 175.16V187H356.951V175.16H358.407ZM361.352 187.096C361.075 187.096 360.84 187 360.648 186.808C360.456 186.616 360.36 186.381 360.36 186.104C360.36 185.827 360.456 185.592 360.648 185.4C360.84 185.208 361.075 185.112 361.352 185.112C361.619 185.112 361.843 185.208 362.024 185.4C362.216 185.592 362.312 185.827 362.312 186.104C362.312 186.381 362.216 186.616 362.024 186.808C361.843 187 361.619 187.096 361.352 187.096Z" fill="#3A3A3A"/>
</svg>
