<svg id="Layer_1" data-name="Layer 1" xmlns="http://www.w3.org/2000/svg" viewBox="0 0 64 64"><defs><style>.cls-1{fill:#001b72;}</style></defs><path class="cls-1" d="M60.63,29.72A28.35,28.35,0,0,0,34,3.72c-.54,0-1.09-.06-1.63-.06A28.34,28.34,0,0,0,4.15,29.59C4.08,30.4,4,31.2,4,32A28.19,28.19,0,0,0,6,42.48a13,13,0,0,1,9.43-4.08A13.08,13.08,0,0,0,6,42.48,28.35,28.35,0,0,0,32.39,60.34,28,28,0,0,0,47.51,56,28.58,28.58,0,0,0,57.85,44.45,28.18,28.18,0,0,0,60.72,32C60.72,31.24,60.68,30.47,60.63,29.72Zm-28.24-23H33c8.4,5.85,14.15,9.64,20.58,11.48a25,25,0,0,1,3.45,8c-6.7-1.4-12.28-5.29-22.61-12.5-1.35-.95-2.77-1.94-4.28-3a38,38,0,0,0-5-3A25.46,25.46,0,0,1,32.39,6.68ZM17.56,11.47a23.4,23.4,0,0,1,9.13,4.19q2.26,1.56,4.27,3c11.23,7.84,17.87,12.48,26.73,13.81A25.52,25.52,0,0,1,56.05,41c-6.39-1.6-12.15-5.63-21.8-12.38l-4.11-2.87C24.92,22.13,20,20.29,15.47,20.29A15.5,15.5,0,0,0,9.3,21.54,25.07,25.07,0,0,1,17.56,11.47ZM4.74,28.84c2.47-3,5.95-5.53,10.73-5.53C10.69,23.31,7.21,25.8,4.74,28.84ZM32.39,57.32a25.17,25.17,0,0,1-22.67-14,9.54,9.54,0,0,1,5.75-1.88c3.25,0,7,1.48,11.22,4.39l4,2.83c3.93,2.75,7.34,5.13,10.45,7.11A25.37,25.37,0,0,1,32.39,57.32Zm15-4.91c-3.68-2.11-7.76-5-13.14-8.73l-4.06-2.84C24.92,37.22,20,35.38,15.47,35.38h0a15.35,15.35,0,0,0-7.82,2.07A25.39,25.39,0,0,1,7.06,32c0-.43,0-.86,0-1.28,2.37-2.92,5.19-4.4,8.37-4.4v-3h0v3h0c3.25,0,7,1.48,11.22,4.4,1.44,1,2.8,1.95,4.09,2.85,9.58,6.7,15.58,10.9,22.37,12.91A25.51,25.51,0,0,1,47.34,52.41Z"/></svg>