<svg width="312" height="147" viewBox="0 0 312 147" fill="none" xmlns="http://www.w3.org/2000/svg">
<path d="M86.152 38.5825V108.4C86.152 119.245 82.0782 128.368 73.966 135.803C65.8184 143.256 55.5631 146.982 43.1646 146.982C30.766 146.982 20.4753 143.256 12.2745 135.803C4.09151 128.386 0 119.263 0 108.418V38.5825C0 27.7372 4.09151 18.5969 12.2745 11.1617C20.4753 3.72641 30.766 0 43.1646 0C55.5631 0 65.8184 3.72641 73.966 11.1792C82.0782 18.6145 86.152 27.7548 86.152 38.5825Z" fill="#001B72"/>
<path d="M147.826 30.7607C145.382 30.7607 143.362 31.4463 141.733 32.8525C141.733 31.9912 141.024 31.3056 140.174 31.3056H133.497C133.32 31.3056 133.16 31.4463 133.16 31.6396V33.2919V86.3054V87.9577C133.16 88.1335 133.302 88.2917 133.497 88.2917H135.055C138.722 88.2917 141.715 85.3386 141.715 81.6825V80.3291H141.751V34.8211C142.902 33.5731 144.053 32.9403 145.204 32.9403C146.976 32.9403 147.844 34.329 147.844 37.1062V41.94C147.844 42.1158 147.985 42.274 148.18 42.274H156.133C156.31 42.274 156.469 42.1333 156.469 41.94V40.7975C156.452 34.118 153.565 30.7607 147.826 30.7607Z" fill="#001B72"/>
<path d="M185.82 42.2915V41.94C185.82 38.8112 184.651 36.157 182.295 33.995C179.939 31.833 176.964 30.7607 173.368 30.7607C169.773 30.7607 166.797 31.833 164.423 33.995C162.05 36.157 160.863 38.7936 160.863 41.94V77.6222C160.863 80.7685 162.05 83.4051 164.423 85.5672C166.797 87.7292 169.773 88.8014 173.368 88.8014C176.964 88.8014 179.939 87.7292 182.295 85.5672C184.651 83.4051 185.82 80.7685 185.82 77.6222V73.2278C185.82 73.052 185.678 72.8938 185.483 72.8938H177.53C177.353 72.8938 177.194 73.0345 177.194 73.2278V82.4384C177.194 85.3562 175.919 86.8327 173.368 86.8327C170.782 86.8327 169.489 85.3738 169.489 82.4384V37.1238C169.489 34.2059 170.782 32.747 173.368 32.747C175.919 32.747 177.194 34.2059 177.194 37.1238V42.2915H185.82Z" fill="#001B72"/>
<path d="M204.364 86.2877C201.778 86.2877 200.485 84.8288 200.485 81.9109V33.2742H206.347C206.524 33.2742 206.684 33.1336 206.684 32.9402V31.6219C206.684 31.4461 206.542 31.2879 206.347 31.2879H200.485V22.0071C200.485 18.3685 197.509 15.3979 193.825 15.3979H192.231C192.054 15.3979 191.894 15.5386 191.894 15.7319V31.2879H189.432C189.255 31.2879 189.096 31.4286 189.096 31.6219V32.9402C189.096 33.116 189.237 33.2742 189.432 33.2742H191.894V77.0771C191.894 80.1883 193.063 82.825 195.419 84.987C197.775 87.1666 200.75 88.2564 204.346 88.2564H206.755C206.932 88.2564 207.091 88.1158 207.091 87.9224V86.6041C207.091 86.4283 206.95 86.2701 206.755 86.2701H204.364V86.2877Z" fill="#001B72"/>
<path d="M235.608 48.8128C235.785 48.8128 235.945 48.6721 235.945 48.4788V41.9224C235.945 38.7936 234.776 36.1394 232.42 33.9774C230.064 31.8154 227.089 30.7432 223.493 30.7432C219.898 30.7432 216.922 31.8154 214.548 33.9774C212.175 36.1394 210.988 38.776 210.988 41.9224V77.6046C210.988 80.7509 212.175 83.3876 214.548 85.5496C216.922 87.7116 219.898 88.7838 223.493 88.7838C227.089 88.7838 230.064 87.7116 232.42 85.5496C234.776 83.3876 235.945 80.7509 235.945 77.6046V73.2102C235.945 73.0345 235.803 72.8763 235.608 72.8763H227.655C227.478 72.8763 227.319 73.0169 227.319 73.2102V82.4208C227.319 85.3386 226.044 86.8151 223.493 86.8151C220.907 86.8151 219.614 85.3562 219.614 82.4208V48.8128H235.608ZM219.614 37.1238C219.614 34.2059 220.907 32.747 223.493 32.747C226.044 32.747 227.319 34.2059 227.319 37.1238V46.8441H219.614V37.1238Z" fill="#001B72"/>
<path d="M257.234 30.7607C254.79 30.7607 252.753 31.4463 251.141 32.8525C251.141 31.9912 250.433 31.3056 249.582 31.3056H242.905C242.728 31.3056 242.568 31.4463 242.568 31.6396V33.2919V86.3054V87.9577C242.568 88.1335 242.71 88.2917 242.905 88.2917H244.499C248.165 88.2917 251.159 85.3386 251.159 81.6825V34.8211C252.31 33.5731 253.461 32.9403 254.613 32.9403C256.384 32.9403 257.252 34.329 257.252 37.1062V41.94C257.252 42.1158 257.393 42.274 257.588 42.274H265.541C265.718 42.274 265.878 42.1333 265.878 41.94V40.7975C265.86 34.118 262.973 30.7607 257.234 30.7607Z" fill="#001B72"/>
<path d="M271.723 19.6868V20.4427C271.723 22.798 273.653 24.714 276.027 24.714C278.4 24.714 280.331 22.798 280.331 20.4427V19.6868C280.331 17.3315 278.4 15.4155 276.027 15.4155C273.653 15.4155 271.723 17.3315 271.723 19.6868ZM272.059 31.2879C271.882 31.2879 271.723 31.4286 271.723 31.6219V33.2742V81.6648C271.723 85.3034 274.698 88.274 278.382 88.274H280.03C280.207 88.274 280.366 88.1333 280.366 87.94V31.6219C280.366 31.4461 280.225 31.2879 280.03 31.2879H272.059Z" fill="#001B72"/>
<path d="M308.459 33.995C306.103 31.833 303.128 30.7607 299.532 30.7607C295.937 30.7607 292.961 31.833 290.587 33.995C288.214 36.157 287.027 38.7936 287.027 41.94V77.6222C287.027 80.7685 288.214 83.4051 290.587 85.5672C292.961 87.7292 295.937 88.8014 299.532 88.8014C303.128 88.8014 306.103 87.7292 308.459 85.5672C310.815 83.4051 311.984 80.7685 311.984 77.6222V41.94C312.002 38.7936 310.815 36.157 308.459 33.995ZM303.376 82.4208C303.376 85.3386 302.1 86.8151 299.55 86.8151C296.964 86.8151 295.671 85.3562 295.671 82.4208V37.1238C295.671 34.2059 296.964 32.747 299.55 32.747C302.1 32.747 303.376 34.2059 303.376 37.1238V82.4208Z" fill="#001B72"/>
<path d="M122.835 33.8192C120.709 31.7802 117.84 30.7607 114.209 30.7607C110.613 30.7607 107.744 31.7802 105.618 33.8192C103.564 35.7879 102.483 38.3718 102.412 41.606V41.6236C102.412 41.7466 102.412 41.9048 102.412 42.0454C102.412 42.1861 102.412 42.2915 102.43 42.2915H110.985C111.021 42.2915 111.038 42.274 111.038 42.2388V37.1413C111.038 34.2235 112.101 32.747 114.226 32.747C116.387 32.747 117.468 34.2059 117.468 37.1413V46.8265C117.468 46.8617 117.45 46.8792 117.415 46.8792H114.829C106.345 46.8792 102.111 50.4123 102.111 57.4608V78.7471C102.111 85.4441 105.158 88.8014 111.269 88.8014C112.225 88.8014 113.128 88.6959 113.943 88.5026C114.528 88.362 115.13 88.2741 115.732 88.2741H117.503H117.521H125.704C125.881 88.2741 126.04 88.1335 126.04 87.9401V41.94C126.005 38.5475 124.942 35.8406 122.835 33.8192ZM117.362 82.7899C117.362 85.3035 116.263 86.5691 114.067 86.5691C111.835 86.5691 110.719 85.3035 110.719 82.7899V52.7325C110.719 50.219 111.835 48.9534 114.067 48.9534C116.263 48.9534 117.362 50.219 117.362 52.7325V82.7899Z" fill="#001B72"/>
<path d="M101.986 119.908L185.871 119.908V104.194L101.986 104.194V119.908Z" fill="#FFB648"/>
<path d="M76.1622 111.037C75.0995 112.83 73.222 114.007 71.1497 114.201C70.6183 114.253 70.0869 114.271 69.5556 114.271C56.7142 114.271 48.9917 108.26 42.7748 103.408C38.0987 99.7697 34.4146 96.9045 29.6146 96.9045C25.0626 96.9045 21.8035 98.9259 19.6604 103.092C17.8537 106.59 17.1984 111.002 17.1984 113.744C17.1984 113.779 17.1807 113.796 17.1452 113.796H9.10392C9.06849 113.796 9.05078 113.779 9.05078 113.744C9.05078 111.828 9.31646 105.394 12.4161 99.4181C13.4965 97.3264 14.8072 95.5159 16.3128 94.0218C19.7666 90.6118 24.2655 88.8365 29.6146 88.8365C33.1748 88.8365 36.2567 89.7505 39.0375 91.1391C42.208 92.7211 45.0242 94.9007 47.7873 97.0627C52.2862 100.561 57.1925 103.936 63.4626 105.57C67.4655 106.607 67.6958 105.394 66.3497 102.107L43.4655 49.7091C43.4478 49.6564 43.377 49.6564 43.3593 49.7091L29.1364 82.0692C25.222 82.1571 21.7681 83.2293 18.881 85.2331L43.3947 29.46C43.4124 29.4072 43.4832 29.4072 43.501 29.46L76.5342 105.131C77.3666 107.047 77.2249 109.261 76.1622 111.037Z" fill="#FFB648"/>
</svg>
