<svg width="32" height="28" viewBox="0 0 32 28" fill="none" xmlns="http://www.w3.org/2000/svg">
<path d="M26.5869 16.0747L31.2925 14.0415L31.2925 13.4024L26.5869 11.3692L1.20008 0.389509C0.909613 0.273322 0.619146 0.621883 0.85152 0.91235C2.12958 2.42278 3.17526 4.16558 3.87238 6.08266C3.93047 6.14076 3.98856 6.25694 4.04666 6.25694L20.4871 13.4605C20.7195 13.5767 20.7195 13.9253 20.4871 14.0415L3.98856 21.187C3.93047 21.245 3.87238 21.3031 3.81428 21.3612C3.11716 23.2783 2.12958 25.0211 0.793427 26.5315C0.561053 26.7639 0.85152 27.1706 1.14199 27.0544L26.5869 16.0747Z" fill="#D9D9D9"/>
</svg>
