<svg width="15" height="14" viewBox="0 0 15 14" fill="none" xmlns="http://www.w3.org/2000/svg">
<path d="M12.1692 8.03999L14.332 7.10547L14.332 6.81176L12.1692 5.87725L0.501105 0.830852C0.367602 0.777451 0.2341 0.937654 0.340902 1.07116C0.928313 1.76537 1.40892 2.56638 1.72933 3.4475C1.75603 3.4742 1.78273 3.5276 1.80943 3.5276L9.36567 6.83846C9.47247 6.89187 9.47247 7.05207 9.36567 7.10547L1.78273 10.3896C1.75603 10.4163 1.72933 10.443 1.70263 10.4697C1.38222 11.3508 0.928313 12.1519 0.314201 12.8461C0.207399 12.9529 0.340902 13.1398 0.474404 13.0864L12.1692 8.03999Z" fill="#001B72"/>
</svg>
