<svg width="265" height="178" viewBox="0 0 265 178" fill="none" xmlns="http://www.w3.org/2000/svg">
<path d="M222.778 98.5846C221.748 109.881 217.286 119.808 210.077 127.681C201.496 136.923 191.198 141.373 178.497 141.373H140.738V98.5846H222.778ZM226.554 95.1615H137.648V144.796H178.84C192.227 144.796 203.555 139.662 212.823 129.735C221.405 120.492 225.867 108.854 226.554 95.1615Z" fill="#001B72"/>
<path d="M233.421 78.3885L146.918 57.5077L158.589 9.24231L198.408 18.8269C211.452 21.9077 221.406 29.4385 227.928 41.4192C234.45 52.7154 236.167 65.0385 233.421 78.3885Z" fill="#001B72"/>
<path d="M121.515 36.2846V79.0731H41.8775C42.9073 67.777 47.0264 58.1923 54.5782 49.977C63.1599 40.7346 73.4578 35.9423 86.1586 35.9423H121.515M124.947 32.8616H85.8153C72.428 32.8616 61.1003 37.9962 51.8321 47.9231C43.2505 57.1654 38.7881 68.8039 38.1016 82.4962H124.947V32.8616Z" fill="#001B72"/>
<path d="M125.291 95.1615V144.796H86.159C72.7717 144.796 61.444 139.662 52.1759 129.735C43.5943 120.492 38.7886 108.854 38.4453 94.8192H125.291V95.1615Z" fill="#001B72"/>
<path d="M265 85.5769V91.7384H134.56H128.381H0V85.5769H128.381H134.56H265Z" fill="#001B72"/>
<path d="M134.56 0H128.381V178H134.56V0Z" fill="#001B72"/>
</svg>
