<svg width="100" height="87" viewBox="0 0 100 87" fill="none" xmlns="http://www.w3.org/2000/svg">
<g opacity="0.55">
<path d="M84.0677 48.1847C83.6791 53.7058 81.9952 58.5578 79.275 62.4058C76.0366 66.9231 72.1506 69.0981 67.3579 69.0981H53.1092V48.1847H84.0677ZM85.4926 46.5116H51.9434V70.7712H67.4874C72.5392 70.7712 76.8138 68.2616 80.3112 63.4097C83.5496 58.8924 85.2335 53.2039 85.4926 46.5116Z" fill="#001B72"/>
<path d="M88.0819 38.3135L55.4395 28.1077L59.8436 4.51733L74.8695 9.20195C79.7918 10.7077 83.5483 14.3885 86.0094 20.2443C88.4705 25.7654 89.1182 31.7885 88.0819 38.3135Z" fill="#001B72"/>
<path d="M45.8556 17.7346V38.6481H15.8038C16.1924 33.1269 17.7468 28.4423 20.5965 24.4269C23.8349 19.9096 27.7209 17.5673 32.5136 17.5673H45.8556M47.1509 16.0615H32.3841C27.3323 16.0615 23.0577 18.5711 19.5603 23.4231C16.3219 27.9404 14.638 33.6288 14.3789 40.3211H47.1509V16.0615Z" fill="#001B72"/>
<path d="M47.2798 46.5115V70.7712H32.513C27.4612 70.7712 23.1866 68.2615 19.6892 63.4096C16.4508 58.8923 14.6373 53.2039 14.5078 46.3442H47.2798V46.5115Z" fill="#001B72"/>
<path d="M100 41.8269V44.8384H50.7772H48.4456H0V41.8269H48.4456H50.7772H100Z" fill="#001B72"/>
<path d="M50.7769 0H48.4453V87H50.7769V0Z" fill="#001B72"/>
</g>
</svg>
