<svg width="148" height="149" viewBox="0 0 148 149" fill="none" xmlns="http://www.w3.org/2000/svg">
<path d="M73.9894 148.451C114.758 148.451 147.807 115.24 147.807 74.2719C147.807 33.3037 114.758 0.0925293 73.9894 0.0925293C33.2211 0.0925293 0.171875 33.3037 0.171875 74.2719C0.171875 115.24 33.2211 148.451 73.9894 148.451Z" fill="#001B72"/>
<g filter="url(#filter0_d_4_7458)">
<path d="M115.442 78.657C115.078 83.7728 112.896 88.5232 109.624 92.1774C105.624 96.5623 100.897 98.7548 95.0785 98.7548H77.6241V79.0224H115.442M117.26 77.1953H76.5332V100.216H95.4421C101.624 100.216 106.715 98.024 111.078 93.2736C114.715 88.8886 116.896 83.7728 117.26 77.1953Z" fill="#F2F2F2"/>
</g>
<path d="M120.534 69.5216L80.8984 60.0208L86.3529 37.7305L104.898 42.1155C110.716 43.5771 115.444 47.2313 118.353 52.7125C120.898 57.4629 121.625 63.3095 120.534 69.5216Z" fill="#F2F2F2"/>
<path d="M69.2615 49.7891V69.5215H32.5346C32.8982 64.0403 35.08 59.6553 38.3527 56.0011C42.3527 51.6161 47.0799 49.4236 52.8981 49.4236H69.2615M70.7161 48.3274H52.8981C46.7163 48.3274 41.6254 50.5199 37.2618 55.2703C33.2619 59.6553 31.0801 64.7711 31.0801 71.3486H71.0797V48.3274H70.7161Z" fill="#F2F2F2"/>
<path d="M70.7161 77.1953V100.216H52.8981C46.7163 100.216 41.6254 98.024 37.2618 93.2736C33.2619 88.8886 31.0801 83.4074 31.0801 77.1953H70.7161Z" fill="#F2F2F2"/>
<path d="M135.079 72.8103V75.7336H75.0793H72.1703H13.2617V72.8103H72.1703H75.0793H135.079Z" fill="#F2F2F2"/>
<path d="M75.079 33.3455H72.1699V115.564H75.079V33.3455Z" fill="#F2F2F2"/>
<defs>
<filter id="filter0_d_4_7458" x="65.6777" y="77.1953" width="62.4376" height="44.7323" filterUnits="userSpaceOnUse" color-interpolation-filters="sRGB">
<feFlood flood-opacity="0" result="BackgroundImageFix"/>
<feColorMatrix in="SourceAlpha" type="matrix" values="0 0 0 0 0 0 0 0 0 0 0 0 0 0 0 0 0 0 127 0" result="hardAlpha"/>
<feOffset dy="10.8555"/>
<feGaussianBlur stdDeviation="5.42776"/>
<feComposite in2="hardAlpha" operator="out"/>
<feColorMatrix type="matrix" values="0 0 0 0 0 0 0 0 0 0 0 0 0 0 0 0 0 0 0.25 0"/>
<feBlend mode="normal" in2="BackgroundImageFix" result="effect1_dropShadow_4_7458"/>
<feBlend mode="normal" in="SourceGraphic" in2="effect1_dropShadow_4_7458" result="shape"/>
</filter>
</defs>
</svg>
