<svg width="234" height="236" viewBox="0 0 234 236" fill="none" xmlns="http://www.w3.org/2000/svg">
<g filter="url(#filter0_d_1_3945)">
<path d="M117 205.5C173.333 205.5 219 159.609 219 103C219 46.3908 173.333 0.5 117 0.5C60.667 0.5 15 46.3908 15 103C15 159.609 60.667 205.5 117 205.5Z" fill="#001B72"/>
</g>
<path d="M128.055 83.8129C125.542 81.2882 122.025 80.2784 118.508 80.2784C114.488 80.2784 111.473 81.2882 108.961 83.8129C106.449 86.3375 104.941 88.8621 104.941 92.3966V114.613C104.941 118.148 106.449 121.177 108.961 123.197V124.207C108.961 125.722 109.966 127.237 111.976 127.237H125.542C127.05 127.237 128.557 125.722 128.557 124.207V123.197C131.069 120.672 132.577 118.148 132.577 114.613V92.3966C131.572 88.8621 130.567 85.8326 128.055 83.8129ZM129.562 114.613H119.01V96.436H116.498V114.613H105.946V93.4065C105.946 90.3769 106.951 88.3572 108.961 86.3375C110.971 84.3178 113.986 83.3079 117.503 83.3079C121.02 83.3079 123.533 84.3178 126.045 86.3375C128.055 88.3572 129.06 90.8818 129.06 93.4065V114.613H129.562Z" fill="#F2F2F2"/>
<path d="M125.542 128.246H110.971V132.286H125.542V128.246Z" fill="#F2F2F2"/>
<path d="M117 136.83H119.512C120.517 136.83 121.02 135.82 121.02 135.315V133.296H114.99V135.315C114.99 136.325 115.995 136.83 117 136.83Z" fill="#F2F2F2"/>
<path d="M119.011 60.5862H117.504V75.2291H119.011V60.5862Z" fill="#F2F2F2"/>
<path d="M141.329 69.2826L131.025 79.6365L132.091 80.7076L142.395 70.3537L141.329 69.2826Z" fill="#F2F2F2"/>
<path d="M94.4995 69.506L93.4336 70.5771L103.737 80.9311L104.803 79.86L94.4995 69.506Z" fill="#F2F2F2"/>
<path d="M118.006 169.65C106.449 169.65 96.3999 166.116 88.863 159.047L93.3851 153.998C99.9172 160.057 107.957 163.086 118.508 163.086C128.558 163.086 136.597 160.057 143.631 153.998C150.163 147.938 153.178 140.869 153.178 131.781V69.6749C153.178 61.0911 150.163 53.5173 143.631 47.4581C137.099 41.399 129.06 38.3695 118.508 38.3695C108.459 38.3695 100.42 41.399 93.3851 47.4581C86.8531 53.5173 83.8383 60.5862 83.8383 69.6749V132.791L67.7595 158.037L62.2324 154.502L77.3063 130.771V69.6749C77.3063 59.0714 81.326 49.9828 88.863 42.9138C96.3999 35.8448 106.449 32.3104 118.006 32.3104C129.562 32.3104 139.612 35.8448 147.651 42.9138C155.691 49.9828 159.71 59.0714 159.71 69.6749V131.781C159.71 142.384 155.691 151.473 147.651 158.542C139.612 166.116 129.562 169.65 118.006 169.65Z" fill="#F2F2F2"/>
<defs>
<filter id="filter0_d_1_3945" x="0" y="0.5" width="234" height="235" filterUnits="userSpaceOnUse" color-interpolation-filters="sRGB">
<feFlood flood-opacity="0" result="BackgroundImageFix"/>
<feColorMatrix in="SourceAlpha" type="matrix" values="0 0 0 0 0 0 0 0 0 0 0 0 0 0 0 0 0 0 127 0" result="hardAlpha"/>
<feOffset dy="15"/>
<feGaussianBlur stdDeviation="7.5"/>
<feComposite in2="hardAlpha" operator="out"/>
<feColorMatrix type="matrix" values="0 0 0 0 0 0 0 0 0 0 0 0 0 0 0 0 0 0 0.25 0"/>
<feBlend mode="normal" in2="BackgroundImageFix" result="effect1_dropShadow_1_3945"/>
<feBlend mode="normal" in="SourceGraphic" in2="effect1_dropShadow_1_3945" result="shape"/>
</filter>
</defs>
</svg>
