<svg width="170" height="171" viewBox="0 0 170 171" fill="none" xmlns="http://www.w3.org/2000/svg">
<g filter="url(#filter0_d_4_2369)">
<path d="M84.8175 148.359C125.586 148.359 158.635 115.147 158.635 74.1793C158.635 33.2112 125.586 0 84.8175 0C44.0492 0 11 33.2112 11 74.1793C11 115.147 44.0492 148.359 84.8175 148.359Z" fill="#001B72"/>
</g>
<path d="M118.272 77.4681H113.908C113.908 70.8906 112.09 65.7748 108.09 61.3898C104.09 57.3703 99.7268 55.1778 94.2723 55.1778H55.3636L31.3638 74.1794L28.8184 70.8906L53.909 51.1582H94.2723C100.818 51.1582 106.636 53.7161 111.363 58.8319C115.727 63.5823 118.272 69.7944 118.272 77.4681Z" fill="#F2F2F2"/>
<path d="M115.726 97.566H75.7263C69.1809 97.566 63.3628 95.008 58.6356 89.8922C53.9084 84.7764 51.7266 78.5643 51.7266 70.8906H56.0902C56.0902 77.4681 57.9083 82.5839 61.9083 86.9689C65.9082 91.3539 70.2718 93.181 75.7263 93.181H114.635L138.635 74.1794L141.18 77.4681L115.726 97.566Z" fill="#F2F2F2"/>
<path d="M85.1818 90.9885C76.091 90.9885 68.8184 83.6802 68.8184 74.5448C68.8184 65.4094 76.091 58.1011 85.1818 58.1011C94.2727 58.1011 101.545 65.4094 101.545 74.5448C101.545 83.6802 94.2727 90.9885 85.1818 90.9885ZM85.1818 65.044C80.091 65.044 75.7274 69.429 75.7274 74.5448C75.7274 79.6606 80.091 84.0456 85.1818 84.0456C90.2727 84.0456 94.6363 79.6606 94.6363 74.5448C94.6363 69.429 90.6363 65.044 85.1818 65.044Z" fill="#F2F2F2"/>
<defs>
<filter id="filter0_d_4_2369" x="0.144486" y="0" width="169.346" height="170.07" filterUnits="userSpaceOnUse" color-interpolation-filters="sRGB">
<feFlood flood-opacity="0" result="BackgroundImageFix"/>
<feColorMatrix in="SourceAlpha" type="matrix" values="0 0 0 0 0 0 0 0 0 0 0 0 0 0 0 0 0 0 127 0" result="hardAlpha"/>
<feOffset dy="10.8555"/>
<feGaussianBlur stdDeviation="5.42776"/>
<feComposite in2="hardAlpha" operator="out"/>
<feColorMatrix type="matrix" values="0 0 0 0 0 0 0 0 0 0 0 0 0 0 0 0 0 0 0.25 0"/>
<feBlend mode="normal" in2="BackgroundImageFix" result="effect1_dropShadow_4_2369"/>
<feBlend mode="normal" in="SourceGraphic" in2="effect1_dropShadow_4_2369" result="shape"/>
</filter>
</defs>
</svg>
