<svg width="204" height="205" viewBox="0 0 204 205" fill="none" xmlns="http://www.w3.org/2000/svg">
<path d="M102 205C158.333 205 204 159.109 204 102.5C204 45.8908 158.333 0 102 0C45.667 0 0 45.8908 0 102.5C0 159.109 45.667 205 102 205Z" fill="#001B72"/>
<g filter="url(#filter0_d_1_3926)">
<path d="M159.279 108.559C158.777 115.628 155.762 122.192 151.24 127.241C145.713 133.301 139.181 136.33 131.141 136.33H107.023V109.064H159.279M161.791 106.539H105.516V138.35H131.644C140.186 138.35 147.22 135.32 153.25 128.756C158.274 122.697 161.289 115.628 161.791 106.539Z" fill="#F2F2F2"/>
</g>
<path d="M166.315 95.936L111.547 82.8079L119.084 52.0074L144.709 58.0665C152.749 60.0862 159.281 65.1355 163.301 72.7094C166.818 79.2734 167.823 87.3522 166.315 95.936Z" fill="#F2F2F2"/>
<path d="M95.4676 68.67V95.936H44.7188C45.2213 88.3621 48.2361 82.303 52.7582 77.2537C58.2853 71.1946 64.8174 68.165 72.8568 68.165H95.4676M97.4775 66.6503H72.8568C64.3149 66.6503 57.2804 69.6798 51.2509 76.2439C45.7238 82.303 42.709 89.3719 42.709 98.4606H97.9799V66.6503H97.4775Z" fill="#F2F2F2"/>
<path d="M97.4775 106.539V138.35H72.8568C64.3149 138.35 57.2804 135.32 51.2509 128.756C45.7238 122.697 42.709 115.123 42.709 106.539H97.4775Z" fill="#F2F2F2"/>
<path d="M186.413 100.48V104.52H103.507H99.4869H18.0879V100.48H99.4869H103.507H186.413Z" fill="#F2F2F2"/>
<path d="M103.506 45.9483H99.4863V159.557H103.506V45.9483Z" fill="#F2F2F2"/>
<defs>
<filter id="filter0_d_1_3926" x="90.5156" y="106.539" width="86.2754" height="61.8104" filterUnits="userSpaceOnUse" color-interpolation-filters="sRGB">
<feFlood flood-opacity="0" result="BackgroundImageFix"/>
<feColorMatrix in="SourceAlpha" type="matrix" values="0 0 0 0 0 0 0 0 0 0 0 0 0 0 0 0 0 0 127 0" result="hardAlpha"/>
<feOffset dy="15"/>
<feGaussianBlur stdDeviation="7.5"/>
<feComposite in2="hardAlpha" operator="out"/>
<feColorMatrix type="matrix" values="0 0 0 0 0 0 0 0 0 0 0 0 0 0 0 0 0 0 0.25 0"/>
<feBlend mode="normal" in2="BackgroundImageFix" result="effect1_dropShadow_1_3926"/>
<feBlend mode="normal" in="SourceGraphic" in2="effect1_dropShadow_1_3926" result="shape"/>
</filter>
</defs>
</svg>
