<svg width="171" height="171" viewBox="0 0 171 171" fill="none" xmlns="http://www.w3.org/2000/svg">
<g filter="url(#filter0_d_692_6861)">
<path d="M85.6358 148.892C126.404 148.892 159.453 115.68 159.453 74.7123C159.453 33.7442 126.404 0.532959 85.6358 0.532959C44.8676 0.532959 11.8184 33.7442 11.8184 74.7123C11.8184 115.68 44.8676 148.892 85.6358 148.892Z" fill="#001B72"/>
</g>
<path d="M93.6373 60.8265C91.8191 58.9994 89.2737 58.2686 86.7282 58.2686C83.8192 58.2686 81.6374 58.9994 79.8192 60.8265C78.0011 62.6535 76.9102 64.4806 76.9102 67.0385V83.1168C76.9102 85.6747 78.0011 87.8672 79.8192 89.3289V90.0597C79.8192 91.1559 80.5465 92.2522 82.001 92.2522H91.8191C92.91 92.2522 94.0009 91.1559 94.0009 90.0597V89.3289C95.8191 87.5018 96.91 85.6747 96.91 83.1168V67.0385C96.1827 64.4806 95.4554 62.2881 93.6373 60.8265ZM94.7282 83.1168H87.0919V69.9618H85.2737V83.1168H77.6374V67.7694C77.6374 65.5769 78.3647 64.1152 79.8192 62.6535C81.2738 61.1919 83.4555 60.461 86.001 60.461C88.5464 60.461 90.3646 61.1919 92.1827 62.6535C93.6373 64.1152 94.3645 65.9423 94.3645 67.7694V83.1168H94.7282Z" fill="#F2F2F2"/>
<path d="M91.8188 92.9832H81.2734V95.9065H91.8188V92.9832Z" fill="#F2F2F2"/>
<path d="M85.6362 99.1951H87.4543C88.1816 99.1951 88.5452 98.4643 88.5452 98.0989V96.6372H84.1816V98.0989C84.1816 98.8297 84.9089 99.1951 85.6362 99.1951Z" fill="#F2F2F2"/>
<path d="M87.0929 44.0173H86.002V54.6144H87.0929V44.0173Z" fill="#F2F2F2"/>
<path d="M103.244 50.3108L95.7871 57.804L96.5585 58.5791L104.015 51.0859L103.244 50.3108Z" fill="#F2F2F2"/>
<path d="M69.3534 50.4724L68.582 51.2476L76.0387 58.7407L76.81 57.9656L69.3534 50.4724Z" fill="#F2F2F2"/>
<path d="M86.3652 122.947C78.0017 122.947 70.729 120.389 65.2745 115.273L68.5472 111.619C73.2744 116.004 79.0926 118.197 86.7289 118.197C94.0015 118.197 99.8196 116.004 104.91 111.619C109.638 107.234 111.82 102.118 111.82 95.5408V50.5947C111.82 44.3826 109.638 38.9014 104.91 34.5164C100.183 30.1314 94.3651 27.9389 86.7289 27.9389C79.4562 27.9389 73.6381 30.1314 68.5472 34.5164C63.82 38.9014 61.6382 44.0172 61.6382 50.5947V96.2716L50.0019 114.542L46.002 111.985L56.9109 94.81V50.5947C56.9109 42.921 59.82 36.3435 65.2745 31.2277C70.729 26.1119 78.0017 23.554 86.3652 23.554C94.7288 23.554 102.001 26.1119 107.82 31.2277C113.638 36.3435 116.547 42.921 116.547 50.5947V95.5408C116.547 103.215 113.638 109.792 107.82 114.908C102.001 120.389 94.7288 122.947 86.3652 122.947Z" fill="#F2F2F2"/>
<defs>
<filter id="filter0_d_692_6861" x="0.962846" y="0.532959" width="169.346" height="170.07" filterUnits="userSpaceOnUse" color-interpolation-filters="sRGB">
<feFlood flood-opacity="0" result="BackgroundImageFix"/>
<feColorMatrix in="SourceAlpha" type="matrix" values="0 0 0 0 0 0 0 0 0 0 0 0 0 0 0 0 0 0 127 0" result="hardAlpha"/>
<feOffset dy="10.8555"/>
<feGaussianBlur stdDeviation="5.42776"/>
<feComposite in2="hardAlpha" operator="out"/>
<feColorMatrix type="matrix" values="0 0 0 0 0 0 0 0 0 0 0 0 0 0 0 0 0 0 0.25 0"/>
<feBlend mode="normal" in2="BackgroundImageFix" result="effect1_dropShadow_692_6861"/>
<feBlend mode="normal" in="SourceGraphic" in2="effect1_dropShadow_692_6861" result="shape"/>
</filter>
</defs>
</svg>
