<svg width="1724" height="1116" viewBox="0 0 1724 1116" fill="none" xmlns="http://www.w3.org/2000/svg">
<g clip-path="url(#clip0_429_4385)">
<path d="M1723.63 581.413V1116H0.365234V761.69C0.365234 724.229 2.97131 631.359 25.123 522.101C38.1534 458.887 57.0474 390.21 85.7143 323.874C113.078 259.88 146.306 204.47 184.094 159.206C271.397 54.6294 386.065 0 521.581 0C612.142 0 689.673 28.0951 760.688 70.2378C840.825 118.624 912.493 185.74 982.205 251.295C1075.37 338.702 1175.71 423.768 1295.59 479.178C1295.59 479.178 1295.59 479.178 1296.24 479.178C1418.07 543.952 1565.32 581.413 1723.63 581.413Z" fill="#021846"/>
<g style="mix-blend-mode:overlay" opacity="0.05">
<path d="M589.649 1002.21C590.74 999.976 592.767 998.485 594.871 998.205C595.417 998.112 595.963 998.112 596.508 998.112C609.993 998.112 618.1 1005.76 624.647 1011.82C629.558 1016.38 633.455 1020.02 638.444 1020.02C643.199 1020.02 646.629 1017.5 648.889 1012.19C650.76 1007.71 651.461 1002.21 651.461 998.671C651.461 998.671 651.461 998.578 651.539 998.578H659.958C659.958 998.578 660.035 998.578 660.035 998.671C660.035 1001.1 659.724 1009.21 656.528 1016.85C655.359 1019.46 654.034 1021.79 652.475 1023.66C648.811 1027.95 644.134 1030.28 638.522 1030.28C634.781 1030.28 631.585 1029.16 628.623 1027.39C625.271 1025.43 622.309 1022.63 619.425 1019.93C614.67 1015.55 609.526 1011.26 602.978 1009.21C598.769 1007.9 598.535 1009.39 599.938 1013.59L623.946 1079.97C623.946 1080.06 624.024 1080.06 624.024 1079.97L638.99 1039.04C643.121 1038.95 646.706 1037.55 649.746 1035.03L624.024 1105.61C624.024 1105.7 623.946 1105.7 623.946 1105.61L589.259 1009.67C588.402 1007.25 588.558 1004.45 589.649 1002.21Z" fill="#FFFFFE"/>
<path d="M609.916 1101.41C608.825 1103.65 606.798 1105.14 604.693 1105.42C604.148 1105.51 603.602 1105.51 603.056 1105.51C589.572 1105.51 581.465 1097.87 574.917 1091.81C570.007 1087.24 566.109 1083.6 561.121 1083.6C556.366 1083.6 552.936 1086.12 550.676 1091.43C548.805 1095.91 548.104 1101.41 548.104 1104.95C548.104 1104.95 548.103 1105.05 548.026 1105.05H539.607C539.607 1105.05 539.529 1105.05 539.529 1104.95C539.529 1102.53 539.841 1094.42 543.037 1086.77C544.206 1084.16 545.531 1081.83 547.09 1079.97C550.754 1075.68 555.431 1073.35 561.043 1073.35C564.784 1073.35 567.98 1074.47 570.942 1076.24C574.294 1078.2 577.256 1080.99 580.14 1083.7C584.895 1088.08 590.039 1092.37 596.587 1094.42C600.796 1095.72 601.03 1094.23 599.627 1090.04L575.619 1023.75C575.619 1023.66 575.541 1023.66 575.541 1023.75L560.575 1064.68C556.444 1064.77 552.858 1066.17 549.818 1068.69L575.541 998.112C575.541 998.019 575.619 998.019 575.619 998.112L610.306 1093.86C611.241 1096.38 611.085 1099.17 609.916 1101.41Z" fill="#FFFFFE"/>
<path d="M639.225 1101.41C640.316 1103.65 642.343 1105.14 644.448 1105.42C644.993 1105.51 645.539 1105.51 646.084 1105.51C659.569 1105.51 667.676 1097.87 674.224 1091.81C679.134 1087.24 683.032 1083.6 688.02 1083.6C692.775 1083.6 696.205 1086.12 698.465 1091.43C700.336 1095.91 701.037 1101.41 701.037 1104.95C701.037 1104.95 701.037 1105.05 701.115 1105.05H709.534C709.534 1105.05 709.612 1105.05 709.612 1104.95C709.612 1102.53 709.3 1094.42 706.104 1086.77C704.935 1084.16 703.61 1081.83 702.051 1079.97C698.387 1075.68 693.71 1073.35 688.098 1073.35C684.357 1073.35 681.161 1074.47 678.199 1076.24C674.847 1078.2 671.885 1080.99 669.001 1083.7C664.246 1088.08 659.102 1092.37 652.554 1094.42C648.345 1095.72 648.111 1094.23 649.514 1090.04L673.522 1023.66C673.522 1023.56 673.6 1023.56 673.6 1023.66L688.566 1064.58C692.697 1064.68 696.283 1066.08 699.323 1068.59L673.6 998.111C673.6 998.018 673.522 998.018 673.522 998.111L638.835 1093.86C637.978 1096.38 638.134 1099.17 639.225 1101.41Z" fill="#FFFFFE"/>
<path d="M589.649 1213.66C590.74 1215.9 592.767 1217.39 594.871 1217.67C595.417 1217.76 595.963 1217.76 596.508 1217.76C609.993 1217.76 618.1 1210.12 624.647 1204.06C629.558 1199.49 633.455 1195.85 638.444 1195.85C643.199 1195.85 646.629 1198.37 648.889 1203.68C650.76 1208.16 651.461 1213.66 651.461 1217.2C651.461 1217.2 651.461 1217.3 651.539 1217.3H659.958C659.958 1217.3 660.035 1217.3 660.035 1217.2C660.035 1214.78 659.724 1206.67 656.528 1199.02C655.359 1196.41 654.034 1194.08 652.475 1192.22C648.811 1187.93 644.134 1185.6 638.522 1185.6C634.781 1185.6 631.585 1186.72 628.623 1188.49C625.271 1190.44 622.309 1193.24 619.425 1195.95C614.67 1200.33 609.526 1204.62 602.978 1206.67C598.769 1207.97 598.535 1206.48 599.938 1202.29L623.946 1135.91C623.946 1135.81 624.024 1135.81 624.024 1135.91L638.99 1176.83C643.121 1176.93 646.706 1178.32 649.746 1180.84L624.024 1110.27C624.024 1110.17 623.946 1110.17 623.946 1110.27L589.259 1206.01C588.402 1208.62 588.558 1211.42 589.649 1213.66Z" fill="#FFFFFE"/>
<path d="M609.916 1114.46C608.825 1112.22 606.798 1110.73 604.693 1110.45C604.148 1110.36 603.602 1110.36 603.056 1110.36C589.572 1110.36 581.465 1118 574.917 1124.06C570.007 1128.63 566.109 1132.27 561.121 1132.27C556.366 1132.27 552.936 1129.75 550.676 1124.44C548.805 1119.96 548.104 1114.46 548.104 1110.92C548.104 1110.92 548.103 1110.83 548.026 1110.83H539.607C539.607 1110.83 539.529 1110.83 539.529 1110.92C539.529 1113.34 539.841 1121.45 543.037 1129.1C544.206 1131.71 545.531 1134.04 547.09 1135.9C550.754 1140.19 555.431 1142.52 561.043 1142.52C564.784 1142.52 567.98 1141.41 570.942 1139.63C574.294 1137.68 577.256 1134.88 580.14 1132.18C584.895 1127.79 590.039 1123.51 596.587 1121.45C600.796 1120.15 601.03 1121.64 599.627 1125.84L575.619 1192.12C575.619 1192.22 575.541 1192.22 575.541 1192.12L560.575 1151.19C556.444 1151.1 552.858 1149.7 549.818 1147.19L575.541 1217.76C575.541 1217.85 575.619 1217.85 575.619 1217.76L610.306 1122.01C611.241 1119.59 611.085 1116.79 609.916 1114.46Z" fill="#FFFFFE"/>
<path d="M639.225 1114.46C640.316 1112.22 642.343 1110.73 644.448 1110.45C644.993 1110.36 645.539 1110.36 646.084 1110.36C659.569 1110.36 667.676 1118.01 674.224 1124.07C679.134 1128.63 683.032 1132.27 688.02 1132.27C692.775 1132.27 696.205 1129.75 698.465 1124.44C700.336 1119.96 701.037 1114.46 701.037 1110.92C701.037 1110.92 701.037 1110.83 701.115 1110.83H709.534C709.534 1110.83 709.612 1110.83 709.612 1110.92C709.612 1113.34 709.3 1121.45 706.104 1129.1C704.935 1131.71 703.61 1134.04 702.051 1135.91C698.387 1140.19 693.71 1142.52 688.098 1142.52C684.357 1142.52 681.161 1141.41 678.199 1139.63C674.847 1137.68 671.885 1134.88 669.001 1132.18C664.246 1127.79 659.102 1123.51 652.554 1121.45C648.345 1120.15 648.111 1121.64 649.514 1125.84L673.522 1192.22C673.522 1192.31 673.6 1192.31 673.6 1192.22L688.566 1151.29C692.697 1151.2 696.283 1149.8 699.323 1147.28L673.6 1217.85C673.6 1217.95 673.522 1217.95 673.522 1217.85L638.835 1122.11C637.978 1119.59 638.134 1116.79 639.225 1114.46Z" fill="#FFFFFE"/>
<path d="M480.601 1002.21C479.51 999.976 477.483 998.485 475.379 998.205C474.755 998.112 474.21 998.112 473.664 998.112C460.179 998.112 452.072 1005.76 445.525 1011.82C440.614 1016.38 436.717 1020.02 431.728 1020.02C426.973 1020.02 423.544 1017.5 421.283 1012.19C419.412 1007.71 418.711 1002.21 418.711 998.671C418.711 998.671 418.711 998.578 418.633 998.578H410.215C410.215 998.578 410.137 998.578 410.137 998.671C410.137 1001.1 410.449 1009.21 413.644 1016.85C414.814 1019.46 416.139 1021.79 417.698 1023.66C421.361 1027.95 426.038 1030.28 431.65 1030.28C435.392 1030.28 438.588 1029.16 441.55 1027.39C444.901 1025.43 447.863 1022.63 450.747 1019.93C455.502 1015.55 460.647 1011.26 467.194 1009.21C471.403 1007.9 471.637 1009.39 470.234 1013.59L446.226 1079.87C446.226 1079.97 446.148 1079.97 446.148 1079.87L431.183 1038.95C427.051 1038.85 423.466 1037.45 420.426 1034.94L446.148 1105.51C446.148 1105.61 446.226 1105.61 446.226 1105.51L480.913 1009.77C481.848 1007.25 481.693 1004.45 480.601 1002.21Z" fill="#FFFFFE"/>
<path d="M460.256 1101.41C461.347 1103.65 463.374 1105.14 465.479 1105.42C466.024 1105.51 466.57 1105.51 467.115 1105.51C480.6 1105.51 488.707 1097.87 495.255 1091.81C500.165 1087.24 504.063 1083.6 509.051 1083.6C513.806 1083.6 517.236 1086.12 519.496 1091.43C521.367 1095.91 522.068 1101.41 522.068 1104.95C522.068 1104.95 522.068 1105.05 522.146 1105.05H530.565C530.565 1105.05 530.643 1105.05 530.643 1104.95C530.643 1102.53 530.331 1094.42 527.135 1086.77C525.966 1084.16 524.641 1081.83 523.082 1079.97C519.418 1075.68 514.741 1073.35 509.129 1073.35C505.388 1073.35 502.192 1074.47 499.23 1076.24C495.878 1078.2 492.916 1080.99 490.032 1083.7C485.277 1088.08 480.133 1092.37 473.585 1094.42C469.376 1095.72 469.142 1094.23 470.545 1090.04L494.553 1023.66C494.553 1023.56 494.631 1023.56 494.631 1023.66L509.597 1064.58C513.728 1064.68 517.314 1066.08 520.354 1068.59L494.709 998.111C494.709 998.018 494.631 998.018 494.631 998.111L459.944 1093.86C459.009 1096.38 459.165 1099.17 460.256 1101.41Z" fill="#FFFFFE"/>
<path d="M431.023 1101.41C429.932 1103.65 427.905 1105.14 425.801 1105.42C425.255 1105.51 424.71 1105.51 424.164 1105.51C410.679 1105.51 402.572 1097.87 396.025 1091.81C391.114 1087.24 387.217 1083.6 382.228 1083.6C377.473 1083.6 374.044 1086.12 371.783 1091.43C369.912 1095.91 369.211 1101.41 369.211 1104.95C369.211 1104.95 369.211 1105.05 369.133 1105.05H360.715C360.715 1105.05 360.637 1105.05 360.637 1104.95C360.637 1102.53 360.949 1094.42 364.144 1086.77C365.314 1084.16 366.639 1081.83 368.198 1079.97C371.861 1075.68 376.538 1073.35 382.15 1073.35C385.892 1073.35 389.088 1074.47 392.05 1076.24C395.401 1078.2 398.363 1080.99 401.247 1083.7C406.002 1088.08 411.147 1092.37 417.694 1094.42C421.903 1095.72 422.137 1094.23 420.734 1090.04L396.726 1023.66C396.726 1023.56 396.648 1023.56 396.648 1023.66L381.683 1064.58C377.551 1064.68 373.966 1066.08 370.926 1068.59L396.648 998.018C396.648 997.925 396.726 997.925 396.726 998.018L431.413 1093.95C432.27 1096.38 432.115 1099.17 431.023 1101.41Z" fill="#FFFFFE"/>
<path d="M480.601 1213.66C479.51 1215.9 477.484 1217.39 475.379 1217.67C474.833 1217.76 474.288 1217.76 473.742 1217.76C460.257 1217.76 452.151 1210.12 445.603 1204.06C440.692 1199.49 436.795 1195.85 431.806 1195.85C427.052 1195.85 423.622 1198.37 421.361 1203.68C419.491 1208.16 418.789 1213.66 418.789 1217.2C418.789 1217.2 418.789 1217.3 418.711 1217.3H410.293C410.293 1217.3 410.215 1217.3 410.215 1217.2C410.215 1214.78 410.527 1206.67 413.722 1199.02C414.892 1196.41 416.217 1194.08 417.776 1192.22C421.439 1187.93 426.116 1185.6 431.728 1185.6C435.47 1185.6 438.666 1186.72 441.628 1188.49C444.979 1190.44 447.941 1193.24 450.826 1195.95C455.58 1200.33 460.725 1204.62 467.272 1206.67C471.482 1207.97 471.715 1206.48 470.312 1202.29L446.227 1136.09C446.227 1136 446.149 1136 446.149 1136.09L431.183 1177.02C427.052 1177.11 423.466 1178.51 420.426 1181.03L446.149 1110.45C446.149 1110.36 446.227 1110.36 446.227 1110.45L480.913 1206.2C481.849 1208.62 481.693 1211.42 480.601 1213.66Z" fill="#FFFFFE"/>
<path d="M460.254 1114.46C461.346 1112.22 463.372 1110.73 465.477 1110.45C466.023 1110.36 466.568 1110.36 467.114 1110.36C480.599 1110.36 488.705 1118.01 495.253 1124.07C500.164 1128.63 504.061 1132.27 509.049 1132.27C513.804 1132.27 517.234 1129.75 519.494 1124.44C521.365 1119.96 522.067 1114.46 522.067 1110.92C522.067 1110.92 522.067 1110.83 522.145 1110.83H530.563C530.563 1110.83 530.641 1110.83 530.641 1110.92C530.641 1113.34 530.329 1121.45 527.133 1129.1C525.964 1131.71 524.639 1134.04 523.08 1135.91C519.417 1140.19 514.74 1142.52 509.127 1142.52C505.386 1142.52 502.19 1141.41 499.228 1139.63C495.876 1137.68 492.914 1134.88 490.03 1132.18C485.276 1127.79 480.131 1123.51 473.583 1121.45C469.374 1120.15 469.14 1121.64 470.543 1125.84L494.551 1192.22C494.551 1192.31 494.629 1192.31 494.629 1192.22L509.595 1151.29C513.726 1151.2 517.312 1149.8 520.352 1147.28L494.629 1217.85C494.629 1217.95 494.551 1217.95 494.551 1217.85L459.865 1122.11C459.007 1119.59 459.163 1116.79 460.254 1114.46Z" fill="#FFFFFE"/>
<path d="M431.023 1114.46C429.932 1112.22 427.905 1110.73 425.801 1110.45C425.255 1110.36 424.71 1110.36 424.164 1110.36C410.679 1110.36 402.572 1118.01 396.025 1124.07C391.114 1128.63 387.217 1132.27 382.228 1132.27C377.473 1132.27 374.044 1129.75 371.783 1124.44C369.912 1119.96 369.211 1114.46 369.211 1110.92C369.211 1110.92 369.211 1110.83 369.133 1110.83H360.715C360.715 1110.83 360.637 1110.83 360.637 1110.92C360.637 1113.34 360.949 1121.45 364.144 1129.1C365.314 1131.71 366.639 1134.04 368.198 1135.91C371.861 1140.19 376.538 1142.52 382.15 1142.52C385.892 1142.52 389.088 1141.41 392.05 1139.63C395.401 1137.68 398.363 1134.88 401.247 1132.18C406.002 1127.79 411.147 1123.51 417.694 1121.45C421.903 1120.15 422.137 1121.64 420.734 1125.84L396.726 1192.22C396.726 1192.31 396.648 1192.31 396.648 1192.22L381.683 1151.29C377.551 1151.2 373.966 1149.8 370.926 1147.28L396.648 1217.85C396.648 1217.95 396.726 1217.95 396.726 1217.85L431.413 1122.01C432.27 1119.59 432.115 1116.79 431.023 1114.46Z" fill="#FFFFFE"/>
<path d="M229.454 1002.21C230.545 999.976 232.572 998.485 234.676 998.205C235.222 998.112 235.767 998.112 236.313 998.112C249.798 998.112 257.904 1005.76 264.452 1011.82C269.363 1016.38 273.26 1020.02 278.249 1020.02C283.004 1020.02 286.433 1017.5 288.694 1012.19C290.564 1007.71 291.266 1002.21 291.266 998.671C291.266 998.671 291.266 998.578 291.344 998.578H299.762C299.762 998.578 299.84 998.578 299.84 998.671C299.84 1001.1 299.528 1009.21 296.333 1016.85C295.163 1019.46 293.838 1021.79 292.279 1023.66C288.616 1027.95 283.939 1030.28 278.327 1030.28C274.585 1030.28 271.389 1029.16 268.427 1027.39C265.076 1025.43 262.114 1022.63 259.23 1019.93C254.475 1015.55 249.33 1011.26 242.783 1009.21C238.573 1007.9 238.34 1009.39 239.743 1013.59L263.828 1079.87C263.828 1079.97 263.906 1079.97 263.906 1079.87L278.872 1038.95C283.004 1038.85 286.589 1037.45 289.629 1034.94L263.906 1105.51C263.906 1105.61 263.828 1105.61 263.828 1105.51L229.064 1009.67C228.206 1007.25 228.362 1004.45 229.454 1002.21Z" fill="#FFFFFE"/>
<path d="M249.799 1101.41C248.707 1103.65 246.681 1105.14 244.576 1105.42C244.031 1105.51 243.485 1105.51 242.939 1105.51C229.454 1105.51 221.348 1097.87 214.8 1091.81C209.89 1087.24 205.992 1083.6 201.004 1083.6C196.249 1083.6 192.819 1086.12 190.559 1091.43C188.688 1095.91 187.986 1101.41 187.986 1104.95C187.986 1104.95 187.986 1105.05 187.908 1105.05H179.49C179.49 1105.05 179.412 1105.05 179.412 1104.95C179.412 1102.53 179.724 1094.42 182.92 1086.77C184.089 1084.16 185.414 1081.83 186.973 1079.97C190.637 1075.68 195.313 1073.35 200.926 1073.35C204.667 1073.35 207.863 1074.47 210.825 1076.24C214.177 1078.2 217.139 1080.99 220.023 1083.7C224.778 1088.08 229.922 1092.37 236.47 1094.42C240.679 1095.72 240.913 1094.23 239.51 1090.04L215.502 1023.66C215.502 1023.56 215.424 1023.56 215.424 1023.66L200.458 1064.58C196.327 1064.68 192.741 1066.08 189.701 1068.59L215.424 998.018C215.424 997.925 215.502 997.925 215.502 998.018L250.188 1093.77C251.046 1096.38 250.89 1099.17 249.799 1101.41Z" fill="#FFFFFE"/>
<path d="M279.026 1101.41C280.117 1103.65 282.144 1105.14 284.248 1105.42C284.794 1105.51 285.34 1105.51 285.885 1105.51C299.37 1105.51 307.477 1097.87 314.024 1091.81C318.935 1087.24 322.832 1083.6 327.821 1083.6C332.576 1083.6 336.005 1086.12 338.266 1091.43C340.137 1095.91 340.838 1101.41 340.838 1104.95C340.838 1104.95 340.838 1105.05 340.916 1105.05H349.335C349.335 1105.05 349.412 1105.05 349.412 1104.95C349.412 1102.53 349.101 1094.42 345.905 1086.77C344.736 1084.16 343.41 1081.83 341.852 1079.97C338.188 1075.68 333.511 1073.35 327.899 1073.35C324.157 1073.35 320.962 1074.47 318 1076.24C314.648 1078.2 311.686 1080.99 308.802 1083.7C304.047 1088.08 298.902 1092.37 292.355 1094.42C288.146 1095.72 287.912 1094.23 289.315 1090.04L313.323 1023.66C313.323 1023.56 313.401 1023.56 313.401 1023.66L328.367 1064.58C332.498 1064.68 336.083 1066.08 339.123 1068.59L313.401 998.111C313.401 998.018 313.323 998.018 313.323 998.111L278.636 1093.95C277.779 1096.38 277.935 1099.17 279.026 1101.41Z" fill="#FFFFFE"/>
<path d="M229.453 1213.66C230.545 1215.9 232.571 1217.39 234.676 1217.67C235.221 1217.76 235.767 1217.76 236.313 1217.76C249.798 1217.76 257.904 1210.12 264.452 1204.06C269.362 1199.49 273.26 1195.85 278.248 1195.85C283.003 1195.85 286.433 1198.37 288.693 1203.68C290.564 1208.16 291.266 1213.66 291.266 1217.2C291.266 1217.2 291.266 1217.29 291.344 1217.29H299.762C299.762 1217.29 299.84 1217.29 299.84 1217.2C299.84 1214.78 299.528 1206.67 296.332 1199.02C295.163 1196.41 293.838 1194.08 292.279 1192.22C288.615 1187.93 283.939 1185.6 278.326 1185.6C274.585 1185.6 271.389 1186.72 268.427 1188.49C265.075 1190.44 262.113 1193.24 259.229 1195.94C254.474 1200.33 249.33 1204.62 242.782 1206.67C238.573 1207.97 238.339 1206.48 239.742 1202.28L263.828 1136.09C263.828 1136 263.906 1136 263.906 1136.09L278.872 1177.02C283.003 1177.11 286.589 1178.51 289.629 1181.03L263.906 1110.45C263.906 1110.36 263.828 1110.36 263.828 1110.45L229.142 1206.2C228.206 1208.62 228.362 1211.42 229.453 1213.66Z" fill="#FFFFFE"/>
<path d="M249.799 1114.46C248.707 1112.22 246.681 1110.73 244.576 1110.45C244.031 1110.36 243.485 1110.36 242.939 1110.36C229.454 1110.36 221.348 1118.01 214.8 1124.07C209.89 1128.63 205.992 1132.27 201.004 1132.27C196.249 1132.27 192.819 1129.75 190.559 1124.44C188.688 1119.96 187.986 1114.46 187.986 1110.92C187.986 1110.92 187.986 1110.83 187.908 1110.83H179.49C179.49 1110.83 179.412 1110.83 179.412 1110.92C179.412 1113.34 179.724 1121.45 182.92 1129.1C184.089 1131.71 185.414 1134.04 186.973 1135.91C190.637 1140.19 195.313 1142.52 200.926 1142.52C204.667 1142.52 207.863 1141.41 210.825 1139.63C214.177 1137.68 217.139 1134.88 220.023 1132.18C224.778 1127.79 229.922 1123.51 236.47 1121.45C240.679 1120.15 240.913 1121.64 239.51 1125.84L215.502 1192.22C215.502 1192.31 215.424 1192.31 215.424 1192.22L200.458 1151.29C196.327 1151.2 192.741 1149.8 189.701 1147.28L215.424 1217.85C215.424 1217.95 215.502 1217.95 215.502 1217.85L250.188 1122.11C251.046 1119.59 250.89 1116.79 249.799 1114.46Z" fill="#FFFFFE"/>
<path d="M279.026 1114.46C280.117 1112.22 282.144 1110.73 284.248 1110.45C284.794 1110.36 285.34 1110.36 285.885 1110.36C299.37 1110.36 307.477 1118.01 314.024 1124.07C318.935 1128.63 322.832 1132.27 327.821 1132.27C332.576 1132.27 336.005 1129.75 338.266 1124.44C340.137 1119.96 340.838 1114.46 340.838 1110.92C340.838 1110.92 340.838 1110.83 340.916 1110.83H349.335C349.335 1110.83 349.412 1110.83 349.412 1110.92C349.412 1113.34 349.101 1121.45 345.905 1129.1C344.736 1131.71 343.41 1134.04 341.852 1135.91C338.188 1140.19 333.511 1142.52 327.899 1142.52C324.157 1142.52 320.962 1141.41 318 1139.63C314.648 1137.68 311.686 1134.88 308.802 1132.18C304.047 1127.79 298.902 1123.51 292.355 1121.45C288.146 1120.15 287.912 1121.64 289.315 1125.84L313.323 1192.22C313.323 1192.31 313.401 1192.31 313.401 1192.22L328.367 1151.29C332.498 1151.2 336.083 1149.8 339.123 1147.28L313.401 1217.85C313.401 1217.95 313.323 1217.95 313.323 1217.85L278.636 1122.01C277.779 1119.59 277.935 1116.79 279.026 1114.46Z" fill="#FFFFFE"/>
<path d="M120.404 1002.21C119.313 999.976 117.286 998.485 115.182 998.205C114.558 998.112 114.012 998.112 113.467 998.112C99.9818 998.112 91.8752 1005.76 85.3276 1011.82C80.4169 1016.38 76.5196 1020.02 71.5309 1020.02C66.7761 1020.02 63.3464 1017.5 61.0859 1012.19C59.2152 1007.71 58.5137 1002.21 58.5137 998.671C58.5137 998.671 58.5137 998.578 58.4357 998.578H50.0174C50.0174 998.578 49.9395 998.578 49.9395 998.671C49.9395 1001.1 50.2512 1009.21 53.4471 1016.85C54.6163 1019.46 55.9414 1021.79 57.5004 1023.66C61.1639 1027.95 65.8407 1030.28 71.453 1030.28C75.1944 1030.28 78.3903 1029.16 81.3523 1027.39C84.704 1025.43 87.666 1022.63 90.5501 1019.93C95.3049 1015.55 100.449 1011.26 106.997 1009.21C111.206 1007.9 111.44 1009.39 110.037 1013.59L86.0291 1079.97C86.0291 1080.06 85.9512 1080.06 85.9512 1079.97L70.9853 1038.85C66.8541 1038.76 63.2685 1037.36 60.2285 1034.84L85.9512 1105.42C85.9512 1105.51 86.0291 1105.51 86.0291 1105.42L120.716 1009.67C121.651 1007.25 121.495 1004.45 120.404 1002.21Z" fill="#FFFFFE"/>
<path d="M100.138 1101.41C101.229 1103.65 103.256 1105.14 105.36 1105.42C105.906 1105.51 106.452 1105.51 106.997 1105.51C120.482 1105.51 128.589 1097.87 135.136 1091.81C140.047 1087.24 143.944 1083.6 148.933 1083.6C153.688 1083.6 157.118 1086.12 159.378 1091.43C161.249 1095.91 161.95 1101.41 161.95 1104.95C161.95 1104.95 161.95 1105.05 162.028 1105.05H170.447C170.447 1105.05 170.525 1105.05 170.525 1104.95C170.525 1102.53 170.213 1094.42 167.017 1086.77C165.848 1084.16 164.523 1081.83 162.964 1079.97C159.3 1075.68 154.623 1073.35 149.011 1073.35C145.27 1073.35 142.074 1074.47 139.112 1076.24C135.76 1078.2 132.798 1080.99 129.914 1083.7C125.159 1088.08 120.015 1092.37 113.467 1094.42C109.258 1095.72 109.024 1094.23 110.427 1090.04L134.435 1023.75C134.435 1023.66 134.513 1023.66 134.513 1023.75L149.479 1064.68C153.61 1064.77 157.196 1066.17 160.235 1068.69L134.513 998.112C134.513 998.019 134.435 998.019 134.435 998.112L99.7482 1093.86C98.8128 1096.38 98.9687 1099.17 100.138 1101.41Z" fill="#FFFFFE"/>
<path d="M70.8298 1101.41C69.7385 1103.65 67.7119 1105.14 65.6073 1105.42C65.0617 1105.51 64.516 1105.51 63.9704 1105.51C50.4855 1105.51 42.3789 1097.87 35.8314 1091.81C30.9207 1087.24 27.0233 1083.6 22.0346 1083.6C17.2798 1083.6 13.8502 1086.12 11.5897 1091.43C9.71894 1095.91 9.01741 1101.41 9.01741 1104.95C9.01741 1104.95 9.01741 1105.05 8.93946 1105.05H0.443182C0.443182 1105.05 0.365234 1105.05 0.365234 1104.95C0.365234 1102.53 0.677024 1094.42 3.87287 1086.77C5.04208 1084.16 6.36719 1081.83 7.92614 1079.97C11.5897 1075.68 16.2665 1073.35 21.8787 1073.35C25.6202 1073.35 28.8161 1074.47 31.7781 1076.24C35.1298 1078.2 38.0918 1080.99 40.9759 1083.7C45.7307 1088.08 50.8752 1092.37 57.4228 1094.42C61.632 1095.72 61.8658 1094.23 60.4628 1090.04L36.5329 1023.75C36.5329 1023.66 36.4549 1023.66 36.4549 1023.75L21.489 1064.77C17.3578 1064.86 13.7722 1066.26 10.7323 1068.78L36.4549 998.112C36.4549 998.019 36.5329 998.019 36.5329 998.112L71.2195 1093.86C72.0769 1096.38 71.9211 1099.17 70.8298 1101.41Z" fill="#FFFFFE"/>
<path d="M120.404 1213.66C119.313 1215.9 117.286 1217.39 115.182 1217.67C114.636 1217.76 114.09 1217.76 113.545 1217.76C100.06 1217.76 91.9532 1210.12 85.4056 1204.06C80.4949 1199.49 76.5975 1195.85 71.6089 1195.85C66.8541 1195.85 63.4244 1198.37 61.1639 1203.68C59.2932 1208.16 58.5916 1213.66 58.5916 1217.2C58.5916 1217.2 58.5916 1217.3 58.5137 1217.3H50.0174C50.0174 1217.3 49.9395 1217.3 49.9395 1217.2C49.9395 1214.78 50.2512 1206.67 53.4471 1199.02C54.6163 1196.41 55.9414 1194.08 57.5004 1192.22C61.1639 1187.93 65.8407 1185.6 71.453 1185.6C75.1944 1185.6 78.3903 1186.72 81.3523 1188.49C84.704 1190.44 87.666 1193.24 90.5501 1195.95C95.3049 1200.33 100.449 1204.62 106.997 1206.67C111.206 1207.97 111.44 1206.48 110.037 1202.29L86.0291 1136.09C86.0291 1136 85.9512 1136 85.9512 1136.09L70.9853 1177.02C66.8541 1177.11 63.2685 1178.51 60.2285 1181.03L85.9512 1110.45C85.9512 1110.36 86.0291 1110.36 86.0291 1110.45L120.716 1206.2C121.651 1208.62 121.495 1211.42 120.404 1213.66Z" fill="#FFFFFE"/>
<path d="M100.138 1114.46C101.229 1112.22 103.256 1110.73 105.36 1110.45C105.906 1110.36 106.452 1110.36 106.997 1110.36C120.482 1110.36 128.589 1118 135.136 1124.06C140.047 1128.63 143.944 1132.27 148.933 1132.27C153.688 1132.27 157.118 1129.75 159.378 1124.44C161.249 1119.96 161.95 1114.46 161.95 1110.92C161.95 1110.92 161.95 1110.83 162.028 1110.83H170.447C170.447 1110.83 170.525 1110.83 170.525 1110.92C170.525 1113.34 170.213 1121.45 167.017 1129.1C165.848 1131.71 164.523 1134.04 162.964 1135.9C159.3 1140.19 154.623 1142.52 149.011 1142.52C145.27 1142.52 142.074 1141.41 139.112 1139.63C135.76 1137.68 132.798 1134.88 129.914 1132.18C125.159 1127.79 120.015 1123.51 113.467 1121.45C109.258 1120.15 109.024 1121.64 110.427 1125.84L134.435 1192.22C134.435 1192.31 134.513 1192.31 134.513 1192.22L149.479 1151.29C153.61 1151.19 157.196 1149.8 160.235 1147.28L134.513 1217.85C134.513 1217.95 134.435 1217.95 134.435 1217.85L99.7482 1122.11C98.8128 1119.59 98.9687 1116.79 100.138 1114.46Z" fill="#FFFFFE"/>
<path d="M70.8298 1114.46C69.7385 1112.22 67.7119 1110.73 65.6073 1110.45C65.0617 1110.36 64.516 1110.36 63.9704 1110.36C50.4855 1110.36 42.3789 1118 35.8313 1124.06C30.9207 1128.63 27.0233 1132.27 22.0346 1132.27C17.2798 1132.27 13.8502 1129.75 11.5897 1124.44C9.71893 1119.96 9.01741 1114.46 9.01741 1110.92C9.01741 1110.92 9.01741 1110.83 8.93946 1110.83H0.443182C0.443182 1110.83 0.365234 1110.83 0.365234 1110.92C0.365234 1113.34 0.677024 1121.45 3.87287 1129.1C5.04208 1131.71 6.36719 1134.04 7.92614 1135.9C11.5897 1140.19 16.2665 1142.52 21.8787 1142.52C25.6202 1142.52 28.8161 1141.41 31.7781 1139.63C35.1298 1137.68 38.0918 1134.88 40.9759 1132.18C45.7307 1127.79 50.8752 1123.51 57.4228 1121.45C61.632 1120.15 61.8658 1121.64 60.4628 1125.84L36.4549 1192.22C36.4549 1192.31 36.377 1192.31 36.377 1192.22L21.4111 1151.29C17.2798 1151.19 13.6943 1149.8 10.6543 1147.28L36.377 1217.85C36.377 1217.95 36.4549 1217.95 36.4549 1217.85L71.1416 1122.11C72.0769 1119.59 71.921 1116.79 70.8298 1114.46Z" fill="#FFFFFE"/>
<path d="M518.794 1000.07C519.339 999.044 520.275 998.298 521.288 998.205C521.522 998.205 521.834 998.205 522.068 998.205C528.381 998.205 532.201 1001.75 535.319 1004.64C537.657 1006.78 539.45 1008.46 541.788 1008.46C544.049 1008.46 545.608 1007.25 546.699 1004.73C547.556 1002.68 547.946 1000.07 547.946 998.391H551.921C551.921 999.51 551.766 1003.33 550.285 1006.87C549.739 1008.09 549.115 1009.21 548.336 1010.04C546.621 1012.1 544.439 1013.12 541.788 1013.12C539.996 1013.12 538.515 1012.56 537.111 1011.72C535.553 1010.79 534.149 1009.49 532.824 1008.18C530.642 1006.13 528.148 1004.08 525.108 1003.15C523.159 1002.49 523.003 1003.24 523.705 1005.2L535.007 1036.43H535.085L542.1 1017.13C544.049 1017.04 545.764 1016.48 547.167 1015.27L535.085 1048.46H535.007L518.56 1003.52C518.17 1002.4 518.248 1001.09 518.794 1000.07Z" fill="#FFFFFE"/>
<path d="M158.598 1000.07C159.143 999.044 160.079 998.298 161.092 998.205C161.326 998.205 161.638 998.205 161.872 998.205C168.185 998.205 172.005 1001.75 175.123 1004.64C177.461 1006.78 179.254 1008.46 181.592 1008.46C183.853 1008.46 185.412 1007.25 186.503 1004.73C187.36 1002.68 187.75 1000.07 187.75 998.391H191.725C191.725 999.51 191.57 1003.33 190.089 1006.87C189.543 1008.09 188.919 1009.21 188.14 1010.04C186.425 1012.1 184.242 1013.12 181.592 1013.12C179.799 1013.12 178.318 1012.56 176.915 1011.72C175.356 1010.79 173.953 1009.49 172.628 1008.18C170.446 1006.13 167.951 1004.08 164.912 1003.15C162.963 1002.49 162.807 1003.24 163.508 1005.2L174.811 1036.43H174.889L181.904 1017.13C183.853 1017.04 185.568 1016.48 186.971 1015.27L174.889 1048.46H174.811L158.442 1003.52C157.974 1002.4 158.052 1001.09 158.598 1000.07Z" fill="#FFFFFE"/>
<path d="M371.397 1000.07C370.852 999.044 369.916 998.298 368.903 998.205C368.669 998.205 368.357 998.205 368.123 998.205C361.81 998.205 357.99 1001.75 354.872 1004.64C352.534 1006.78 350.741 1008.46 348.403 1008.46C346.142 1008.46 344.583 1007.25 343.492 1004.73C342.635 1002.68 342.245 1000.07 342.245 998.391H338.27C338.27 999.51 338.425 1003.33 339.906 1006.87C340.452 1008.09 341.076 1009.21 341.855 1010.04C343.57 1012.1 345.752 1013.12 348.403 1013.12C350.195 1013.12 351.676 1012.56 353.08 1011.72C354.638 1010.79 356.042 1009.49 357.367 1008.18C359.549 1006.13 362.043 1004.08 365.083 1003.15C367.032 1002.49 367.188 1003.24 366.487 1005.2L355.184 1036.43H355.106L348.091 1017.13C346.142 1017.04 344.427 1016.48 343.024 1015.27L355.106 1048.46H355.184L371.475 1003.43C371.943 1002.4 371.865 1001.09 371.397 1000.07Z" fill="#FFFFFE"/>
</g>
<g style="mix-blend-mode:overlay" opacity="0.05">
<path d="M1298.89 1002.21C1299.98 999.976 1302.01 998.484 1304.12 998.205C1304.66 998.111 1305.21 998.111 1305.75 998.111C1319.24 998.111 1327.34 1005.76 1333.89 1011.82C1338.8 1016.38 1342.7 1020.02 1347.69 1020.02C1352.44 1020.02 1355.87 1017.5 1358.13 1012.19C1360 1007.71 1360.71 1002.21 1360.71 998.671C1360.71 998.671 1360.71 998.577 1360.78 998.577H1369.2C1369.2 998.577 1369.28 998.577 1369.28 998.671C1369.28 1001.09 1368.97 1009.21 1365.77 1016.85C1364.6 1019.46 1363.28 1021.79 1361.72 1023.66C1358.06 1027.94 1353.38 1030.28 1347.77 1030.28C1344.02 1030.28 1340.83 1029.16 1337.87 1027.39C1334.52 1025.43 1331.55 1022.63 1328.67 1019.93C1323.91 1015.55 1318.77 1011.26 1312.22 1009.21C1308.01 1007.9 1307.78 1009.39 1309.18 1013.59L1333.19 1079.97C1333.19 1080.06 1333.27 1080.06 1333.27 1079.97L1348.23 1039.04C1352.37 1038.95 1355.95 1037.55 1358.99 1035.03L1333.27 1105.61C1333.27 1105.7 1333.19 1105.7 1333.19 1105.61L1298.5 1009.67C1297.65 1007.25 1297.8 1004.45 1298.89 1002.21Z" fill="#FFFFFE"/>
<path d="M1319.16 1101.41C1318.07 1103.65 1316.04 1105.14 1313.94 1105.42C1313.39 1105.51 1312.85 1105.51 1312.3 1105.51C1298.82 1105.51 1290.71 1097.87 1284.16 1091.81C1279.25 1087.24 1275.35 1083.6 1270.36 1083.6C1265.61 1083.6 1262.18 1086.12 1259.92 1091.43C1258.05 1095.91 1257.35 1101.41 1257.35 1104.95C1257.35 1104.95 1257.35 1105.05 1257.27 1105.05H1248.85C1248.85 1105.05 1248.77 1105.05 1248.77 1104.95C1248.77 1102.53 1249.09 1094.42 1252.28 1086.77C1253.45 1084.16 1254.78 1081.83 1256.33 1079.97C1260 1075.68 1264.67 1073.35 1270.29 1073.35C1274.03 1073.35 1277.22 1074.47 1280.19 1076.24C1283.54 1078.2 1286.5 1080.99 1289.38 1083.7C1294.14 1088.08 1299.28 1092.37 1305.83 1094.42C1310.04 1095.72 1310.27 1094.23 1308.87 1090.04L1284.86 1023.75C1284.86 1023.66 1284.79 1023.66 1284.79 1023.75L1269.82 1064.68C1265.69 1064.77 1262.1 1066.17 1259.06 1068.69L1284.79 998.111C1284.79 998.018 1284.86 998.018 1284.86 998.111L1319.55 1093.86C1320.49 1096.38 1320.33 1099.17 1319.16 1101.41Z" fill="#FFFFFE"/>
<path d="M1348.47 1101.41C1349.56 1103.65 1351.59 1105.14 1353.69 1105.42C1354.24 1105.51 1354.78 1105.51 1355.33 1105.51C1368.81 1105.51 1376.92 1097.87 1383.47 1091.81C1388.38 1087.24 1392.27 1083.6 1397.26 1083.6C1402.02 1083.6 1405.45 1086.12 1407.71 1091.43C1409.58 1095.91 1410.28 1101.41 1410.28 1104.95C1410.28 1104.95 1410.28 1105.05 1410.36 1105.05H1418.78C1418.78 1105.05 1418.85 1105.05 1418.85 1104.95C1418.85 1102.53 1418.54 1094.42 1415.35 1086.77C1414.18 1084.16 1412.85 1081.83 1411.29 1079.97C1407.63 1075.68 1402.95 1073.35 1397.34 1073.35C1393.6 1073.35 1390.4 1074.47 1387.44 1076.24C1384.09 1078.2 1381.13 1080.99 1378.24 1083.7C1373.49 1088.08 1368.34 1092.37 1361.8 1094.42C1357.59 1095.72 1357.35 1094.23 1358.76 1090.04L1382.76 1023.66C1382.76 1023.56 1382.84 1023.56 1382.84 1023.66L1397.81 1064.58C1401.94 1064.68 1405.52 1066.08 1408.56 1068.59L1382.84 998.111C1382.84 998.018 1382.76 998.018 1382.76 998.111L1348.08 1093.86C1347.22 1096.38 1347.38 1099.17 1348.47 1101.41Z" fill="#FFFFFE"/>
<path d="M1298.89 1213.66C1299.98 1215.9 1302.01 1217.39 1304.12 1217.67C1304.66 1217.76 1305.21 1217.76 1305.75 1217.76C1319.24 1217.76 1327.34 1210.12 1333.89 1204.06C1338.8 1199.49 1342.7 1195.85 1347.69 1195.85C1352.44 1195.85 1355.87 1198.37 1358.13 1203.68C1360 1208.16 1360.71 1213.66 1360.71 1217.2C1360.71 1217.2 1360.71 1217.29 1360.78 1217.29H1369.2C1369.2 1217.29 1369.28 1217.29 1369.28 1217.2C1369.28 1214.78 1368.97 1206.67 1365.77 1199.02C1364.6 1196.41 1363.28 1194.08 1361.72 1192.22C1358.06 1187.93 1353.38 1185.6 1347.77 1185.6C1344.02 1185.6 1340.83 1186.72 1337.87 1188.49C1334.52 1190.44 1331.55 1193.24 1328.67 1195.94C1323.91 1200.33 1318.77 1204.62 1312.22 1206.67C1308.01 1207.97 1307.78 1206.48 1309.18 1202.28L1333.19 1135.9C1333.19 1135.81 1333.27 1135.81 1333.27 1135.9L1348.23 1176.83C1352.37 1176.93 1355.95 1178.32 1358.99 1180.84L1333.27 1110.27C1333.27 1110.17 1333.19 1110.17 1333.19 1110.27L1298.5 1206.01C1297.65 1208.62 1297.8 1211.42 1298.89 1213.66Z" fill="#FFFFFE"/>
<path d="M1319.16 1114.46C1318.07 1112.22 1316.04 1110.73 1313.94 1110.45C1313.39 1110.36 1312.85 1110.36 1312.3 1110.36C1298.82 1110.36 1290.71 1118 1284.16 1124.06C1279.25 1128.63 1275.35 1132.27 1270.36 1132.27C1265.61 1132.27 1262.18 1129.75 1259.92 1124.44C1258.05 1119.96 1257.35 1114.46 1257.35 1110.92C1257.35 1110.92 1257.35 1110.83 1257.27 1110.83H1248.85C1248.85 1110.83 1248.77 1110.83 1248.77 1110.92C1248.77 1113.34 1249.09 1121.45 1252.28 1129.1C1253.45 1131.71 1254.78 1134.04 1256.33 1135.9C1260 1140.19 1264.67 1142.52 1270.29 1142.52C1274.03 1142.52 1277.22 1141.41 1280.19 1139.63C1283.54 1137.68 1286.5 1134.88 1289.38 1132.18C1294.14 1127.79 1299.28 1123.51 1305.83 1121.45C1310.04 1120.15 1310.27 1121.64 1308.87 1125.84L1284.86 1192.12C1284.86 1192.22 1284.79 1192.22 1284.79 1192.12L1269.82 1151.19C1265.69 1151.1 1262.1 1149.7 1259.06 1147.19L1284.79 1217.76C1284.79 1217.85 1284.86 1217.85 1284.86 1217.76L1319.55 1122.01C1320.49 1119.59 1320.33 1116.79 1319.16 1114.46Z" fill="#FFFFFE"/>
<path d="M1348.47 1114.46C1349.56 1112.22 1351.59 1110.73 1353.69 1110.45C1354.24 1110.36 1354.78 1110.36 1355.33 1110.36C1368.81 1110.36 1376.92 1118 1383.47 1124.06C1388.38 1128.63 1392.27 1132.27 1397.26 1132.27C1402.02 1132.27 1405.45 1129.75 1407.71 1124.44C1409.58 1119.96 1410.28 1114.46 1410.28 1110.92C1410.28 1110.92 1410.28 1110.83 1410.36 1110.83H1418.78C1418.78 1110.83 1418.85 1110.83 1418.85 1110.92C1418.85 1113.34 1418.54 1121.45 1415.35 1129.1C1414.18 1131.71 1412.85 1134.04 1411.29 1135.9C1407.63 1140.19 1402.95 1142.52 1397.34 1142.52C1393.6 1142.52 1390.4 1141.41 1387.44 1139.63C1384.09 1137.68 1381.13 1134.88 1378.24 1132.18C1373.49 1127.79 1368.34 1123.51 1361.8 1121.45C1357.59 1120.15 1357.35 1121.64 1358.76 1125.84L1382.76 1192.22C1382.76 1192.31 1382.84 1192.31 1382.84 1192.22L1397.81 1151.29C1401.94 1151.19 1405.52 1149.8 1408.56 1147.28L1382.84 1217.85C1382.84 1217.95 1382.76 1217.95 1382.76 1217.85L1348.08 1122.11C1347.22 1119.59 1347.38 1116.79 1348.47 1114.46Z" fill="#FFFFFE"/>
<path d="M1189.85 1002.21C1188.75 999.976 1186.73 998.485 1184.62 998.205C1184 998.112 1183.45 998.112 1182.91 998.112C1169.42 998.112 1161.32 1005.76 1154.77 1011.82C1149.86 1016.38 1145.96 1020.02 1140.97 1020.02C1136.22 1020.02 1132.79 1017.5 1130.53 1012.19C1128.66 1007.71 1127.96 1002.21 1127.96 998.671C1127.96 998.671 1127.96 998.578 1127.88 998.578H1119.46C1119.46 998.578 1119.38 998.578 1119.38 998.671C1119.38 1001.1 1119.69 1009.21 1122.89 1016.85C1124.06 1019.46 1125.38 1021.79 1126.94 1023.66C1130.61 1027.95 1135.28 1030.28 1140.89 1030.28C1144.64 1030.28 1147.83 1029.16 1150.79 1027.39C1154.15 1025.43 1157.11 1022.63 1159.99 1019.93C1164.75 1015.55 1169.89 1011.26 1176.44 1009.21C1180.65 1007.9 1180.88 1009.39 1179.48 1013.59L1155.47 1079.87C1155.47 1079.97 1155.39 1079.97 1155.39 1079.87L1140.43 1038.95C1136.3 1038.85 1132.71 1037.45 1129.67 1034.94L1155.39 1105.51C1155.39 1105.61 1155.47 1105.61 1155.47 1105.51L1190.16 1009.77C1191.09 1007.25 1190.94 1004.45 1189.85 1002.21Z" fill="#FFFFFE"/>
<path d="M1169.5 1101.41C1170.59 1103.65 1172.62 1105.14 1174.72 1105.42C1175.27 1105.51 1175.82 1105.51 1176.36 1105.51C1189.85 1105.51 1197.95 1097.87 1204.5 1091.81C1209.41 1087.24 1213.31 1083.6 1218.3 1083.6C1223.05 1083.6 1226.48 1086.12 1228.74 1091.43C1230.61 1095.91 1231.31 1101.41 1231.31 1104.95C1231.31 1104.95 1231.31 1105.05 1231.39 1105.05H1239.81C1239.81 1105.05 1239.89 1105.05 1239.89 1104.95C1239.89 1102.53 1239.58 1094.42 1236.38 1086.77C1235.21 1084.16 1233.89 1081.83 1232.33 1079.97C1228.66 1075.68 1223.99 1073.35 1218.38 1073.35C1214.63 1073.35 1211.44 1074.47 1208.48 1076.24C1205.12 1078.2 1202.16 1080.99 1199.28 1083.7C1194.52 1088.08 1189.38 1092.37 1182.83 1094.42C1178.62 1095.72 1178.39 1094.23 1179.79 1090.04L1203.8 1023.66C1203.8 1023.56 1203.88 1023.56 1203.88 1023.66L1218.84 1064.58C1222.97 1064.68 1226.56 1066.08 1229.6 1068.59L1203.95 998.111C1203.95 998.018 1203.88 998.018 1203.88 998.111L1169.19 1093.86C1168.25 1096.38 1168.41 1099.17 1169.5 1101.41Z" fill="#FFFFFE"/>
<path d="M1140.27 1101.41C1139.18 1103.65 1137.15 1105.14 1135.05 1105.42C1134.5 1105.51 1133.96 1105.51 1133.41 1105.51C1119.93 1105.51 1111.82 1097.87 1105.27 1091.81C1100.36 1087.24 1096.46 1083.6 1091.47 1083.6C1086.72 1083.6 1083.29 1086.12 1081.03 1091.43C1079.16 1095.91 1078.46 1101.41 1078.46 1104.95C1078.46 1104.95 1078.46 1105.05 1078.38 1105.05H1069.96C1069.96 1105.05 1069.88 1105.05 1069.88 1104.95C1069.88 1102.53 1070.19 1094.42 1073.39 1086.77C1074.56 1084.16 1075.88 1081.83 1077.44 1079.97C1081.11 1075.68 1085.78 1073.35 1091.4 1073.35C1095.14 1073.35 1098.33 1074.47 1101.3 1076.24C1104.65 1078.2 1107.61 1080.99 1110.49 1083.7C1115.25 1088.08 1120.39 1092.37 1126.94 1094.42C1131.15 1095.72 1131.38 1094.23 1129.98 1090.04L1105.97 1023.66C1105.97 1023.56 1105.89 1023.56 1105.89 1023.66L1090.93 1064.58C1086.8 1064.68 1083.21 1066.08 1080.17 1068.59L1105.89 998.018C1105.89 997.925 1105.97 997.925 1105.97 998.018L1140.66 1093.95C1141.52 1096.38 1141.36 1099.17 1140.27 1101.41Z" fill="#FFFFFE"/>
<path d="M1189.85 1213.66C1188.75 1215.9 1186.73 1217.39 1184.62 1217.67C1184.08 1217.76 1183.53 1217.76 1182.99 1217.76C1169.5 1217.76 1161.39 1210.12 1154.85 1204.06C1149.94 1199.49 1146.04 1195.85 1141.05 1195.85C1136.3 1195.85 1132.87 1198.37 1130.61 1203.68C1128.73 1208.16 1128.03 1213.66 1128.03 1217.2C1128.03 1217.2 1128.03 1217.3 1127.96 1217.3H1119.54C1119.54 1217.3 1119.46 1217.3 1119.46 1217.2C1119.46 1214.78 1119.77 1206.67 1122.97 1199.02C1124.14 1196.41 1125.46 1194.08 1127.02 1192.22C1130.68 1187.93 1135.36 1185.6 1140.97 1185.6C1144.71 1185.6 1147.91 1186.72 1150.87 1188.49C1154.22 1190.44 1157.19 1193.24 1160.07 1195.95C1164.82 1200.33 1169.97 1204.62 1176.52 1206.67C1180.73 1207.97 1180.96 1206.48 1179.56 1202.29L1155.47 1136.09C1155.47 1136 1155.39 1136 1155.39 1136.09L1140.43 1177.02C1136.3 1177.11 1132.71 1178.51 1129.67 1181.03L1155.39 1110.45C1155.39 1110.36 1155.47 1110.36 1155.47 1110.45L1190.16 1206.2C1191.09 1208.62 1190.94 1211.42 1189.85 1213.66Z" fill="#FFFFFE"/>
<path d="M1169.5 1114.46C1170.59 1112.22 1172.62 1110.73 1174.72 1110.45C1175.27 1110.36 1175.81 1110.36 1176.36 1110.36C1189.84 1110.36 1197.95 1118.01 1204.5 1124.07C1209.41 1128.63 1213.31 1132.27 1218.3 1132.27C1223.05 1132.27 1226.48 1129.75 1228.74 1124.44C1230.61 1119.96 1231.31 1114.46 1231.31 1110.92C1231.31 1110.92 1231.31 1110.83 1231.39 1110.83H1239.81C1239.81 1110.83 1239.89 1110.83 1239.89 1110.92C1239.89 1113.34 1239.58 1121.45 1236.38 1129.1C1235.21 1131.71 1233.89 1134.04 1232.33 1135.91C1228.66 1140.19 1223.99 1142.52 1218.37 1142.52C1214.63 1142.52 1211.44 1141.41 1208.47 1139.63C1205.12 1137.68 1202.16 1134.88 1199.28 1132.18C1194.52 1127.79 1189.38 1123.51 1182.83 1121.45C1178.62 1120.15 1178.39 1121.64 1179.79 1125.84L1203.8 1192.22C1203.8 1192.31 1203.88 1192.31 1203.88 1192.22L1218.84 1151.29C1222.97 1151.2 1226.56 1149.8 1229.6 1147.28L1203.88 1217.85C1203.88 1217.95 1203.8 1217.95 1203.8 1217.85L1169.11 1122.11C1168.25 1119.59 1168.41 1116.79 1169.5 1114.46Z" fill="#FFFFFE"/>
<path d="M1140.27 1114.46C1139.18 1112.22 1137.15 1110.73 1135.05 1110.45C1134.5 1110.36 1133.96 1110.36 1133.41 1110.36C1119.93 1110.36 1111.82 1118.01 1105.27 1124.07C1100.36 1128.63 1096.46 1132.27 1091.47 1132.27C1086.72 1132.27 1083.29 1129.75 1081.03 1124.44C1079.16 1119.96 1078.46 1114.46 1078.46 1110.92C1078.46 1110.92 1078.46 1110.83 1078.38 1110.83H1069.96C1069.96 1110.83 1069.88 1110.83 1069.88 1110.92C1069.88 1113.34 1070.19 1121.45 1073.39 1129.1C1074.56 1131.71 1075.88 1134.04 1077.44 1135.91C1081.11 1140.19 1085.78 1142.52 1091.4 1142.52C1095.14 1142.52 1098.33 1141.41 1101.3 1139.63C1104.65 1137.68 1107.61 1134.88 1110.49 1132.18C1115.25 1127.79 1120.39 1123.51 1126.94 1121.45C1131.15 1120.15 1131.38 1121.64 1129.98 1125.84L1105.97 1192.22C1105.97 1192.31 1105.89 1192.31 1105.89 1192.22L1090.93 1151.29C1086.8 1151.2 1083.21 1149.8 1080.17 1147.28L1105.89 1217.85C1105.89 1217.95 1105.97 1217.95 1105.97 1217.85L1140.66 1122.01C1141.52 1119.59 1141.36 1116.79 1140.27 1114.46Z" fill="#FFFFFE"/>
<path d="M938.7 1002.21C939.791 999.976 941.818 998.485 943.922 998.205C944.468 998.112 945.013 998.112 945.559 998.112C959.044 998.112 967.151 1005.76 973.698 1011.82C978.609 1016.38 982.506 1020.02 987.495 1020.02C992.25 1020.02 995.679 1017.5 997.94 1012.19C999.811 1007.71 1000.51 1002.21 1000.51 998.671C1000.51 998.671 1000.51 998.578 1000.59 998.578H1009.01C1009.01 998.578 1009.09 998.578 1009.09 998.671C1009.09 1001.1 1008.77 1009.21 1005.58 1016.85C1004.41 1019.46 1003.08 1021.79 1001.53 1023.66C997.862 1027.95 993.185 1030.28 987.573 1030.28C983.831 1030.28 980.635 1029.16 977.673 1027.39C974.322 1025.43 971.36 1022.63 968.476 1019.93C963.721 1015.55 958.576 1011.26 952.029 1009.21C947.82 1007.9 947.586 1009.39 948.989 1013.59L973.075 1079.87C973.075 1079.97 973.153 1079.97 973.153 1079.87L988.118 1038.95C992.25 1038.85 995.835 1037.45 998.875 1034.94L973.153 1105.51C973.153 1105.61 973.075 1105.61 973.075 1105.51L938.31 1009.67C937.453 1007.25 937.608 1004.45 938.7 1002.21Z" fill="#FFFFFE"/>
<path d="M959.043 1101.41C957.952 1103.65 955.925 1105.14 953.82 1105.42C953.275 1105.51 952.729 1105.51 952.183 1105.51C938.699 1105.51 930.592 1097.87 924.044 1091.81C919.134 1087.24 915.236 1083.6 910.248 1083.6C905.493 1083.6 902.063 1086.12 899.803 1091.43C897.932 1095.91 897.23 1101.41 897.23 1104.95C897.23 1104.95 897.23 1105.05 897.153 1105.05H888.734C888.734 1105.05 888.656 1105.05 888.656 1104.95C888.656 1102.53 888.968 1094.42 892.164 1086.77C893.333 1084.16 894.658 1081.83 896.217 1079.97C899.881 1075.68 904.558 1073.35 910.17 1073.35C913.911 1073.35 917.107 1074.47 920.069 1076.24C923.421 1078.2 926.383 1080.99 929.267 1083.7C934.022 1088.08 939.166 1092.37 945.714 1094.42C949.923 1095.72 950.157 1094.23 948.754 1090.04L924.746 1023.66C924.746 1023.56 924.668 1023.56 924.668 1023.66L909.702 1064.58C905.571 1064.68 901.985 1066.08 898.945 1068.59L924.668 998.018C924.668 997.925 924.746 997.925 924.746 998.018L959.433 1093.77C960.29 1096.38 960.134 1099.17 959.043 1101.41Z" fill="#FFFFFE"/>
<path d="M988.272 1101.41C989.363 1103.65 991.39 1105.14 993.494 1105.42C994.04 1105.51 994.586 1105.51 995.131 1105.51C1008.62 1105.51 1016.72 1097.87 1023.27 1091.81C1028.18 1087.24 1032.08 1083.6 1037.07 1083.6C1041.82 1083.6 1045.25 1086.12 1047.51 1091.43C1049.38 1095.91 1050.08 1101.41 1050.08 1104.95C1050.08 1104.95 1050.08 1105.05 1050.16 1105.05H1058.58C1058.58 1105.05 1058.66 1105.05 1058.66 1104.95C1058.66 1102.53 1058.35 1094.42 1055.15 1086.77C1053.98 1084.16 1052.66 1081.83 1051.1 1079.97C1047.43 1075.68 1042.76 1073.35 1037.15 1073.35C1033.4 1073.35 1030.21 1074.47 1027.25 1076.24C1023.89 1078.2 1020.93 1080.99 1018.05 1083.7C1013.29 1088.08 1008.15 1092.37 1001.6 1094.42C997.392 1095.72 997.158 1094.23 998.561 1090.04L1022.57 1023.66C1022.57 1023.56 1022.65 1023.56 1022.65 1023.66L1037.61 1064.58C1041.74 1064.68 1045.33 1066.08 1048.37 1068.59L1022.65 998.111C1022.65 998.018 1022.57 998.018 1022.57 998.111L987.882 1093.95C987.025 1096.38 987.181 1099.17 988.272 1101.41Z" fill="#FFFFFE"/>
<path d="M938.697 1213.66C939.789 1215.9 941.815 1217.39 943.92 1217.67C944.466 1217.76 945.011 1217.76 945.557 1217.76C959.042 1217.76 967.148 1210.12 973.696 1204.06C978.607 1199.49 982.504 1195.85 987.493 1195.85C992.247 1195.85 995.677 1198.37 997.938 1203.68C999.808 1208.16 1000.51 1213.66 1000.51 1217.2C1000.51 1217.2 1000.51 1217.3 1000.59 1217.3H1009.01C1009.01 1217.3 1009.08 1217.3 1009.08 1217.2C1009.08 1214.78 1008.77 1206.67 1005.58 1199.02C1004.41 1196.41 1003.08 1194.08 1001.52 1192.22C997.86 1187.93 993.183 1185.6 987.571 1185.6C983.829 1185.6 980.633 1186.72 977.671 1188.49C974.319 1190.44 971.357 1193.24 968.473 1195.95C963.719 1200.33 958.574 1204.62 952.026 1206.67C947.817 1207.97 947.583 1206.48 948.987 1202.29L973.072 1136.09C973.072 1136 973.15 1136 973.15 1136.09L988.116 1177.02C992.247 1177.11 995.833 1178.51 998.873 1181.03L973.15 1110.45C973.15 1110.36 973.072 1110.36 973.072 1110.45L938.386 1206.2C937.45 1208.62 937.606 1211.42 938.697 1213.66Z" fill="#FFFFFE"/>
<path d="M959.043 1114.46C957.952 1112.22 955.925 1110.73 953.82 1110.45C953.275 1110.36 952.729 1110.36 952.183 1110.36C938.699 1110.36 930.592 1118.01 924.044 1124.07C919.134 1128.63 915.236 1132.27 910.248 1132.27C905.493 1132.27 902.063 1129.75 899.803 1124.44C897.932 1119.96 897.23 1114.46 897.23 1110.92C897.23 1110.92 897.23 1110.83 897.153 1110.83H888.734C888.734 1110.83 888.656 1110.83 888.656 1110.92C888.656 1113.34 888.968 1121.45 892.164 1129.1C893.333 1131.71 894.658 1134.04 896.217 1135.91C899.881 1140.19 904.558 1142.52 910.17 1142.52C913.911 1142.52 917.107 1141.41 920.069 1139.63C923.421 1137.68 926.383 1134.88 929.267 1132.18C934.022 1127.79 939.166 1123.51 945.714 1121.45C949.923 1120.15 950.157 1121.64 948.754 1125.84L924.746 1192.22C924.746 1192.31 924.668 1192.31 924.668 1192.22L909.702 1151.29C905.571 1151.2 901.985 1149.8 898.945 1147.28L924.668 1217.85C924.668 1217.95 924.746 1217.95 924.746 1217.85L959.433 1122.11C960.29 1119.59 960.134 1116.79 959.043 1114.46Z" fill="#FFFFFE"/>
<path d="M988.272 1114.46C989.363 1112.22 991.39 1110.73 993.494 1110.45C994.04 1110.36 994.586 1110.36 995.131 1110.36C1008.62 1110.36 1016.72 1118.01 1023.27 1124.07C1028.18 1128.63 1032.08 1132.27 1037.07 1132.27C1041.82 1132.27 1045.25 1129.75 1047.51 1124.44C1049.38 1119.96 1050.08 1114.46 1050.08 1110.92C1050.08 1110.92 1050.08 1110.83 1050.16 1110.83H1058.58C1058.58 1110.83 1058.66 1110.83 1058.66 1110.92C1058.66 1113.34 1058.35 1121.45 1055.15 1129.1C1053.98 1131.71 1052.66 1134.04 1051.1 1135.91C1047.43 1140.19 1042.76 1142.52 1037.15 1142.52C1033.4 1142.52 1030.21 1141.41 1027.25 1139.63C1023.89 1137.68 1020.93 1134.88 1018.05 1132.18C1013.29 1127.79 1008.15 1123.51 1001.6 1121.45C997.392 1120.15 997.158 1121.64 998.561 1125.84L1022.57 1192.22C1022.57 1192.31 1022.65 1192.31 1022.65 1192.22L1037.61 1151.29C1041.74 1151.2 1045.33 1149.8 1048.37 1147.28L1022.65 1217.85C1022.65 1217.95 1022.57 1217.95 1022.57 1217.85L987.882 1122.01C987.025 1119.59 987.181 1116.79 988.272 1114.46Z" fill="#FFFFFE"/>
<path d="M829.65 1002.21C828.559 999.976 826.532 998.485 824.428 998.205C823.804 998.112 823.258 998.112 822.713 998.112C809.228 998.112 801.121 1005.76 794.574 1011.82C789.663 1016.38 785.766 1020.02 780.777 1020.02C776.022 1020.02 772.593 1017.5 770.332 1012.19C768.461 1007.71 767.76 1002.21 767.76 998.671C767.76 998.671 767.76 998.578 767.682 998.578H759.263C759.263 998.578 759.186 998.578 759.186 998.671C759.186 1001.1 759.497 1009.21 762.693 1016.85C763.862 1019.46 765.188 1021.79 766.746 1023.66C770.41 1027.95 775.087 1030.28 780.699 1030.28C784.441 1030.28 787.636 1029.16 790.598 1027.39C793.95 1025.43 796.912 1022.63 799.796 1019.93C804.551 1015.55 809.696 1011.26 816.243 1009.21C820.452 1007.9 820.686 1009.39 819.283 1013.59L795.275 1079.97C795.275 1080.06 795.197 1080.06 795.197 1079.97L780.231 1038.85C776.1 1038.76 772.515 1037.36 769.475 1034.84L795.197 1105.42C795.197 1105.51 795.275 1105.51 795.275 1105.42L829.962 1009.67C830.897 1007.25 830.741 1004.45 829.65 1002.21Z" fill="#FFFFFE"/>
<path d="M809.382 1101.41C810.473 1103.65 812.5 1105.14 814.605 1105.42C815.15 1105.51 815.696 1105.51 816.241 1105.51C829.726 1105.51 837.833 1097.87 844.381 1091.81C849.291 1087.24 853.189 1083.6 858.177 1083.6C862.932 1083.6 866.362 1086.12 868.622 1091.43C870.493 1095.91 871.194 1101.41 871.194 1104.95C871.194 1104.95 871.194 1105.05 871.272 1105.05H879.691C879.691 1105.05 879.769 1105.05 879.769 1104.95C879.769 1102.53 879.457 1094.42 876.261 1086.77C875.092 1084.16 873.767 1081.83 872.208 1079.97C868.544 1075.68 863.867 1073.35 858.255 1073.35C854.514 1073.35 851.318 1074.47 848.356 1076.24C845.004 1078.2 842.042 1080.99 839.158 1083.7C834.403 1088.08 829.259 1092.37 822.711 1094.42C818.502 1095.72 818.268 1094.23 819.671 1090.04L843.679 1023.75C843.679 1023.66 843.757 1023.66 843.757 1023.75L858.723 1064.68C862.854 1064.77 866.44 1066.17 869.48 1068.69L843.757 998.112C843.757 998.019 843.679 998.019 843.679 998.112L808.992 1093.86C808.057 1096.38 808.213 1099.17 809.382 1101.41Z" fill="#FFFFFE"/>
<path d="M780.074 1101.41C778.983 1103.65 776.956 1105.14 774.851 1105.42C774.306 1105.51 773.76 1105.51 773.215 1105.51C759.73 1105.51 751.623 1097.87 745.075 1091.81C740.165 1087.24 736.267 1083.6 731.279 1083.6C726.524 1083.6 723.094 1086.12 720.834 1091.43C718.963 1095.91 718.262 1101.41 718.262 1104.95C718.262 1104.95 718.262 1105.05 718.184 1105.05H709.687C709.687 1105.05 709.609 1105.05 709.609 1104.95C709.609 1102.53 709.921 1094.42 713.117 1086.77C714.286 1084.16 715.611 1081.83 717.17 1079.97C720.834 1075.68 725.511 1073.35 731.123 1073.35C734.864 1073.35 738.06 1074.47 741.022 1076.24C744.374 1078.2 747.336 1080.99 750.22 1083.7C754.975 1088.08 760.119 1092.37 766.667 1094.42C770.876 1095.72 771.11 1094.23 769.707 1090.04L745.777 1023.75C745.777 1023.66 745.699 1023.66 745.699 1023.75L730.733 1064.77C726.602 1064.86 723.016 1066.26 719.976 1068.78L745.699 998.112C745.699 998.019 745.777 998.019 745.777 998.112L780.464 1093.86C781.321 1096.38 781.165 1099.17 780.074 1101.41Z" fill="#FFFFFE"/>
<path d="M829.65 1213.66C828.559 1215.9 826.532 1217.39 824.428 1217.67C823.882 1217.76 823.336 1217.76 822.791 1217.76C809.306 1217.76 801.199 1210.12 794.652 1204.06C789.741 1199.49 785.844 1195.85 780.855 1195.85C776.1 1195.85 772.67 1198.37 770.41 1203.68C768.539 1208.16 767.838 1213.66 767.838 1217.2C767.838 1217.2 767.838 1217.3 767.76 1217.3H759.263C759.263 1217.3 759.186 1217.3 759.186 1217.2C759.186 1214.78 759.497 1206.67 762.693 1199.02C763.862 1196.41 765.188 1194.08 766.746 1192.22C770.41 1187.93 775.087 1185.6 780.699 1185.6C784.441 1185.6 787.636 1186.72 790.598 1188.49C793.95 1190.44 796.912 1193.24 799.796 1195.95C804.551 1200.33 809.696 1204.62 816.243 1206.67C820.452 1207.97 820.686 1206.48 819.283 1202.29L795.275 1136.09C795.275 1136 795.197 1136 795.197 1136.09L780.231 1177.02C776.1 1177.11 772.515 1178.51 769.475 1181.03L795.197 1110.45C795.197 1110.36 795.275 1110.36 795.275 1110.45L829.962 1206.2C830.897 1208.62 830.741 1211.42 829.65 1213.66Z" fill="#FFFFFE"/>
<path d="M809.382 1114.46C810.473 1112.22 812.5 1110.73 814.605 1110.45C815.15 1110.36 815.696 1110.36 816.241 1110.36C829.726 1110.36 837.833 1118 844.381 1124.06C849.291 1128.63 853.189 1132.27 858.177 1132.27C862.932 1132.27 866.362 1129.75 868.622 1124.44C870.493 1119.96 871.194 1114.46 871.194 1110.92C871.194 1110.92 871.194 1110.83 871.272 1110.83H879.691C879.691 1110.83 879.769 1110.83 879.769 1110.92C879.769 1113.34 879.457 1121.45 876.261 1129.1C875.092 1131.71 873.767 1134.04 872.208 1135.9C868.544 1140.19 863.867 1142.52 858.255 1142.52C854.514 1142.52 851.318 1141.41 848.356 1139.63C845.004 1137.68 842.042 1134.88 839.158 1132.18C834.403 1127.79 829.259 1123.51 822.711 1121.45C818.502 1120.15 818.268 1121.64 819.671 1125.84L843.679 1192.22C843.679 1192.31 843.757 1192.31 843.757 1192.22L858.723 1151.29C862.854 1151.19 866.44 1149.8 869.48 1147.28L843.757 1217.85C843.757 1217.95 843.679 1217.95 843.679 1217.85L808.992 1122.11C808.057 1119.59 808.213 1116.79 809.382 1114.46Z" fill="#FFFFFE"/>
<path d="M780.074 1114.46C778.983 1112.22 776.956 1110.73 774.851 1110.45C774.306 1110.36 773.76 1110.36 773.215 1110.36C759.73 1110.36 751.623 1118 745.075 1124.06C740.165 1128.63 736.267 1132.27 731.279 1132.27C726.524 1132.27 723.094 1129.75 720.834 1124.44C718.963 1119.96 718.262 1114.46 718.262 1110.92C718.262 1110.92 718.262 1110.83 718.184 1110.83H709.687C709.687 1110.83 709.609 1110.83 709.609 1110.92C709.609 1113.34 709.921 1121.45 713.117 1129.1C714.286 1131.71 715.611 1134.04 717.17 1135.9C720.834 1140.19 725.511 1142.52 731.123 1142.52C734.864 1142.52 738.06 1141.41 741.022 1139.63C744.374 1137.68 747.336 1134.88 750.22 1132.18C754.975 1127.79 760.119 1123.51 766.667 1121.45C770.876 1120.15 771.11 1121.64 769.707 1125.84L745.699 1192.22C745.699 1192.31 745.621 1192.31 745.621 1192.22L730.655 1151.29C726.524 1151.19 722.938 1149.8 719.898 1147.28L745.621 1217.85C745.621 1217.95 745.699 1217.95 745.699 1217.85L780.386 1122.11C781.321 1119.59 781.165 1116.79 780.074 1114.46Z" fill="#FFFFFE"/>
<path d="M1228.04 1000.07C1228.58 999.044 1229.52 998.298 1230.53 998.205C1230.77 998.205 1231.08 998.205 1231.31 998.205C1237.63 998.205 1241.44 1001.75 1244.56 1004.64C1246.9 1006.78 1248.69 1008.46 1251.03 1008.46C1253.29 1008.46 1254.85 1007.25 1255.94 1004.73C1256.8 1002.68 1257.19 1000.07 1257.19 998.391H1261.17C1261.17 999.51 1261.01 1003.33 1259.53 1006.87C1258.98 1008.09 1258.36 1009.21 1257.58 1010.04C1255.87 1012.1 1253.68 1013.12 1251.03 1013.12C1249.24 1013.12 1247.76 1012.56 1246.36 1011.72C1244.8 1010.79 1243.39 1009.49 1242.07 1008.18C1239.89 1006.13 1237.39 1004.08 1234.35 1003.15C1232.4 1002.49 1232.25 1003.24 1232.95 1005.2L1244.25 1036.43H1244.33L1251.34 1017.13C1253.29 1017.04 1255.01 1016.48 1256.41 1015.27L1244.33 1048.46H1244.25L1227.8 1003.52C1227.41 1002.4 1227.49 1001.09 1228.04 1000.07Z" fill="#FFFFFE"/>
<path d="M867.844 1000.07C868.389 999.044 869.325 998.298 870.338 998.205C870.572 998.205 870.884 998.205 871.118 998.205C877.431 998.205 881.251 1001.75 884.369 1004.64C886.707 1006.78 888.5 1008.46 890.838 1008.46C893.099 1008.46 894.658 1007.25 895.749 1004.73C896.606 1002.68 896.996 1000.07 896.996 998.391H900.972C900.972 999.51 900.816 1003.33 899.335 1006.87C898.789 1008.09 898.165 1009.21 897.386 1010.04C895.671 1012.1 893.489 1013.12 890.838 1013.12C889.046 1013.12 887.565 1012.56 886.162 1011.72C884.603 1010.79 883.2 1009.49 881.874 1008.18C879.692 1006.13 877.198 1004.08 874.158 1003.15C872.209 1002.49 872.053 1003.24 872.755 1005.2L884.057 1036.43H884.135L891.15 1017.13C893.099 1017.04 894.814 1016.48 896.217 1015.27L884.135 1048.46H884.057L867.688 1003.52C867.22 1002.4 867.298 1001.09 867.844 1000.07Z" fill="#FFFFFE"/>
<path d="M1080.64 1000.07C1080.1 999.044 1079.16 998.298 1078.15 998.205C1077.91 998.205 1077.6 998.205 1077.37 998.205C1071.05 998.205 1067.23 1001.75 1064.12 1004.64C1061.78 1006.78 1059.99 1008.46 1057.65 1008.46C1055.39 1008.46 1053.83 1007.25 1052.74 1004.73C1051.88 1002.68 1051.49 1000.07 1051.49 998.391H1047.51C1047.51 999.51 1047.67 1003.33 1049.15 1006.87C1049.7 1008.09 1050.32 1009.21 1051.1 1010.04C1052.81 1012.1 1055 1013.12 1057.65 1013.12C1059.44 1013.12 1060.92 1012.56 1062.32 1011.72C1063.88 1010.79 1065.29 1009.49 1066.61 1008.18C1068.79 1006.13 1071.29 1004.08 1074.33 1003.15C1076.28 1002.49 1076.43 1003.24 1075.73 1005.2L1064.43 1036.43H1064.35L1057.34 1017.13C1055.39 1017.04 1053.67 1016.48 1052.27 1015.27L1064.35 1048.46H1064.43L1080.72 1003.43C1081.19 1002.4 1081.11 1001.09 1080.64 1000.07Z" fill="#FFFFFE"/>
</g>
</g>
<defs>
<clipPath id="clip0_429_4385">
<rect width="1723.27" height="1116" fill="white" transform="translate(0.365234)"/>
</clipPath>
</defs>
</svg>
