<svg width="842" height="478" viewBox="0 0 842 478" fill="none" xmlns="http://www.w3.org/2000/svg">
<path d="M578.876 -3.05176e-05L578.876 10.6178H618.345L618.345 2.12354L618.345 -3.05176e-05H578.876ZM539.407 -3.05176e-05H499.939L499.939 10.6178H539.407L539.407 -3.05176e-05ZM458.277 -3.05176e-05H418.808L418.808 10.6178H458.277L458.277 -3.05176e-05ZM379.339 -3.05176e-05H339.871L339.871 10.6178H379.339L379.339 -3.05176e-05ZM298.209 -3.05176e-05H258.74L258.74 10.6178H298.209L298.209 -3.05176e-05ZM219.271 -3.05176e-05C206.115 -3.05176e-05 190.766 2.12357 177.61 4.24713L179.803 12.7414C192.959 10.6178 206.115 8.49423 219.271 8.49423L219.271 -3.05176e-05ZM660.007 4.24713L657.814 14.865C670.97 16.9885 684.127 21.2357 695.09 25.4828L699.476 16.9885C686.319 8.49423 673.163 6.3707 660.007 4.24713ZM138.141 16.9885C124.985 21.2357 114.021 29.7299 103.058 36.1006L109.636 44.5949C120.599 38.2242 131.563 31.8535 142.526 25.4828L138.141 16.9885ZM734.559 31.8535L727.981 40.3478C738.944 46.7185 747.715 55.2128 758.679 63.707L765.257 57.3363C756.486 48.8421 747.715 40.3478 734.559 31.8535ZM72.3595 61.5835C70.1668 63.707 67.9741 65.8306 65.7814 67.9542C59.2033 76.4485 52.6251 82.8192 46.047 91.3134L54.8178 97.6841C61.396 89.1899 67.9741 82.8192 74.5523 74.3249C76.745 72.2013 78.9377 70.0778 81.1304 67.9542L72.3595 61.5835ZM793.762 87.0663L784.991 93.437C793.762 104.055 800.34 114.673 804.726 125.291L813.497 121.043C809.111 110.426 802.533 97.6841 793.762 87.0663ZM24.1199 125.291C17.5417 138.032 13.1563 148.65 10.9636 161.391L19.7344 163.515C24.1198 150.773 28.5053 140.156 32.8907 127.414L24.1199 125.291ZM831.038 159.268L822.268 161.391C826.653 174.133 828.846 184.75 831.038 199.615L842.002 197.492C837.617 182.627 835.424 169.885 831.038 159.268ZM2.19272 201.739C6.51915e-06 214.48 -1.725e-06 227.222 -1.65191e-06 237.84L-1.63729e-06 239.963H10.9636L10.9636 237.84C10.9636 225.098 10.9636 212.357 13.1563 201.739H2.19272ZM842.002 235.716H831.038L831.038 237.84C831.038 250.581 831.038 261.199 828.846 273.94L839.809 276.064C842.002 265.446 842.002 252.705 842.002 239.963L842.002 235.716ZM13.1563 280.311L2.19272 282.435C4.38543 295.176 6.57814 307.917 10.9636 320.659L19.7344 318.535C17.5417 305.794 15.349 293.052 13.1563 280.311ZM822.268 312.165C817.882 324.906 813.497 335.524 809.111 348.265L817.882 352.512C824.46 339.771 828.846 329.153 831.038 314.288L822.268 312.165ZM35.0834 352.512L26.3126 356.76C32.8907 369.501 39.4689 380.119 48.2397 390.737L57.0106 384.366C48.2397 373.748 41.6616 363.13 35.0834 352.512ZM789.377 380.119C782.799 388.613 776.221 394.984 769.642 403.478C767.45 405.602 765.257 407.725 763.064 409.849L769.642 416.219C774.028 414.096 776.221 411.972 778.413 409.849C784.991 401.354 791.57 394.984 798.148 386.49L789.377 380.119ZM81.1304 411.972L74.5523 418.343C85.5158 426.837 94.2867 435.332 107.443 443.826L114.021 435.332C103.058 428.961 92.094 422.59 81.1304 411.972ZM734.559 433.208C723.595 439.579 712.632 445.949 699.476 452.32L703.861 460.814C717.017 456.567 727.981 448.073 738.944 441.702L734.559 433.208ZM146.912 454.444L142.526 462.938C155.683 467.185 168.839 471.432 181.995 473.556L184.188 462.938C171.032 462.938 160.068 458.691 146.912 454.444ZM664.392 462.938C651.236 465.062 638.08 467.185 624.923 467.185L624.923 477.803C638.08 477.803 653.429 475.679 666.585 473.556L664.392 462.938ZM585.455 467.185H545.986L545.986 477.803H585.455L585.455 467.185ZM504.324 467.185L464.855 467.185L464.855 477.803H504.324L504.324 467.185ZM425.386 467.185H383.725L383.725 477.803H423.194L423.194 467.185H425.386ZM344.256 467.185H304.787L304.787 477.803H344.256L344.256 467.185ZM263.126 467.185H221.464L221.464 477.803H263.126L263.126 467.185Z" fill="#001B72" fill-opacity="0.1"/>
</svg>
