<svg width="50" height="49" viewBox="0 0 50 49" fill="none" xmlns="http://www.w3.org/2000/svg">
<path d="M37.3447 4.388C41.7286 4.388 45.2529 7.99824 45.3389 12.2962V36.6223C45.3389 41.0062 41.8146 44.5305 37.4307 44.5305H13.0186C8.6347 44.5305 5.11041 41.0062 5.11041 36.6223V12.2962C5.11041 7.91229 8.6347 4.388 13.0186 4.388H37.3447ZM37.3447 0.0900879H13.0186C6.31383 0.0900879 0.8125 5.59141 0.8125 12.2962V36.6223C0.8125 43.3271 6.31383 48.8284 13.0186 48.8284H37.3447C44.0495 48.8284 49.5508 43.3271 49.5508 36.6223V12.2962C49.5508 5.59141 44.0495 0.0900879 37.3447 0.0900879Z" fill="white"/>
<path d="M14.3096 7.22461C13.1921 7.22461 12.2466 7.6544 11.4729 8.34207C10.6993 9.11569 10.2695 10.1472 10.2695 11.1787C10.2695 12.2961 10.6993 13.2417 11.4729 14.0153C12.2466 14.7889 13.2781 15.2187 14.2236 15.1328H14.3096C15.3411 15.1328 16.2006 14.703 16.9743 14.0153C17.7479 13.2417 18.1777 12.2961 18.1777 11.1787C18.2636 10.1472 17.7479 9.11569 17.0602 8.42802C16.3726 7.56844 15.427 7.22461 14.3096 7.22461ZM16.3726 13.3276C15.8568 13.8434 15.0832 14.1872 14.3096 14.1872C13.5359 14.1872 12.7623 13.9294 12.2466 13.3276C11.6449 12.8119 11.387 11.9523 11.387 11.1787C11.387 10.4051 11.6449 9.63144 12.2466 9.02973C12.7623 8.51398 13.5359 8.17015 14.3955 8.17015C15.1692 8.17015 15.8568 8.42802 16.4585 9.02973C17.0602 9.63144 17.3181 10.4051 17.3181 11.1787C17.3181 11.9523 16.9743 12.7259 16.3726 13.3276Z" fill="white" stroke="white" stroke-width="1.62461" stroke-miterlimit="10"/>
<path d="M16.2884 18.7427H12.2484C11.4748 18.7427 10.7871 19.3444 10.7871 20.204V37.5675C10.7871 38.3412 11.4748 39.0288 12.2484 39.0288H16.2884C17.0621 39.0288 17.7497 38.3412 17.7497 37.5675V20.204C17.7497 19.4303 17.0621 18.7427 16.2884 18.7427ZM16.8042 37.6535C16.8042 37.9114 16.5463 38.0833 16.2884 38.0833H12.3344C12.0765 38.0833 11.8186 37.8254 11.8186 37.5675V20.204C11.8186 19.9461 11.9905 19.6882 12.2484 19.6882H16.2884C16.5463 19.6882 16.8042 19.9461 16.8042 20.204V37.6535Z" fill="white" stroke="white" stroke-width="1.62461" stroke-miterlimit="10"/>
<path d="M33.134 18.2271H32.1025C30.2114 18.2271 28.3203 19.0866 27.1169 20.376V19.6883C27.1169 19.1726 26.6012 18.6568 26.0854 18.6568H21.0999C20.6701 18.6568 20.0684 19.0866 20.0684 19.6024V38.0834C20.0684 38.5991 20.5841 38.943 21.0999 38.943H26.6012C27.031 38.943 27.6327 38.5991 27.6327 38.0834V27.5105C27.6327 25.8773 28.8361 24.588 30.3833 24.588C31.157 24.588 31.9306 24.8458 32.4463 25.4475C32.9621 25.8773 33.134 26.565 33.134 27.5105V38.1694C33.134 38.6851 33.6498 39.2009 34.1655 39.2009H39.1511C39.6668 39.2009 40.1826 38.6851 40.1826 38.1694V25.2756C40.0966 21.3215 37.0021 18.2271 33.134 18.2271ZM39.0651 37.9974L34.1655 38.0834L34.0796 27.4246C34.0796 26.2212 33.8217 25.3616 33.134 24.6739C32.3604 23.9003 31.4148 23.5565 30.3833 23.5565C28.3204 23.6424 26.6871 25.2756 26.6871 27.5105V38.0834H21.2718V19.7743H26.1714L26.2574 19.8603V22.9548L27.6327 21.5794L27.7186 21.4935C28.7501 20.1181 30.4693 19.1726 32.2744 19.1726H33.3059C36.6583 19.1726 39.237 21.8373 39.237 25.1897V37.9974H39.0651Z" fill="white" stroke="white" stroke-width="1.62461" stroke-miterlimit="10"/>
</svg>
