<svg width="215" height="72" viewBox="0 0 215 72" fill="none" xmlns="http://www.w3.org/2000/svg">
<path d="M46.8128 15.3571C44.3157 15.3571 42.2529 16.0203 40.5881 17.3807C40.5881 16.5475 39.8643 15.8843 38.9957 15.8843H32.1739C31.9929 15.8843 31.8301 16.0203 31.8301 16.2074V17.8058V69.0914V70.6898C31.8301 70.8599 31.9748 71.0129 32.1739 71.0129H33.7663C37.512 71.0129 40.57 68.1561 40.57 64.6192V63.3098H40.6062V19.3022C41.7824 18.0949 42.9586 17.4827 44.1348 17.4827C45.9443 17.4827 46.8309 18.8261 46.8309 21.5128V26.189C46.8309 26.3591 46.9757 26.5121 47.1747 26.5121H55.2995C55.4804 26.5121 55.6433 26.3761 55.6433 26.189V25.0837C55.6252 18.605 52.6938 15.3571 46.8128 15.3571Z" fill="white"/>
<path d="M85.6264 26.5121V26.172C85.6264 23.1452 84.4321 20.5775 82.0254 18.486C79.6188 16.4114 76.5788 15.3571 72.9236 15.3571C69.2503 15.3571 66.2103 16.3944 63.7856 18.486C61.3608 20.5775 60.1484 23.1282 60.1484 26.172V60.6911C60.1484 63.735 61.3608 66.2856 63.7856 68.3772C66.2103 70.4687 69.2503 71.506 72.9236 71.506C76.5969 71.506 79.6369 70.4687 82.0435 68.3772C84.4502 66.2856 85.6445 63.735 85.6445 60.6911V56.44C85.6445 56.27 85.4997 56.1169 85.3007 56.1169H77.176C76.995 56.1169 76.8321 56.253 76.8321 56.44V65.3504C76.8321 68.1731 75.5293 69.6015 72.9236 69.6015C70.2817 69.6015 68.9608 68.1901 68.9608 65.3504V21.5128C68.9608 18.69 70.2817 17.2787 72.9236 17.2787C75.5293 17.2787 76.8321 18.69 76.8321 21.5128V26.5121H85.6264Z" fill="white"/>
<path d="M104.572 69.0744C101.93 69.0744 100.609 67.663 100.609 64.8402V17.7888H106.599C106.78 17.7888 106.943 17.6527 106.943 17.4657V16.1904C106.943 16.0203 106.798 15.8673 106.599 15.8673H100.609V6.9059C100.609 3.36896 97.5693 0.512207 93.8236 0.512207H92.195C92.0141 0.512207 91.8512 0.648243 91.8512 0.835293V15.8843H89.336C89.155 15.8843 88.9922 16.0203 88.9922 16.2074V17.4827C88.9922 17.6527 89.137 17.8058 89.336 17.8058H91.8512V60.181C91.8512 63.1908 93.0455 65.7415 95.4522 67.833C97.8588 69.9416 100.899 70.9959 104.572 70.9959H107.033C107.214 70.9959 107.377 70.8598 107.377 70.6728V69.3974C107.377 69.2274 107.232 69.0744 107.033 69.0744H104.572Z" fill="white"/>
<path d="M136.512 32.8378C136.693 32.8378 136.855 32.7017 136.855 32.5147V26.172C136.855 23.1452 135.661 20.5775 133.254 18.486C130.83 16.4114 127.79 15.3571 124.135 15.3571C120.461 15.3571 117.421 16.3944 114.996 18.486C112.572 20.5775 111.359 23.1282 111.359 26.172V60.6911C111.359 63.735 112.572 66.2856 114.996 68.3772C117.421 70.4687 120.461 71.506 124.135 71.506C127.808 71.506 130.848 70.4687 133.254 68.3772C135.661 66.2856 136.855 63.735 136.855 60.6911V56.44C136.855 56.27 136.711 56.1169 136.512 56.1169H128.387C128.206 56.1169 128.043 56.253 128.043 56.44V65.3504C128.043 68.1731 126.74 69.6015 124.135 69.6015C121.493 69.6015 120.172 68.1901 120.172 65.3504V32.8378H136.512ZM120.154 21.5128C120.154 18.69 121.475 17.2787 124.116 17.2787C126.722 17.2787 128.025 18.69 128.025 21.5128V30.9163H120.154V21.5128Z" fill="white"/>
<path d="M158.588 15.3571C156.091 15.3571 154.01 16.0203 152.364 17.3807C152.364 16.5475 151.64 15.8843 150.771 15.8843H143.949C143.768 15.8843 143.605 16.0203 143.605 16.2074V17.8058V69.0914V70.6898C143.605 70.8599 143.75 71.0129 143.949 71.0129H145.578C149.324 71.0129 152.382 68.1561 152.382 64.6192V19.3022C153.558 18.0949 154.734 17.4827 155.91 17.4827C157.72 17.4827 158.606 18.8261 158.606 21.5128V26.189C158.606 26.3591 158.751 26.5121 158.95 26.5121H167.075C167.256 26.5121 167.419 26.3761 167.419 26.189V25.0837C167.401 18.605 164.469 15.3571 158.588 15.3571Z" fill="white"/>
<path d="M173.407 4.6443V5.37549C173.407 7.6541 175.379 9.50759 177.804 9.50759C180.229 9.50759 182.201 7.6541 182.201 5.37549V4.6443C182.219 2.3657 180.247 0.512207 177.804 0.512207C175.379 0.512207 173.407 2.3657 173.407 4.6443ZM173.732 15.8843C173.552 15.8843 173.389 16.0203 173.389 16.2074V17.8058V64.6192C173.389 68.1391 176.429 71.0129 180.192 71.0129H181.875C182.056 71.0129 182.219 70.8768 182.219 70.6898V16.2074C182.219 16.0373 182.074 15.8843 181.875 15.8843H173.732Z" fill="white"/>
<path d="M210.936 18.486C208.529 16.3944 205.489 15.3571 201.816 15.3571C198.143 15.3571 195.103 16.3944 192.678 18.486C190.253 20.5775 189.041 23.1282 189.041 26.172V60.6911C189.041 63.735 190.253 66.2856 192.678 68.3772C195.103 70.4687 198.143 71.506 201.816 71.506C205.489 71.506 208.529 70.4687 210.936 68.3772C213.343 66.2856 214.537 63.735 214.537 60.6911V26.172C214.537 23.1452 213.343 20.5775 210.936 18.486ZM205.725 65.3504C205.725 68.1731 204.422 69.6015 201.816 69.6015C199.174 69.6015 197.853 68.1901 197.853 65.3504V21.5128C197.853 18.69 199.174 17.2787 201.816 17.2787C204.422 17.2787 205.725 18.69 205.725 21.5128V65.3504Z" fill="white"/>
<path d="M21.2812 18.3159C19.1098 16.3434 16.1784 15.3571 12.4689 15.3571C8.79555 15.3571 5.86414 16.3434 3.69273 18.3159C1.5756 20.2204 0.48989 22.7201 0.417509 25.8489V25.8659C0.417509 25.985 0.417509 26.138 0.417509 26.274C0.417509 26.4101 0.417509 26.5121 0.435604 26.5121H9.17555C9.21174 26.5121 9.22984 26.4951 9.22984 26.4611V21.5298C9.22984 18.707 10.3155 17.2787 12.487 17.2787C14.6946 17.2787 15.7984 18.69 15.7984 21.5298V30.8993C15.7984 30.9333 15.7803 30.9503 15.7441 30.9503H13.0841C4.41653 30.9503 0.0917969 34.3682 0.0917969 41.187V61.7964C0.0917969 68.2752 3.20416 71.523 9.44698 71.523C10.4241 71.523 11.347 71.421 12.1793 71.2339C12.7765 71.0979 13.3917 71.0129 14.0069 71.0129H15.8165H15.8346H24.1945C24.3755 71.0129 24.5383 70.8769 24.5383 70.6898V26.172C24.5383 22.8901 23.4526 20.2885 21.2812 18.3159ZM15.6898 65.6905C15.6898 68.1221 14.5679 69.3464 12.3241 69.3464C10.0441 69.3464 8.90412 68.1221 8.90412 65.6905V36.6128C8.90412 34.1811 10.0441 32.9568 12.3241 32.9568C14.5679 32.9568 15.6898 34.1811 15.6898 36.6128V65.6905Z" fill="white"/>
</svg>
