<svg width="210" height="74" viewBox="0 0 210 74" fill="none" xmlns="http://www.w3.org/2000/svg">
<path d="M45.8258 15.7607C43.3816 15.7607 41.3624 16.4463 39.7329 17.8525C39.7329 16.9912 39.0244 16.3056 38.1742 16.3056H31.4967C31.3196 16.3056 31.1602 16.4463 31.1602 16.6396V18.2919V71.3054V72.9577C31.1602 73.1335 31.3019 73.2917 31.4967 73.2917H33.0554C36.7218 73.2917 39.7151 70.3386 39.7151 66.6825V65.3291H39.7506V19.8211C40.9019 18.5731 42.0531 17.9403 43.2044 17.9403C44.9757 17.9403 45.8436 19.329 45.8436 22.1062V26.94C45.8436 27.1158 45.9852 27.274 46.1801 27.274H54.1329C54.31 27.274 54.4694 27.1333 54.4694 26.94V25.7975C54.4517 19.118 51.5646 15.7607 45.8258 15.7607Z" fill="#001B72"/>
<path d="M83.8197 27.2915V26.94C83.8197 23.8112 82.6507 21.157 80.295 18.995C77.9393 16.833 74.9636 15.7607 71.3681 15.7607C67.7725 15.7607 64.7969 16.833 62.4234 18.995C60.05 21.157 58.8633 23.7936 58.8633 26.94V62.6222C58.8633 65.7685 60.05 68.4051 62.4234 70.5672C64.7969 72.7292 67.7725 73.8014 71.3681 73.8014C74.9636 73.8014 77.9393 72.7292 80.295 70.5672C82.6507 68.4051 83.8197 65.7685 83.8197 62.6222V58.2278C83.8197 58.052 83.678 57.8938 83.4832 57.8938H75.5304C75.3533 57.8938 75.1939 58.0345 75.1939 58.2278V67.4384C75.1939 70.3562 73.9186 71.8327 71.3681 71.8327C68.7821 71.8327 67.4891 70.3738 67.4891 67.4384V22.1238C67.4891 19.2059 68.7821 17.747 71.3681 17.747C73.9186 17.747 75.1939 19.2059 75.1939 22.1238V27.2915H83.8197Z" fill="#001B72"/>
<path d="M102.364 71.2877C99.7776 71.2877 98.4846 69.8288 98.4846 66.9109V18.2742H104.347C104.524 18.2742 104.684 18.1336 104.684 17.9402V16.6219C104.684 16.4461 104.542 16.2879 104.347 16.2879H98.4846V7.00706C98.4846 3.36853 95.509 0.397949 91.8249 0.397949H90.2308C90.0536 0.397949 89.8942 0.538569 89.8942 0.731921V16.2879H87.4322C87.2551 16.2879 87.0957 16.4286 87.0957 16.6219V17.9402C87.0957 18.116 87.2374 18.2742 87.4322 18.2742H89.8942V62.0771C89.8942 65.1883 91.0632 67.825 93.419 69.987C95.7747 72.1666 98.7503 73.2564 102.346 73.2564H104.755C104.932 73.2564 105.091 73.1158 105.091 72.9224V71.6041C105.091 71.4283 104.95 71.2701 104.755 71.2701H102.364V71.2877Z" fill="#001B72"/>
<path d="M133.608 33.8128C133.785 33.8128 133.945 33.6721 133.945 33.4788V26.9224C133.945 23.7936 132.776 21.1394 130.42 18.9774C128.064 16.8154 125.089 15.7432 121.493 15.7432C117.898 15.7432 114.922 16.8154 112.548 18.9774C110.175 21.1394 108.988 23.776 108.988 26.9224V62.6046C108.988 65.7509 110.175 68.3876 112.548 70.5496C114.922 72.7116 117.898 73.7838 121.493 73.7838C125.089 73.7838 128.064 72.7116 130.42 70.5496C132.776 68.3876 133.945 65.7509 133.945 62.6046V58.2102C133.945 58.0345 133.803 57.8763 133.608 57.8763H125.655C125.478 57.8763 125.319 58.0169 125.319 58.2102V67.4208C125.319 70.3386 124.044 71.8151 121.493 71.8151C118.907 71.8151 117.614 70.3562 117.614 67.4208V33.8128H133.608ZM117.614 22.1238C117.614 19.2059 118.907 17.747 121.493 17.747C124.044 17.747 125.319 19.2059 125.319 22.1238V31.8441H117.614V22.1238Z" fill="#001B72"/>
<path d="M155.234 15.7607C152.79 15.7607 150.753 16.4463 149.141 17.8525C149.141 16.9912 148.433 16.3056 147.582 16.3056H140.905C140.728 16.3056 140.568 16.4463 140.568 16.6396V18.2919V71.3054V72.9577C140.568 73.1335 140.71 73.2917 140.905 73.2917H142.499C146.165 73.2917 149.159 70.3386 149.159 66.6825V19.8211C150.31 18.5731 151.461 17.9403 152.613 17.9403C154.384 17.9403 155.252 19.329 155.252 22.1062V26.94C155.252 27.1158 155.393 27.274 155.588 27.274H163.541C163.718 27.274 163.878 27.1333 163.878 26.94V25.7975C163.86 19.118 160.973 15.7607 155.234 15.7607Z" fill="#001B72"/>
<path d="M169.723 4.68684V5.44267C169.723 7.79805 171.653 9.71399 174.027 9.71399C176.4 9.71399 178.331 7.79805 178.331 5.44267V4.68684C178.331 2.33147 176.4 0.415527 174.027 0.415527C171.653 0.415527 169.723 2.33147 169.723 4.68684ZM170.059 16.2879C169.882 16.2879 169.723 16.4286 169.723 16.6219V18.2742V66.6648C169.723 70.3034 172.698 73.274 176.382 73.274H178.03C178.207 73.274 178.366 73.1333 178.366 72.94V16.6219C178.366 16.4461 178.225 16.2879 178.03 16.2879H170.059Z" fill="#001B72"/>
<path d="M206.459 18.995C204.103 16.833 201.128 15.7607 197.532 15.7607C193.937 15.7607 190.961 16.833 188.587 18.995C186.214 21.157 185.027 23.7936 185.027 26.94V62.6222C185.027 65.7685 186.214 68.4051 188.587 70.5672C190.961 72.7292 193.937 73.8014 197.532 73.8014C201.128 73.8014 204.103 72.7292 206.459 70.5672C208.815 68.4051 209.984 65.7685 209.984 62.6222V26.94C210.002 23.7936 208.815 21.157 206.459 18.995ZM201.376 67.4208C201.376 70.3386 200.1 71.8151 197.55 71.8151C194.964 71.8151 193.671 70.3562 193.671 67.4208V22.1238C193.671 19.2059 194.964 17.747 197.55 17.747C200.1 17.747 201.376 19.2059 201.376 22.1238V67.4208Z" fill="#001B72"/>
<path d="M20.8346 18.8192C18.7091 16.7802 15.8397 15.7607 12.2087 15.7607C8.61317 15.7607 5.7438 16.7802 3.61834 18.8192C1.56372 20.7879 0.483286 23.3718 0.412437 26.606V26.6236C0.412437 26.7466 0.412437 26.9048 0.412437 27.0454C0.412437 27.1861 0.412433 27.2915 0.430145 27.2915H8.98512C9.02055 27.2915 9.03827 27.274 9.03827 27.2388V22.1413C9.03827 19.2235 10.101 17.747 12.2265 17.747C14.3873 17.747 15.4678 19.2059 15.4678 22.1413V31.8265C15.4678 31.8617 15.4501 31.8792 15.4147 31.8792H12.8287C4.34454 31.8792 0.111328 35.4123 0.111328 42.4608V63.7471C0.111328 70.4441 3.15782 73.8014 9.26853 73.8014C10.225 73.8014 11.1283 73.6959 11.9431 73.5026C12.5276 73.362 13.1298 73.2741 13.732 73.2741H15.5032H15.5209H23.7039C23.8811 73.2741 24.0405 73.1335 24.0405 72.9401V26.94C24.005 23.5475 22.9423 20.8406 20.8346 18.8192ZM15.3615 67.7899C15.3615 70.3035 14.2634 71.5691 12.067 71.5691C9.83531 71.5691 8.71944 70.3035 8.71944 67.7899V37.7325C8.71944 35.219 9.83531 33.9534 12.067 33.9534C14.2634 33.9534 15.3615 35.219 15.3615 37.7325V67.7899Z" fill="#001B72"/>
</svg>
