<svg width="149" height="54" viewBox="0 0 149 54" fill="none" xmlns="http://www.w3.org/2000/svg">
<path d="M32.525 11.1719C30.7907 11.1719 29.358 11.6704 28.2018 12.693C28.2018 12.0666 27.6991 11.5681 27.0959 11.5681H22.3579C22.2323 11.5681 22.1191 11.6704 22.1191 11.811V13.0125V51.5642V52.7657C22.1191 52.8935 22.2197 53.0086 22.3579 53.0086H23.4639C26.0653 53.0086 28.1892 50.8611 28.1892 48.2024V47.2182H28.2144V14.1246C29.0312 13.2171 29.8481 12.7569 30.665 12.7569C31.9218 12.7569 32.5376 13.7667 32.5376 15.7863V19.3015C32.5376 19.4293 32.6381 19.5443 32.7763 19.5443H38.4191C38.5448 19.5443 38.6579 19.4421 38.6579 19.3015V18.4706C38.6453 13.6133 36.5968 11.1719 32.525 11.1719Z" fill="#001B72"/>
<path d="M59.481 19.5571V19.3015C59.481 17.0262 58.6515 15.0961 56.98 13.5238C55.3086 11.9516 53.1972 11.1719 50.6461 11.1719C48.0949 11.1719 45.9835 11.9516 44.2995 13.5238C42.6155 15.0961 41.7734 17.0134 41.7734 19.3015V45.2497C41.7734 47.5377 42.6155 49.4551 44.2995 51.0273C45.9835 52.5995 48.0949 53.3793 50.6461 53.3793C53.1972 53.3793 55.3086 52.5995 56.98 51.0273C58.6515 49.4551 59.481 47.5377 59.481 45.2497V42.0541C59.481 41.9263 59.3804 41.8112 59.2422 41.8112H53.5994C53.4737 41.8112 53.3606 41.9135 53.3606 42.0541V48.752C53.3606 50.8739 52.4558 51.9476 50.6461 51.9476C48.8112 51.9476 47.8938 50.8867 47.8938 48.752V15.7991C47.8938 13.6772 48.8112 12.6163 50.6461 12.6163C52.4558 12.6163 53.3606 13.6772 53.3606 15.7991V19.5571H59.481Z" fill="#001B72"/>
<path d="M72.6398 51.5513C70.8049 51.5513 69.8875 50.4904 69.8875 48.3685V12.9997H74.0473C74.173 12.9997 74.2861 12.8974 74.2861 12.7568V11.7981C74.2861 11.6703 74.1856 11.5553 74.0473 11.5553H69.8875V4.80617C69.8875 2.16022 67.7762 0 65.1622 0H64.0311C63.9054 0 63.7923 0.102259 63.7923 0.242865V11.5553H62.0454C61.9198 11.5553 61.8066 11.6575 61.8066 11.7981V12.7568C61.8066 12.8846 61.9072 12.9997 62.0454 12.9997H63.7923V44.8533C63.7923 47.1158 64.6218 49.0332 66.2932 50.6054C67.9647 52.1904 70.076 52.9829 72.6272 52.9829H74.3364C74.4621 52.9829 74.5752 52.8807 74.5752 52.7401V51.7814C74.5752 51.6536 74.4746 51.5385 74.3364 51.5385H72.6398V51.5513Z" fill="#001B72"/>
<path d="M94.8086 24.2992C94.9343 24.2992 95.0474 24.197 95.0474 24.0563V19.2885C95.0474 17.0133 94.2179 15.0831 92.5465 13.5109C90.875 11.9387 88.7637 11.1589 86.2125 11.1589C83.6613 11.1589 81.55 11.9387 79.8659 13.5109C78.1819 15.0831 77.3398 17.0005 77.3398 19.2885V45.2367C77.3398 47.5248 78.1819 49.4421 79.8659 51.0144C81.55 52.5866 83.6613 53.3663 86.2125 53.3663C88.7637 53.3663 90.875 52.5866 92.5465 51.0144C94.2179 49.4421 95.0474 47.5248 95.0474 45.2367V42.0411C95.0474 41.9133 94.9468 41.7983 94.8086 41.7983H89.1658C89.0402 41.7983 88.927 41.9005 88.927 42.0411V48.7391C88.927 50.861 88.0222 51.9347 86.2125 51.9347C84.3776 51.9347 83.4602 50.8738 83.4602 48.7391V24.2992H94.8086ZM83.4602 15.7989C83.4602 13.6771 84.3776 12.6161 86.2125 12.6161C88.0222 12.6161 88.927 13.6771 88.927 15.7989V22.8676H83.4602V15.7989Z" fill="#001B72"/>
<path d="M110.154 11.1719C108.42 11.1719 106.974 11.6704 105.831 12.693C105.831 12.0666 105.328 11.5681 104.725 11.5681H99.9868C99.8612 11.5681 99.748 11.6704 99.748 11.811V13.0125V51.5642V52.7657C99.748 52.8935 99.8486 53.0086 99.9868 53.0086H101.118C103.719 53.0086 105.843 50.8611 105.843 48.2024V14.1246C106.66 13.2171 107.477 12.7569 108.294 12.7569C109.551 12.7569 110.166 13.7667 110.166 15.7863V19.3015C110.166 19.4293 110.267 19.5443 110.405 19.5443H116.048C116.174 19.5443 116.287 19.4421 116.287 19.3015V18.4706C116.274 13.6133 114.226 11.1719 110.154 11.1719Z" fill="#001B72"/>
<path d="M120.434 3.11881V3.66845C120.434 5.38129 121.803 6.77457 123.487 6.77457C125.172 6.77457 126.541 5.38129 126.541 3.66845V3.11881C126.541 1.40597 125.172 0.0126953 123.487 0.0126953C121.803 0.0126953 120.434 1.40597 120.434 3.11881ZM120.672 11.5552C120.547 11.5552 120.434 11.6574 120.434 11.798V12.9996V48.1895C120.434 50.8354 122.545 52.9956 125.159 52.9956H126.328C126.453 52.9956 126.567 52.8934 126.567 52.7528V11.798C126.567 11.6702 126.466 11.5552 126.328 11.5552H120.672Z" fill="#001B72"/>
<path d="M146.5 13.5238C144.828 11.9516 142.717 11.1719 140.166 11.1719C137.614 11.1719 135.503 11.9516 133.819 13.5238C132.135 15.0961 131.293 17.0134 131.293 19.3015V45.2497C131.293 47.5377 132.135 49.4551 133.819 51.0273C135.503 52.5995 137.614 53.3793 140.166 53.3793C142.717 53.3793 144.828 52.5995 146.5 51.0273C148.171 49.4551 149.001 47.5377 149.001 45.2497V19.3015C149.013 17.0134 148.171 15.0961 146.5 13.5238ZM142.893 48.7393C142.893 50.8611 141.988 51.9349 140.178 51.9349C138.343 51.9349 137.426 50.8739 137.426 48.7393V15.7991C137.426 13.6772 138.343 12.6163 140.178 12.6163C141.988 12.6163 142.893 13.6772 142.893 15.7991V48.7393Z" fill="#001B72"/>
<path d="M14.7918 13.396C13.2837 11.9133 11.2478 11.1719 8.67146 11.1719C6.12026 11.1719 4.08434 11.9133 2.57624 13.396C1.11842 14.8276 0.351809 16.7066 0.301539 19.0586V19.0714C0.301539 19.1609 0.301539 19.2759 0.301539 19.3782C0.301539 19.4804 0.301536 19.5571 0.314103 19.5571H6.38418C6.40931 19.5571 6.42189 19.5443 6.42189 19.5188V15.8119C6.42189 13.69 7.17593 12.6163 8.68403 12.6163C10.2173 12.6163 10.9839 13.6772 10.9839 15.8119V22.855C10.9839 22.8805 10.9713 22.8933 10.9462 22.8933H9.11132C3.09151 22.8933 0.0878906 25.4626 0.0878906 30.5883V46.0678C0.0878906 50.9378 2.24949 53.3793 6.58526 53.3793C7.26391 53.3793 7.90484 53.3026 8.48294 53.162C8.89767 53.0597 9.32497 52.9958 9.75226 52.9958H11.009H11.0216H16.8277C16.9534 52.9958 17.0665 52.8935 17.0665 52.7529V19.3015C17.0414 16.8345 16.2873 14.866 14.7918 13.396ZM10.9085 49.0077C10.9085 50.8356 10.1293 51.7559 8.57092 51.7559C6.98742 51.7559 6.19567 50.8356 6.19567 49.0077V27.1498C6.19567 25.322 6.98742 24.4016 8.57092 24.4016C10.1293 24.4016 10.9085 25.322 10.9085 27.1498V49.0077Z" fill="#001B72"/>
</svg>
