<svg width="215" height="72" viewBox="0 0 215 72" fill="none" xmlns="http://www.w3.org/2000/svg">
<path d="M46.8128 15.111C44.3157 15.111 42.2529 15.7824 40.5881 17.1596C40.5881 16.316 39.8643 15.6446 38.9957 15.6446H32.1739C31.9929 15.6446 31.8301 15.7824 31.8301 15.9717V17.59V69.5119V71.1301C31.8301 71.3023 31.9748 71.4572 32.1739 71.4572H33.7663C37.512 71.4572 40.57 68.565 40.57 64.9842V63.6586H40.6062V19.105C41.7824 17.8827 42.9586 17.2629 44.1348 17.2629C45.9443 17.2629 46.8309 18.6229 46.8309 21.343V26.0772C46.8309 26.2494 46.9757 26.4043 47.1747 26.4043H55.2995C55.4804 26.4043 55.6433 26.2666 55.6433 26.0772V24.9582C55.6252 18.3991 52.6938 15.111 46.8128 15.111Z" fill="white"/>
<path d="M85.6264 26.4043V26.06C85.6264 22.9956 84.4321 20.3961 82.0254 18.2786C79.6188 16.1783 76.5788 15.111 72.9236 15.111C69.2503 15.111 66.2103 16.1611 63.7856 18.2786C61.3608 20.3961 60.1484 22.9784 60.1484 26.06V61.0074C60.1484 64.089 61.3608 66.6713 63.7856 68.7888C66.2103 70.9063 69.2503 71.9565 72.9236 71.9565C76.5969 71.9565 79.6369 70.9063 82.0435 68.7888C84.4502 66.6713 85.6445 64.089 85.6445 61.0074V56.7036C85.6445 56.5314 85.4997 56.3765 85.3007 56.3765H77.176C76.995 56.3765 76.8321 56.5142 76.8321 56.7036V65.7245C76.8321 68.5822 75.5293 70.0283 72.9236 70.0283C70.2817 70.0283 68.9608 68.5994 68.9608 65.7245V21.343C68.9608 18.4852 70.2817 17.0563 72.9236 17.0563C75.5293 17.0563 76.8321 18.4852 76.8321 21.343V26.4043H85.6264Z" fill="white"/>
<path d="M104.572 69.4946C101.93 69.4946 100.609 68.0658 100.609 65.208V17.5728H106.599C106.78 17.5728 106.943 17.435 106.943 17.2457V15.9545C106.943 15.7824 106.798 15.6274 106.599 15.6274H100.609V6.55487C100.609 2.97405 97.5693 0.0818481 93.8236 0.0818481H92.195C92.0141 0.0818481 91.8512 0.219572 91.8512 0.408942V15.6446H89.336C89.155 15.6446 88.9922 15.7824 88.9922 15.9717V17.2629C88.9922 17.435 89.137 17.59 89.336 17.59H91.8512V60.491C91.8512 63.5381 93.0455 66.1204 95.4522 68.2379C97.8588 70.3726 100.899 71.44 104.572 71.44H107.033C107.214 71.44 107.377 71.3023 107.377 71.1129V69.8217C107.377 69.6496 107.232 69.4946 107.033 69.4946H104.572Z" fill="white"/>
<path d="M136.512 32.8085C136.693 32.8085 136.855 32.6707 136.855 32.4814V26.06C136.855 22.9956 135.661 20.3961 133.254 18.2786C130.83 16.1783 127.79 15.111 124.135 15.111C120.461 15.111 117.421 16.1611 114.996 18.2786C112.572 20.3961 111.359 22.9784 111.359 26.06V61.0074C111.359 64.089 112.572 66.6713 114.996 68.7888C117.421 70.9063 120.461 71.9565 124.135 71.9565C127.808 71.9565 130.848 70.9063 133.254 68.7888C135.661 66.6713 136.855 64.089 136.855 61.0074V56.7036C136.855 56.5314 136.711 56.3765 136.512 56.3765H128.387C128.206 56.3765 128.043 56.5142 128.043 56.7036V65.7245C128.043 68.5822 126.74 70.0283 124.135 70.0283C121.493 70.0283 120.172 68.5994 120.172 65.7245V32.8085H136.512ZM120.154 21.343C120.154 18.4852 121.475 17.0563 124.116 17.0563C126.722 17.0563 128.025 18.4852 128.025 21.343V30.8631H120.154V21.343Z" fill="white"/>
<path d="M158.588 15.111C156.091 15.111 154.01 15.7824 152.364 17.1596C152.364 16.316 151.64 15.6446 150.771 15.6446H143.949C143.768 15.6446 143.605 15.7824 143.605 15.9717V17.59V69.5119V71.1301C143.605 71.3023 143.75 71.4572 143.949 71.4572H145.578C149.324 71.4572 152.382 68.565 152.382 64.9842V19.105C153.558 17.8827 154.734 17.2629 155.91 17.2629C157.72 17.2629 158.606 18.6229 158.606 21.343V26.0772C158.606 26.2494 158.751 26.4043 158.95 26.4043H167.075C167.256 26.4043 167.419 26.2666 167.419 26.0772V24.9582C167.401 18.3991 164.469 15.111 158.588 15.111Z" fill="white"/>
<path d="M173.407 4.26521V5.00547C173.407 7.31235 175.379 9.18883 177.804 9.18883C180.229 9.18883 182.201 7.31235 182.201 5.00547V4.26521C182.219 1.95833 180.247 0.0818481 177.804 0.0818481C175.379 0.0818481 173.407 1.95833 173.407 4.26521ZM173.732 15.6446C173.552 15.6446 173.389 15.7824 173.389 15.9717V17.59V64.9842C173.389 68.5478 176.429 71.4572 180.192 71.4572H181.875C182.056 71.4572 182.219 71.3195 182.219 71.1301V15.9717C182.219 15.7996 182.074 15.6446 181.875 15.6446H173.732Z" fill="white"/>
<path d="M210.936 18.2786C208.529 16.1611 205.489 15.111 201.816 15.111C198.143 15.111 195.103 16.1611 192.678 18.2786C190.253 20.3961 189.041 22.9784 189.041 26.06V61.0074C189.041 64.089 190.253 66.6713 192.678 68.7888C195.103 70.9063 198.143 71.9565 201.816 71.9565C205.489 71.9565 208.529 70.9063 210.936 68.7888C213.343 66.6713 214.537 64.089 214.537 61.0074V26.06C214.537 22.9956 213.343 20.3961 210.936 18.2786ZM205.725 65.7245C205.725 68.5822 204.422 70.0283 201.816 70.0283C199.174 70.0283 197.853 68.5994 197.853 65.7245V21.343C197.853 18.4852 199.174 17.0563 201.816 17.0563C204.422 17.0563 205.725 18.4852 205.725 21.343V65.7245Z" fill="white"/>
<path d="M21.2812 18.1065C19.1098 16.1095 16.1784 15.111 12.4689 15.111C8.79555 15.111 5.86414 16.1095 3.69273 18.1065C1.5756 20.0346 0.48989 22.5653 0.417509 25.7329V25.7501C0.417509 25.8706 0.417509 26.0256 0.417509 26.1633C0.417509 26.301 0.417509 26.4043 0.435604 26.4043H9.17555C9.21174 26.4043 9.22984 26.3871 9.22984 26.3527V21.3602C9.22984 18.5024 10.3155 17.0563 12.487 17.0563C14.6946 17.0563 15.7984 18.4852 15.7984 21.3602V30.8459C15.7984 30.8803 15.7803 30.8976 15.7441 30.8976H13.0841C4.41653 30.8976 0.0917969 34.3579 0.0917969 41.2613V62.1264C0.0917969 68.6855 3.20416 71.9737 9.44698 71.9737C10.4241 71.9737 11.347 71.8704 12.1793 71.681C12.7765 71.5433 13.3917 71.4572 14.0069 71.4572H15.8165H15.8346H24.1945C24.3755 71.4572 24.5383 71.3195 24.5383 71.1301V26.06C24.5383 22.7374 23.4526 20.1034 21.2812 18.1065ZM15.6898 66.0688C15.6898 68.5306 14.5679 69.7701 12.3241 69.7701C10.0441 69.7701 8.90412 68.5306 8.90412 66.0688V36.6303C8.90412 34.1685 10.0441 32.929 12.3241 32.929C14.5679 32.929 15.6898 34.1685 15.6898 36.6303V66.0688Z" fill="white"/>
</svg>
