<svg width="30" height="30" viewBox="0 0 30 30" fill="none" xmlns="http://www.w3.org/2000/svg">
<path d="M20.6349 0H9.36508C4.17989 0 0 4.17989 0 9.36508V20.6349C0 25.8201 4.17989 30 9.36508 30H20.6349C25.8201 30 30 25.8201 30 20.6349V9.36508C30 4.17989 25.8201 0 20.6349 0ZM27.1958 20.6349C27.1958 24.2328 24.2328 27.1958 20.6349 27.1958H9.36508C5.7672 27.1958 2.80423 24.2328 2.80423 20.6349V9.36508C2.80423 5.7672 5.7672 2.80423 9.36508 2.80423H20.6349C24.2328 2.80423 27.1958 5.7672 27.1958 9.36508V20.6349Z" fill="#001B72"/>
<path d="M14.9742 7.51318C10.8472 7.51318 7.46094 10.8465 7.46094 15.0264C7.46094 19.2063 10.7943 22.5396 14.9742 22.5396C19.1541 22.5396 22.4874 19.2063 22.4874 15.0264C22.4874 10.8465 19.1541 7.51318 14.9742 7.51318ZM14.9742 19.6825C12.3816 19.6825 10.2652 17.5661 10.2652 14.9735C10.2652 12.3809 12.3816 10.2645 14.9742 10.2645C17.5668 10.2645 19.6832 12.3809 19.6832 14.9735C19.6832 17.5661 17.5668 19.6825 14.9742 19.6825Z" fill="#001B72"/>
<path d="M23.0678 7.93636C23.623 7.93636 24.0731 7.48628 24.0731 6.93107C24.0731 6.37587 23.623 5.92578 23.0678 5.92578C22.5126 5.92578 22.0625 6.37587 22.0625 6.93107C22.0625 7.48628 22.5126 7.93636 23.0678 7.93636Z" fill="#001B72"/>
</svg>
