<svg width="30" height="30" viewBox="0 0 30 30" fill="none" xmlns="http://www.w3.org/2000/svg">
<path d="M22.4868 2.6455C25.1852 2.6455 27.3545 4.86772 27.4074 7.51323V22.4868C27.4074 25.1852 25.2381 27.3545 22.5397 27.3545H7.51323C4.81482 27.3545 2.6455 25.1852 2.6455 22.4868V7.51323C2.6455 4.81482 4.81482 2.6455 7.51323 2.6455H22.4868ZM22.4868 0H7.51323C3.38624 0 0 3.38624 0 7.51323V22.4868C0 26.6138 3.38624 30 7.51323 30H22.4868C26.6138 30 30 26.6138 30 22.4868V7.51323C30 3.38624 26.6138 0 22.4868 0Z" fill="#FFFFFE"/>
<path d="M8.30709 4.39156C7.61925 4.39156 7.03724 4.65611 6.56105 5.07939C6.08486 5.55558 5.82031 6.1905 5.82031 6.82542C5.82031 7.51325 6.08486 8.09526 6.56105 8.57145C7.03724 9.04764 7.67216 9.31219 8.25418 9.25928H8.30709C8.94201 9.25928 9.47111 8.99473 9.9473 8.57145C10.4235 8.09526 10.688 7.51325 10.688 6.82542C10.7409 6.1905 10.4235 5.55558 10.0002 5.1323C9.57693 4.6032 8.99492 4.39156 8.30709 4.39156ZM9.57693 8.14817C9.25947 8.46563 8.78328 8.67727 8.30709 8.67727C7.83089 8.67727 7.3547 8.51854 7.03724 8.14817C6.66687 7.83071 6.50814 7.30161 6.50814 6.82542C6.50814 6.34923 6.66687 5.87304 7.03724 5.50267C7.3547 5.18521 7.83089 4.97357 8.36 4.97357C8.83619 4.97357 9.25947 5.1323 9.62984 5.50267C10.0002 5.87304 10.1589 6.34923 10.1589 6.82542C10.1589 7.30161 9.9473 7.7778 9.57693 8.14817Z" fill="#FFFFFE" stroke="#FFFFFE" stroke-miterlimit="10"/>
<path d="M9.52492 11.4815H7.03814C6.56195 11.4815 6.13867 11.8518 6.13867 12.3809V23.0688C6.13867 23.545 6.56195 23.9682 7.03814 23.9682H9.52492C10.0011 23.9682 10.4244 23.545 10.4244 23.0688V12.3809C10.4244 11.9048 10.0011 11.4815 9.52492 11.4815ZM9.84238 23.1217C9.84238 23.2804 9.68365 23.3862 9.52492 23.3862H7.09105C6.93232 23.3862 6.77359 23.2275 6.77359 23.0688V12.3809C6.77359 12.2222 6.87941 12.0635 7.03814 12.0635H9.52492C9.68365 12.0635 9.84238 12.2222 9.84238 12.3809V23.1217Z" fill="#FFFFFE" stroke="#FFFFFE" stroke-miterlimit="10"/>
<path d="M19.8939 11.164H19.259C18.0949 11.164 16.9309 11.6931 16.1902 12.4868V12.0635C16.1902 11.746 15.8727 11.4286 15.5553 11.4286H12.4865C12.2219 11.4286 11.8516 11.6931 11.8516 12.0106V23.3863C11.8516 23.7037 12.169 23.9154 12.4865 23.9154H15.8727C16.1373 23.9154 16.5076 23.7037 16.5076 23.3863V16.8783C16.5076 15.873 17.2484 15.0794 18.2008 15.0794C18.677 15.0794 19.1531 15.2381 19.4706 15.6085C19.7881 15.873 19.8939 16.2963 19.8939 16.8783V23.4392C19.8939 23.7566 20.2114 24.0741 20.5288 24.0741H23.5976C23.9151 24.0741 24.2325 23.7566 24.2325 23.4392V15.5027C24.1796 13.0688 22.2748 11.164 19.8939 11.164ZM23.5447 23.3333L20.5288 23.3863L20.4759 16.8254C20.4759 16.0847 20.3172 15.5556 19.8939 15.1323C19.4177 14.6561 18.8357 14.4445 18.2008 14.4445C16.9309 14.4974 15.9256 15.5027 15.9256 16.8783V23.3863H12.5923V12.1164H15.6082L15.6611 12.1693V14.0741L16.5076 13.2275L16.5606 13.1746C17.1955 12.3281 18.2537 11.746 19.3648 11.746H19.9997C22.0632 11.746 23.6505 13.3863 23.6505 15.4497V23.3333H23.5447Z" fill="#FFFFFE" stroke="#FFFFFE" stroke-miterlimit="10"/>
</svg>
