<svg width="69" height="86" viewBox="0 0 69 86" fill="none" xmlns="http://www.w3.org/2000/svg">
<path d="M67.1622 82.0368C66.0995 83.8297 64.222 85.0074 62.1497 85.2007C61.6183 85.2535 61.0869 85.271 60.5556 85.271C47.7142 85.271 39.9917 79.2596 33.7748 74.4082C29.0987 70.7697 25.4146 67.9045 20.6146 67.9045C16.0626 67.9045 12.8035 69.9259 10.6604 74.0918C8.85373 77.5897 8.19838 82.0016 8.19838 84.7437C8.19838 84.7789 8.18067 84.7964 8.14525 84.7964H0.103918C0.068494 84.7964 0.0507812 84.7789 0.0507812 84.7437C0.0507812 82.8278 0.316464 76.3944 3.41609 70.4181C4.49654 68.3264 5.80724 66.5159 7.31277 65.0218C10.7666 61.6118 15.2655 59.8365 20.6146 59.8365C24.1748 59.8365 27.2567 60.7505 30.0375 62.1391C33.208 63.7211 36.0242 65.9007 38.7873 68.0627C43.2862 71.5606 48.1925 74.9355 54.4626 76.5702C58.4655 77.6073 58.6958 76.3944 57.3497 73.1075L34.4655 20.7091C34.4478 20.6564 34.377 20.6564 34.3593 20.7091L20.1364 53.0692C16.222 53.1571 12.7681 54.2293 9.88104 56.2331L34.3947 0.459959C34.4124 0.407227 34.4832 0.407227 34.501 0.459959L67.5342 76.1308C68.3666 78.0467 68.2249 80.2615 67.1622 82.0368Z" fill="#FFB648"/>
</svg>
