<svg width="729" height="950" viewBox="0 0 729 950" fill="none" xmlns="http://www.w3.org/2000/svg">
<path d="M719.057 912.948C707.273 933.296 687.633 945.505 665.375 948.218C660.138 949.574 654.901 949.574 648.354 949.574C510.878 949.574 428.392 881.747 361.618 827.486C311.865 786.79 272.586 754.233 220.214 754.233C171.77 754.233 136.419 777.294 112.852 823.416C93.2121 862.756 86.6656 911.591 86.6656 942.791H0.251953C0.251953 921.087 2.87055 849.191 36.9123 782.72C48.696 759.659 63.0982 739.311 78.8098 723.033C115.47 685.05 163.914 664.702 221.523 664.702C259.493 664.702 292.225 675.554 322.339 690.476C356.381 708.111 386.495 732.529 416.609 756.946C465.053 796.286 517.425 834.269 584.199 851.904C627.406 864.112 630.024 850.547 615.622 812.564L369.474 226.541H368.165L214.977 588.736C173.079 590.092 136.419 602.301 104.996 624.006L368.165 0H369.474L722.984 846.477C732.149 868.182 730.84 892.6 719.057 912.948Z" fill="#FFB648" fill-opacity="0.5"/>
</svg>
