<svg width="50" height="49" viewBox="0 0 50 49" fill="none" xmlns="http://www.w3.org/2000/svg">
<path d="M33.9827 0.0900879H15.6736C7.24968 0.0900879 0.458984 6.88079 0.458984 15.3047V33.6138C0.458984 42.0377 7.24968 48.8284 15.6736 48.8284H33.9827C42.4066 48.8284 49.1973 42.0377 49.1973 33.6138V15.3047C49.1973 6.88079 42.4066 0.0900879 33.9827 0.0900879ZM44.6415 33.6138C44.6415 39.459 39.8279 44.2726 33.9827 44.2726H15.6736C9.82843 44.2726 5.01477 39.459 5.01477 33.6138V15.3047C5.01477 9.45953 9.82843 4.64587 15.6736 4.64587H33.9827C39.8279 4.64587 44.6415 9.45953 44.6415 15.3047V33.6138Z" fill="white"/>
<path d="M24.7861 12.2959C18.0814 12.2959 12.5801 17.7113 12.5801 24.502C12.5801 31.2927 17.9954 36.708 24.7861 36.708C31.5768 36.708 36.9922 31.2927 36.9922 24.502C36.9922 17.7113 31.5768 12.2959 24.7861 12.2959ZM24.7861 32.0663C20.5742 32.0663 17.1359 28.628 17.1359 24.416C17.1359 20.2041 20.5742 16.7657 24.7861 16.7657C28.9981 16.7657 32.4364 20.2041 32.4364 24.416C32.4364 28.628 28.9981 32.0663 24.7861 32.0663Z" fill="white"/>
<path d="M37.9379 12.9835C38.8399 12.9835 39.5711 12.2522 39.5711 11.3502C39.5711 10.4483 38.8399 9.71704 37.9379 9.71704C37.0359 9.71704 36.3047 10.4483 36.3047 11.3502C36.3047 12.2522 37.0359 12.9835 37.9379 12.9835Z" fill="white"/>
</svg>
