<svg width="1329" height="1703" viewBox="0 0 1329 1703" fill="none" xmlns="http://www.w3.org/2000/svg">
<path d="M1310.45 1636.54C1288.97 1673.02 1253.16 1694.9 1212.58 1699.77C1203.03 1702.2 1193.49 1702.2 1181.55 1702.2C930.92 1702.2 780.54 1580.61 658.805 1483.34C568.1 1410.39 496.491 1352.03 401.012 1352.03C312.694 1352.03 248.245 1393.37 205.28 1476.05C169.475 1546.57 157.54 1634.11 157.54 1690.04H0C0 1651.13 4.77395 1522.25 66.8353 1403.1C88.318 1361.76 114.575 1325.28 143.218 1296.1C210.054 1228.01 298.372 1191.54 403.399 1191.54C472.621 1191.54 532.295 1210.99 587.196 1237.74C649.257 1269.35 704.157 1313.12 759.058 1356.89C847.376 1427.41 942.855 1495.5 1064.59 1527.11C1143.36 1549 1148.13 1524.68 1121.88 1456.59L673.127 406.096H670.74L391.464 1055.36C315.081 1057.79 248.245 1079.68 190.958 1118.59L670.74 0H673.127L1317.61 1517.39C1334.32 1556.29 1331.93 1600.07 1310.45 1636.54Z" fill="#FFB648" fill-opacity="0.5"/>
</svg>
