<svg width="127" height="177" viewBox="0 0 127 177" fill="none" xmlns="http://www.w3.org/2000/svg">
<path d="M88.3847 63.0723C84.6662 59.663 79.8036 57.6742 73.7968 57.6742C67.7901 57.6742 62.9275 59.663 59.209 63.0723C55.2045 66.4816 53.4883 71.0273 53.4883 76.1413V109.382C53.4883 114.496 55.4905 118.758 59.209 122.451C59.209 122.451 59.209 122.451 59.495 122.451V124.156C59.495 126.429 61.4973 128.417 63.7856 128.417H84.3802C86.6685 128.417 88.6707 126.429 88.6707 124.156V122.451C88.6707 122.451 88.6707 122.451 88.9567 122.167C92.6752 118.758 94.6775 114.212 94.6775 109.098V76.1413C94.1054 71.0273 92.1031 66.7657 88.3847 63.0723ZM91.245 108.814H75.7991V81.5394H72.3667V108.814H56.6347V77.2777C56.6347 73.0161 58.3509 69.3227 61.4973 66.4816C64.9297 63.3564 68.9342 61.9358 74.0829 61.9358C79.2315 61.9358 83.236 63.3564 86.6685 66.4816C89.8148 69.3227 91.5311 73.0161 91.5311 77.2777V108.814H91.245Z" fill="#001B72"/>
<path d="M84.6665 129.554H62.9277V135.52H84.6665V129.554Z" fill="#001B72"/>
<path d="M71.794 142.623H75.7985C77.2286 142.623 78.3728 141.486 78.3728 140.066V136.656H68.9336V139.782C68.9336 141.202 70.3638 142.623 71.794 142.623Z" fill="#001B72"/>
<path d="M74.9406 28.9791H72.6523V50.5714H74.9406V28.9791Z" fill="#001B72"/>
<path d="M108.725 42.0976L93.3535 57.3655L94.9716 58.9726L110.343 43.7047L108.725 42.0976Z" fill="#001B72"/>
<path d="M38.6688 42.2097L37.0508 43.8169L52.4222 59.0848L54.0403 57.4777L38.6688 42.2097Z" fill="#001B72"/>
<path d="M73.2252 177C58.0653 177 45.1937 172.17 35.1824 163.079L40.9032 156.828C49.4842 164.783 60.0676 168.477 73.2252 168.477C86.3829 168.477 96.9662 164.783 105.547 156.828C114.128 149.157 118.133 139.782 118.133 128.701V48.5827C118.133 37.2183 114.128 28.1268 105.547 20.4559C97.2523 12.2167 86.3829 8.52328 73.2252 8.52328C60.0676 8.52328 49.4842 12.2167 40.9032 20.1718C32.3221 27.8427 28.3176 37.2183 28.3176 48.2986V129.554L7.1509 162.51L0 157.681L19.7365 126.997V48.5827C19.7365 34.9454 24.8851 23.297 35.1824 13.9213C45.1937 4.54575 58.0653 0 73.2252 0C88.6712 0 101.543 4.54575 111.554 13.9213C121.851 23.297 127 34.9454 127 48.5827V128.417C127 142.055 121.851 153.703 111.554 163.079C101.543 172.17 88.6712 177 73.2252 177Z" fill="#001B72"/>
</svg>
