<svg width="85" height="119" viewBox="0 0 85 119" fill="none" xmlns="http://www.w3.org/2000/svg">
<path d="M59.1566 42.4045C56.6679 40.1123 53.4134 38.7753 49.3931 38.7753C45.3729 38.7753 42.1183 40.1123 39.6296 42.4045C36.9494 44.6966 35.8008 47.7528 35.8008 51.191V73.5393C35.8008 76.9775 37.1409 79.8427 39.6296 82.3258C39.6296 82.3258 39.6296 82.3258 39.821 82.3258V83.4719C39.821 85 41.1611 86.3371 42.6927 86.3371H56.4765C58.008 86.3371 59.3481 85 59.3481 83.4719V82.3258C59.3481 82.3258 59.3481 82.3258 59.5395 82.1348C62.0283 79.8427 63.3683 76.7865 63.3683 73.3483V51.191C62.9855 47.7528 61.6454 44.8876 59.1566 42.4045ZM61.071 73.1573H50.7332V54.8202H48.4359V73.1573H37.9066V51.955C37.9066 49.0899 39.0553 46.6067 41.1611 44.6966C43.4584 42.5955 46.1386 41.6404 49.5846 41.6404C53.0305 41.6404 55.7107 42.5955 58.008 44.6966C60.1138 46.6067 61.2625 49.0899 61.2625 51.955V73.1573H61.071Z" fill="#001B72"/>
<path d="M56.6667 87.1011H42.1172V91.1123H56.6667V87.1011Z" fill="#001B72"/>
<path d="M48.0531 95.8877H50.7333C51.6905 95.8877 52.4562 95.1237 52.4562 94.1686V91.8765H46.1387V93.9776C46.1387 94.9327 47.0959 95.8877 48.0531 95.8877Z" fill="#001B72"/>
<path d="M50.1585 19.4832H48.627V34H50.1585V19.4832Z" fill="#001B72"/>
<path d="M72.7685 28.3029L62.4805 38.5677L63.5634 39.6483L73.8514 29.3834L72.7685 28.3029Z" fill="#001B72"/>
<path d="M25.8818 28.3784L24.7988 29.4589L35.0868 39.7237L36.1698 38.6432L25.8818 28.3784Z" fill="#001B72"/>
<path d="M49.009 119C38.8626 119 30.2477 115.753 23.5473 109.64L27.3761 105.438C33.1194 110.787 40.2027 113.27 49.009 113.27C57.8153 113.27 64.8987 110.787 70.6419 105.438C76.3851 100.281 79.0653 93.9775 79.0653 86.5281V32.6629C79.0653 25.0225 76.3851 18.9101 70.6419 13.7528C65.0901 8.21348 57.8153 5.73034 49.009 5.73034C40.2027 5.73034 33.1194 8.21348 27.3761 13.5618C21.6329 18.7191 18.9527 25.0225 18.9527 32.4719V87.1011L4.78604 109.258L0 106.011L13.2095 85.382V32.6629C13.2095 23.4944 16.6554 15.6629 23.5473 9.35955C30.2477 3.05618 38.8626 0 49.009 0C59.3468 0 67.9617 3.05618 74.6622 9.35955C81.5541 15.6629 85 23.4944 85 32.6629V86.3371C85 95.5056 81.5541 103.337 74.6622 109.64C67.9617 115.753 59.3468 119 49.009 119Z" fill="#001B72"/>
</svg>
