<svg width="90" height="90" viewBox="0 0 90 90" fill="none" xmlns="http://www.w3.org/2000/svg">
<path d="M43.9928 77.2977C39.5005 77.2977 35.3181 76.3683 31.2906 74.5094L30.516 74.3545C25.4041 71.876 20.9119 68.0034 17.8138 63.0464C17.3491 62.4268 17.0393 61.8072 16.7294 61.1876C14.251 56.6953 13.0117 51.5834 13.0117 46.4715V46.3166C13.0117 29.432 26.9532 15.4905 43.8379 15.4905H44.7673V16.4199V46.0068C47.2458 47.5559 59.1735 54.2168 73.2699 45.697L74.6641 44.9225V46.4715C74.819 63.5111 61.0324 77.2977 43.9928 77.2977ZM43.0634 17.3493C27.4179 17.969 14.8706 30.6712 14.8706 46.3166V46.4715C14.8706 51.2736 16.1098 56.0757 18.4334 60.2581C18.7432 60.8777 19.053 61.4974 19.5177 61.9621C22.4609 66.6092 26.4885 70.1721 31.4455 72.4956L32.0651 72.8055C35.7828 74.5094 39.8103 75.4388 43.9928 75.4388C59.4833 75.4388 72.1856 63.2013 73.115 48.0206C57.0048 56.8502 43.683 47.2461 43.5281 47.0912L43.2183 46.7814V45.3872H43.3732L43.0634 17.3493Z" fill="#001B72"/>
<path d="M67.229 29.1222C64.5956 25.5594 61.0328 22.6162 57.1602 20.6024L57.9347 19.0533C62.1171 21.222 65.8349 24.3201 68.6231 28.0379L67.229 29.1222Z" fill="#001B72"/>
<path d="M44.9233 46.4716H43.0645V90H44.9233V46.4716Z" fill="#001B72"/>
<path d="M43.0645 46.4716V0H44.7684V46.4716H43.0645Z" fill="#001B72"/>
<path d="M90.0008 47.401H74.0455L73.8906 45.5421H90.0008V47.401Z" fill="#001B72"/>
<path d="M43.8382 45.5421H0V47.401H43.8382V45.5421Z" fill="#001B72"/>
<path d="M73.8895 46.4716C57.6245 56.2306 43.8379 46.4716 43.8379 46.4716H43.9928V16.5748C48.3301 16.5748 52.5126 17.5043 56.3852 19.2082C56.8499 19.3631 57.3147 19.6729 57.6245 19.8278C61.652 21.9965 65.2148 24.9397 68.0031 28.6574C68.3129 28.9673 68.6227 29.432 68.7777 29.7418C69.2424 30.3614 69.5522 30.981 70.0169 31.6006C72.4954 35.938 73.8895 41.0499 73.8895 46.4716Z" fill="#001B72"/>
<path d="M43.8381 46.4716V76.5232C27.4182 76.5232 13.9414 62.8915 13.9414 46.4716C23.8553 28.5026 42.5989 45.697 43.8381 46.4716Z" fill="#001B72"/>
<path d="M43.9934 77.6075C26.7989 77.6075 12.8574 63.666 12.8574 46.4715C12.8574 29.2771 26.7989 15.3356 43.9934 15.3356C61.1879 15.3356 75.1294 29.2771 75.1294 46.4715C75.1294 63.666 61.1879 77.6075 43.9934 77.6075ZM43.9934 17.6592C28.193 17.6592 15.181 30.5163 15.181 46.4715C15.181 62.2719 28.0381 75.2839 43.9934 75.2839C59.9486 75.2839 72.8058 62.2719 72.8058 46.4715C72.8058 30.5163 59.7937 17.6592 43.9934 17.6592Z" fill="#001B72"/>
</svg>
