<svg width="65" height="65" viewBox="0 0 65 65" fill="none" xmlns="http://www.w3.org/2000/svg">
<path d="M31.7737 55.8263C28.5292 55.8263 25.5086 55.155 22.5998 53.8125L22.0404 53.7007C18.3485 51.9106 15.1041 49.1137 12.8666 45.5337C12.531 45.0862 12.3072 44.6387 12.0835 44.1912C10.2934 40.9468 9.39844 37.2549 9.39844 33.563V33.4511C9.39844 21.2566 19.4673 11.1877 31.6618 11.1877H32.333V11.859V33.2273C34.123 34.3461 42.7375 39.1568 52.9182 33.0036L53.9251 32.4442V33.563C54.037 45.8693 44.08 55.8263 31.7737 55.8263ZM31.1024 12.5303C19.8029 12.9778 10.741 22.1516 10.741 33.4511V33.563C10.741 37.0311 11.636 40.4993 13.3141 43.5199C13.5379 43.9674 13.7616 44.4149 14.0972 44.7506C16.2229 48.1068 19.1317 50.68 22.7117 52.3581L23.1592 52.5819C25.8442 53.8125 28.753 54.4838 31.7737 54.4838C42.9613 54.4838 52.1351 45.6456 52.8064 34.6817C41.1712 41.0587 31.5499 34.1223 31.438 34.0105L31.2143 33.7867V32.7798H31.3261L31.1024 12.5303Z" fill="#001B72"/>
<path d="M48.5532 21.0329C46.6513 18.4598 44.0782 16.3341 41.2812 14.8797L41.8406 13.761C44.8613 15.3273 47.5463 17.5648 49.5601 20.2498L48.5532 21.0329Z" fill="#001B72"/>
<path d="M32.446 33.5627H31.1035V64.9999H32.446V33.5627Z" fill="#001B72"/>
<path d="M31.1035 33.5628V0H32.3342V33.5628H31.1035Z" fill="#001B72"/>
<path d="M65.0003 34.2341H53.4771L53.3652 32.8916H65.0003V34.2341Z" fill="#001B72"/>
<path d="M31.6609 32.8916H0V34.2341H31.6609V32.8916Z" fill="#001B72"/>
<path d="M53.3661 33.563C41.6191 40.6112 31.6621 33.563 31.6621 33.563H31.774V11.9709C34.9065 11.9709 37.9272 12.6422 40.7241 13.8728C41.0597 13.9847 41.3953 14.2085 41.6191 14.3203C44.5279 15.8866 47.101 18.0123 49.1148 20.6973C49.3385 20.921 49.5623 21.2567 49.6742 21.4804C50.0098 21.9279 50.2335 22.3754 50.5692 22.8229C52.3592 25.9555 53.3661 29.6474 53.3661 33.563Z" fill="#001B72"/>
<path d="M31.6604 33.5629V55.2668C19.8016 55.2668 10.0684 45.4217 10.0684 33.5629C17.2284 20.5852 30.7654 33.0035 31.6604 33.5629Z" fill="#001B72"/>
<path d="M31.7742 56.0501C19.356 56.0501 9.28711 45.9813 9.28711 33.563C9.28711 21.1448 19.356 11.0759 31.7742 11.0759C44.1924 11.0759 54.2613 21.1448 54.2613 33.563C54.2613 45.9813 44.1924 56.0501 31.7742 56.0501ZM31.7742 12.7541C20.3628 12.7541 10.9653 22.0398 10.9653 33.563C10.9653 44.9744 20.251 54.372 31.7742 54.372C43.2974 54.372 52.5831 44.9744 52.5831 33.563C52.5831 22.0398 43.1856 12.7541 31.7742 12.7541Z" fill="#001B72"/>
</svg>
