<svg width="82" height="82" viewBox="0 0 82 82" fill="none" xmlns="http://www.w3.org/2000/svg">
<path d="M40.0827 70.4269C35.9897 70.4269 32.179 69.5801 28.5095 67.8864L27.8038 67.7453C23.1463 65.4871 19.0534 61.9587 16.2307 57.4424C15.8073 56.8778 15.525 56.3133 15.2427 55.7488C12.9846 51.6558 11.8555 46.9983 11.8555 42.3408V42.1997C11.8555 26.8159 24.5577 14.1136 39.9415 14.1136H40.7883V14.9605V41.9174C43.0465 43.3288 53.914 49.3976 66.7574 41.6352L68.0276 40.9295V42.3408C68.1687 57.8658 55.6076 70.4269 40.0827 70.4269ZM39.2358 15.8073C24.9811 16.3718 13.5491 27.945 13.5491 42.1997V42.3408C13.5491 46.7161 14.6782 51.0913 16.7952 54.9019C17.0775 55.4665 17.3598 56.031 17.7832 56.4544C20.4648 60.6885 24.1343 63.9346 28.6506 66.0517L29.2152 66.334C32.6025 67.8865 36.272 68.7333 40.0827 68.7333C54.1963 68.7333 65.7694 57.5835 66.6162 43.7522C51.9381 51.797 39.8004 43.0465 39.6593 42.9054L39.377 42.6231V41.3529H39.5181L39.2358 15.8073Z" fill="#F3F6FF"/>
<path d="M61.2539 26.5336C58.8546 23.2875 55.6085 20.6059 52.0801 18.7711L52.7858 17.3597C56.5964 19.3356 59.9837 22.1584 62.5241 25.5456L61.2539 26.5336Z" fill="#F3F6FF"/>
<path d="M40.93 42.3408H39.2363V82H40.93V42.3408Z" fill="#F3F6FF"/>
<path d="M39.2363 42.3408V0H40.7888V42.3408H39.2363Z" fill="#F3F6FF"/>
<path d="M82.0004 43.1877H67.4634L67.3223 41.494H82.0004V43.1877Z" fill="#F3F6FF"/>
<path d="M39.9415 41.494H0V43.1877H39.9415V41.494Z" fill="#F3F6FF"/>
<path d="M67.3218 42.3408C52.5025 51.2324 39.9414 42.3408 39.9414 42.3408H40.0825V15.1016C44.0343 15.1016 47.845 15.9484 51.3734 17.5009C51.7968 17.642 52.2202 17.9243 52.5025 18.0654C56.172 20.0413 59.4182 22.7229 61.9586 26.1102C62.2409 26.3924 62.5232 26.8159 62.6643 27.0981C63.0877 27.6627 63.37 28.2272 63.7934 28.7918C66.0516 32.7436 67.3218 37.401 67.3218 42.3408Z" fill="#F3F6FF"/>
<path d="M39.9424 42.3407V69.7211C24.982 69.7211 12.7031 57.3012 12.7031 42.3407C21.7358 25.969 38.8133 41.6351 39.9424 42.3407Z" fill="#F3F6FF"/>
<path d="M40.0832 70.7091C24.4171 70.7091 11.7148 58.0068 11.7148 42.3407C11.7148 26.6746 24.4171 13.9724 40.0832 13.9724C55.7493 13.9724 68.4515 26.6746 68.4515 42.3407C68.4515 58.0068 55.7493 70.7091 40.0832 70.7091ZM40.0832 16.0895C25.6873 16.0895 13.8319 27.8037 13.8319 42.3407C13.8319 56.7366 25.5462 68.592 40.0832 68.592C54.6202 68.592 66.3345 56.7366 66.3345 42.3407C66.3345 27.8037 54.479 16.0895 40.0832 16.0895Z" fill="#F3F6FF"/>
</svg>
