<svg width="25" height="43" viewBox="0 0 25 43" fill="none" xmlns="http://www.w3.org/2000/svg">
<path d="M25 11.2819V31.6972C25 34.8684 23.8178 37.536 21.4638 39.7101C19.0995 41.8894 16.1236 42.979 12.5257 42.979C8.92784 42.979 5.94161 41.8894 3.56188 39.7101C1.18729 37.5411 0 34.8736 0 31.7023V11.2819C0 8.11061 1.18729 5.43791 3.56188 3.26377C5.94161 1.08964 8.92784 0 12.5257 0C16.1236 0 19.0995 1.08964 21.4638 3.26891C23.8178 5.44305 25 8.11575 25 11.2819Z" fill="#001B72"/>
<path d="M22.1017 32.4682C21.7933 32.9924 21.2485 33.3368 20.6471 33.3933C20.4929 33.4088 20.3387 33.4139 20.1845 33.4139C16.4582 33.4139 14.2172 31.6561 12.4131 30.2375C11.0562 29.1736 9.98715 28.3358 8.59426 28.3358C7.27333 28.3358 6.32761 28.9268 5.7057 30.145C5.18144 31.1678 4.99126 32.4579 4.99126 33.2597C4.99126 33.27 4.98612 33.2751 4.97584 33.2751H2.64237C2.63209 33.2751 2.62695 33.27 2.62695 33.2597C2.62695 32.6995 2.70405 30.8183 3.60352 29.0708C3.91704 28.4591 4.29739 27.9297 4.73427 27.4928C5.73653 26.4957 7.04204 25.9766 8.59426 25.9766C9.62737 25.9766 10.5217 26.2439 11.3286 26.6499C12.2487 27.1125 13.0659 27.7498 13.8677 28.382C15.1732 29.4049 16.5969 30.3917 18.4164 30.8697C19.578 31.1729 19.6448 30.8183 19.2542 29.8572L12.6136 14.5354C12.6084 14.52 12.5879 14.52 12.5828 14.5354L8.45549 23.9978C7.31959 24.0235 6.31733 24.337 5.47954 24.9229L12.593 8.61435C12.5982 8.59893 12.6187 8.59893 12.6239 8.61435L22.2096 30.7412C22.4512 31.3014 22.4101 31.9491 22.1017 32.4682Z" fill="#FFB648"/>
</svg>
