<svg width="26" height="13" viewBox="0 0 26 13" fill="none" xmlns="http://www.w3.org/2000/svg">
<path d="M25.0406 2.21445H0.95941C0.42214 2.21445 0 1.79645 0 1.26445C0 0.732453 0.42214 0.314453 0.95941 0.314453H25.0406C25.5779 0.314453 26 0.732453 26 1.26445C26 1.79645 25.5779 2.21445 25.0406 2.21445Z" fill="#001B72"/>
<path d="M25.0406 7.43955H0.95941C0.42214 7.43955 0 7.02155 0 6.48955C0 5.95755 0.42214 5.53955 0.95941 5.53955H25.0406C25.5779 5.53955 26 5.95755 26 6.48955C26 7.02155 25.5779 7.43955 25.0406 7.43955Z" fill="#001B72"/>
<path d="M25.0406 12.6644H0.95941C0.42214 12.6644 0 12.2464 0 11.7144C0 11.1824 0.42214 10.7644 0.95941 10.7644H25.0406C25.5779 10.7644 26 11.1824 26 11.7144C26 12.2464 25.5779 12.6644 25.0406 12.6644Z" fill="#001B72"/>
</svg>
