<svg width="26" height="14" viewBox="0 0 26 14" fill="none" xmlns="http://www.w3.org/2000/svg">
<path d="M25.0406 2.72495H0.95941C0.42214 2.72495 0 2.30695 0 1.77495C0 1.24295 0.42214 0.824951 0.95941 0.824951H25.0406C25.5779 0.824951 26 1.24295 26 1.77495C26 2.30695 25.5779 2.72495 25.0406 2.72495Z" fill="#001B72"/>
<path d="M25.0406 7.95005H0.95941C0.42214 7.95005 0 7.53205 0 7.00005C0 6.46805 0.42214 6.05005 0.95941 6.05005H25.0406C25.5779 6.05005 26 6.46805 26 7.00005C26 7.53205 25.5779 7.95005 25.0406 7.95005Z" fill="#001B72"/>
<path d="M25.0406 13.1749H0.95941C0.42214 13.1749 0 12.7569 0 12.2249C0 11.6929 0.42214 11.2749 0.95941 11.2749H25.0406C25.5779 11.2749 26 11.6929 26 12.2249C26 12.7569 25.5779 13.1749 25.0406 13.1749Z" fill="#001B72"/>
</svg>
