<svg width="131" height="54" viewBox="0 0 131 54" fill="none" xmlns="http://www.w3.org/2000/svg">
<g opacity="0.55">
<path d="M104.309 30.6707H99.3962C99.3962 23.1662 97.2675 17.1299 92.6825 12.2357C88.2612 7.34139 82.8575 5.0574 76.4712 5.0574H31.1125L2.9475 26.7553L0 22.8399L29.3112 0H76.3075C84.1675 0 90.8812 2.93656 96.285 8.80967C101.525 14.5196 104.309 21.861 104.309 30.6707Z" fill="#001B72"/>
<path d="M101.523 54H54.6907C46.8307 54 40.117 51.0635 34.7132 45.1904C29.3095 39.4804 26.6895 32.139 26.6895 23.3293H31.602C31.602 30.8339 33.7307 36.8701 38.3157 41.7644C42.737 46.6587 48.1407 48.9426 54.527 48.9426H99.8857L127.887 27.0816L130.998 30.997L101.523 54Z" fill="#001B72"/>
<path d="M65.9908 46.1692C55.5108 46.1692 46.832 37.6858 46.832 27.0816C46.832 16.4773 55.5108 8.1571 65.9908 8.1571C76.4708 8.1571 85.1495 16.6405 85.1495 27.2447C85.1495 37.8489 76.4708 46.1692 65.9908 46.1692ZM65.9908 16.3142C59.932 16.3142 55.0195 21.2085 55.0195 27.2447C55.0195 33.281 59.932 38.1752 65.9908 38.1752C72.0495 38.1752 76.962 33.281 76.962 27.2447C76.962 21.2085 72.0495 16.3142 65.9908 16.3142Z" fill="#001B72"/>
</g>
</svg>
