<svg width="351" height="146" viewBox="0 0 351 146" fill="none" xmlns="http://www.w3.org/2000/svg">
<path d="M279.484 82.9245H266.321C266.321 62.6344 260.617 46.3142 248.332 33.0816C236.486 19.8489 222.007 13.6737 204.896 13.6737H83.3625L7.8975 72.3384L0 61.7523L78.5362 0H204.457C225.517 0 243.506 7.93958 257.985 23.8187C272.025 39.2568 279.484 59.1057 279.484 82.9245Z" fill="#001B72"/>
<path d="M272.024 146H146.542C125.482 146 107.493 138.06 93.0144 122.181C78.5356 106.743 71.5156 86.8943 71.5156 63.0756H84.6781C84.6781 83.3656 90.3819 99.6858 102.667 112.918C114.513 126.151 128.992 132.326 146.103 132.326H267.637L342.663 73.2206L350.999 83.8067L272.024 146Z" fill="#001B72"/>
<path d="M176.816 124.828C148.736 124.828 125.482 101.891 125.482 73.2205C125.482 44.5498 148.736 22.0543 176.816 22.0543C204.896 22.0543 228.15 44.9909 228.15 73.6616C228.15 102.332 204.896 124.828 176.816 124.828ZM176.816 44.1087C160.582 44.1087 147.42 57.3413 147.42 73.6616C147.42 89.9818 160.582 103.214 176.816 103.214C193.05 103.214 206.212 89.9818 206.212 73.6616C206.212 57.3413 193.05 44.1087 176.816 44.1087Z" fill="#001B72"/>
</svg>
