<svg width="27" height="26" viewBox="0 0 27 26" fill="none" xmlns="http://www.w3.org/2000/svg">
<path d="M20.6829 25.9912C19.2504 25.9036 17.2361 25.4218 15.2666 24.721C8.30595 22.29 1.52439 15.8074 0.0919831 6.74049C-0.176594 5.11983 0.114364 3.65248 1.34534 2.44794C1.77059 2.05373 2.12869 1.59381 2.55394 1.1777C4.09825 -0.355351 6.35877 -0.399153 7.94785 1.0901C8.46262 1.57191 8.97739 2.03183 9.46978 2.51365C10.8798 3.87149 10.9246 6.06157 9.60407 7.48511C9.22359 7.90123 8.82072 8.29544 8.41786 8.68965C7.97023 9.12767 7.4107 9.36858 6.82878 9.54378C6.09019 9.76279 5.95591 10.0694 6.29163 10.7483C8.3731 15.0628 11.6632 18.1727 16.1394 20.0561C16.7437 20.3189 17.0123 20.1875 17.2585 19.6181C17.7957 18.3479 18.7581 17.4061 19.8771 16.6615C21.1305 15.8074 22.9434 16.0045 24.1296 17.0119C24.7786 17.5595 25.4053 18.1508 26.0096 18.764C27.3301 20.1437 27.3301 22.3119 26.0096 23.6917C25.8306 23.8888 25.6291 24.0859 25.4501 24.283C24.3534 25.5094 22.9881 26.0788 20.6829 25.9912Z" fill="#001B72"/>
</svg>
