<svg id="Layer_1" data-name="Layer 1" xmlns="http://www.w3.org/2000/svg" xmlns:xlink="http://www.w3.org/1999/xlink" viewBox="0 0 1512 896"><defs><style>.cls-1{fill:url(#linear-gradient);filter:url(#luminosity-invert-noclip);}.cls-2{fill:none;}.cls-3{fill:#001b72;}.cls-4{mask:url(#mask);}.cls-5{clip-path:url(#clip-path);}</style><linearGradient id="linear-gradient" x1="788.71" y1="916.2" x2="788.71" gradientUnits="userSpaceOnUse"><stop offset="0"/><stop offset="0.04" stop-color="#141414"/><stop offset="0.15" stop-color="#4a4a4a"/><stop offset="0.26" stop-color="#7b7b7b"/><stop offset="0.37" stop-color="#a3a3a3"/><stop offset="0.49" stop-color="#c4c4c4"/><stop offset="0.61" stop-color="#dedede"/><stop offset="0.73" stop-color="#f1f1f1"/><stop offset="0.86" stop-color="#fbfbfb"/><stop offset="1" stop-color="#fff"/></linearGradient><filter id="luminosity-invert-noclip" x="-426.93" y="-25.59" width="2195.49" height="1022.9" filterUnits="userSpaceOnUse" color-interpolation-filters="sRGB"><feColorMatrix values="-1 0 0 0 1 0 -1 0 0 1 0 0 -1 0 1 0 0 0 1 0" result="invert"/><feFlood flood-color="#fff" result="bg"/><feBlend in="invert" in2="bg"/></filter><mask id="mask" x="-426.93" y="-25.59" width="2195.49" height="1022.9" maskUnits="userSpaceOnUse"><rect class="cls-1" x="-35.74" width="1648.9" height="916.2"/></mask><clipPath id="clip-path"><path class="cls-2" d="M1512,503.85V896H0V657c.1-44.73,6.3-194.8,77.93-334.36,25.1-49,55.33-91.05,90.12-125.73C248,117.17,352.39,75.72,476.18,75.72c82.59,0,153.7,21.37,218.36,53.8,73.47,36.79,138.65,87.87,202.64,138C1000.37,348.5,1112.83,426.69,1256.34,465,1330.94,488.94,1415.17,503.85,1512,503.85Z"/></clipPath></defs><path class="cls-3" d="M1512,503.85V896H0V657c.1-44.73,6.3-194.8,77.93-334.36,25.1-49,55.33-91.05,90.12-125.73C248,117.17,352.39,75.72,476.18,75.72c82.59,0,153.7,21.37,218.36,53.8,73.47,36.79,138.65,87.87,202.64,138C1000.37,348.5,1112.83,426.69,1256.34,465,1330.94,488.94,1415.17,503.85,1512,503.85Z"/><g class="cls-4"><g class="cls-5"><image width="6439" height="3000" transform="matrix(-0.34, 0, 0, 0.34, 1768.56, -25.59)" xlink:href="../../Research/Stock/Footer/Arcterio%20white%20model%20footer.jpg"/></g></g></svg>