<svg width="323" height="478" viewBox="0 0 323 478" fill="none" xmlns="http://www.w3.org/2000/svg">
<path d="M59.8764 -3.05176e-05L59.8764 10.6178H99.3452L99.3452 2.12354L99.3452 -3.05176e-05H59.8764ZM20.4075 -3.05176e-05H-19.0613L-19.0613 10.6178H20.4075L20.4075 -3.05176e-05ZM-60.7228 -3.05176e-05H-100.192L-100.192 10.6178H-60.7228L-60.7228 -3.05176e-05ZM-139.661 -3.05176e-05H-179.129L-179.129 10.6178H-139.661L-139.661 -3.05176e-05ZM-220.791 -3.05176e-05H-260.26L-260.26 10.6178H-220.791L-220.791 -3.05176e-05ZM-299.729 -3.05176e-05C-312.885 -3.05176e-05 -328.234 2.12357 -341.39 4.24713L-339.197 12.7414C-326.041 10.6178 -312.885 8.49423 -299.729 8.49423L-299.729 -3.05176e-05ZM141.007 4.24713L138.814 14.865C151.97 16.9885 165.127 21.2357 176.09 25.4828L180.476 16.9885C167.319 8.49423 154.163 6.3707 141.007 4.24713ZM-380.859 16.9885C-394.015 21.2357 -404.979 29.7299 -415.942 36.1006L-409.364 44.5949C-398.401 38.2242 -387.437 31.8535 -376.474 25.4828L-380.859 16.9885ZM215.559 31.8535L208.981 40.3478C219.944 46.7185 228.715 55.2128 239.679 63.707L246.257 57.3363C237.486 48.8421 228.715 40.3478 215.559 31.8535ZM-446.64 61.5835C-448.833 63.707 -451.026 65.8306 -453.219 67.9542C-459.797 76.4485 -466.375 82.8192 -472.953 91.3134L-464.182 97.6841C-457.604 89.1899 -451.026 82.8192 -444.448 74.3249C-442.255 72.2013 -440.062 70.0778 -437.87 67.9542L-446.64 61.5835ZM274.762 87.0663L265.991 93.437C274.762 104.055 281.34 114.673 285.726 125.291L294.497 121.043C290.111 110.426 283.533 97.6841 274.762 87.0663ZM-494.88 125.291C-501.458 138.032 -505.844 148.65 -508.036 161.391L-499.266 163.515C-494.88 150.773 -490.495 140.156 -486.109 127.414L-494.88 125.291ZM312.038 159.268L303.268 161.391C307.653 174.133 309.846 184.75 312.038 199.615L323.002 197.492C318.617 182.627 316.424 169.885 312.038 159.268ZM-516.807 201.739C-519 214.48 -519 227.222 -519 237.84L-519 239.963H-508.036L-508.036 237.84C-508.036 225.098 -508.036 212.357 -505.844 201.739H-516.807ZM323.002 235.716H312.038L312.038 237.84C312.038 250.581 312.038 261.199 309.846 273.94L320.809 276.064C323.002 265.446 323.002 252.705 323.002 239.963L323.002 235.716ZM-505.844 280.311L-516.807 282.435C-514.615 295.176 -512.422 307.917 -508.036 320.659L-499.266 318.535C-501.458 305.794 -503.651 293.052 -505.844 280.311ZM303.268 312.165C298.882 324.906 294.497 335.524 290.111 348.265L298.882 352.512C305.46 339.771 309.846 329.153 312.038 314.288L303.268 312.165ZM-483.917 352.512L-492.687 356.76C-486.109 369.501 -479.531 380.119 -470.76 390.737L-461.989 384.366C-470.76 373.748 -477.338 363.13 -483.917 352.512ZM270.377 380.119C263.799 388.613 257.221 394.984 250.642 403.478C248.45 405.602 246.257 407.725 244.064 409.849L250.642 416.219C255.028 414.096 257.221 411.972 259.413 409.849C265.991 401.354 272.57 394.984 279.148 386.49L270.377 380.119ZM-437.87 411.972L-444.448 418.343C-433.484 426.837 -424.713 435.332 -411.557 443.826L-404.979 435.332C-415.942 428.961 -426.906 422.59 -437.87 411.972ZM215.559 433.208C204.595 439.579 193.632 445.949 180.476 452.32L184.861 460.814C198.017 456.567 208.981 448.073 219.944 441.702L215.559 433.208ZM-372.088 454.444L-376.474 462.938C-363.317 467.185 -350.161 471.432 -337.005 473.556L-334.812 462.938C-347.968 462.938 -358.932 458.691 -372.088 454.444ZM145.392 462.938C132.236 465.062 119.08 467.185 105.923 467.185L105.923 477.803C119.08 477.803 134.429 475.679 147.585 473.556L145.392 462.938ZM66.4545 467.185H26.9857L26.9857 477.803H66.4545L66.4545 467.185ZM-14.6759 467.185L-54.1447 467.185L-54.1447 477.803H-14.6759L-14.6759 467.185ZM-93.6135 467.185H-135.275L-135.275 477.803H-95.8063L-95.8063 467.185H-93.6135ZM-174.744 467.185H-214.213L-214.213 477.803H-174.744L-174.744 467.185ZM-255.874 467.185H-297.536L-297.536 477.803H-255.874L-255.874 467.185Z" fill="#001B72" fill-opacity="0.1"/>
</svg>
