<svg width="1495" height="360" viewBox="0 0 1495 360" fill="none" xmlns="http://www.w3.org/2000/svg">
<path d="M-145 197.993C-65.8406 96.2326 164.531 -46.2318 452.743 197.993C740.955 442.218 1010.68 346.754 1109.52 268.494" stroke="#021846" stroke-width="10.1198" stroke-dasharray="20.24 20.24"/>
<circle cx="213.493" cy="72.4931" r="13.4931" fill="#FFB648"/>
<circle cx="629.493" cy="311.493" r="13.4931" fill="#FFB648"/>
<circle cx="1106.82" cy="270.6" r="15.1797" fill="#FFB648"/>
<path d="M1110 230C1166.33 230 1212 184.109 1212 127.5C1212 70.8908 1166.33 25 1110 25C1053.67 25 1008 70.8908 1008 127.5C1008 184.109 1053.67 230 1110 230Z" fill="#001B72"/>
<g filter="url(#filter0_d_292_2792)">
<path d="M1167.28 133.559C1166.78 140.628 1163.76 147.192 1159.24 152.241C1153.71 158.301 1147.18 161.33 1139.14 161.33H1115.02V134.064H1167.28M1169.79 131.539H1113.52V163.35H1139.64C1148.19 163.35 1155.22 160.32 1161.25 153.756C1166.27 147.697 1169.29 140.628 1169.79 131.539Z" fill="#F2F2F2"/>
</g>
<path d="M1174.32 120.936L1119.55 107.808L1127.08 77.0074L1152.71 83.0665C1160.75 85.0862 1167.28 90.1355 1171.3 97.7094C1174.82 104.273 1175.82 112.352 1174.32 120.936Z" fill="#F2F2F2"/>
<path d="M1103.47 93.67V120.936H1052.72C1053.22 113.362 1056.24 107.303 1060.76 102.254C1066.29 96.1946 1072.82 93.165 1080.86 93.165H1103.47M1105.48 91.6503H1080.86C1072.31 91.6503 1065.28 94.6798 1059.25 101.244C1053.72 107.303 1050.71 114.372 1050.71 123.461H1105.98V91.6503H1105.48Z" fill="#F2F2F2"/>
<path d="M1105.48 131.539V163.35H1080.86C1072.31 163.35 1065.28 160.32 1059.25 153.756C1053.72 147.697 1050.71 140.123 1050.71 131.539H1105.48Z" fill="#F2F2F2"/>
<path d="M1194.41 125.48V129.52H1111.51H1107.49H1026.09V125.48H1107.49H1111.51H1194.41Z" fill="#F2F2F2"/>
<path d="M1111.51 70.9483H1107.49V184.557H1111.51V70.9483Z" fill="#F2F2F2"/>
<path d="M1265 68.164V71.78H1255.69V77.508H1262.82V81.06H1255.69V90.5H1251.21V68.164H1265ZM1272.66 75.524C1273.23 74.5853 1273.98 73.8493 1274.9 73.316C1275.84 72.7827 1276.9 72.516 1278.1 72.516V77.22H1276.91C1275.5 77.22 1274.44 77.5507 1273.71 78.212C1273.01 78.8733 1272.66 80.0253 1272.66 81.668V90.5H1268.18V72.772H1272.66V75.524ZM1288.99 90.788C1287.28 90.788 1285.74 90.4147 1284.38 89.668C1283.01 88.9 1281.94 87.8227 1281.15 86.436C1280.38 85.0493 1279.99 83.4493 1279.99 81.636C1279.99 79.8227 1280.39 78.2227 1281.18 76.836C1281.99 75.4493 1283.09 74.3827 1284.47 73.636C1285.86 72.868 1287.41 72.484 1289.11 72.484C1290.82 72.484 1292.37 72.868 1293.75 73.636C1295.14 74.3827 1296.23 75.4493 1297.02 76.836C1297.83 78.2227 1298.23 79.8227 1298.23 81.636C1298.23 83.4493 1297.82 85.0493 1296.99 86.436C1296.18 87.8227 1295.07 88.9 1293.66 89.668C1292.27 90.4147 1290.71 90.788 1288.99 90.788ZM1288.99 86.884C1289.8 86.884 1290.55 86.692 1291.26 86.308C1291.98 85.9027 1292.56 85.3053 1292.99 84.516C1293.41 83.7267 1293.63 82.7667 1293.63 81.636C1293.63 79.9507 1293.18 78.66 1292.28 77.764C1291.41 76.8467 1290.33 76.388 1289.05 76.388C1287.77 76.388 1286.69 76.8467 1285.82 77.764C1284.96 78.66 1284.54 79.9507 1284.54 81.636C1284.54 83.3213 1284.95 84.6227 1285.79 85.54C1286.64 86.436 1287.71 86.884 1288.99 86.884ZM1323.54 72.516C1325.71 72.516 1327.46 73.188 1328.78 74.532C1330.13 75.8547 1330.8 77.7107 1330.8 80.1V90.5H1326.32V80.708C1326.32 79.3213 1325.97 78.2653 1325.26 77.54C1324.56 76.7933 1323.6 76.42 1322.38 76.42C1321.17 76.42 1320.2 76.7933 1319.47 77.54C1318.77 78.2653 1318.42 79.3213 1318.42 80.708V90.5H1313.94V80.708C1313.94 79.3213 1313.58 78.2653 1312.88 77.54C1312.18 76.7933 1311.22 76.42 1310 76.42C1308.76 76.42 1307.78 76.7933 1307.06 77.54C1306.35 78.2653 1306 79.3213 1306 80.708V90.5H1301.52V72.772H1306V74.916C1306.58 74.1693 1307.31 73.5827 1308.21 73.156C1309.13 72.7293 1310.13 72.516 1311.22 72.516C1312.6 72.516 1313.84 72.8147 1314.93 73.412C1316.02 73.988 1316.86 74.82 1317.46 75.908C1318.03 74.884 1318.86 74.0627 1319.95 73.444C1321.06 72.8253 1322.26 72.516 1323.54 72.516ZM1347.16 68.164V90.5H1342.68V68.164H1347.16ZM1350.43 81.572C1350.43 79.78 1350.78 78.1907 1351.49 76.804C1352.21 75.4173 1353.19 74.3507 1354.43 73.604C1355.67 72.8573 1357.04 72.484 1358.56 72.484C1359.71 72.484 1360.81 72.74 1361.86 73.252C1362.9 73.7427 1363.73 74.404 1364.35 75.236V66.82H1368.9V90.5H1364.35V87.876C1363.8 88.7507 1363.02 89.4547 1362.02 89.988C1361.01 90.5213 1359.85 90.788 1358.53 90.788C1357.03 90.788 1355.67 90.404 1354.43 89.636C1353.19 88.868 1352.21 87.7907 1351.49 86.404C1350.78 84.996 1350.43 83.3853 1350.43 81.572ZM1364.38 81.636C1364.38 80.548 1364.17 79.62 1363.74 78.852C1363.32 78.0627 1362.74 77.4653 1362.02 77.06C1361.29 76.6333 1360.51 76.42 1359.68 76.42C1358.85 76.42 1358.08 76.6227 1357.38 77.028C1356.67 77.4333 1356.1 78.0307 1355.65 78.82C1355.22 79.588 1355.01 80.5053 1355.01 81.572C1355.01 82.6387 1355.22 83.5773 1355.65 84.388C1356.1 85.1773 1356.67 85.7853 1357.38 86.212C1358.1 86.6387 1358.87 86.852 1359.68 86.852C1360.51 86.852 1361.29 86.6493 1362.02 86.244C1362.74 85.8173 1363.32 85.22 1363.74 84.452C1364.17 83.6627 1364.38 82.724 1364.38 81.636ZM1389.75 81.252C1389.75 81.892 1389.71 82.468 1389.62 82.98H1376.66C1376.77 84.26 1377.22 85.2627 1378.01 85.988C1378.8 86.7133 1379.77 87.076 1380.92 87.076C1382.58 87.076 1383.77 86.3613 1384.47 84.932H1389.3C1388.79 86.6387 1387.81 88.0467 1386.36 89.156C1384.91 90.244 1383.13 90.788 1381.01 90.788C1379.31 90.788 1377.77 90.4147 1376.41 89.668C1375.06 88.9 1374.01 87.8227 1373.24 86.436C1372.49 85.0493 1372.12 83.4493 1372.12 81.636C1372.12 79.8013 1372.49 78.1907 1373.24 76.804C1373.99 75.4173 1375.03 74.3507 1376.37 73.604C1377.72 72.8573 1379.27 72.484 1381.01 72.484C1382.7 72.484 1384.2 72.8467 1385.53 73.572C1386.87 74.2973 1387.91 75.332 1388.63 76.676C1389.38 77.9987 1389.75 79.524 1389.75 81.252ZM1385.11 79.972C1385.09 78.82 1384.67 77.9027 1383.86 77.22C1383.05 76.516 1382.06 76.164 1380.89 76.164C1379.78 76.164 1378.84 76.5053 1378.07 77.188C1377.32 77.8493 1376.87 78.7773 1376.69 79.972H1385.11ZM1391.87 81.572C1391.87 79.78 1392.22 78.1907 1392.92 76.804C1393.65 75.4173 1394.62 74.3507 1395.84 73.604C1397.07 72.8573 1398.45 72.484 1399.96 72.484C1401.29 72.484 1402.44 72.7507 1403.42 73.284C1404.42 73.8173 1405.22 74.4893 1405.82 75.3V72.772H1410.33V90.5H1405.82V87.908C1405.24 88.74 1404.44 89.4333 1403.42 89.988C1402.42 90.5213 1401.26 90.788 1399.93 90.788C1398.44 90.788 1397.07 90.404 1395.84 89.636C1394.62 88.868 1393.65 87.7907 1392.92 86.404C1392.22 84.996 1391.87 83.3853 1391.87 81.572ZM1405.82 81.636C1405.82 80.548 1405.61 79.62 1405.18 78.852C1404.75 78.0627 1404.18 77.4653 1403.45 77.06C1402.73 76.6333 1401.95 76.42 1401.12 76.42C1400.28 76.42 1399.52 76.6227 1398.81 77.028C1398.11 77.4333 1397.53 78.0307 1397.08 78.82C1396.66 79.588 1396.44 80.5053 1396.44 81.572C1396.44 82.6387 1396.66 83.5773 1397.08 84.388C1397.53 85.1773 1398.11 85.7853 1398.81 86.212C1399.54 86.6387 1400.31 86.852 1401.12 86.852C1401.95 86.852 1402.73 86.6493 1403.45 86.244C1404.18 85.8173 1404.75 85.22 1405.18 84.452C1405.61 83.6627 1405.82 82.724 1405.82 81.636ZM1421.49 90.788C1420.04 90.788 1418.74 90.532 1417.59 90.02C1416.44 89.4867 1415.52 88.772 1414.84 87.876C1414.17 86.98 1413.81 85.988 1413.75 84.9H1418.26C1418.35 85.5827 1418.68 86.148 1419.25 86.596C1419.85 87.044 1420.59 87.268 1421.46 87.268C1422.31 87.268 1422.97 87.0973 1423.44 86.756C1423.93 86.4147 1424.18 85.9773 1424.18 85.444C1424.18 84.868 1423.88 84.4413 1423.28 84.164C1422.71 83.8653 1421.78 83.5453 1420.5 83.204C1419.18 82.884 1418.09 82.5533 1417.24 82.212C1416.4 81.8707 1415.68 81.348 1415.06 80.644C1414.46 79.94 1414.16 78.9907 1414.16 77.796C1414.16 76.8147 1414.44 75.9187 1415 75.108C1415.57 74.2973 1416.38 73.6573 1417.43 73.188C1418.49 72.7187 1419.74 72.484 1421.17 72.484C1423.28 72.484 1424.97 73.0173 1426.23 74.084C1427.49 75.1293 1428.18 76.548 1428.31 78.34H1424.02C1423.96 77.636 1423.66 77.0813 1423.12 76.676C1422.61 76.2493 1421.92 76.036 1421.04 76.036C1420.23 76.036 1419.6 76.1853 1419.16 76.484C1418.73 76.7827 1418.52 77.1987 1418.52 77.732C1418.52 78.3293 1418.81 78.788 1419.41 79.108C1420.01 79.4067 1420.94 79.716 1422.2 80.036C1423.48 80.356 1424.53 80.6867 1425.36 81.028C1426.2 81.3693 1426.91 81.9027 1427.51 82.628C1428.13 83.332 1428.45 84.2707 1428.47 85.444C1428.47 86.468 1428.18 87.3853 1427.6 88.196C1427.05 89.0067 1426.24 89.6467 1425.17 90.116C1424.13 90.564 1422.9 90.788 1421.49 90.788ZM1444.99 76.452V85.028C1444.99 85.6253 1445.13 86.0627 1445.4 86.34C1445.7 86.596 1446.19 86.724 1446.87 86.724H1448.95V90.5H1446.14C1442.36 90.5 1440.47 88.6653 1440.47 84.996V76.452H1438.36V72.772H1440.47V68.388H1444.99V72.772H1448.95V76.452H1444.99ZM1460.05 90.788C1458.34 90.788 1456.81 90.4147 1455.44 89.668C1454.08 88.9 1453 87.8227 1452.21 86.436C1451.44 85.0493 1451.06 83.4493 1451.06 81.636C1451.06 79.8227 1451.45 78.2227 1452.24 76.836C1453.05 75.4493 1454.15 74.3827 1455.54 73.636C1456.92 72.868 1458.47 72.484 1460.18 72.484C1461.88 72.484 1463.43 72.868 1464.82 73.636C1466.2 74.3827 1467.29 75.4493 1468.08 76.836C1468.89 78.2227 1469.3 79.8227 1469.3 81.636C1469.3 83.4493 1468.88 85.0493 1468.05 86.436C1467.24 87.8227 1466.13 88.9 1464.72 89.668C1463.33 90.4147 1461.78 90.788 1460.05 90.788ZM1460.05 86.884C1460.86 86.884 1461.62 86.692 1462.32 86.308C1463.05 85.9027 1463.62 85.3053 1464.05 84.516C1464.48 83.7267 1464.69 82.7667 1464.69 81.636C1464.69 79.9507 1464.24 78.66 1463.34 77.764C1462.47 76.8467 1461.39 76.388 1460.11 76.388C1458.83 76.388 1457.76 76.8467 1456.88 77.764C1456.03 78.66 1455.6 79.9507 1455.6 81.636C1455.6 83.3213 1456.02 84.6227 1456.85 85.54C1457.7 86.436 1458.77 86.884 1460.05 86.884ZM1259.02 116.164C1261.36 116.164 1263.42 116.623 1265.19 117.54C1266.98 118.457 1268.36 119.769 1269.32 121.476C1270.3 123.161 1270.79 125.124 1270.79 127.364C1270.79 129.604 1270.3 131.567 1269.32 133.252C1268.36 134.916 1266.98 136.207 1265.19 137.124C1263.42 138.041 1261.36 138.5 1259.02 138.5H1251.21V116.164H1259.02ZM1258.86 134.692C1261.2 134.692 1263.02 134.052 1264.3 132.772C1265.58 131.492 1266.22 129.689 1266.22 127.364C1266.22 125.039 1265.58 123.225 1264.3 121.924C1263.02 120.601 1261.2 119.94 1258.86 119.94H1255.69V134.692H1258.86ZM1290.63 129.252C1290.63 129.892 1290.58 130.468 1290.5 130.98H1277.54C1277.64 132.26 1278.09 133.263 1278.88 133.988C1279.67 134.713 1280.64 135.076 1281.79 135.076C1283.46 135.076 1284.64 134.361 1285.35 132.932H1290.18C1289.67 134.639 1288.68 136.047 1287.23 137.156C1285.78 138.244 1284 138.788 1281.89 138.788C1280.18 138.788 1278.65 138.415 1277.28 137.668C1275.94 136.9 1274.88 135.823 1274.11 134.436C1273.37 133.049 1272.99 131.449 1272.99 129.636C1272.99 127.801 1273.37 126.191 1274.11 124.804C1274.86 123.417 1275.91 122.351 1277.25 121.604C1278.59 120.857 1280.14 120.484 1281.89 120.484C1283.57 120.484 1285.08 120.847 1286.4 121.572C1287.75 122.297 1288.78 123.332 1289.51 124.676C1290.25 125.999 1290.63 127.524 1290.63 129.252ZM1285.99 127.972C1285.96 126.82 1285.55 125.903 1284.74 125.22C1283.93 124.516 1282.93 124.164 1281.76 124.164C1280.65 124.164 1279.71 124.505 1278.95 125.188C1278.2 125.849 1277.74 126.777 1277.57 127.972H1285.99ZM1299.11 124.452V133.028C1299.11 133.625 1299.25 134.063 1299.53 134.34C1299.83 134.596 1300.32 134.724 1301 134.724H1303.08V138.5H1300.26C1296.49 138.5 1294.6 136.665 1294.6 132.996V124.452H1292.49V120.772H1294.6V116.388H1299.11V120.772H1303.08V124.452H1299.11ZM1305.15 129.572C1305.15 127.78 1305.5 126.191 1306.21 124.804C1306.93 123.417 1307.9 122.351 1309.12 121.604C1310.36 120.857 1311.73 120.484 1313.25 120.484C1314.57 120.484 1315.72 120.751 1316.7 121.284C1317.7 121.817 1318.5 122.489 1319.1 123.3V120.772H1323.61V138.5H1319.1V135.908C1318.53 136.74 1317.73 137.433 1316.7 137.988C1315.7 138.521 1314.54 138.788 1313.21 138.788C1311.72 138.788 1310.36 138.404 1309.12 137.636C1307.9 136.868 1306.93 135.791 1306.21 134.404C1305.5 132.996 1305.15 131.385 1305.15 129.572ZM1319.1 129.636C1319.1 128.548 1318.89 127.62 1318.46 126.852C1318.04 126.063 1317.46 125.465 1316.73 125.06C1316.01 124.633 1315.23 124.42 1314.4 124.42C1313.57 124.42 1312.8 124.623 1312.09 125.028C1311.39 125.433 1310.81 126.031 1310.37 126.82C1309.94 127.588 1309.73 128.505 1309.73 129.572C1309.73 130.639 1309.94 131.577 1310.37 132.388C1310.81 133.177 1311.39 133.785 1312.09 134.212C1312.82 134.639 1313.59 134.852 1314.4 134.852C1315.23 134.852 1316.01 134.649 1316.73 134.244C1317.46 133.817 1318.04 133.22 1318.46 132.452C1318.89 131.663 1319.1 130.724 1319.1 129.636ZM1330.26 118.66C1329.47 118.66 1328.81 118.415 1328.28 117.924C1327.77 117.412 1327.51 116.783 1327.51 116.036C1327.51 115.289 1327.77 114.671 1328.28 114.18C1328.81 113.668 1329.47 113.412 1330.26 113.412C1331.05 113.412 1331.7 113.668 1332.21 114.18C1332.75 114.671 1333.01 115.289 1333.01 116.036C1333.01 116.783 1332.75 117.412 1332.21 117.924C1331.7 118.415 1331.05 118.66 1330.26 118.66ZM1332.47 120.772V138.5H1327.99V120.772H1332.47ZM1341.38 114.82V138.5H1336.9V114.82H1341.38ZM1369.71 123.076C1369.71 124.271 1369.43 125.391 1368.85 126.436C1368.3 127.481 1367.41 128.324 1366.19 128.964C1365 129.604 1363.49 129.924 1361.65 129.924H1357.91V138.5H1353.43V116.164H1361.65C1363.38 116.164 1364.85 116.463 1366.07 117.06C1367.28 117.657 1368.19 118.479 1368.79 119.524C1369.41 120.569 1369.71 121.753 1369.71 123.076ZM1361.46 126.308C1362.7 126.308 1363.61 126.031 1364.21 125.476C1364.81 124.9 1365.11 124.1 1365.11 123.076C1365.11 120.9 1363.89 119.812 1361.46 119.812H1357.91V126.308H1361.46ZM1389.38 129.252C1389.38 129.892 1389.33 130.468 1389.25 130.98H1376.29C1376.39 132.26 1376.84 133.263 1377.63 133.988C1378.42 134.713 1379.39 135.076 1380.54 135.076C1382.21 135.076 1383.39 134.361 1384.1 132.932H1388.93C1388.42 134.639 1387.43 136.047 1385.98 137.156C1384.53 138.244 1382.75 138.788 1380.64 138.788C1378.93 138.788 1377.4 138.415 1376.03 137.668C1374.69 136.9 1373.63 135.823 1372.86 134.436C1372.12 133.049 1371.74 131.449 1371.74 129.636C1371.74 127.801 1372.12 126.191 1372.86 124.804C1373.61 123.417 1374.66 122.351 1376 121.604C1377.34 120.857 1378.89 120.484 1380.64 120.484C1382.32 120.484 1383.83 120.847 1385.15 121.572C1386.5 122.297 1387.53 123.332 1388.26 124.676C1389 125.999 1389.38 127.524 1389.38 129.252ZM1384.74 127.972C1384.71 126.82 1384.3 125.903 1383.49 125.22C1382.68 124.516 1381.68 124.164 1380.51 124.164C1379.4 124.164 1378.46 124.505 1377.7 125.188C1376.95 125.849 1376.49 126.777 1376.32 127.972H1384.74ZM1397.13 123.524C1397.7 122.585 1398.45 121.849 1399.37 121.316C1400.3 120.783 1401.37 120.516 1402.57 120.516V125.22H1401.38C1399.97 125.22 1398.91 125.551 1398.18 126.212C1397.48 126.873 1397.13 128.025 1397.13 129.668V138.5H1392.65V120.772H1397.13V123.524ZM1413.71 124.452H1410.61V138.5H1406.06V124.452H1404.05V120.772H1406.06V119.876C1406.06 117.7 1406.68 116.1 1407.92 115.076C1409.16 114.052 1411.02 113.572 1413.52 113.636V117.412C1412.43 117.391 1411.67 117.572 1411.25 117.956C1410.82 118.34 1410.61 119.033 1410.61 120.036V120.772H1413.71V124.452ZM1433.09 129.252C1433.09 129.892 1433.05 130.468 1432.97 130.98H1420.01C1420.11 132.26 1420.56 133.263 1421.35 133.988C1422.14 134.713 1423.11 135.076 1424.26 135.076C1425.93 135.076 1427.11 134.361 1427.81 132.932H1432.65C1432.13 134.639 1431.15 136.047 1429.7 137.156C1428.25 138.244 1426.47 138.788 1424.36 138.788C1422.65 138.788 1421.12 138.415 1419.75 137.668C1418.41 136.9 1417.35 135.823 1416.58 134.436C1415.84 133.049 1415.46 131.449 1415.46 129.636C1415.46 127.801 1415.84 126.191 1416.58 124.804C1417.33 123.417 1418.37 122.351 1419.72 121.604C1421.06 120.857 1422.61 120.484 1424.36 120.484C1426.04 120.484 1427.55 120.847 1428.87 121.572C1430.21 122.297 1431.25 123.332 1431.97 124.676C1432.72 125.999 1433.09 127.524 1433.09 129.252ZM1428.45 127.972C1428.43 126.82 1428.02 125.903 1427.21 125.22C1426.4 124.516 1425.4 124.164 1424.23 124.164C1423.12 124.164 1422.18 124.505 1421.41 125.188C1420.67 125.849 1420.21 126.777 1420.04 127.972H1428.45ZM1435.21 129.636C1435.21 127.801 1435.59 126.201 1436.33 124.836C1437.08 123.449 1438.11 122.383 1439.44 121.636C1440.76 120.868 1442.27 120.484 1443.98 120.484C1446.18 120.484 1447.99 121.039 1449.42 122.148C1450.87 123.236 1451.84 124.772 1452.33 126.756H1447.5C1447.24 125.988 1446.81 125.391 1446.19 124.964C1445.59 124.516 1444.84 124.292 1443.95 124.292C1442.67 124.292 1441.65 124.761 1440.91 125.7C1440.16 126.617 1439.79 127.929 1439.79 129.636C1439.79 131.321 1440.16 132.633 1440.91 133.572C1441.65 134.489 1442.67 134.948 1443.95 134.948C1445.76 134.948 1446.95 134.137 1447.5 132.516H1452.33C1451.84 134.436 1450.87 135.961 1449.42 137.092C1447.97 138.223 1446.16 138.788 1443.98 138.788C1442.27 138.788 1440.76 138.415 1439.44 137.668C1438.11 136.9 1437.08 135.833 1436.33 134.468C1435.59 133.081 1435.21 131.471 1435.21 129.636ZM1460.83 124.452V133.028C1460.83 133.625 1460.97 134.063 1461.25 134.34C1461.54 134.596 1462.04 134.724 1462.72 134.724H1464.8V138.5H1461.98C1458.21 138.5 1456.32 136.665 1456.32 132.996V124.452H1454.21V120.772H1456.32V116.388H1460.83V120.772H1464.8V124.452H1460.83ZM1262.73 186.5L1257.8 177.796H1255.69V186.5H1251.21V164.164H1259.59C1261.32 164.164 1262.79 164.473 1264.01 165.092C1265.22 165.689 1266.13 166.511 1266.73 167.556C1267.35 168.58 1267.66 169.732 1267.66 171.012C1267.66 172.484 1267.23 173.817 1266.38 175.012C1265.52 176.185 1264.25 176.996 1262.57 177.444L1267.91 186.5H1262.73ZM1255.69 174.436H1259.43C1260.65 174.436 1261.55 174.148 1262.15 173.572C1262.75 172.975 1263.05 172.153 1263.05 171.108C1263.05 170.084 1262.75 169.295 1262.15 168.74C1261.55 168.164 1260.65 167.876 1259.43 167.876H1255.69V174.436ZM1288.19 177.252C1288.19 177.892 1288.15 178.468 1288.06 178.98H1275.1C1275.21 180.26 1275.65 181.263 1276.44 181.988C1277.23 182.713 1278.2 183.076 1279.36 183.076C1281.02 183.076 1282.2 182.361 1282.91 180.932H1287.74C1287.23 182.639 1286.25 184.047 1284.8 185.156C1283.35 186.244 1281.56 186.788 1279.45 186.788C1277.75 186.788 1276.21 186.415 1274.84 185.668C1273.5 184.9 1272.44 183.823 1271.68 182.436C1270.93 181.049 1270.56 179.449 1270.56 177.636C1270.56 175.801 1270.93 174.191 1271.68 172.804C1272.42 171.417 1273.47 170.351 1274.81 169.604C1276.16 168.857 1277.7 168.484 1279.45 168.484C1281.14 168.484 1282.64 168.847 1283.96 169.572C1285.31 170.297 1286.34 171.332 1287.07 172.676C1287.81 173.999 1288.19 175.524 1288.19 177.252ZM1283.55 175.972C1283.53 174.82 1283.11 173.903 1282.3 173.22C1281.49 172.516 1280.5 172.164 1279.32 172.164C1278.21 172.164 1277.28 172.505 1276.51 173.188C1275.76 173.849 1275.3 174.777 1275.13 175.972H1283.55ZM1290.31 177.572C1290.31 175.78 1290.66 174.191 1291.36 172.804C1292.09 171.417 1293.06 170.351 1294.27 169.604C1295.51 168.857 1296.89 168.484 1298.4 168.484C1299.72 168.484 1300.88 168.751 1301.86 169.284C1302.86 169.817 1303.66 170.489 1304.26 171.3V168.772H1308.77V186.5H1304.26V183.908C1303.68 184.74 1302.88 185.433 1301.86 185.988C1300.86 186.521 1299.69 186.788 1298.37 186.788C1296.88 186.788 1295.51 186.404 1294.27 185.636C1293.06 184.868 1292.09 183.791 1291.36 182.404C1290.66 180.996 1290.31 179.385 1290.31 177.572ZM1304.26 177.636C1304.26 176.548 1304.04 175.62 1303.62 174.852C1303.19 174.063 1302.62 173.465 1301.89 173.06C1301.16 172.633 1300.39 172.42 1299.55 172.42C1298.72 172.42 1297.95 172.623 1297.25 173.028C1296.55 173.433 1295.97 174.031 1295.52 174.82C1295.1 175.588 1294.88 176.505 1294.88 177.572C1294.88 178.639 1295.1 179.577 1295.52 180.388C1295.97 181.177 1296.55 181.785 1297.25 182.212C1297.98 182.639 1298.74 182.852 1299.55 182.852C1300.39 182.852 1301.16 182.649 1301.89 182.244C1302.62 181.817 1303.19 181.22 1303.62 180.452C1304.04 179.663 1304.26 178.724 1304.26 177.636ZM1317.63 162.82V186.5H1313.15V162.82H1317.63ZM1324.32 166.66C1323.53 166.66 1322.87 166.415 1322.34 165.924C1321.83 165.412 1321.57 164.783 1321.57 164.036C1321.57 163.289 1321.83 162.671 1322.34 162.18C1322.87 161.668 1323.53 161.412 1324.32 161.412C1325.11 161.412 1325.76 161.668 1326.28 162.18C1326.81 162.671 1327.08 163.289 1327.08 164.036C1327.08 164.783 1326.81 165.412 1326.28 165.924C1325.76 166.415 1325.11 166.66 1324.32 166.66ZM1326.53 168.772V186.5H1322.05V168.772H1326.53ZM1336.17 172.452V181.028C1336.17 181.625 1336.31 182.063 1336.59 182.34C1336.89 182.596 1337.38 182.724 1338.06 182.724H1340.14V186.5H1337.33C1333.55 186.5 1331.66 184.665 1331.66 180.996V172.452H1329.55V168.772H1331.66V164.388H1336.17V168.772H1340.14V172.452H1336.17ZM1360.32 168.772L1349.35 194.884H1344.58L1348.42 186.052L1341.32 168.772H1346.34L1350.92 181.156L1355.56 168.772H1360.32Z" fill="#001B72"/>
<defs>
<filter id="filter0_d_292_2792" x="1098.52" y="131.539" width="86.2754" height="61.8104" filterUnits="userSpaceOnUse" color-interpolation-filters="sRGB">
<feFlood flood-opacity="0" result="BackgroundImageFix"/>
<feColorMatrix in="SourceAlpha" type="matrix" values="0 0 0 0 0 0 0 0 0 0 0 0 0 0 0 0 0 0 127 0" result="hardAlpha"/>
<feOffset dy="15"/>
<feGaussianBlur stdDeviation="7.5"/>
<feComposite in2="hardAlpha" operator="out"/>
<feColorMatrix type="matrix" values="0 0 0 0 0 0 0 0 0 0 0 0 0 0 0 0 0 0 0.25 0"/>
<feBlend mode="normal" in2="BackgroundImageFix" result="effect1_dropShadow_292_2792"/>
<feBlend mode="normal" in="SourceGraphic" in2="effect1_dropShadow_292_2792" result="shape"/>
</filter>
</defs>
</svg>
