<svg width="494" height="239" viewBox="0 0 494 239" fill="none" xmlns="http://www.w3.org/2000/svg">
<g filter="url(#filter0_d_306_2900)">
<path d="M117 208.5C173.333 208.5 219 162.609 219 106C219 49.3908 173.333 3.5 117 3.5C60.667 3.5 15 49.3908 15 106C15 162.609 60.667 208.5 117 208.5Z" fill="#001B72"/>
</g>
<path d="M128.055 86.8129C125.542 84.2882 122.025 83.2784 118.508 83.2784C114.488 83.2784 111.473 84.2882 108.961 86.8129C106.449 89.3375 104.941 91.8621 104.941 95.3966V117.613C104.941 121.148 106.449 124.177 108.961 126.197V127.207C108.961 128.722 109.966 130.237 111.976 130.237H125.542C127.05 130.237 128.557 128.722 128.557 127.207V126.197C131.069 123.672 132.577 121.148 132.577 117.613V95.3966C131.572 91.8621 130.567 88.8326 128.055 86.8129ZM129.562 117.613H119.01V99.436H116.498V117.613H105.946V96.4065C105.946 93.3769 106.951 91.3572 108.961 89.3375C110.971 87.3178 113.986 86.3079 117.503 86.3079C121.02 86.3079 123.533 87.3178 126.045 89.3375C128.055 91.3572 129.06 93.8818 129.06 96.4065V117.613H129.562Z" fill="#F2F2F2"/>
<path d="M125.542 131.246H110.971V135.286H125.542V131.246Z" fill="#F2F2F2"/>
<path d="M117 139.83H119.512C120.517 139.83 121.02 138.82 121.02 138.315V136.296H114.99V138.315C114.99 139.325 115.995 139.83 117 139.83Z" fill="#F2F2F2"/>
<path d="M119.011 63.5862H117.504V78.2291H119.011V63.5862Z" fill="#F2F2F2"/>
<path d="M141.329 72.2826L131.025 82.6365L132.091 83.7076L142.395 73.3537L141.329 72.2826Z" fill="#F2F2F2"/>
<path d="M94.4995 72.506L93.4336 73.5771L103.737 83.9311L104.803 82.86L94.4995 72.506Z" fill="#F2F2F2"/>
<path d="M118.006 172.65C106.449 172.65 96.3999 169.116 88.863 162.047L93.3851 156.998C99.9172 163.057 107.957 166.086 118.508 166.086C128.558 166.086 136.597 163.057 143.631 156.998C150.163 150.938 153.178 143.869 153.178 134.781V72.6749C153.178 64.0912 150.163 56.5173 143.631 50.4581C137.099 44.399 129.06 41.3695 118.508 41.3695C108.459 41.3695 100.42 44.399 93.3851 50.4581C86.8531 56.5173 83.8383 63.5862 83.8383 72.6749V135.791L67.7595 161.037L62.2324 157.502L77.3063 133.771V72.6749C77.3063 62.0714 81.326 52.9828 88.863 45.9138C96.3999 38.8448 106.449 35.3104 118.006 35.3104C129.562 35.3104 139.612 38.8448 147.651 45.9138C155.691 52.9828 159.71 62.0714 159.71 72.6749V134.781C159.71 145.384 155.691 154.473 147.651 161.542C139.612 169.116 129.562 172.65 118.006 172.65Z" fill="#F2F2F2"/>
<path d="M266.016 22.664C268.363 22.664 270.421 23.1227 272.192 24.04C273.984 24.9573 275.36 26.2693 276.32 27.976C277.301 29.6613 277.792 31.624 277.792 33.864C277.792 36.104 277.301 38.0667 276.32 39.752C275.36 41.416 273.984 42.7067 272.192 43.624C270.421 44.5413 268.363 45 266.016 45H258.208V22.664H266.016ZM265.856 41.192C268.203 41.192 270.016 40.552 271.296 39.272C272.576 37.992 273.216 36.1893 273.216 33.864C273.216 31.5387 272.576 29.7253 271.296 28.424C270.016 27.1013 268.203 26.44 265.856 26.44H262.688V41.192H265.856ZM285.626 30.024C286.202 29.0853 286.948 28.3493 287.866 27.816C288.804 27.2827 289.871 27.016 291.066 27.016V31.72H289.882C288.474 31.72 287.407 32.0507 286.682 32.712C285.978 33.3733 285.626 34.5253 285.626 36.168V45H281.146V27.272H285.626V30.024ZM310.563 35.752C310.563 36.392 310.52 36.968 310.435 37.48H297.475C297.582 38.76 298.03 39.7627 298.819 40.488C299.608 41.2133 300.579 41.576 301.731 41.576C303.395 41.576 304.579 40.8613 305.283 39.432H310.115C309.603 41.1387 308.622 42.5467 307.171 43.656C305.72 44.744 303.939 45.288 301.827 45.288C300.12 45.288 298.584 44.9147 297.219 44.168C295.875 43.4 294.819 42.3227 294.051 40.936C293.304 39.5493 292.931 37.9493 292.931 36.136C292.931 34.3013 293.304 32.6907 294.051 31.304C294.798 29.9173 295.843 28.8507 297.187 28.104C298.531 27.3573 300.078 26.984 301.827 26.984C303.512 26.984 305.016 27.3467 306.339 28.072C307.683 28.7973 308.718 29.832 309.443 31.176C310.19 32.4987 310.563 34.024 310.563 35.752ZM305.923 34.472C305.902 33.32 305.486 32.4027 304.675 31.72C303.864 31.016 302.872 30.664 301.699 30.664C300.59 30.664 299.651 31.0053 298.883 31.688C298.136 32.3493 297.678 33.2773 297.507 34.472H305.923ZM312.681 36.072C312.681 34.28 313.033 32.6907 313.737 31.304C314.462 29.9173 315.433 28.8507 316.649 28.104C317.886 27.3573 319.262 26.984 320.777 26.984C322.1 26.984 323.252 27.2507 324.233 27.784C325.236 28.3173 326.036 28.9893 326.633 29.8V27.272H331.145V45H326.633V42.408C326.057 43.24 325.257 43.9333 324.233 44.488C323.23 45.0213 322.068 45.288 320.745 45.288C319.252 45.288 317.886 44.904 316.649 44.136C315.433 43.368 314.462 42.2907 313.737 40.904C313.033 39.496 312.681 37.8853 312.681 36.072ZM326.633 36.136C326.633 35.048 326.42 34.12 325.993 33.352C325.566 32.5627 324.99 31.9653 324.265 31.56C323.54 31.1333 322.761 30.92 321.929 30.92C321.097 30.92 320.329 31.1227 319.625 31.528C318.921 31.9333 318.345 32.5307 317.897 33.32C317.47 34.088 317.257 35.0053 317.257 36.072C317.257 37.1387 317.47 38.0773 317.897 38.888C318.345 39.6773 318.921 40.2853 319.625 40.712C320.35 41.1387 321.118 41.352 321.929 41.352C322.761 41.352 323.54 41.1493 324.265 40.744C324.99 40.3173 325.566 39.72 325.993 38.952C326.42 38.1627 326.633 37.224 326.633 36.136ZM357.537 27.016C359.713 27.016 361.462 27.688 362.785 29.032C364.129 30.3547 364.801 32.2107 364.801 34.6V45H360.321V35.208C360.321 33.8213 359.969 32.7653 359.265 32.04C358.561 31.2933 357.601 30.92 356.385 30.92C355.169 30.92 354.198 31.2933 353.473 32.04C352.769 32.7653 352.417 33.8213 352.417 35.208V45H347.937V35.208C347.937 33.8213 347.585 32.7653 346.881 32.04C346.177 31.2933 345.217 30.92 344.001 30.92C342.763 30.92 341.782 31.2933 341.057 32.04C340.353 32.7653 340.001 33.8213 340.001 35.208V45H335.521V27.272H340.001V29.416C340.577 28.6693 341.313 28.0827 342.209 27.656C343.126 27.2293 344.129 27.016 345.217 27.016C346.603 27.016 347.841 27.3147 348.929 27.912C350.017 28.488 350.859 29.32 351.457 30.408C352.033 29.384 352.865 28.5627 353.953 27.944C355.062 27.3253 356.257 27.016 357.537 27.016ZM375.836 45.288C374.385 45.288 373.084 45.032 371.932 44.52C370.78 43.9867 369.862 43.272 369.18 42.376C368.518 41.48 368.156 40.488 368.092 39.4H372.604C372.689 40.0827 373.02 40.648 373.596 41.096C374.193 41.544 374.929 41.768 375.804 41.768C376.657 41.768 377.318 41.5973 377.788 41.256C378.278 40.9147 378.524 40.4773 378.524 39.944C378.524 39.368 378.225 38.9413 377.628 38.664C377.052 38.3653 376.124 38.0453 374.844 37.704C373.521 37.384 372.433 37.0533 371.58 36.712C370.748 36.3707 370.022 35.848 369.404 35.144C368.806 34.44 368.508 33.4907 368.508 32.296C368.508 31.3147 368.785 30.4187 369.34 29.608C369.916 28.7973 370.726 28.1573 371.772 27.688C372.838 27.2187 374.086 26.984 375.516 26.984C377.628 26.984 379.313 27.5173 380.572 28.584C381.83 29.6293 382.524 31.048 382.652 32.84H378.364C378.3 32.136 378.001 31.5813 377.468 31.176C376.956 30.7493 376.262 30.536 375.388 30.536C374.577 30.536 373.948 30.6853 373.5 30.984C373.073 31.2827 372.86 31.6987 372.86 32.232C372.86 32.8293 373.158 33.288 373.756 33.608C374.353 33.9067 375.281 34.216 376.54 34.536C377.82 34.856 378.876 35.1867 379.708 35.528C380.54 35.8693 381.254 36.4027 381.852 37.128C382.47 37.832 382.79 38.7707 382.812 39.944C382.812 40.968 382.524 41.8853 381.948 42.696C381.393 43.5067 380.582 44.1467 379.516 44.616C378.47 45.064 377.244 45.288 375.836 45.288ZM270.88 81.544C272.139 81.7787 273.173 82.408 273.984 83.432C274.795 84.456 275.2 85.6293 275.2 86.952C275.2 88.1467 274.901 89.2027 274.304 90.12C273.728 91.016 272.885 91.72 271.776 92.232C270.667 92.744 269.355 93 267.84 93H258.208V70.664H267.424C268.939 70.664 270.24 70.9093 271.328 71.4C272.437 71.8907 273.269 72.5733 273.824 73.448C274.4 74.3227 274.688 75.3147 274.688 76.424C274.688 77.7253 274.336 78.8133 273.632 79.688C272.949 80.5627 272.032 81.1813 270.88 81.544ZM262.688 79.88H266.784C267.851 79.88 268.672 79.6453 269.248 79.176C269.824 78.6853 270.112 77.992 270.112 77.096C270.112 76.2 269.824 75.5067 269.248 75.016C268.672 74.5253 267.851 74.28 266.784 74.28H262.688V79.88ZM267.2 89.352C268.288 89.352 269.131 89.096 269.728 88.584C270.347 88.072 270.656 87.3467 270.656 86.408C270.656 85.448 270.336 84.7013 269.696 84.168C269.056 83.6133 268.192 83.336 267.104 83.336H262.688V89.352H267.2ZM295.251 83.752C295.251 84.392 295.208 84.968 295.123 85.48H282.163C282.269 86.76 282.717 87.7627 283.507 88.488C284.296 89.2133 285.267 89.576 286.419 89.576C288.083 89.576 289.267 88.8613 289.971 87.432H294.803C294.291 89.1387 293.309 90.5467 291.859 91.656C290.408 92.744 288.627 93.288 286.515 93.288C284.808 93.288 283.272 92.9147 281.907 92.168C280.563 91.4 279.507 90.3227 278.739 88.936C277.992 87.5493 277.618 85.9493 277.618 84.136C277.618 82.3013 277.992 80.6907 278.739 79.304C279.485 77.9173 280.531 76.8507 281.875 76.104C283.219 75.3573 284.765 74.984 286.515 74.984C288.2 74.984 289.704 75.3467 291.027 76.072C292.371 76.7973 293.405 77.832 294.131 79.176C294.877 80.4987 295.251 82.024 295.251 83.752ZM290.611 82.472C290.589 81.32 290.173 80.4027 289.363 79.72C288.552 79.016 287.56 78.664 286.387 78.664C285.277 78.664 284.339 79.0053 283.571 79.688C282.824 80.3493 282.365 81.2773 282.195 82.472H290.611ZM297.368 84.136C297.368 82.3013 297.742 80.7013 298.489 79.336C299.235 77.9493 300.27 76.8827 301.593 76.136C302.915 75.368 304.43 74.984 306.137 74.984C308.334 74.984 310.147 75.5387 311.577 76.648C313.027 77.736 313.998 79.272 314.489 81.256H309.657C309.401 80.488 308.963 79.8907 308.345 79.464C307.747 79.016 307.001 78.792 306.105 78.792C304.825 78.792 303.811 79.2613 303.065 80.2C302.318 81.1173 301.945 82.4293 301.945 84.136C301.945 85.8213 302.318 87.1333 303.065 88.072C303.811 88.9893 304.825 89.448 306.105 89.448C307.918 89.448 309.102 88.6373 309.657 87.016H314.489C313.998 88.936 313.027 90.4613 311.577 91.592C310.126 92.7227 308.313 93.288 306.137 93.288C304.43 93.288 302.915 92.9147 301.593 92.168C300.27 91.4 299.235 90.3333 298.489 88.968C297.742 87.5813 297.368 85.9707 297.368 84.136ZM325.643 93.288C323.936 93.288 322.4 92.9147 321.035 92.168C319.669 91.4 318.592 90.3227 317.803 88.936C317.035 87.5493 316.651 85.9493 316.651 84.136C316.651 82.3227 317.045 80.7227 317.835 79.336C318.645 77.9493 319.744 76.8827 321.131 76.136C322.517 75.368 324.064 74.984 325.771 74.984C327.477 74.984 329.024 75.368 330.411 76.136C331.797 76.8827 332.885 77.9493 333.675 79.336C334.485 80.7227 334.891 82.3227 334.891 84.136C334.891 85.9493 334.475 87.5493 333.642 88.936C332.832 90.3227 331.723 91.4 330.315 92.168C328.928 92.9147 327.371 93.288 325.643 93.288ZM325.643 89.384C326.453 89.384 327.211 89.192 327.915 88.808C328.64 88.4027 329.216 87.8053 329.643 87.016C330.069 86.2267 330.283 85.2667 330.283 84.136C330.283 82.4507 329.835 81.16 328.939 80.264C328.064 79.3467 326.987 78.888 325.707 78.888C324.427 78.888 323.349 79.3467 322.475 80.264C321.621 81.16 321.195 82.4507 321.195 84.136C321.195 85.8213 321.611 87.1227 322.443 88.04C323.296 88.936 324.363 89.384 325.643 89.384ZM360.193 75.016C362.369 75.016 364.118 75.688 365.441 77.032C366.785 78.3547 367.457 80.2107 367.457 82.6V93H362.977V83.208C362.977 81.8213 362.625 80.7653 361.921 80.04C361.217 79.2933 360.257 78.92 359.041 78.92C357.825 78.92 356.854 79.2933 356.129 80.04C355.425 80.7653 355.073 81.8213 355.073 83.208V93H350.593V83.208C350.593 81.8213 350.241 80.7653 349.537 80.04C348.833 79.2933 347.873 78.92 346.657 78.92C345.419 78.92 344.438 79.2933 343.713 80.04C343.009 80.7653 342.657 81.8213 342.657 83.208V93H338.177V75.272H342.657V77.416C343.233 76.6693 343.969 76.0827 344.865 75.656C345.782 75.2293 346.785 75.016 347.873 75.016C349.259 75.016 350.497 75.3147 351.585 75.912C352.673 76.488 353.515 77.32 354.113 78.408C354.689 77.384 355.521 76.5627 356.609 75.944C357.718 75.3253 358.913 75.016 360.193 75.016ZM388.188 83.752C388.188 84.392 388.145 84.968 388.06 85.48H375.1C375.207 86.76 375.655 87.7627 376.444 88.488C377.233 89.2133 378.204 89.576 379.356 89.576C381.02 89.576 382.204 88.8613 382.908 87.432H387.74C387.228 89.1387 386.247 90.5467 384.796 91.656C383.345 92.744 381.564 93.288 379.452 93.288C377.745 93.288 376.209 92.9147 374.844 92.168C373.5 91.4 372.444 90.3227 371.676 88.936C370.929 87.5493 370.556 85.9493 370.556 84.136C370.556 82.3013 370.929 80.6907 371.676 79.304C372.423 77.9173 373.468 76.8507 374.812 76.104C376.156 75.3573 377.703 74.984 379.452 74.984C381.137 74.984 382.641 75.3467 383.964 76.072C385.308 76.7973 386.343 77.832 387.068 79.176C387.815 80.4987 388.188 82.024 388.188 83.752ZM383.548 82.472C383.527 81.32 383.111 80.4027 382.3 79.72C381.489 79.016 380.497 78.664 379.324 78.664C378.215 78.664 377.276 79.0053 376.508 79.688C375.761 80.3493 375.303 81.2773 375.132 82.472H383.548ZM272 118.664V122.28H262.688V128.008H269.824V131.56H262.688V141H258.208V118.664H272ZM283.049 141.288C281.342 141.288 279.806 140.915 278.441 140.168C277.075 139.4 275.998 138.323 275.209 136.936C274.441 135.549 274.057 133.949 274.057 132.136C274.057 130.323 274.451 128.723 275.241 127.336C276.051 125.949 277.15 124.883 278.537 124.136C279.923 123.368 281.47 122.984 283.177 122.984C284.883 122.984 286.43 123.368 287.817 124.136C289.203 124.883 290.291 125.949 291.081 127.336C291.891 128.723 292.297 130.323 292.297 132.136C292.297 133.949 291.881 135.549 291.049 136.936C290.238 138.323 289.129 139.4 287.721 140.168C286.334 140.915 284.777 141.288 283.049 141.288ZM283.049 137.384C283.859 137.384 284.617 137.192 285.321 136.808C286.046 136.403 286.622 135.805 287.049 135.016C287.475 134.227 287.689 133.267 287.689 132.136C287.689 130.451 287.241 129.16 286.345 128.264C285.47 127.347 284.393 126.888 283.113 126.888C281.833 126.888 280.755 127.347 279.881 128.264C279.027 129.16 278.601 130.451 278.601 132.136C278.601 133.821 279.017 135.123 279.849 136.04C280.702 136.936 281.769 137.384 283.049 137.384ZM300.063 126.024C300.639 125.085 301.386 124.349 302.303 123.816C303.242 123.283 304.308 123.016 305.503 123.016V127.72H304.319C302.911 127.72 301.844 128.051 301.119 128.712C300.415 129.373 300.063 130.525 300.063 132.168V141H295.583V123.272H300.063V126.024ZM330.537 123.016C332.713 123.016 334.462 123.688 335.785 125.032C337.129 126.355 337.801 128.211 337.801 130.6V141H333.321V131.208C333.321 129.821 332.969 128.765 332.265 128.04C331.561 127.293 330.601 126.92 329.385 126.92C328.169 126.92 327.198 127.293 326.473 128.04C325.769 128.765 325.417 129.821 325.417 131.208V141H320.937V131.208C320.937 129.821 320.585 128.765 319.881 128.04C319.177 127.293 318.217 126.92 317.001 126.92C315.763 126.92 314.782 127.293 314.057 128.04C313.353 128.765 313.001 129.821 313.001 131.208V141H308.521V123.272H313.001V125.416C313.577 124.669 314.313 124.083 315.209 123.656C316.126 123.229 317.129 123.016 318.217 123.016C319.603 123.016 320.841 123.315 321.929 123.912C323.017 124.488 323.859 125.32 324.457 126.408C325.033 125.384 325.865 124.563 326.953 123.944C328.062 123.325 329.257 123.016 330.537 123.016ZM348.836 141.288C347.385 141.288 346.084 141.032 344.932 140.52C343.78 139.987 342.862 139.272 342.18 138.376C341.518 137.48 341.156 136.488 341.092 135.4H345.604C345.689 136.083 346.02 136.648 346.596 137.096C347.193 137.544 347.929 137.768 348.804 137.768C349.657 137.768 350.318 137.597 350.788 137.256C351.278 136.915 351.524 136.477 351.524 135.944C351.524 135.368 351.225 134.941 350.628 134.664C350.052 134.365 349.124 134.045 347.844 133.704C346.521 133.384 345.433 133.053 344.58 132.712C343.748 132.371 343.022 131.848 342.404 131.144C341.806 130.44 341.508 129.491 341.508 128.296C341.508 127.315 341.785 126.419 342.34 125.608C342.916 124.797 343.726 124.157 344.772 123.688C345.838 123.219 347.086 122.984 348.516 122.984C350.628 122.984 352.313 123.517 353.572 124.584C354.83 125.629 355.524 127.048 355.652 128.84H351.364C351.3 128.136 351.001 127.581 350.468 127.176C349.956 126.749 349.262 126.536 348.388 126.536C347.577 126.536 346.948 126.685 346.5 126.984C346.073 127.283 345.86 127.699 345.86 128.232C345.86 128.829 346.158 129.288 346.756 129.608C347.353 129.907 348.281 130.216 349.54 130.536C350.82 130.856 351.876 131.187 352.708 131.528C353.54 131.869 354.254 132.403 354.852 133.128C355.47 133.832 355.79 134.771 355.812 135.944C355.812 136.968 355.524 137.885 354.948 138.696C354.393 139.507 353.582 140.147 352.516 140.616C351.47 141.064 350.244 141.288 348.836 141.288ZM384.298 141L381.866 138.6C379.797 140.456 377.269 141.384 374.282 141.384C372.64 141.384 371.189 141.107 369.93 140.552C368.693 139.976 367.733 139.176 367.05 138.152C366.368 137.107 366.026 135.901 366.026 134.536C366.026 133.064 366.442 131.741 367.274 130.568C368.106 129.395 369.333 128.445 370.954 127.72C370.378 127.016 369.962 126.344 369.706 125.704C369.45 125.043 369.322 124.339 369.322 123.592C369.322 122.568 369.589 121.651 370.122 120.84C370.656 120.008 371.413 119.357 372.394 118.888C373.397 118.419 374.56 118.184 375.882 118.184C377.226 118.184 378.378 118.44 379.338 118.952C380.298 119.464 381.013 120.147 381.482 121C381.952 121.853 382.154 122.803 382.09 123.848H377.738C377.76 123.144 377.589 122.611 377.226 122.248C376.864 121.864 376.373 121.672 375.754 121.672C375.157 121.672 374.656 121.853 374.25 122.216C373.866 122.557 373.674 123.005 373.674 123.56C373.674 124.093 373.834 124.627 374.154 125.16C374.474 125.672 374.997 126.312 375.722 127.08L381.354 132.648C381.397 132.605 381.429 132.563 381.45 132.52C381.472 132.477 381.493 132.435 381.514 132.392L383.338 129.352H388.01L385.77 133.288C385.344 134.12 384.885 134.909 384.394 135.656L389.802 141H384.298ZM374.41 137.672C376.16 137.672 377.706 137.053 379.05 135.816L373.546 130.376C371.477 131.293 370.442 132.595 370.442 134.28C370.442 135.24 370.805 136.051 371.53 136.712C372.256 137.352 373.216 137.672 374.41 137.672ZM262.688 166.664V189H258.208V166.664H262.688ZM265.962 180.072C265.962 178.28 266.314 176.691 267.018 175.304C267.744 173.917 268.725 172.851 269.962 172.104C271.2 171.357 272.576 170.984 274.09 170.984C275.242 170.984 276.341 171.24 277.386 171.752C278.432 172.243 279.264 172.904 279.882 173.736V165.32H284.426V189H279.882V186.376C279.328 187.251 278.549 187.955 277.546 188.488C276.544 189.021 275.381 189.288 274.058 189.288C272.565 189.288 271.2 188.904 269.962 188.136C268.725 187.368 267.744 186.291 267.018 184.904C266.314 183.496 265.962 181.885 265.962 180.072ZM279.914 180.136C279.914 179.048 279.701 178.12 279.274 177.352C278.848 176.563 278.272 175.965 277.546 175.56C276.821 175.133 276.042 174.92 275.21 174.92C274.378 174.92 273.61 175.123 272.906 175.528C272.202 175.933 271.626 176.531 271.178 177.32C270.752 178.088 270.538 179.005 270.538 180.072C270.538 181.139 270.752 182.077 271.178 182.888C271.626 183.677 272.202 184.285 272.906 184.712C273.632 185.139 274.4 185.352 275.21 185.352C276.042 185.352 276.821 185.149 277.546 184.744C278.272 184.317 278.848 183.72 279.274 182.952C279.701 182.163 279.914 181.224 279.914 180.136ZM305.282 179.752C305.282 180.392 305.239 180.968 305.154 181.48H292.194C292.3 182.76 292.748 183.763 293.538 184.488C294.327 185.213 295.298 185.576 296.45 185.576C298.114 185.576 299.298 184.861 300.002 183.432H304.834C304.322 185.139 303.34 186.547 301.89 187.656C300.439 188.744 298.658 189.288 296.546 189.288C294.839 189.288 293.303 188.915 291.938 188.168C290.594 187.4 289.538 186.323 288.77 184.936C288.023 183.549 287.65 181.949 287.65 180.136C287.65 178.301 288.023 176.691 288.77 175.304C289.516 173.917 290.562 172.851 291.906 172.104C293.25 171.357 294.796 170.984 296.546 170.984C298.231 170.984 299.735 171.347 301.058 172.072C302.402 172.797 303.436 173.832 304.162 175.176C304.908 176.499 305.282 178.024 305.282 179.752ZM300.642 178.472C300.62 177.32 300.204 176.403 299.394 175.72C298.583 175.016 297.591 174.664 296.418 174.664C295.308 174.664 294.37 175.005 293.602 175.688C292.855 176.349 292.396 177.277 292.226 178.472H300.642ZM307.4 180.072C307.4 178.28 307.752 176.691 308.456 175.304C309.181 173.917 310.152 172.851 311.368 172.104C312.605 171.357 313.981 170.984 315.496 170.984C316.818 170.984 317.97 171.251 318.952 171.784C319.954 172.317 320.754 172.989 321.352 173.8V171.272H325.864V189H321.352V186.408C320.776 187.24 319.976 187.933 318.952 188.488C317.949 189.021 316.786 189.288 315.464 189.288C313.97 189.288 312.605 188.904 311.368 188.136C310.152 187.368 309.181 186.291 308.456 184.904C307.752 183.496 307.4 181.885 307.4 180.072ZM321.352 180.136C321.352 179.048 321.138 178.12 320.712 177.352C320.285 176.563 319.709 175.965 318.984 175.56C318.258 175.133 317.48 174.92 316.648 174.92C315.816 174.92 315.048 175.123 314.344 175.528C313.64 175.933 313.064 176.531 312.616 177.32C312.189 178.088 311.976 179.005 311.976 180.072C311.976 181.139 312.189 182.077 312.616 182.888C313.064 183.677 313.64 184.285 314.344 184.712C315.069 185.139 315.837 185.352 316.648 185.352C317.48 185.352 318.258 185.149 318.984 184.744C319.709 184.317 320.285 183.72 320.712 182.952C321.138 182.163 321.352 181.224 321.352 180.136ZM337.023 189.288C335.573 189.288 334.271 189.032 333.119 188.52C331.967 187.987 331.05 187.272 330.367 186.376C329.706 185.48 329.343 184.488 329.279 183.4H333.791C333.877 184.083 334.207 184.648 334.783 185.096C335.381 185.544 336.117 185.768 336.991 185.768C337.845 185.768 338.506 185.597 338.975 185.256C339.466 184.915 339.711 184.477 339.711 183.944C339.711 183.368 339.413 182.941 338.815 182.664C338.239 182.365 337.311 182.045 336.031 181.704C334.709 181.384 333.621 181.053 332.767 180.712C331.935 180.371 331.21 179.848 330.591 179.144C329.994 178.44 329.695 177.491 329.695 176.296C329.695 175.315 329.973 174.419 330.527 173.608C331.103 172.797 331.914 172.157 332.959 171.688C334.026 171.219 335.274 170.984 336.703 170.984C338.815 170.984 340.501 171.517 341.759 172.584C343.018 173.629 343.711 175.048 343.839 176.84H339.551C339.487 176.136 339.189 175.581 338.655 175.176C338.143 174.749 337.45 174.536 336.575 174.536C335.765 174.536 335.135 174.685 334.687 174.984C334.261 175.283 334.047 175.699 334.047 176.232C334.047 176.829 334.346 177.288 334.943 177.608C335.541 177.907 336.469 178.216 337.727 178.536C339.007 178.856 340.063 179.187 340.895 179.528C341.727 179.869 342.442 180.403 343.039 181.128C343.658 181.832 343.978 182.771 343.999 183.944C343.999 184.968 343.711 185.885 343.135 186.696C342.581 187.507 341.77 188.147 340.703 188.616C339.658 189.064 338.431 189.288 337.023 189.288Z" fill="#001B72"/>
<defs>
<filter id="filter0_d_306_2900" x="0" y="3.5" width="234" height="235" filterUnits="userSpaceOnUse" color-interpolation-filters="sRGB">
<feFlood flood-opacity="0" result="BackgroundImageFix"/>
<feColorMatrix in="SourceAlpha" type="matrix" values="0 0 0 0 0 0 0 0 0 0 0 0 0 0 0 0 0 0 127 0" result="hardAlpha"/>
<feOffset dy="15"/>
<feGaussianBlur stdDeviation="7.5"/>
<feComposite in2="hardAlpha" operator="out"/>
<feColorMatrix type="matrix" values="0 0 0 0 0 0 0 0 0 0 0 0 0 0 0 0 0 0 0.25 0"/>
<feBlend mode="normal" in2="BackgroundImageFix" result="effect1_dropShadow_306_2900"/>
<feBlend mode="normal" in="SourceGraphic" in2="effect1_dropShadow_306_2900" result="shape"/>
</filter>
</defs>
</svg>
