<svg width="487" height="255" viewBox="0 0 487 255" fill="none" xmlns="http://www.w3.org/2000/svg">
<path d="M102 230C158.333 230 204 184.109 204 127.5C204 70.8908 158.333 25 102 25C45.667 25 0 70.8908 0 127.5C0 184.109 45.667 230 102 230Z" fill="#001B72"/>
<g filter="url(#filter0_d_306_2908)">
<path d="M159.279 133.559C158.777 140.628 155.762 147.192 151.24 152.241C145.713 158.301 139.181 161.33 131.141 161.33H107.023V134.064H159.279M161.791 131.539H105.516V163.35H131.644C140.186 163.35 147.22 160.32 153.25 153.756C158.274 147.697 161.289 140.628 161.791 131.539Z" fill="#F2F2F2"/>
</g>
<path d="M166.315 120.936L111.547 107.808L119.084 77.0074L144.709 83.0665C152.749 85.0862 159.281 90.1355 163.301 97.7094C166.818 104.273 167.823 112.352 166.315 120.936Z" fill="#F2F2F2"/>
<path d="M95.4676 93.67V120.936H44.7188C45.2213 113.362 48.2361 107.303 52.7582 102.254C58.2853 96.1946 64.8174 93.165 72.8568 93.165H95.4676M97.4775 91.6503H72.8568C64.3149 91.6503 57.2804 94.6798 51.2509 101.244C45.7238 107.303 42.709 114.372 42.709 123.461H97.9799V91.6503H97.4775Z" fill="#F2F2F2"/>
<path d="M97.4775 131.539V163.35H72.8568C64.3149 163.35 57.2804 160.32 51.2509 153.756C45.7238 147.697 42.709 140.123 42.709 131.539H97.4775Z" fill="#F2F2F2"/>
<path d="M186.413 125.48V129.52H103.507H99.4869H18.0879V125.48H99.4869H103.507H186.413Z" fill="#F2F2F2"/>
<path d="M103.506 70.9483H99.4863V184.557H103.506V70.9483Z" fill="#F2F2F2"/>
<path d="M257 68.164V71.78H247.688V77.508H254.824V81.06H247.688V90.5H243.208V68.164H257ZM264.657 75.524C265.233 74.5853 265.979 73.8493 266.897 73.316C267.835 72.7827 268.902 72.516 270.097 72.516V77.22H268.913C267.505 77.22 266.438 77.5507 265.713 78.212C265.009 78.8733 264.657 80.0253 264.657 81.668V90.5H260.177V72.772H264.657V75.524ZM280.986 90.788C279.28 90.788 277.744 90.4147 276.378 89.668C275.013 88.9 273.936 87.8227 273.146 86.436C272.378 85.0493 271.994 83.4493 271.994 81.636C271.994 79.8227 272.389 78.2227 273.178 76.836C273.989 75.4493 275.088 74.3827 276.474 73.636C277.861 72.868 279.408 72.484 281.114 72.484C282.821 72.484 284.368 72.868 285.754 73.636C287.141 74.3827 288.229 75.4493 289.018 76.836C289.829 78.2227 290.234 79.8227 290.234 81.636C290.234 83.4493 289.818 85.0493 288.986 86.436C288.176 87.8227 287.066 88.9 285.658 89.668C284.272 90.4147 282.714 90.788 280.986 90.788ZM280.986 86.884C281.797 86.884 282.554 86.692 283.258 86.308C283.984 85.9027 284.56 85.3053 284.986 84.516C285.413 83.7267 285.626 82.7667 285.626 81.636C285.626 79.9507 285.178 78.66 284.282 77.764C283.408 76.8467 282.33 76.388 281.05 76.388C279.77 76.388 278.693 76.8467 277.818 77.764C276.965 78.66 276.538 79.9507 276.538 81.636C276.538 83.3213 276.954 84.6227 277.786 85.54C278.64 86.436 279.706 86.884 280.986 86.884ZM315.537 72.516C317.713 72.516 319.462 73.188 320.785 74.532C322.129 75.8547 322.801 77.7107 322.801 80.1V90.5H318.321V80.708C318.321 79.3213 317.969 78.2653 317.265 77.54C316.561 76.7933 315.601 76.42 314.385 76.42C313.169 76.42 312.198 76.7933 311.473 77.54C310.769 78.2653 310.417 79.3213 310.417 80.708V90.5H305.937V80.708C305.937 79.3213 305.585 78.2653 304.881 77.54C304.177 76.7933 303.217 76.42 302.001 76.42C300.763 76.42 299.782 76.7933 299.057 77.54C298.353 78.2653 298.001 79.3213 298.001 80.708V90.5H293.521V72.772H298.001V74.916C298.577 74.1693 299.313 73.5827 300.209 73.156C301.126 72.7293 302.129 72.516 303.217 72.516C304.603 72.516 305.841 72.8147 306.929 73.412C308.017 73.988 308.859 74.82 309.457 75.908C310.033 74.884 310.865 74.0627 311.953 73.444C313.062 72.8253 314.257 72.516 315.537 72.516ZM339.157 68.164V90.5H334.677V68.164H339.157ZM342.431 81.572C342.431 79.78 342.783 78.1907 343.487 76.804C344.212 75.4173 345.194 74.3507 346.431 73.604C347.668 72.8573 349.044 72.484 350.559 72.484C351.711 72.484 352.81 72.74 353.855 73.252C354.9 73.7427 355.732 74.404 356.351 75.236V66.82H360.895V90.5H356.351V87.876C355.796 88.7507 355.018 89.4547 354.015 89.988C353.012 90.5213 351.85 90.788 350.527 90.788C349.034 90.788 347.668 90.404 346.431 89.636C345.194 88.868 344.212 87.7907 343.487 86.404C342.783 84.996 342.431 83.3853 342.431 81.572ZM356.383 81.636C356.383 80.548 356.17 79.62 355.743 78.852C355.316 78.0627 354.74 77.4653 354.015 77.06C353.29 76.6333 352.511 76.42 351.679 76.42C350.847 76.42 350.079 76.6227 349.375 77.028C348.671 77.4333 348.095 78.0307 347.647 78.82C347.22 79.588 347.007 80.5053 347.007 81.572C347.007 82.6387 347.22 83.5773 347.647 84.388C348.095 85.1773 348.671 85.7853 349.375 86.212C350.1 86.6387 350.868 86.852 351.679 86.852C352.511 86.852 353.29 86.6493 354.015 86.244C354.74 85.8173 355.316 85.22 355.743 84.452C356.17 83.6627 356.383 82.724 356.383 81.636ZM381.751 81.252C381.751 81.892 381.708 82.468 381.623 82.98H368.663C368.769 84.26 369.217 85.2627 370.007 85.988C370.796 86.7133 371.767 87.076 372.919 87.076C374.583 87.076 375.767 86.3613 376.471 84.932H381.303C380.791 86.6387 379.809 88.0467 378.359 89.156C376.908 90.244 375.127 90.788 373.015 90.788C371.308 90.788 369.772 90.4147 368.407 89.668C367.063 88.9 366.007 87.8227 365.239 86.436C364.492 85.0493 364.118 83.4493 364.118 81.636C364.118 79.8013 364.492 78.1907 365.239 76.804C365.985 75.4173 367.031 74.3507 368.375 73.604C369.719 72.8573 371.265 72.484 373.015 72.484C374.7 72.484 376.204 72.8467 377.527 73.572C378.871 74.2973 379.905 75.332 380.631 76.676C381.377 77.9987 381.751 79.524 381.751 81.252ZM377.111 79.972C377.089 78.82 376.673 77.9027 375.863 77.22C375.052 76.516 374.06 76.164 372.887 76.164C371.777 76.164 370.839 76.5053 370.071 77.188C369.324 77.8493 368.865 78.7773 368.695 79.972H377.111ZM383.868 81.572C383.868 79.78 384.22 78.1907 384.924 76.804C385.65 75.4173 386.621 74.3507 387.837 73.604C389.074 72.8573 390.45 72.484 391.965 72.484C393.287 72.484 394.439 72.7507 395.421 73.284C396.423 73.8173 397.223 74.4893 397.821 75.3V72.772H402.333V90.5H397.821V87.908C397.245 88.74 396.445 89.4333 395.421 89.988C394.418 90.5213 393.255 90.788 391.933 90.788C390.439 90.788 389.074 90.404 387.837 89.636C386.621 88.868 385.65 87.7907 384.924 86.404C384.22 84.996 383.868 83.3853 383.868 81.572ZM397.821 81.636C397.821 80.548 397.607 79.62 397.181 78.852C396.754 78.0627 396.178 77.4653 395.453 77.06C394.727 76.6333 393.949 76.42 393.117 76.42C392.285 76.42 391.517 76.6227 390.812 77.028C390.109 77.4333 389.533 78.0307 389.085 78.82C388.658 79.588 388.445 80.5053 388.445 81.572C388.445 82.6387 388.658 83.5773 389.085 84.388C389.533 85.1773 390.109 85.7853 390.812 86.212C391.538 86.6387 392.306 86.852 393.117 86.852C393.949 86.852 394.727 86.6493 395.453 86.244C396.178 85.8173 396.754 85.22 397.181 84.452C397.607 83.6627 397.821 82.724 397.821 81.636ZM413.492 90.788C412.041 90.788 410.74 90.532 409.588 90.02C408.436 89.4867 407.519 88.772 406.836 87.876C406.175 86.98 405.812 85.988 405.748 84.9H410.26C410.345 85.5827 410.676 86.148 411.252 86.596C411.849 87.044 412.585 87.268 413.46 87.268C414.313 87.268 414.975 87.0973 415.444 86.756C415.935 86.4147 416.18 85.9773 416.18 85.444C416.18 84.868 415.881 84.4413 415.284 84.164C414.708 83.8653 413.78 83.5453 412.5 83.204C411.177 82.884 410.089 82.5533 409.236 82.212C408.404 81.8707 407.679 81.348 407.06 80.644C406.463 79.94 406.164 78.9907 406.164 77.796C406.164 76.8147 406.441 75.9187 406.996 75.108C407.572 74.2973 408.383 73.6573 409.428 73.188C410.495 72.7187 411.743 72.484 413.172 72.484C415.284 72.484 416.969 73.0173 418.228 74.084C419.487 75.1293 420.18 76.548 420.308 78.34H416.02C415.956 77.636 415.657 77.0813 415.124 76.676C414.612 76.2493 413.919 76.036 413.044 76.036C412.233 76.036 411.604 76.1853 411.156 76.484C410.729 76.7827 410.516 77.1987 410.516 77.732C410.516 78.3293 410.815 78.788 411.412 79.108C412.009 79.4067 412.937 79.716 414.196 80.036C415.476 80.356 416.532 80.6867 417.364 81.028C418.196 81.3693 418.911 81.9027 419.508 82.628C420.127 83.332 420.447 84.2707 420.468 85.444C420.468 86.468 420.18 87.3853 419.604 88.196C419.049 89.0067 418.239 89.6467 417.172 90.116C416.127 90.564 414.9 90.788 413.492 90.788ZM436.987 76.452V85.028C436.987 85.6253 437.125 86.0627 437.403 86.34C437.701 86.596 438.192 86.724 438.875 86.724H440.955V90.5H438.139C434.363 90.5 432.475 88.6653 432.475 84.996V76.452H430.363V72.772H432.475V68.388H436.987V72.772H440.955V76.452H436.987ZM452.049 90.788C450.342 90.788 448.806 90.4147 447.441 89.668C446.075 88.9 444.998 87.8227 444.209 86.436C443.441 85.0493 443.057 83.4493 443.057 81.636C443.057 79.8227 443.451 78.2227 444.241 76.836C445.051 75.4493 446.15 74.3827 447.537 73.636C448.923 72.868 450.47 72.484 452.177 72.484C453.883 72.484 455.43 72.868 456.817 73.636C458.203 74.3827 459.291 75.4493 460.081 76.836C460.891 78.2227 461.297 79.8227 461.297 81.636C461.297 83.4493 460.881 85.0493 460.049 86.436C459.238 87.8227 458.129 88.9 456.721 89.668C455.334 90.4147 453.777 90.788 452.049 90.788ZM452.049 86.884C452.859 86.884 453.617 86.692 454.321 86.308C455.046 85.9027 455.622 85.3053 456.049 84.516C456.475 83.7267 456.689 82.7667 456.689 81.636C456.689 79.9507 456.241 78.66 455.345 77.764C454.47 76.8467 453.393 76.388 452.113 76.388C450.833 76.388 449.755 76.8467 448.881 77.764C448.027 78.66 447.601 79.9507 447.601 81.636C447.601 83.3213 448.017 84.6227 448.849 85.54C449.702 86.436 450.769 86.884 452.049 86.884ZM251.016 116.164C253.363 116.164 255.421 116.623 257.192 117.54C258.984 118.457 260.36 119.769 261.32 121.476C262.301 123.161 262.792 125.124 262.792 127.364C262.792 129.604 262.301 131.567 261.32 133.252C260.36 134.916 258.984 136.207 257.192 137.124C255.421 138.041 253.363 138.5 251.016 138.5H243.208V116.164H251.016ZM250.856 134.692C253.203 134.692 255.016 134.052 256.296 132.772C257.576 131.492 258.216 129.689 258.216 127.364C258.216 125.039 257.576 123.225 256.296 121.924C255.016 120.601 253.203 119.94 250.856 119.94H247.688V134.692H250.856ZM282.626 129.252C282.626 129.892 282.583 130.468 282.498 130.98H269.538C269.644 132.26 270.092 133.263 270.882 133.988C271.671 134.713 272.642 135.076 273.794 135.076C275.458 135.076 276.642 134.361 277.346 132.932H282.178C281.666 134.639 280.684 136.047 279.234 137.156C277.783 138.244 276.002 138.788 273.89 138.788C272.183 138.788 270.647 138.415 269.282 137.668C267.938 136.9 266.882 135.823 266.114 134.436C265.367 133.049 264.993 131.449 264.993 129.636C264.993 127.801 265.367 126.191 266.114 124.804C266.86 123.417 267.906 122.351 269.25 121.604C270.594 120.857 272.14 120.484 273.89 120.484C275.575 120.484 277.079 120.847 278.402 121.572C279.746 122.297 280.78 123.332 281.506 124.676C282.252 125.999 282.626 127.524 282.626 129.252ZM277.986 127.972C277.964 126.82 277.548 125.903 276.738 125.22C275.927 124.516 274.935 124.164 273.762 124.164C272.652 124.164 271.714 124.505 270.946 125.188C270.199 125.849 269.74 126.777 269.57 127.972H277.986ZM291.112 124.452V133.028C291.112 133.625 291.25 134.063 291.528 134.34C291.826 134.596 292.317 134.724 293 134.724H295.08V138.5H292.264C288.488 138.5 286.6 136.665 286.6 132.996V124.452H284.488V120.772H286.6V116.388H291.112V120.772H295.08V124.452H291.112ZM297.15 129.572C297.15 127.78 297.502 126.191 298.206 124.804C298.931 123.417 299.902 122.351 301.118 121.604C302.355 120.857 303.731 120.484 305.246 120.484C306.568 120.484 307.72 120.751 308.702 121.284C309.704 121.817 310.504 122.489 311.102 123.3V120.772H315.614V138.5H311.102V135.908C310.526 136.74 309.726 137.433 308.702 137.988C307.699 138.521 306.536 138.788 305.214 138.788C303.72 138.788 302.355 138.404 301.118 137.636C299.902 136.868 298.931 135.791 298.206 134.404C297.502 132.996 297.15 131.385 297.15 129.572ZM311.102 129.636C311.102 128.548 310.888 127.62 310.462 126.852C310.035 126.063 309.459 125.465 308.734 125.06C308.008 124.633 307.23 124.42 306.398 124.42C305.566 124.42 304.798 124.623 304.094 125.028C303.39 125.433 302.814 126.031 302.366 126.82C301.939 127.588 301.726 128.505 301.726 129.572C301.726 130.639 301.939 131.577 302.366 132.388C302.814 133.177 303.39 133.785 304.094 134.212C304.819 134.639 305.587 134.852 306.398 134.852C307.23 134.852 308.008 134.649 308.734 134.244C309.459 133.817 310.035 133.22 310.462 132.452C310.888 131.663 311.102 130.724 311.102 129.636ZM322.261 118.66C321.472 118.66 320.811 118.415 320.277 117.924C319.765 117.412 319.509 116.783 319.509 116.036C319.509 115.289 319.765 114.671 320.277 114.18C320.811 113.668 321.472 113.412 322.261 113.412C323.051 113.412 323.701 113.668 324.213 114.18C324.747 114.671 325.013 115.289 325.013 116.036C325.013 116.783 324.747 117.412 324.213 117.924C323.701 118.415 323.051 118.66 322.261 118.66ZM324.469 120.772V138.5H319.989V120.772H324.469ZM333.376 114.82V138.5H328.896V114.82H333.376ZM361.715 123.076C361.715 124.271 361.427 125.391 360.851 126.436C360.296 127.481 359.411 128.324 358.195 128.964C357 129.604 355.485 129.924 353.651 129.924H349.907V138.5H345.427V116.164H353.651C355.379 116.164 356.851 116.463 358.067 117.06C359.283 117.657 360.189 118.479 360.787 119.524C361.405 120.569 361.715 121.753 361.715 123.076ZM353.459 126.308C354.696 126.308 355.613 126.031 356.211 125.476C356.808 124.9 357.107 124.1 357.107 123.076C357.107 120.9 355.891 119.812 353.459 119.812H349.907V126.308H353.459ZM381.376 129.252C381.376 129.892 381.333 130.468 381.248 130.98H368.288C368.394 132.26 368.842 133.263 369.632 133.988C370.421 134.713 371.392 135.076 372.544 135.076C374.208 135.076 375.392 134.361 376.096 132.932H380.928C380.416 134.639 379.434 136.047 377.984 137.156C376.533 138.244 374.752 138.788 372.64 138.788C370.933 138.788 369.397 138.415 368.032 137.668C366.688 136.9 365.632 135.823 364.864 134.436C364.117 133.049 363.743 131.449 363.743 129.636C363.743 127.801 364.117 126.191 364.864 124.804C365.61 123.417 366.656 122.351 368 121.604C369.344 120.857 370.89 120.484 372.64 120.484C374.325 120.484 375.829 120.847 377.152 121.572C378.496 122.297 379.53 123.332 380.256 124.676C381.002 125.999 381.376 127.524 381.376 129.252ZM376.736 127.972C376.714 126.82 376.298 125.903 375.488 125.22C374.677 124.516 373.685 124.164 372.512 124.164C371.402 124.164 370.464 124.505 369.696 125.188C368.949 125.849 368.49 126.777 368.32 127.972H376.736ZM389.126 123.524C389.702 122.585 390.448 121.849 391.366 121.316C392.304 120.783 393.371 120.516 394.566 120.516V125.22H393.382C391.974 125.22 390.907 125.551 390.182 126.212C389.478 126.873 389.126 128.025 389.126 129.668V138.5H384.646V120.772H389.126V123.524ZM405.711 124.452H402.607V138.5H398.063V124.452H396.047V120.772H398.063V119.876C398.063 117.7 398.682 116.1 399.919 115.076C401.156 114.052 403.023 113.572 405.519 113.636V117.412C404.431 117.391 403.674 117.572 403.247 117.956C402.82 118.34 402.607 119.033 402.607 120.036V120.772H405.711V124.452ZM425.094 129.252C425.094 129.892 425.052 130.468 424.966 130.98H412.006C412.113 132.26 412.561 133.263 413.35 133.988C414.14 134.713 415.11 135.076 416.262 135.076C417.926 135.076 419.11 134.361 419.814 132.932H424.646C424.134 134.639 423.153 136.047 421.702 137.156C420.252 138.244 418.47 138.788 416.358 138.788C414.652 138.788 413.116 138.415 411.75 137.668C410.406 136.9 409.35 135.823 408.582 134.436C407.836 133.049 407.462 131.449 407.462 129.636C407.462 127.801 407.836 126.191 408.582 124.804C409.329 123.417 410.374 122.351 411.718 121.604C413.062 120.857 414.609 120.484 416.358 120.484C418.044 120.484 419.548 120.847 420.87 121.572C422.214 122.297 423.249 123.332 423.974 124.676C424.721 125.999 425.094 127.524 425.094 129.252ZM420.454 127.972C420.433 126.82 420.017 125.903 419.206 125.22C418.396 124.516 417.404 124.164 416.23 124.164C415.121 124.164 414.182 124.505 413.414 125.188C412.668 125.849 412.209 126.777 412.038 127.972H420.454ZM427.212 129.636C427.212 127.801 427.586 126.201 428.332 124.836C429.079 123.449 430.114 122.383 431.436 121.636C432.759 120.868 434.274 120.484 435.98 120.484C438.178 120.484 439.991 121.039 441.42 122.148C442.871 123.236 443.842 124.772 444.332 126.756H439.5C439.244 125.988 438.807 125.391 438.188 124.964C437.591 124.516 436.844 124.292 435.948 124.292C434.668 124.292 433.655 124.761 432.908 125.7C432.162 126.617 431.788 127.929 431.788 129.636C431.788 131.321 432.162 132.633 432.908 133.572C433.655 134.489 434.668 134.948 435.948 134.948C437.762 134.948 438.946 134.137 439.5 132.516H444.332C443.842 134.436 442.871 135.961 441.42 137.092C439.97 138.223 438.156 138.788 435.98 138.788C434.274 138.788 432.759 138.415 431.436 137.668C430.114 136.9 429.079 135.833 428.332 134.468C427.586 133.081 427.212 131.471 427.212 129.636ZM452.83 124.452V133.028C452.83 133.625 452.969 134.063 453.246 134.34C453.545 134.596 454.036 134.724 454.718 134.724H456.798V138.5H453.982C450.206 138.5 448.318 136.665 448.318 132.996V124.452H446.206V120.772H448.318V116.388H452.83V120.772H456.798V124.452H452.83ZM254.728 186.5L249.8 177.796H247.688V186.5H243.208V164.164H251.592C253.32 164.164 254.792 164.473 256.008 165.092C257.224 165.689 258.131 166.511 258.728 167.556C259.347 168.58 259.656 169.732 259.656 171.012C259.656 172.484 259.229 173.817 258.376 175.012C257.523 176.185 256.253 176.996 254.568 177.444L259.912 186.5H254.728ZM247.688 174.436H251.432C252.648 174.436 253.555 174.148 254.152 173.572C254.749 172.975 255.048 172.153 255.048 171.108C255.048 170.084 254.749 169.295 254.152 168.74C253.555 168.164 252.648 167.876 251.432 167.876H247.688V174.436ZM280.188 177.252C280.188 177.892 280.145 178.468 280.06 178.98H267.1C267.207 180.26 267.655 181.263 268.444 181.988C269.233 182.713 270.204 183.076 271.356 183.076C273.02 183.076 274.204 182.361 274.908 180.932H279.74C279.228 182.639 278.247 184.047 276.796 185.156C275.345 186.244 273.564 186.788 271.452 186.788C269.745 186.788 268.209 186.415 266.844 185.668C265.5 184.9 264.444 183.823 263.676 182.436C262.929 181.049 262.556 179.449 262.556 177.636C262.556 175.801 262.929 174.191 263.676 172.804C264.423 171.417 265.468 170.351 266.812 169.604C268.156 168.857 269.703 168.484 271.452 168.484C273.137 168.484 274.641 168.847 275.964 169.572C277.308 170.297 278.343 171.332 279.068 172.676C279.815 173.999 280.188 175.524 280.188 177.252ZM275.548 175.972C275.527 174.82 275.111 173.903 274.3 173.22C273.489 172.516 272.497 172.164 271.324 172.164C270.215 172.164 269.276 172.505 268.508 173.188C267.761 173.849 267.303 174.777 267.132 175.972H275.548ZM282.306 177.572C282.306 175.78 282.658 174.191 283.362 172.804C284.087 171.417 285.058 170.351 286.274 169.604C287.511 168.857 288.887 168.484 290.402 168.484C291.725 168.484 292.877 168.751 293.858 169.284C294.861 169.817 295.661 170.489 296.258 171.3V168.772H300.77V186.5H296.258V183.908C295.682 184.74 294.882 185.433 293.858 185.988C292.855 186.521 291.693 186.788 290.37 186.788C288.877 186.788 287.511 186.404 286.274 185.636C285.058 184.868 284.087 183.791 283.362 182.404C282.658 180.996 282.306 179.385 282.306 177.572ZM296.258 177.636C296.258 176.548 296.045 175.62 295.618 174.852C295.191 174.063 294.615 173.465 293.89 173.06C293.165 172.633 292.386 172.42 291.554 172.42C290.722 172.42 289.954 172.623 289.25 173.028C288.546 173.433 287.97 174.031 287.522 174.82C287.095 175.588 286.882 176.505 286.882 177.572C286.882 178.639 287.095 179.577 287.522 180.388C287.97 181.177 288.546 181.785 289.25 182.212C289.975 182.639 290.743 182.852 291.554 182.852C292.386 182.852 293.165 182.649 293.89 182.244C294.615 181.817 295.191 181.22 295.618 180.452C296.045 179.663 296.258 178.724 296.258 177.636ZM309.626 162.82V186.5H305.146V162.82H309.626ZM316.324 166.66C315.534 166.66 314.873 166.415 314.34 165.924C313.828 165.412 313.572 164.783 313.572 164.036C313.572 163.289 313.828 162.671 314.34 162.18C314.873 161.668 315.534 161.412 316.324 161.412C317.113 161.412 317.764 161.668 318.276 162.18C318.809 162.671 319.076 163.289 319.076 164.036C319.076 164.783 318.809 165.412 318.276 165.924C317.764 166.415 317.113 166.66 316.324 166.66ZM318.532 168.772V186.5H314.052V168.772H318.532ZM328.174 172.452V181.028C328.174 181.625 328.313 182.063 328.59 182.34C328.889 182.596 329.379 182.724 330.062 182.724H332.142V186.5H329.326C325.55 186.5 323.662 184.665 323.662 180.996V172.452H321.55V168.772H323.662V164.388H328.174V168.772H332.142V172.452H328.174ZM352.324 168.772L341.348 194.884H336.58L340.42 186.052L333.316 168.772H338.34L342.916 181.156L347.556 168.772H352.324Z" fill="#001B72"/>
<defs>
<filter id="filter0_d_306_2908" x="90.5156" y="131.539" width="86.2754" height="61.8104" filterUnits="userSpaceOnUse" color-interpolation-filters="sRGB">
<feFlood flood-opacity="0" result="BackgroundImageFix"/>
<feColorMatrix in="SourceAlpha" type="matrix" values="0 0 0 0 0 0 0 0 0 0 0 0 0 0 0 0 0 0 127 0" result="hardAlpha"/>
<feOffset dy="15"/>
<feGaussianBlur stdDeviation="7.5"/>
<feComposite in2="hardAlpha" operator="out"/>
<feColorMatrix type="matrix" values="0 0 0 0 0 0 0 0 0 0 0 0 0 0 0 0 0 0 0.25 0"/>
<feBlend mode="normal" in2="BackgroundImageFix" result="effect1_dropShadow_306_2908"/>
<feBlend mode="normal" in="SourceGraphic" in2="effect1_dropShadow_306_2908" result="shape"/>
</filter>
</defs>
</svg>
